<?xml version="1.0" encoding="UTF-8"?>
<!DOCTYPE svg PUBLIC "-//W3C//DTD SVG 1.1//EN" "http://www.w3.org/Graphics/SVG/1.1/DTD/svg11.dtd">
<svg xmlns="http://www.w3.org/2000/svg" version="1.1" width="96px" height="96px" style="shape-rendering:geometricPrecision; text-rendering:geometricPrecision; image-rendering:optimizeQuality; fill-rule:evenodd; clip-rule:evenodd" xmlns:xlink="http://www.w3.org/1999/xlink">
<g><path style="opacity:1" fill="#525d36" d="M 2.5,2.5 C 32.5,2.5 62.5,2.5 92.5,2.5C 92.5,32.5 92.5,62.5 92.5,92.5C 62.5,92.5 32.5,92.5 2.5,92.5C 2.5,62.5 2.5,32.5 2.5,2.5 Z"/></g>
<g><path style="opacity:1" fill="#748054" d="M 3.5,3.5 C 32.8333,3.5 62.1667,3.5 91.5,3.5C 91.5,32.8333 91.5,62.1667 91.5,91.5C 62.1667,91.5 32.8333,91.5 3.5,91.5C 3.5,62.1667 3.5,32.8333 3.5,3.5 Z"/></g>
<g><path style="opacity:1" fill="#7d8a5e" d="M 4.5,4.5 C 33.1667,4.5 61.8333,4.5 90.5,4.5C 90.5,33.1667 90.5,61.8333 90.5,90.5C 61.8333,90.5 33.1667,90.5 4.5,90.5C 4.5,61.8333 4.5,33.1667 4.5,4.5 Z"/></g>
<g><path style="opacity:1" fill="#f7f8f6" d="M 76.5,24.5 C 72.6546,24.5559 68.6546,24.8892 64.5,25.5C 63.8075,26.5178 63.1408,27.5178 62.5,28.5C 58.461,34.0083 56.7943,33.0083 57.5,25.5C 57.719,24.325 57.3857,23.325 56.5,22.5C 54.4595,21.7643 52.4595,20.9309 50.5,20C 53,18.1667 55.5,16.3333 58,14.5C 58.8333,11.5 59.6667,8.5 60.5,5.5C 62.3159,6.81489 63.9825,8.31489 65.5,10C 68.5071,10.3013 71.5071,10.1346 74.5,9.5C 74.1336,11.905 73.4669,14.2383 72.5,16.5C 73.8285,19.1569 75.1618,21.8236 76.5,24.5 Z"/></g>
<g><path style="opacity:1" fill="#b3baa2" d="M 26.5,37.5 C 25.834,34.6417 25.1674,31.6417 24.5,28.5C 23.8182,29.2427 23.1515,29.9094 22.5,30.5C 22.4606,29.4168 22.1272,28.4168 21.5,27.5C 18.8929,26.6816 16.2263,26.1816 13.5,26C 12.6198,24.6439 12.2865,23.1439 12.5,21.5C 15.1873,21.6641 17.854,21.4974 20.5,21C 21.8932,19.8289 22.7265,18.3289 23,16.5C 23.7247,15.9415 24.5581,15.6082 25.5,15.5C 30.1721,18.8382 35.1721,21.6715 40.5,24C 41.3802,25.3561 41.7135,26.8561 41.5,28.5C 35.6665,27.3373 32.9998,29.6706 33.5,35.5C 30.4532,36.1446 28.2865,35.1446 27,32.5C 26.5065,34.1341 26.3398,35.8008 26.5,37.5 Z"/></g>
<g><path style="opacity:1" fill="#d8dbd0" d="M 31.5,24.5 C 28.9899,24.9465 26.9899,24.2798 25.5,22.5C 26.1319,19.5081 27.7985,18.8414 30.5,20.5C 31.4287,21.6888 31.762,23.0222 31.5,24.5 Z"/></g>
<g><path style="opacity:1" fill="#909a79" d="M 25.5,22.5 C 26.9899,24.2798 28.9899,24.9465 31.5,24.5C 32.7383,24.81 32.7383,25.31 31.5,26C 26.6466,27.1296 24.1466,25.2962 24,20.5C 24.2784,21.4158 24.7784,22.0825 25.5,22.5 Z"/></g>
<g><path style="opacity:1" fill="#f8f8f6" d="M 26.5,37.5 C 26.5,38.1667 26.8333,38.5 27.5,38.5C 28.4293,39.3149 29.4293,40.1482 30.5,41C 28.7669,42.1889 27.1002,43.3556 25.5,44.5C 24.1667,45.8333 24.1667,47.1667 25.5,48.5C 25.8134,51.2469 25.48,53.9135 24.5,56.5C 23.8182,55.7573 23.1515,55.0906 22.5,54.5C 20.9402,52.0465 19.9402,49.3798 19.5,46.5C 17.4471,46.4021 15.7804,47.0687 14.5,48.5C 12.4884,49.0138 10.4884,49.1805 8.5,49C 11.7016,45.4325 13.3683,41.2659 13.5,36.5C 15.1561,34.9397 17.1561,33.9397 19.5,33.5C 20.7281,32.6935 21.7281,31.6935 22.5,30.5C 23.1515,29.9094 23.8182,29.2427 24.5,28.5C 25.1674,31.6417 25.834,34.6417 26.5,37.5 Z"/></g>
<g><path style="opacity:1" fill="#e9eae3" d="M 56.5,25.5 C 56.8333,25.5 57.1667,25.5 57.5,25.5C 56.7943,33.0083 58.461,34.0083 62.5,28.5C 66.1322,28.7987 68.1322,30.7987 68.5,34.5C 67.5081,36.0265 66.0081,36.6932 64,36.5C 61.5582,36.5177 59.3915,35.851 57.5,34.5C 56.5655,33.4324 56.2322,32.099 56.5,30.5C 56.5,28.8333 56.5,27.1667 56.5,25.5 Z"/></g>
<g><path style="opacity:1" fill="#c0c6b1" d="M 76.5,24.5 C 77.4778,24.811 78.1445,25.4777 78.5,26.5C 76.8647,27.6808 75.198,27.6808 73.5,26.5C 73.1667,27.1667 72.8333,27.8333 72.5,28.5C 73.9371,30.5771 74.6038,32.9105 74.5,35.5C 77.8599,35.6159 81.1933,35.9492 84.5,36.5C 84.5,38.1667 84.5,39.8333 84.5,41.5C 80.4862,41.3345 76.4862,41.5012 72.5,42C 70.5839,43.8173 68.2506,44.984 65.5,45.5C 63.7266,50.0195 60.3932,51.6862 55.5,50.5C 55.8059,46.2527 55.1392,42.2527 53.5,38.5C 50.4824,38.2962 47.4824,37.9629 44.5,37.5C 44.3573,35.7376 44.6906,34.0709 45.5,32.5C 49.2039,31.7668 52.8705,31.1002 56.5,30.5C 56.2322,32.099 56.5655,33.4324 57.5,34.5C 58.5153,37.4359 60.682,38.7693 64,38.5C 69.3131,38.8602 71.3131,36.5269 70,31.5C 69.7679,32.7375 69.2679,33.7375 68.5,34.5C 68.1322,30.7987 66.1322,28.7987 62.5,28.5C 63.1408,27.5178 63.8075,26.5178 64.5,25.5C 68.6546,24.8892 72.6546,24.5559 76.5,24.5 Z"/></g>
<g><path style="opacity:1" fill="#9aa877" d="M 56.5,25.5 C 56.5,27.1667 56.5,28.8333 56.5,30.5C 52.8705,31.1002 49.2039,31.7668 45.5,32.5C 44.6906,34.0709 44.3573,35.7376 44.5,37.5C 39.0519,39.2693 34.7185,42.6026 31.5,47.5C 29.5,47.5 27.5,47.5 25.5,47.5C 25.5,46.5 25.5,45.5 25.5,44.5C 27.1002,43.3556 28.7669,42.1889 30.5,41C 29.4293,40.1482 28.4293,39.3149 27.5,38.5C 36.6865,33.4128 46.3531,29.0795 56.5,25.5 Z"/></g>
<g><path style="opacity:1" fill="#c2c8b4" d="M 19.5,33.5 C 17.1561,33.9397 15.1561,34.9397 13.5,36.5C 12.596,35.791 12.2627,34.791 12.5,33.5C 14.8333,33.5 17.1667,33.5 19.5,33.5 Z"/></g>
<g><path style="opacity:1" fill="#86906c" d="M 57.5,34.5 C 59.3915,35.851 61.5582,36.5177 64,36.5C 66.0081,36.6932 67.5081,36.0265 68.5,34.5C 69.2679,33.7375 69.7679,32.7375 70,31.5C 71.3131,36.5269 69.3131,38.8602 64,38.5C 60.682,38.7693 58.5153,37.4359 57.5,34.5 Z"/></g>
<g><path style="opacity:1" fill="#9ba878" d="M 22.5,54.5 C 22.2451,56.9674 21.2451,58.9674 19.5,60.5C 16.7628,60.4013 14.0961,60.7347 11.5,61.5C 11.5074,56.8175 13.174,52.8175 16.5,49.5C 16.0431,48.7025 15.3764,48.3691 14.5,48.5C 15.7804,47.0687 17.4471,46.4021 19.5,46.5C 19.9402,49.3798 20.9402,52.0465 22.5,54.5 Z"/></g>
<g><path style="opacity:1" fill="#f8f9f7" d="M 69.5,61.5 C 71.5145,62.9238 73.8478,63.5905 76.5,63.5C 77.7733,64.0768 77.7733,64.7435 76.5,65.5C 74.2011,66.6351 72.0344,67.9684 70,69.5C 69.8078,71.5767 69.3078,73.5767 68.5,75.5C 66.0204,72.4633 63.0204,71.7966 59.5,73.5C 58.6618,73.1583 58.3284,72.4916 58.5,71.5C 58.2627,70.209 58.596,69.209 59.5,68.5C 60.5983,67.3991 60.765,66.0657 60,64.5C 58.8333,62.8333 57.6667,61.1667 56.5,59.5C 58.9162,59.3745 61.2496,59.0411 63.5,58.5C 64.1792,55.2932 65.3459,52.2932 67,49.5C 67.7054,53.6653 68.5387,57.6653 69.5,61.5 Z"/></g>
<g><path style="opacity:1" fill="#fcfcfb" d="M 43.5,55.5 C 43.9465,58.0101 43.2798,60.0101 41.5,61.5C 38.1667,61.5 34.8333,61.5 31.5,61.5C 29.9192,59.8583 29.2525,57.8583 29.5,55.5C 34.1667,52.8333 38.8333,52.8333 43.5,55.5 Z"/></g>
<g><path style="opacity:1" fill="#cdd2c0" d="M 25.5,44.5 C 25.5,45.5 25.5,46.5 25.5,47.5C 27.5,47.5 29.5,47.5 31.5,47.5C 31.9528,48.4584 32.6195,49.2917 33.5,50C 39.2907,50.0633 44.2907,52.0633 48.5,56C 53.7128,56.0701 58.7128,56.9034 63.5,58.5C 61.2496,59.0411 58.9162,59.3745 56.5,59.5C 57.6667,61.1667 58.8333,62.8333 60,64.5C 60.765,66.0657 60.5983,67.3991 59.5,68.5C 59.5,67.5 59.5,66.5 59.5,65.5C 57.1667,65.5 54.8333,65.5 52.5,65.5C 52.4871,68.6903 51.4871,71.5237 49.5,74C 50.6868,76.7236 51.3535,79.5569 51.5,82.5C 48.5569,82.6465 45.7236,83.3132 43,84.5C 41.4009,83.9293 40.2342,82.9293 39.5,81.5C 38.294,77.356 35.6274,75.0227 31.5,74.5C 33.1992,74.6602 34.8659,74.4935 36.5,74C 35.9721,70.9509 34.9721,68.1176 33.5,65.5C 37.3076,65.8368 40.9743,65.3368 44.5,64C 47.2554,60.6926 47.0887,57.5259 44,54.5C 43.6012,54.7284 43.4346,55.0618 43.5,55.5C 38.8333,52.8333 34.1667,52.8333 29.5,55.5C 29.0623,54.4937 28.3957,54.4937 27.5,55.5C 27.5861,53.323 28.2528,51.323 29.5,49.5C 28.3112,48.5713 26.9778,48.238 25.5,48.5C 24.1667,47.1667 24.1667,45.8333 25.5,44.5 Z"/></g>
<g><path style="opacity:1" fill="#d5dbc8" d="M 25.5,48.5 C 26.9778,48.238 28.3112,48.5713 29.5,49.5C 28.2528,51.323 27.5861,53.323 27.5,55.5C 25.8719,60.9007 27.8719,64.2341 33.5,65.5C 34.9721,68.1176 35.9721,70.9509 36.5,74C 34.8659,74.4935 33.1992,74.6602 31.5,74.5C 28.6737,74.0023 26.3403,72.6689 24.5,70.5C 21.3586,69.6787 18.0252,69.1787 14.5,69C 12.9837,67.103 12.317,64.9363 12.5,62.5C 15.0673,62.2785 17.4006,61.6118 19.5,60.5C 21.2451,58.9674 22.2451,56.9674 22.5,54.5C 23.1515,55.0906 23.8182,55.7573 24.5,56.5C 25.48,53.9135 25.8134,51.2469 25.5,48.5 Z"/></g>
<g><path style="opacity:1" fill="#a9b195" d="M 69.5,61.5 C 72.2282,61.1706 74.5615,61.8372 76.5,63.5C 73.8478,63.5905 71.5145,62.9238 69.5,61.5 Z"/></g>
<g><path style="opacity:1" fill="#c8ceb8" d="M 19.5,60.5 C 17.4006,61.6118 15.0673,62.2785 12.5,62.5C 12.317,64.9363 12.9837,67.103 14.5,69C 18.0252,69.1787 21.3586,69.6787 24.5,70.5C 19.5,70.5 14.5,70.5 9.5,70.5C 6.3712,66.46 7.03787,63.46 11.5,61.5C 14.0961,60.7347 16.7628,60.4013 19.5,60.5 Z"/></g>
<g><path style="opacity:1" fill="#858e6c" d="M 29.5,55.5 C 29.2525,57.8583 29.9192,59.8583 31.5,61.5C 34.8333,64.1667 38.1667,64.1667 41.5,61.5C 43.2798,60.0101 43.9465,58.0101 43.5,55.5C 43.4346,55.0618 43.6012,54.7284 44,54.5C 47.0887,57.5259 47.2554,60.6926 44.5,64C 40.9743,65.3368 37.3076,65.8368 33.5,65.5C 27.8719,64.2341 25.8719,60.9007 27.5,55.5C 28.3957,54.4937 29.0623,54.4937 29.5,55.5 Z"/></g>
<g><path style="opacity:1" fill="#d4d7cd" d="M 31.5,61.5 C 34.8333,61.5 38.1667,61.5 41.5,61.5C 38.1667,64.1667 34.8333,64.1667 31.5,61.5 Z"/></g>
<g><path style="opacity:1" fill="#9ca97a" d="M 9.5,70.5 C 14.5,70.5 19.5,70.5 24.5,70.5C 26.3403,72.6689 28.6737,74.0023 31.5,74.5C 35.6274,75.0227 38.294,77.356 39.5,81.5C 31.8747,79.0496 24.5413,75.8829 17.5,72C 14.6353,71.8171 11.9686,71.3171 9.5,70.5 Z"/></g>
<g><path style="opacity:1" fill="#bfc4b1" d="M 58.5,71.5 C 58.3284,72.4916 58.6618,73.1583 59.5,73.5C 58.6977,74.8847 58.0311,74.718 57.5,73C 57.5699,72.2352 57.9033,71.7352 58.5,71.5 Z"/></g>
</svg>
