<?xml version="1.0" encoding="UTF-8"?>
<!DOCTYPE svg PUBLIC "-//W3C//DTD SVG 1.1//EN" "http://www.w3.org/Graphics/SVG/1.1/DTD/svg11.dtd">
<svg xmlns="http://www.w3.org/2000/svg" version="1.1" width="96px" height="96px" style="shape-rendering:geometricPrecision; text-rendering:geometricPrecision; image-rendering:optimizeQuality; fill-rule:evenodd; clip-rule:evenodd" xmlns:xlink="http://www.w3.org/1999/xlink">
<g><path style="opacity:1" fill="#525d36" d="M 2.5,2.5 C 32.5,2.5 62.5,2.5 92.5,2.5C 92.5,32.5 92.5,62.5 92.5,92.5C 62.5,92.5 32.5,92.5 2.5,92.5C 2.5,62.5 2.5,32.5 2.5,2.5 Z"/></g>
<g><path style="opacity:1" fill="#748054" d="M 3.5,3.5 C 32.8333,3.5 62.1667,3.5 91.5,3.5C 91.5,32.8333 91.5,62.1667 91.5,91.5C 62.1667,91.5 32.8333,91.5 3.5,91.5C 3.5,62.1667 3.5,32.8333 3.5,3.5 Z"/></g>
<g><path style="opacity:1" fill="#7c895d" d="M 4.5,4.5 C 33.1667,4.5 61.8333,4.5 90.5,4.5C 90.5,33.1667 90.5,61.8333 90.5,90.5C 61.8333,90.5 33.1667,90.5 4.5,90.5C 4.5,61.8333 4.5,33.1667 4.5,4.5 Z"/></g>
<g><path style="opacity:1" fill="#b4baa2" d="M 31.5,18.5 C 29.7085,18.366 28.0418,18.6993 26.5,19.5C 26.44,18.9569 26.1067,18.6236 25.5,18.5C 24.2274,22.4245 25.7274,24.7578 30,25.5C 32.8308,25.1553 34.9975,23.822 36.5,21.5C 40.1382,21.4467 42.1382,23.1134 42.5,26.5C 36.7316,26.0249 34.0649,28.6916 34.5,34.5C 30.8384,35.3629 28.6718,34.0296 28,30.5C 25.8627,29.5214 24.0294,28.1881 22.5,26.5C 19.8333,25.8333 17.1667,25.1667 14.5,24.5C 13.7542,23.2638 13.4208,21.9305 13.5,20.5C 16.1873,20.6641 18.854,20.4974 21.5,20C 22.8932,18.8289 23.7265,17.3289 24,15.5C 27.5293,13.8527 30.0293,14.8527 31.5,18.5 Z"/></g>
<g><path style="opacity:1" fill="#97a080" d="M 26.5,19.5 C 27.8987,23.7652 30.2321,24.4319 33.5,21.5C 32.8075,20.4822 32.1408,19.4822 31.5,18.5C 33.674,18.7497 35.3406,19.7497 36.5,21.5C 34.9975,23.822 32.8308,25.1553 30,25.5C 25.7274,24.7578 24.2274,22.4245 25.5,18.5C 26.1067,18.6236 26.44,18.9569 26.5,19.5 Z"/></g>
<g><path style="opacity:1" fill="#d7dace" d="M 31.5,18.5 C 32.1408,19.4822 32.8075,20.4822 33.5,21.5C 30.2321,24.4319 27.8987,23.7652 26.5,19.5C 28.0418,18.6993 29.7085,18.366 31.5,18.5 Z"/></g>
<g><path style="opacity:1" fill="#bfc5b0" d="M 66.5,24.5 C 68.8333,24.5 71.1667,24.5 73.5,24.5C 73.3792,32.5566 77.3792,36.2233 85.5,35.5C 85.5,37.1667 85.5,38.8333 85.5,40.5C 81.4862,40.3345 77.4862,40.5012 73.5,41C 71.5839,42.8173 69.2506,43.984 66.5,44.5C 64.7266,49.0195 61.3932,50.6862 56.5,49.5C 56.8059,45.2527 56.1392,41.2527 54.5,37.5C 51.5448,36.8413 48.5448,36.5079 45.5,36.5C 45.178,34.2776 45.8446,32.4443 47.5,31C 50.5,30.6667 53.5,30.3333 56.5,30C 57.1667,29.3333 57.8333,28.6667 58.5,28C 60.8907,27.7132 63.2241,27.2132 65.5,26.5C 66.2975,26.0431 66.6309,25.3764 66.5,24.5 Z"/></g>
<g><path style="opacity:1" fill="#f0f1ec" d="M 68.5,34.5 C 65.7628,34.5987 63.0961,34.2653 60.5,33.5C 59.7553,30.0696 61.0886,28.403 64.5,28.5C 68.8746,28.5952 70.208,30.5952 68.5,34.5 Z"/></g>
<g><path style="opacity:1" fill="#89926f" d="M 60.5,33.5 C 61.4919,35.0265 62.9919,35.6932 65,35.5C 66.3847,35.4857 67.5514,35.1524 68.5,34.5C 69.9432,33.6649 70.9432,32.3316 71.5,30.5C 73.1123,33.7529 72.1123,35.9196 68.5,37C 63.1284,38.7375 59.4617,37.0709 57.5,32C 57.6301,30.9412 58.1301,30.1079 59,29.5C 59.21,31.0581 59.71,32.3915 60.5,33.5 Z"/></g>
<g><path style="opacity:1" fill="#c4c8b8" d="M 60.5,33.5 C 63.0961,34.2653 65.7628,34.5987 68.5,34.5C 67.5514,35.1524 66.3847,35.4857 65,35.5C 62.9919,35.6932 61.4919,35.0265 60.5,33.5 Z"/></g>
<g><path style="opacity:1" fill="#ced3c1" d="M 34.5,48.5 C 34.5858,49.4959 34.2524,50.3292 33.5,51C 36.3647,51.1829 39.0314,51.6829 41.5,52.5C 37.5863,52.1113 33.9196,52.7779 30.5,54.5C 30.5654,54.0618 30.3988,53.7284 30,53.5C 26.7993,56.4175 26.7993,59.4175 30,62.5C 34.6606,64.7259 39.4939,65.0592 44.5,63.5C 46.9864,61.422 47.9864,58.7553 47.5,55.5C 47.5,54.8333 47.8333,54.5 48.5,54.5C 53.0836,55.2773 57.7503,55.7773 62.5,56C 65.0414,57.8484 66.0414,60.3484 65.5,63.5C 62.4816,63.3354 59.4816,63.502 56.5,64C 54.1877,66.4164 52.521,69.2498 51.5,72.5C 52.5856,75.4196 53.2523,78.4196 53.5,81.5C 50.3992,81.6917 47.3992,82.3584 44.5,83.5C 41.7052,81.2486 39.3719,78.5819 37.5,75.5C 35.0284,74.1038 32.3617,73.2704 29.5,73C 28.2949,71.6244 26.9616,70.4577 25.5,69.5C 20.6727,68.7069 15.6727,68.7069 10.5,69.5C 8.45539,67.3035 8.12205,64.9702 9.5,62.5C 13.8415,61.8075 18.1748,60.9741 22.5,60C 23.3802,58.6439 23.7135,57.1439 23.5,55.5C 25.2419,52.8555 25.9086,49.8555 25.5,46.5C 28.1873,46.3359 30.854,46.5026 33.5,47C 34.056,47.3826 34.3893,47.8826 34.5,48.5 Z"/></g>
<g><path style="opacity:1" fill="#b4baa3" d="M 34.5,48.5 C 37.8221,49.2234 41.1555,50.0567 44.5,51C 46.3237,51.66 47.657,52.8267 48.5,54.5C 47.8333,54.5 47.5,54.8333 47.5,55.5C 46.8826,55.3893 46.3826,55.056 46,54.5C 45.79,56.0581 45.29,57.3915 44.5,58.5C 44.9717,55.6421 43.9717,53.6421 41.5,52.5C 39.0314,51.6829 36.3647,51.1829 33.5,51C 34.2524,50.3292 34.5858,49.4959 34.5,48.5 Z"/></g>
<g><path style="opacity:1" fill="#fafaf9" d="M 41.5,52.5 C 43.9717,53.6421 44.9717,55.6421 44.5,58.5C 43.9423,59.7899 42.9423,60.6232 41.5,61C 34.9251,63.2761 31.2584,61.1094 30.5,54.5C 33.9196,52.7779 37.5863,52.1113 41.5,52.5 Z"/></g>
<g><path style="opacity:1" fill="#b5bca2" d="M 23.5,55.5 C 23.7135,57.1439 23.3802,58.6439 22.5,60C 18.1748,60.9741 13.8415,61.8075 9.5,62.5C 9.61071,61.8826 9.94404,61.3826 10.5,61C 14.147,60.2255 17.8136,59.5588 21.5,59C 22.0848,57.6976 22.7515,56.531 23.5,55.5 Z"/></g>
<g><path style="opacity:1" fill="#858e6c" d="M 30.5,54.5 C 31.2584,61.1094 34.9251,63.2761 41.5,61C 42.9423,60.6232 43.9423,59.7899 44.5,58.5C 45.29,57.3915 45.79,56.0581 46,54.5C 46.3826,55.056 46.8826,55.3893 47.5,55.5C 47.9864,58.7553 46.9864,61.422 44.5,63.5C 39.4939,65.0592 34.6606,64.7259 30,62.5C 26.7993,59.4175 26.7993,56.4175 30,53.5C 30.3988,53.7284 30.5654,54.0618 30.5,54.5 Z"/></g>
<g><path style="opacity:1" fill="#9aa381" d="M 25.5,69.5 C 20.3554,70.6907 15.3554,70.6907 10.5,69.5C 15.6727,68.7069 20.6727,68.7069 25.5,69.5 Z"/></g>
</svg>
