<?xml version="1.0" encoding="UTF-8"?>
<!DOCTYPE svg PUBLIC "-//W3C//DTD SVG 1.1//EN" "http://www.w3.org/Graphics/SVG/1.1/DTD/svg11.dtd">
<svg xmlns="http://www.w3.org/2000/svg" version="1.1" width="96px" height="96px" style="shape-rendering:geometricPrecision; text-rendering:geometricPrecision; image-rendering:optimizeQuality; fill-rule:evenodd; clip-rule:evenodd" xmlns:xlink="http://www.w3.org/1999/xlink">
<g><path style="opacity:1" fill="#380501" d="M 2.5,2.5 C 32.5,2.5 62.5,2.5 92.5,2.5C 92.5,32.5 92.5,62.5 92.5,92.5C 62.5,92.5 32.5,92.5 2.5,92.5C 2.5,62.5 2.5,32.5 2.5,2.5 Z"/></g>
<g><path style="opacity:1" fill="#61423b" d="M 90.5,4.5 C 91.8333,33.1667 91.8333,61.8333 90.5,90.5C 61.8333,90.5 33.1667,90.5 4.5,90.5C 4.5,61.8333 4.5,33.1667 4.5,4.5C 33.1667,4.5 61.8333,4.5 90.5,4.5 Z"/></g>
<g><path style="opacity:1" fill="#4f2b23" d="M 90.5,4.5 C 61.8333,4.5 33.1667,4.5 4.5,4.5C 4.5,33.1667 4.5,61.8333 4.5,90.5C 33.1667,90.5 61.8333,90.5 90.5,90.5C 61.6715,91.498 32.6715,91.8314 3.5,91.5C 3.5,62.1667 3.5,32.8333 3.5,3.5C 32.6715,3.16863 61.6715,3.50197 90.5,4.5 Z"/></g>
<g><path style="opacity:1" fill="#6a4c46" d="M 5.5,5.5 C 33.5,5.5 61.5,5.5 89.5,5.5C 89.5,33.5 89.5,61.5 89.5,89.5C 61.5,89.5 33.5,89.5 5.5,89.5C 5.5,61.5 5.5,33.5 5.5,5.5 Z"/></g>
<g><path style="opacity:1" fill="#ae9f9c" d="M 42.5,25.5 C 40.4352,25.5172 38.4352,25.8505 36.5,26.5C 37.1342,25.0532 38.3009,24.3866 40,24.5C 41.0698,24.528 41.9032,24.8614 42.5,25.5 Z"/></g>
<g><path style="opacity:1" fill="#b8aba9" d="M 42.5,25.5 C 48.6008,26.1284 54.6008,26.7951 60.5,27.5C 54.0738,28.12 48.0738,27.4533 42.5,25.5 Z"/></g>
<g><path style="opacity:1" fill="#f5f3f3" d="M 42.5,25.5 C 48.0738,27.4533 54.0738,28.12 60.5,27.5C 65.5701,27.9113 70.4034,29.2446 75,31.5C 77.7866,30.4826 80.62,30.3159 83.5,31C 84.8228,31.8159 85.4894,32.9826 85.5,34.5C 83.3352,34.1159 81.6685,34.7826 80.5,36.5C 82.2622,40.0018 82.7622,43.6684 82,47.5C 79.1169,54.4404 74.1169,59.1071 67,61.5C 66.3333,62.5 66.3333,63.5 67,64.5C 68.6971,66.699 70.1971,69.0324 71.5,71.5C 67.7677,73.06 63.9343,74.3933 60,75.5C 59.228,75.3552 58.5613,75.0219 58,74.5C 57.2352,71.8041 56.0685,69.3041 54.5,67C 46.7821,66.8123 39.1154,66.1456 31.5,65C 28.8333,63.6667 26.1667,62.3333 23.5,61C 21.4962,58.1308 19.1629,55.6308 16.5,53.5C 14.2383,54.4669 11.905,55.1336 9.5,55.5C 8.53862,53.7354 8.20528,51.7354 8.5,49.5C 11.4606,48.6766 14.4606,48.01 17.5,47.5C 20.2757,38.5598 26.2757,32.7265 35.5,30C 36.3366,28.9887 36.67,27.8221 36.5,26.5C 38.4352,25.8505 40.4352,25.5172 42.5,25.5 Z"/></g>
<g><path style="opacity:1" fill="#6d4f4a" d="M 67.5,32.5 C 66.8333,33.1667 66.1667,33.8333 65.5,34.5C 65.5106,36.0174 66.1772,37.1841 67.5,38C 69.8098,38.4966 72.1432,38.6633 74.5,38.5C 75.0068,47.1791 71.1735,53.1791 63,56.5C 61.8371,54.6723 60.1704,53.6723 58,53.5C 54.9816,54.0059 52.1483,55.0059 49.5,56.5C 50.2458,57.7362 50.5792,59.0695 50.5,60.5C 41.0371,61.9208 32.7038,59.5875 25.5,53.5C 26.1047,51.9743 27.2714,50.9743 29,50.5C 29.7796,48.6131 29.6129,46.9464 28.5,45.5C 26.7809,44.9779 25.4475,43.9779 24.5,42.5C 26.6528,38.1826 29.9861,35.0159 34.5,33C 40.5803,32.1193 46.5803,30.9526 52.5,29.5C 57.8535,29.3705 62.8535,30.3705 67.5,32.5 Z"/></g>
<g><path style="opacity:1" fill="#b5a7a4" d="M 67.5,32.5 C 68.0431,32.56 68.3764,32.8933 68.5,33.5C 67.675,34.3857 66.675,34.719 65.5,34.5C 66.1667,33.8333 66.8333,33.1667 67.5,32.5 Z"/></g>
<g><path style="opacity:1" fill="#6b4d47" d="M 7.5,56.5 C 8.49162,56.6716 9.15829,56.3382 9.5,55.5C 11.905,55.1336 14.2383,54.4669 16.5,53.5C 19.1629,55.6308 21.4962,58.1308 23.5,61C 26.1667,62.3333 28.8333,63.6667 31.5,65C 39.1154,66.1456 46.7821,66.8123 54.5,67C 56.0685,69.3041 57.2352,71.8041 58,74.5C 58.5613,75.0219 59.228,75.3552 60,75.5C 63.9343,74.3933 67.7677,73.06 71.5,71.5C 70.1971,69.0324 68.6971,66.699 67,64.5C 66.3333,63.5 66.3333,62.5 67,61.5C 74.1169,59.1071 79.1169,54.4404 82,47.5C 82.7622,43.6684 82.2622,40.0018 80.5,36.5C 81.6685,34.7826 83.3352,34.1159 85.5,34.5C 86.7498,34.4226 87.5831,33.756 88,32.5C 88.4999,51.1637 88.6666,69.8304 88.5,88.5C 61.1667,88.5 33.8333,88.5 6.5,88.5C 6.17225,77.6536 6.50558,66.9869 7.5,56.5 Z"/></g>
<g><path style="opacity:1" fill="#a2908c" d="M 24.5,42.5 C 25.4475,43.9779 26.7809,44.9779 28.5,45.5C 26.8333,45.5 25.1667,45.5 23.5,45.5C 23.2627,44.209 23.596,43.209 24.5,42.5 Z"/></g>
<g><path style="opacity:1" fill="#b4a6a3" d="M 28.5,45.5 C 29.6129,46.9464 29.7796,48.6131 29,50.5C 27.2714,50.9743 26.1047,51.9743 25.5,53.5C 24.596,52.791 24.2627,51.791 24.5,50.5C 27.9103,50.6162 29.2436,48.9496 28.5,45.5 Z"/></g>
<g><path style="opacity:1" fill="#97827e" d="M 8.5,49.5 C 8.20528,51.7354 8.53862,53.7354 9.5,55.5C 9.15829,56.3382 8.49162,56.6716 7.5,56.5C 7.19845,53.9407 7.53178,51.6074 8.5,49.5 Z"/></g>
</svg>
