<?xml version="1.0" encoding="UTF-8"?>
<!DOCTYPE svg PUBLIC "-//W3C//DTD SVG 1.1//EN" "http://www.w3.org/Graphics/SVG/1.1/DTD/svg11.dtd">
<svg xmlns="http://www.w3.org/2000/svg" version="1.1" width="96px" height="96px" style="shape-rendering:geometricPrecision; text-rendering:geometricPrecision; image-rendering:optimizeQuality; fill-rule:evenodd; clip-rule:evenodd" xmlns:xlink="http://www.w3.org/1999/xlink">
<g><path style="opacity:1" fill="#01363e" d="M 2.5,2.5 C 32.5,2.5 62.5,2.5 92.5,2.5C 92.5,32.5 92.5,62.5 92.5,92.5C 62.5,92.5 32.5,92.5 2.5,92.5C 2.5,62.5 2.5,32.5 2.5,2.5 Z"/></g>
<g><path style="opacity:1" fill="#395d64" d="M 3.5,3.5 C 32.8333,3.5 62.1667,3.5 91.5,3.5C 91.5,32.8333 91.5,62.1667 91.5,91.5C 62.1667,91.5 32.8333,91.5 3.5,91.5C 3.5,62.1667 3.5,32.8333 3.5,3.5 Z"/></g>
<g><path style="opacity:1" fill="#47686e" d="M 4.5,4.5 C 33.1667,4.5 61.8333,4.5 90.5,4.5C 90.5,33.1667 90.5,61.8333 90.5,90.5C 61.8333,90.5 33.1667,90.5 4.5,90.5C 4.5,61.8333 4.5,33.1667 4.5,4.5 Z"/></g>
<g><path style="opacity:1" fill="#c7d7db" d="M 71.5,50.5 C 70.3995,51.6049 69.7329,52.9382 69.5,54.5C 68.6364,55.6883 67.6364,56.8549 66.5,58C 62.1891,60.6471 57.8558,62.8137 53.5,64.5C 52.2921,63.7659 50.9587,63.4326 49.5,63.5C 50.355,62.4693 51.0217,61.3026 51.5,60C 50.0868,56.9626 48.9202,53.7959 48,50.5C 42.7538,45.9248 38.2538,40.7581 34.5,35C 33.2068,34.51 31.8734,34.3433 30.5,34.5C 30.2924,32.0799 30.6258,29.7466 31.5,27.5C 35.6645,23.0768 40.6645,20.9101 46.5,21C 48.2166,22.5588 50.2166,23.3921 52.5,23.5C 52.3367,21.1432 52.5034,18.8098 53,16.5C 56.1939,14.5697 59.5272,12.903 63,11.5C 69.2437,17.3812 75.4103,23.3812 81.5,29.5C 87.3447,38.3003 86.0114,45.8003 77.5,52C 75.3111,52.322 73.3111,51.822 71.5,50.5 Z"/></g>
<g><path style="opacity:1" fill="#e6f6fa" d="M 40.5,26.5 C 43.2723,26.5952 45.2723,27.9285 46.5,30.5C 48.9404,28.0778 51.2737,28.0778 53.5,30.5C 52.1667,31.8333 50.8333,33.1667 49.5,34.5C 52.2789,35.6735 52.9455,37.5068 51.5,40C 50.8333,40.6667 50.1667,40.6667 49.5,40C 48.3147,38.647 46.9814,37.4803 45.5,36.5C 41.9223,39.5917 40.0889,38.925 40,34.5C 40.9246,33.9535 41.7579,33.2868 42.5,32.5C 41.5089,31.3348 40.5089,30.1681 39.5,29C 39.7432,28.0979 40.0766,27.2646 40.5,26.5 Z"/></g>
<g><path style="opacity:1" fill="#e5f5f9" d="M 71.5,50.5 C 69.9826,50.4894 68.8159,49.8228 68,48.5C 67.5621,45.624 66.5621,42.9573 65,40.5C 60.0507,35.4287 55.2174,30.262 50.5,25C 51.8333,24.3333 53.1667,24.3333 54.5,25C 59.9771,30.1458 65.1438,35.6458 70,41.5C 70.3057,43.9063 71.139,46.073 72.5,48C 72.2568,48.9021 71.9234,49.7354 71.5,50.5 Z"/></g>
<g><path style="opacity:1" fill="#e7f8fb" d="M 30.5,34.5 C 31.8734,34.3433 33.2068,34.51 34.5,35C 38.2538,40.7581 42.7538,45.9248 48,50.5C 48.9202,53.7959 50.0868,56.9626 51.5,60C 51.0217,61.3026 50.355,62.4693 49.5,63.5C 48.2921,64.2341 46.9587,64.5674 45.5,64.5C 39.4543,57.7896 33.7876,50.7896 28.5,43.5C 28.0914,40.1445 28.7581,37.1445 30.5,34.5 Z"/></g>
<g><path style="opacity:1" fill="#c5d6da" d="M 28.5,43.5 C 33.7876,50.7896 39.4543,57.7896 45.5,64.5C 45.4677,66.8718 45.301,69.5385 45,72.5C 43.7453,73.2106 42.5786,74.044 41.5,75C 36.798,75.8283 32.1313,75.6616 27.5,74.5C 21.3333,66.8333 15.1667,59.1667 9,51.5C 8.17473,47.7887 8.3414,44.122 9.5,40.5C 12.9393,38.6969 16.4393,37.0303 20,35.5C 22.6646,38.3308 25.4979,40.9975 28.5,43.5 Z"/></g>
<g><path style="opacity:1" fill="#e1f1f5" d="M 69.5,54.5 C 73.3931,57.2779 74.7264,60.9445 73.5,65.5C 69.9617,67.7685 66.295,69.7685 62.5,71.5C 61.5,71.3333 60.5,71.1667 59.5,71C 57.9731,68.3098 55.9731,66.1432 53.5,64.5C 57.8558,62.8137 62.1891,60.6471 66.5,58C 67.6364,56.8549 68.6364,55.6883 69.5,54.5 Z"/></g>
</svg>
