<?xml version="1.0" encoding="UTF-8"?>
<!DOCTYPE svg PUBLIC "-//W3C//DTD SVG 1.1//EN" "http://www.w3.org/Graphics/SVG/1.1/DTD/svg11.dtd">
<svg xmlns="http://www.w3.org/2000/svg" version="1.1" width="96px" height="96px" style="shape-rendering:geometricPrecision; text-rendering:geometricPrecision; image-rendering:optimizeQuality; fill-rule:evenodd; clip-rule:evenodd" xmlns:xlink="http://www.w3.org/1999/xlink">
<g><path style="opacity:1" fill="#525d3a" d="M 2.5,2.5 C 32.5,2.5 62.5,2.5 92.5,2.5C 92.5,32.5 92.5,62.5 92.5,92.5C 62.5,92.5 32.5,92.5 2.5,92.5C 2.5,62.5 2.5,32.5 2.5,2.5 Z"/></g>
<g><path style="opacity:1" fill="#748055" d="M 3.5,3.5 C 32.8333,3.5 62.1667,3.5 91.5,3.5C 91.5,32.8333 91.5,62.1667 91.5,91.5C 62.1667,91.5 32.8333,91.5 3.5,91.5C 3.5,62.1667 3.5,32.8333 3.5,3.5 Z"/></g>
<g><path style="opacity:1" fill="#7d8a5d" d="M 4.5,4.5 C 33.1667,4.5 61.8333,4.5 90.5,4.5C 90.5,33.1667 90.5,61.8333 90.5,90.5C 61.8333,90.5 33.1667,90.5 4.5,90.5C 4.5,61.8333 4.5,33.1667 4.5,4.5 Z"/></g>
<g><path style="opacity:1" fill="#eef0eb" d="M 45.5,20.5 C 46.4822,19.8592 47.4822,19.1925 48.5,18.5C 49.1818,19.2427 49.8485,19.9094 50.5,20.5C 51.1667,21.1667 51.8333,21.8333 52.5,22.5C 52.2178,23.7777 51.5511,24.7777 50.5,25.5C 50.44,26.0431 50.1067,26.3764 49.5,26.5C 46.1834,22.4258 43.5167,22.9258 41.5,28C 42.7073,29.3002 43.3739,30.8002 43.5,32.5C 45.0834,41.037 45.9167,49.7036 46,58.5C 47.8356,60.1311 47.3356,60.7978 44.5,60.5C 44.5,61.5 44.5,62.5 44.5,63.5C 44.1667,63.5 43.8333,63.5 43.5,63.5C 42.7777,62.4489 41.7777,61.7822 40.5,61.5C 39.8333,61.5 39.5,61.1667 39.5,60.5C 39.4148,59.0047 40.0815,58.0047 41.5,57.5C 42.8181,50.6778 42.8181,44.0112 41.5,37.5C 41.9699,34.6544 41.1366,32.3211 39,30.5C 38.6012,30.7284 38.4346,31.0618 38.5,31.5C 37.6365,32.463 36.9698,32.463 36.5,31.5C 37.7349,29.6837 37.7349,28.017 36.5,26.5C 33.7096,23.4085 30.3762,22.7418 26.5,24.5C 26.0618,24.5654 25.7284,24.3988 25.5,24C 26.7305,22.5952 28.0639,21.4286 29.5,20.5C 31.908,19.9387 34.2413,19.4387 36.5,19C 37.218,20.9874 38.218,22.8208 39.5,24.5C 41.2459,22.7484 43.2459,21.4151 45.5,20.5 Z"/></g>
<g><path style="opacity:1" fill="#b5bca3" d="M 50.5,20.5 C 49.8485,19.9094 49.1818,19.2427 48.5,18.5C 47.4822,19.1925 46.4822,19.8592 45.5,20.5C 45.8584,18.2988 47.1917,16.9655 49.5,16.5C 50.4287,17.6888 50.762,19.0222 50.5,20.5 Z"/></g>
<g><path style="opacity:1" fill="#808c61" d="M 36.5,26.5 C 34.7276,31.4946 33.0609,36.4946 31.5,41.5C 30.5,41.5 29.5,41.5 28.5,41.5C 28.5,42.8333 28.5,44.1667 28.5,45.5C 29.5,45.5 30.5,45.5 31.5,45.5C 32.2938,54.2502 33.9604,62.9168 36.5,71.5C 31.7891,74.492 27.6224,73.8253 24,69.5C 23.396,66.3969 22.0627,63.7302 20,61.5C 19.5004,54.5079 19.3337,47.5079 19.5,40.5C 20.6778,34.7968 23.0112,29.4634 26.5,24.5C 30.3762,22.7418 33.7096,23.4085 36.5,26.5 Z"/></g>
<g><path style="opacity:1" fill="#808c61" d="M 67.5,24.5 C 69.0746,26.1137 69.7413,28.1137 69.5,30.5C 70.9587,30.4326 72.2921,30.7659 73.5,31.5C 75.7206,36.2321 77.0539,41.2321 77.5,46.5C 77.0431,47.2975 76.3764,47.6309 75.5,47.5C 73.9572,48.7358 72.9572,50.4024 72.5,52.5C 73.325,53.3857 74.325,53.719 75.5,53.5C 75.5,55.5 75.5,57.5 75.5,59.5C 72.7397,63.6871 70.4064,68.1871 68.5,73C 65.0074,74.0037 61.8408,73.5037 59,71.5C 59.1148,67.9887 59.9481,64.6554 61.5,61.5C 62.1174,61.3893 62.6174,61.056 63,60.5C 63.2157,52.964 63.7157,45.464 64.5,38C 64.4301,37.2352 64.0967,36.7352 63.5,36.5C 61.0983,34.6984 59.4316,32.3651 58.5,29.5C 58.2291,27.6203 58.8958,26.287 60.5,25.5C 62.7638,24.7814 65.0971,24.448 67.5,24.5 Z"/></g>
<g><path style="opacity:1" fill="#dfe2d7" d="M 29.5,20.5 C 28.0639,21.4286 26.7305,22.5952 25.5,24C 25.7284,24.3988 26.0618,24.5654 26.5,24.5C 23.0112,29.4634 20.6778,34.7968 19.5,40.5C 19.6621,38.4727 19.4955,36.4727 19,34.5C 18.7645,36.1193 17.9311,37.1193 16.5,37.5C 18.0907,30.9471 21.424,25.4471 26.5,21C 27.448,20.5172 28.448,20.3505 29.5,20.5 Z"/></g>
<g><path style="opacity:1" fill="#dbded2" d="M 36.5,26.5 C 37.7349,28.017 37.7349,29.6837 36.5,31.5C 36.9698,32.463 37.6365,32.463 38.5,31.5C 36.8925,34.9909 35.8925,38.6576 35.5,42.5C 34.7784,42.0825 34.2784,41.4158 34,40.5C 33.2917,41.3805 32.4584,42.0472 31.5,42.5C 31.5,42.1667 31.5,41.8333 31.5,41.5C 33.0609,36.4946 34.7276,31.4946 36.5,26.5 Z"/></g>
<g><path style="opacity:1" fill="#8f9a74" d="M 41.5,37.5 C 40.7321,36.7375 40.2321,35.7375 40,34.5C 38.3707,37.1316 37.8707,39.7983 38.5,42.5C 37.5,42.5 36.5,42.5 35.5,42.5C 35.8925,38.6576 36.8925,34.9909 38.5,31.5C 38.4346,31.0618 38.6012,30.7284 39,30.5C 41.1366,32.3211 41.9699,34.6544 41.5,37.5 Z"/></g>
<g><path style="opacity:1" fill="#9ca585" d="M 63.5,36.5 C 64.0967,36.7352 64.4301,37.2352 64.5,38C 63.7157,45.464 63.2157,52.964 63,60.5C 62.6174,61.056 62.1174,61.3893 61.5,61.5C 62.1337,53.1526 62.8004,44.8193 63.5,36.5 Z"/></g>
<g><path style="opacity:1" fill="#bac1aa" d="M 14.5,38.5 C 16.3275,44.9559 16.9941,51.6226 16.5,58.5C 16.0461,52.3447 15.0461,46.178 13.5,40C 13.5699,39.2352 13.9033,38.7352 14.5,38.5 Z"/></g>
<g><path style="opacity:1" fill="#e8eae3" d="M 78.5,59.5 C 78.6602,57.8008 78.4935,56.1341 78,54.5C 77.8019,56.3817 77.3019,58.0484 76.5,59.5C 76.4955,55.4659 76.1621,51.4659 75.5,47.5C 76.3764,47.6309 77.0431,47.2975 77.5,46.5C 77.0539,41.2321 75.7206,36.2321 73.5,31.5C 73.1788,29.9519 72.1788,29.2852 70.5,29.5C 70.5,27.8333 70.5,26.1667 70.5,24.5C 69.5,24.5 68.5,24.5 67.5,24.5C 66.7261,23.8529 65.7261,23.5195 64.5,23.5C 62.6455,23.3402 61.3121,24.0069 60.5,25.5C 58.8958,26.287 58.2291,27.6203 58.5,29.5C 57.5655,28.4324 57.2322,27.099 57.5,25.5C 56.5,25.5 55.5,25.5 54.5,25.5C 54.2587,27.8863 54.9254,29.8863 56.5,31.5C 54.179,33.0897 53.179,35.4231 53.5,38.5C 52.2886,46.1418 52.2886,53.8084 53.5,61.5C 52.7321,60.7375 52.2321,59.7375 52,58.5C 51.51,59.7932 51.3433,61.1266 51.5,62.5C 50.8333,62.5 50.5,62.1667 50.5,61.5C 49.3191,52.8242 49.3191,44.1576 50.5,35.5C 52.527,32.7938 53.3604,29.7938 53,26.5C 52.3292,25.7476 51.4959,25.4142 50.5,25.5C 51.5511,24.7777 52.2178,23.7777 52.5,22.5C 53.5307,23.355 54.6974,24.0217 56,24.5C 58.6733,22.7458 61.5066,21.4124 64.5,20.5C 68.123,21.6053 71.7897,22.6053 75.5,23.5C 74.0806,26.4952 74.5806,29.1619 77,31.5C 77.8976,35.8213 78.7309,40.1546 79.5,44.5C 80.2256,46.8758 81.5589,48.8758 83.5,50.5C 82.3717,51.2621 81.2051,51.9288 80,52.5C 79.8138,55.0356 79.3138,57.369 78.5,59.5 Z"/></g>
<g><path style="opacity:1" fill="#9da685" d="M 56.5,31.5 C 57.8217,33.8021 57.8217,36.1354 56.5,38.5C 57.6016,39.1757 58.6016,39.8423 59.5,40.5C 57.2821,40.3862 55.2821,39.7196 53.5,38.5C 53.179,35.4231 54.179,33.0897 56.5,31.5 Z"/></g>
<g><path style="opacity:1" fill="#c8cdbd" d="M 67.5,24.5 C 68.5,24.5 69.5,24.5 70.5,24.5C 70.5,26.1667 70.5,27.8333 70.5,29.5C 72.1788,29.2852 73.1788,29.9519 73.5,31.5C 72.2921,30.7659 70.9587,30.4326 69.5,30.5C 69.7413,28.1137 69.0746,26.1137 67.5,24.5 Z"/></g>
<g><path style="opacity:1" fill="#a4ad8e" d="M 67.5,24.5 C 65.0971,24.448 62.7638,24.7814 60.5,25.5C 61.3121,24.0069 62.6455,23.3402 64.5,23.5C 65.7261,23.5195 66.7261,23.8529 67.5,24.5 Z"/></g>
<g><path style="opacity:1" fill="#a3ab8d" d="M 75.5,47.5 C 76.1621,51.4659 76.4955,55.4659 76.5,59.5C 76.1667,59.5 75.8333,59.5 75.5,59.5C 75.5,57.5 75.5,55.5 75.5,53.5C 74.325,53.719 73.325,53.3857 72.5,52.5C 72.9572,50.4024 73.9572,48.7358 75.5,47.5 Z"/></g>
<g><path style="opacity:1" fill="#b0b79e" d="M 43.5,32.5 C 45.1171,33.5893 45.9504,35.256 46,37.5C 46.3333,44.1667 46.6667,50.8333 47,57.5C 48.1882,58.5634 48.6882,59.8967 48.5,61.5C 46.8007,61.5271 45.4674,62.1938 44.5,63.5C 44.5,62.5 44.5,61.5 44.5,60.5C 47.3356,60.7978 47.8356,60.1311 46,58.5C 45.9167,49.7036 45.0834,41.037 43.5,32.5 Z"/></g>
<g><path style="opacity:1" fill="#838f65" d="M 50.5,25.5 C 51.4959,25.4142 52.3292,25.7476 53,26.5C 53.3604,29.7938 52.527,32.7938 50.5,35.5C 48.9926,39.3911 48.3259,43.5578 48.5,48C 48.3657,52.7584 49.0324,57.2584 50.5,61.5C 50.5,62.1667 50.8333,62.5 51.5,62.5C 55.2175,73.1131 51.8842,76.1131 41.5,71.5C 41.6941,68.6703 42.3608,66.0037 43.5,63.5C 43.8333,63.5 44.1667,63.5 44.5,63.5C 45.4674,62.1938 46.8007,61.5271 48.5,61.5C 48.6882,59.8967 48.1882,58.5634 47,57.5C 46.6667,50.8333 46.3333,44.1667 46,37.5C 45.9504,35.256 45.1171,33.5893 43.5,32.5C 43.3739,30.8002 42.7073,29.3002 41.5,28C 43.5167,22.9258 46.1834,22.4258 49.5,26.5C 50.1067,26.3764 50.44,26.0431 50.5,25.5 Z"/></g>
<g><path style="opacity:1" fill="#f3f4f0" d="M 58.5,29.5 C 59.4316,32.3651 61.0983,34.6984 63.5,36.5C 62.8004,44.8193 62.1337,53.1526 61.5,61.5C 59.9481,64.6554 59.1148,67.9887 59,71.5C 61.8408,73.5037 65.0074,74.0037 68.5,73C 70.4064,68.1871 72.7397,63.6871 75.5,59.5C 75.8333,59.5 76.1667,59.5 76.5,59.5C 77.3019,58.0484 77.8019,56.3817 78,54.5C 78.4935,56.1341 78.6602,57.8008 78.5,59.5C 76.8212,62.0121 77.1546,64.0121 79.5,65.5C 79.5,66.5 79.5,67.5 79.5,68.5C 77.5853,68.2155 75.9187,68.5489 74.5,69.5C 74.1667,70.1667 73.8333,70.8333 73.5,71.5C 72.596,72.209 72.2627,73.209 72.5,74.5C 69.4961,75.0886 66.6627,76.0886 64,77.5C 61.3221,76.5767 58.8221,75.2434 56.5,73.5C 53.6128,75.1108 50.6128,76.4441 47.5,77.5C 44.4753,76.5709 41.6419,75.2376 39,73.5C 32.3707,79.2122 26.5374,78.5455 21.5,71.5C 20.9717,70.2794 20.305,69.1127 19.5,68C 17.6874,68.0464 16.0207,67.8797 14.5,67.5C 15.9389,65.7254 16.9389,63.7254 17.5,61.5C 17.4805,60.2739 17.1471,59.2739 16.5,58.5C 16.9941,51.6226 16.3275,44.9559 14.5,38.5C 15.1667,38.1667 15.8333,37.8333 16.5,37.5C 17.9311,37.1193 18.7645,36.1193 19,34.5C 19.4955,36.4727 19.6621,38.4727 19.5,40.5C 19.3337,47.5079 19.5004,54.5079 20,61.5C 22.0627,63.7302 23.396,66.3969 24,69.5C 27.6224,73.8253 31.7891,74.492 36.5,71.5C 37.4345,70.4324 37.7678,69.099 37.5,67.5C 38.5,67.5 39.5,67.5 40.5,67.5C 40.2322,69.099 40.5655,70.4324 41.5,71.5C 51.8842,76.1131 55.2175,73.1131 51.5,62.5C 51.3433,61.1266 51.51,59.7932 52,58.5C 52.2321,59.7375 52.7321,60.7375 53.5,61.5C 54.0464,63.3032 54.8797,64.9698 56,66.5C 56.6667,65.8333 57.3333,65.1667 58,64.5C 59.3215,56.5607 59.8215,48.5607 59.5,40.5C 58.6016,39.8423 57.6016,39.1757 56.5,38.5C 57.8217,36.1354 57.8217,33.8021 56.5,31.5C 54.9254,29.8863 54.2587,27.8863 54.5,25.5C 55.5,25.5 56.5,25.5 57.5,25.5C 57.2322,27.099 57.5655,28.4324 58.5,29.5 Z"/></g>
<g><path style="opacity:1" fill="#a5ae8f" d="M 39.5,60.5 C 39.5,61.1667 39.8333,61.5 40.5,61.5C 41.7058,63.437 41.3725,65.1037 39.5,66.5C 39.0461,64.2589 39.0461,62.2589 39.5,60.5 Z"/></g>
<g><path style="opacity:1" fill="#e7e9e2" d="M 35.5,42.5 C 36.0906,43.1515 36.7573,43.8182 37.5,44.5C 36.2945,46.7927 35.6278,49.2927 35.5,52C 35.4307,56.0947 36.0973,59.9281 37.5,63.5C 38.1667,64.5 38.8333,65.5 39.5,66.5C 41.3725,65.1037 41.7058,63.437 40.5,61.5C 41.7777,61.7822 42.7777,62.4489 43.5,63.5C 42.3608,66.0037 41.6941,68.6703 41.5,71.5C 40.5655,70.4324 40.2322,69.099 40.5,67.5C 39.5,67.5 38.5,67.5 37.5,67.5C 37.7678,69.099 37.4345,70.4324 36.5,71.5C 33.9604,62.9168 32.2938,54.2502 31.5,45.5C 30.375,44.3478 30.375,43.3478 31.5,42.5C 32.4584,42.0472 33.2917,41.3805 34,40.5C 34.2784,41.4158 34.7784,42.0825 35.5,42.5 Z"/></g>
<g><path style="opacity:1" fill="#a3ab8d" d="M 35.5,42.5 C 36.5,42.5 37.5,42.5 38.5,42.5C 39.2178,44.1368 39.3845,45.8034 39,47.5C 38.586,47.0426 38.086,46.7093 37.5,46.5C 37.1667,48.3333 36.8333,50.1667 36.5,52C 36.8896,55.8348 37.223,59.6681 37.5,63.5C 36.0973,59.9281 35.4307,56.0947 35.5,52C 35.6278,49.2927 36.2945,46.7927 37.5,44.5C 36.7573,43.8182 36.0906,43.1515 35.5,42.5 Z"/></g>
<g><path style="opacity:1" fill="#a9b095" d="M 50.5,35.5 C 49.3191,44.1576 49.3191,52.8242 50.5,61.5C 49.0324,57.2584 48.3657,52.7584 48.5,48C 48.3259,43.5578 48.9926,39.3911 50.5,35.5 Z"/></g>
<g><path style="opacity:1" fill="#a6ad91" d="M 31.5,41.5 C 31.5,41.8333 31.5,42.1667 31.5,42.5C 30.375,43.3478 30.375,44.3478 31.5,45.5C 30.5,45.5 29.5,45.5 28.5,45.5C 28.5,44.1667 28.5,42.8333 28.5,41.5C 29.5,41.5 30.5,41.5 31.5,41.5 Z"/></g>
<g><path style="opacity:1" fill="#838f65" d="M 53.5,38.5 C 55.2821,39.7196 57.2821,40.3862 59.5,40.5C 59.8215,48.5607 59.3215,56.5607 58,64.5C 57.3333,65.1667 56.6667,65.8333 56,66.5C 54.8797,64.9698 54.0464,63.3032 53.5,61.5C 52.2886,53.8084 52.2886,46.1418 53.5,38.5 Z"/></g>
<g><path style="opacity:1" fill="#7d8a5d" d="M 41.5,37.5 C 42.8181,44.0112 42.8181,50.6778 41.5,57.5C 40.0815,58.0047 39.4148,59.0047 39.5,60.5C 39.0461,62.2589 39.0461,64.2589 39.5,66.5C 38.8333,65.5 38.1667,64.5 37.5,63.5C 37.223,59.6681 36.8896,55.8348 36.5,52C 36.8333,50.1667 37.1667,48.3333 37.5,46.5C 38.086,46.7093 38.586,47.0426 39,47.5C 39.3845,45.8034 39.2178,44.1368 38.5,42.5C 37.8707,39.7983 38.3707,37.1316 40,34.5C 40.2321,35.7375 40.7321,36.7375 41.5,37.5 Z"/></g>
<g><path style="opacity:1" fill="#c1c6b2" d="M 79.5,65.5 C 80.4345,66.5676 80.7678,67.901 80.5,69.5C 78.5,69.5 76.5,69.5 74.5,69.5C 75.9187,68.5489 77.5853,68.2155 79.5,68.5C 79.5,67.5 79.5,66.5 79.5,65.5 Z"/></g>
<g><path style="opacity:1" fill="#b6bfa0" d="M 21.5,71.5 C 26.5374,78.5455 32.3707,79.2122 39,73.5C 41.6419,75.2376 44.4753,76.5709 47.5,77.5C 50.6128,76.4441 53.6128,75.1108 56.5,73.5C 58.8221,75.2434 61.3221,76.5767 64,77.5C 66.6627,76.0886 69.4961,75.0886 72.5,74.5C 72.2627,73.209 72.596,72.209 73.5,71.5C 77.7587,73.4377 80.7587,76.771 82.5,81.5C 59.5097,82.4997 36.5097,82.8331 13.5,82.5C 13.3505,81.448 13.5172,80.448 14,79.5C 16.2937,76.5267 18.7937,73.86 21.5,71.5 Z"/></g>
</svg>
