<?xml version="1.0" encoding="UTF-8"?>
<!DOCTYPE svg PUBLIC "-//W3C//DTD SVG 1.1//EN" "http://www.w3.org/Graphics/SVG/1.1/DTD/svg11.dtd">
<svg xmlns="http://www.w3.org/2000/svg" version="1.1" width="96px" height="96px" style="shape-rendering:geometricPrecision; text-rendering:geometricPrecision; image-rendering:optimizeQuality; fill-rule:evenodd; clip-rule:evenodd" xmlns:xlink="http://www.w3.org/1999/xlink">
<g><path style="opacity:1" fill="#536132" d="M 2.5,2.5 C 32.5,2.5 62.5,2.5 92.5,2.5C 92.5,32.5 92.5,62.5 92.5,92.5C 62.5,92.5 32.5,92.5 2.5,92.5C 2.5,62.5 2.5,32.5 2.5,2.5 Z"/></g>
<g><path style="opacity:1" fill="#7b885b" d="M 4.5,3.5 C 33.4072,3.1714 62.2405,3.50474 91,4.5C 91.8282,33.4052 91.6616,62.2386 90.5,91C 61.5948,91.8282 32.7614,91.6616 4,90.5C 3.17564,61.4281 3.34231,32.4281 4.5,3.5 Z"/></g>
<g><path style="opacity:1" fill="#d3d8c5" d="M 68.5,20.5 C 68.5,18.8333 68.5,17.1667 68.5,15.5C 64.3568,15.9035 60.3568,16.9035 56.5,18.5C 59.9378,14.6887 64.1045,13.3554 69,14.5C 69.7891,16.7116 69.6225,18.7116 68.5,20.5 Z"/></g>
<g><path style="opacity:1" fill="#fcfcfb" d="M 68.5,20.5 C 68.5,21.1667 68.1667,21.5 67.5,21.5C 66.5207,22.7653 65.5207,24.0986 64.5,25.5C 66.2603,28.2123 66.927,31.2123 66.5,34.5C 61.2869,34.0867 58.6202,36.42 58.5,41.5C 57.8333,41.5 57.5,41.8333 57.5,42.5C 56.596,43.209 56.2627,44.209 56.5,45.5C 59.6352,45.5482 61.3019,47.2148 61.5,50.5C 62.5178,51.1925 63.5178,51.8592 64.5,52.5C 68.0661,53.9028 71.7328,54.9028 75.5,55.5C 73.712,55.2148 72.0453,55.5481 70.5,56.5C 70.8555,57.5223 71.5222,58.189 72.5,58.5C 73.5206,62.104 73.5206,65.7707 72.5,69.5C 69.8252,71.1698 67.1586,72.8365 64.5,74.5C 57.9419,76.0468 51.2753,76.7135 44.5,76.5C 38.4468,74.9485 33.6134,71.6152 30,66.5C 29.1444,60.4975 31.3111,55.8309 36.5,52.5C 37.455,50.7165 38.1217,48.7165 38.5,46.5C 38.2528,45.2867 37.5862,44.62 36.5,44.5C 34.3364,44.2785 32.6697,43.2785 31.5,41.5C 29.0063,38.7467 29.0063,36.08 31.5,33.5C 33.6705,31.9138 36.0038,30.5804 38.5,29.5C 39.6431,29.0919 40.6431,28.4252 41.5,27.5C 40.1738,26.3578 39.1738,25.0245 38.5,23.5C 40.5138,23.3915 42.1805,24.0582 43.5,25.5C 45.5901,27.3902 47.9235,29.0569 50.5,30.5C 53.1117,29.2213 55.4451,27.5547 57.5,25.5C 55.9137,23.8273 55.2471,21.8273 55.5,19.5C 55.5,18.8333 55.8333,18.5 56.5,18.5C 60.3568,16.9035 64.3568,15.9035 68.5,15.5C 68.5,17.1667 68.5,18.8333 68.5,20.5 Z"/></g>
<g><path style="opacity:1" fill="#b8c2a2" d="M 55.5,19.5 C 55.2471,21.8273 55.9137,23.8273 57.5,25.5C 55.4451,27.5547 53.1117,29.2213 50.5,30.5C 47.9235,29.0569 45.5901,27.3902 43.5,25.5C 48.3668,25.0667 52.3668,23.0667 55.5,19.5 Z"/></g>
<g><path style="opacity:1" fill="#a8b092" d="M 67.5,21.5 C 67.5,25.1667 67.5,28.8333 67.5,32.5C 67.6716,33.4916 67.3382,34.1583 66.5,34.5C 66.927,31.2123 66.2603,28.2123 64.5,25.5C 65.5207,24.0986 66.5207,22.7653 67.5,21.5 Z"/></g>
<g><path style="opacity:1" fill="#aab38e" d="M 38.5,23.5 C 39.1738,25.0245 40.1738,26.3578 41.5,27.5C 40.6431,28.4252 39.6431,29.0919 38.5,29.5C 37.7093,27.3093 37.7093,25.3093 38.5,23.5 Z"/></g>
<g><path style="opacity:1" fill="#a1ac87" d="M 74.5,30.5 C 75.6009,29.4017 76.9343,29.235 78.5,30C 80.3187,30.7403 81.6521,31.9069 82.5,33.5C 79.8069,32.4485 77.1402,31.4485 74.5,30.5 Z"/></g>
<g><path style="opacity:1" fill="#c3ccb1" d="M 74.5,30.5 C 74.1667,32.8333 72.8333,34.1667 70.5,34.5C 70.5,34.1667 70.5,33.8333 70.5,33.5C 71.8333,32.5 73.1667,31.5 74.5,30.5 Z"/></g>
<g><path style="opacity:1" fill="#f6f7f3" d="M 74.5,30.5 C 77.1402,31.4485 79.8069,32.4485 82.5,33.5C 82.7691,36.0145 83.7691,38.0145 85.5,39.5C 85.5405,42.8806 85.2071,46.2139 84.5,49.5C 82.6675,50.2485 81.0009,51.2485 79.5,52.5C 78.5318,50.3926 78.1984,48.0593 78.5,45.5C 79.4348,43.1386 80.7682,40.9719 82.5,39C 80.1595,34.1654 76.8261,33.3321 72.5,36.5C 71.8038,39.3568 70.4705,41.8568 68.5,44C 66.9343,44.765 65.6009,44.5983 64.5,43.5C 64.3279,38.9726 66.3279,35.9726 70.5,34.5C 72.8333,34.1667 74.1667,32.8333 74.5,30.5 Z"/></g>
<g><path style="opacity:1" fill="#b9c3a3" d="M 78.5,45.5 C 77.5269,47.9479 77.1936,50.6146 77.5,53.5C 73.1311,53.5328 68.7978,53.1995 64.5,52.5C 63.5178,51.8592 62.5178,51.1925 61.5,50.5C 61.3019,47.2148 59.6352,45.5482 56.5,45.5C 56.2627,44.209 56.596,43.209 57.5,42.5C 57.9704,43.6935 58.9704,44.3601 60.5,44.5C 61.7261,44.4805 62.7261,44.1471 63.5,43.5C 63.8333,43.5 64.1667,43.5 64.5,43.5C 65.6009,44.5983 66.9343,44.765 68.5,44C 70.4705,41.8568 71.8038,39.3568 72.5,36.5C 76.8261,33.3321 80.1595,34.1654 82.5,39C 80.7682,40.9719 79.4348,43.1386 78.5,45.5 Z"/></g>
<g><path style="opacity:1" fill="#a1ac86" d="M 82.5,33.5 C 83.4959,33.4142 84.3292,33.7476 85,34.5C 85.4935,36.1341 85.6602,37.8008 85.5,39.5C 83.7691,38.0145 82.7691,36.0145 82.5,33.5 Z"/></g>
<g><path style="opacity:1" fill="#8c9b6f" d="M 67.5,32.5 C 68.391,33.1098 69.391,33.4431 70.5,33.5C 70.5,33.8333 70.5,34.1667 70.5,34.5C 66.3279,35.9726 64.3279,38.9726 64.5,43.5C 64.1667,43.5 63.8333,43.5 63.5,43.5C 63.8495,40.9552 63.0162,38.9552 61,37.5C 60.8784,39.437 60.045,40.7703 58.5,41.5C 58.6202,36.42 61.2869,34.0867 66.5,34.5C 67.3382,34.1583 67.6716,33.4916 67.5,32.5 Z"/></g>
<g><path style="opacity:1" fill="#768555" d="M 63.5,43.5 C 62.7261,44.1471 61.7261,44.4805 60.5,44.5C 58.9704,44.3601 57.9704,43.6935 57.5,42.5C 57.5,41.8333 57.8333,41.5 58.5,41.5C 60.045,40.7703 60.8784,39.437 61,37.5C 63.0162,38.9552 63.8495,40.9552 63.5,43.5 Z"/></g>
<g><path style="opacity:1" fill="#b4be9c" d="M 31.5,33.5 C 29.0063,36.08 29.0063,38.7467 31.5,41.5C 31.8333,42.8333 32.1667,44.1667 32.5,45.5C 27.2845,46.9312 22.9511,49.5978 19.5,53.5C 19.1667,53.5 18.8333,53.5 18.5,53.5C 16.0911,50.295 12.7577,48.6283 8.5,48.5C 10.6979,47.8347 13.0312,47.1681 15.5,46.5C 19.0725,43.4498 23.0725,40.9498 27.5,39C 28.2266,37.6012 28.7266,36.1012 29,34.5C 29.6708,33.7476 30.5041,33.4142 31.5,33.5 Z"/></g>
<g><path style="opacity:1" fill="#c3cab1" d="M 85.5,39.5 C 86.6378,42.3035 86.8045,45.3035 86,48.5C 85.6174,49.056 85.1174,49.3893 84.5,49.5C 85.2071,46.2139 85.5405,42.8806 85.5,39.5 Z"/></g>
<g><path style="opacity:1" fill="#dae3cd" d="M 31.5,41.5 C 32.6697,43.2785 34.3364,44.2785 36.5,44.5C 35.4324,45.4345 34.099,45.7678 32.5,45.5C 32.1667,44.1667 31.8333,42.8333 31.5,41.5 Z"/></g>
<g><path style="opacity:1" fill="#a8b491" d="M 36.5,44.5 C 37.5862,44.62 38.2528,45.2867 38.5,46.5C 38.1217,48.7165 37.455,50.7165 36.5,52.5C 36.2606,50.5328 36.5939,48.6995 37.5,47C 35.6183,46.8019 33.9516,46.3019 32.5,45.5C 34.099,45.7678 35.4324,45.4345 36.5,44.5 Z"/></g>
<g><path style="opacity:1" fill="#e0e6d6" d="M 78.5,45.5 C 78.1984,48.0593 78.5318,50.3926 79.5,52.5C 78.5637,53.9744 77.2303,54.9744 75.5,55.5C 71.7328,54.9028 68.0661,53.9028 64.5,52.5C 68.7978,53.1995 73.1311,53.5328 77.5,53.5C 77.1936,50.6146 77.5269,47.9479 78.5,45.5 Z"/></g>
<g><path style="opacity:1" fill="#edefe5" d="M 8.5,48.5 C 12.7577,48.6283 16.0911,50.295 18.5,53.5C 17.4766,57.3999 15.1433,58.3999 11.5,56.5C 10.5423,55.0384 9.37561,53.7051 8,52.5C 7.23502,50.9343 7.40168,49.6009 8.5,48.5 Z"/></g>
<g><path style="opacity:1" fill="#c3cbac" d="M 10.5,50.5 C 13.8333,50.5 15.5,52.1667 15.5,55.5C 12.2984,55.4633 10.6317,53.7967 10.5,50.5 Z"/></g>
<g><path style="opacity:1" fill="#d8dfc9" d="M 75.5,55.5 C 74.0998,56.1001 73.0998,57.1001 72.5,58.5C 71.5222,58.189 70.8555,57.5223 70.5,56.5C 72.0453,55.5481 73.712,55.2148 75.5,55.5 Z"/></g>
<g><path style="opacity:1" fill="#9ba680" d="M 18.5,53.5 C 18.8333,53.5 19.1667,53.5 19.5,53.5C 19.5113,56.8221 17.8446,58.4888 14.5,58.5C 12.9704,58.3601 11.9704,57.6935 11.5,56.5C 15.1433,58.3999 17.4766,57.3999 18.5,53.5 Z"/></g>
<g><path style="opacity:1" fill="#b3bc9a" d="M 72.5,69.5 C 70.8413,72.833 68.1746,74.4997 64.5,74.5C 67.1586,72.8365 69.8252,71.1698 72.5,69.5 Z"/></g>
<g><path style="opacity:1" fill="#bdc4a9" d="M 64.5,74.5 C 64.3893,75.1174 64.056,75.6174 63.5,76C 57.0383,77.5439 50.705,77.7105 44.5,76.5C 51.2753,76.7135 57.9419,76.0468 64.5,74.5 Z"/></g>
</svg>
