<?xml version="1.0" encoding="UTF-8"?>
<!DOCTYPE svg PUBLIC "-//W3C//DTD SVG 1.1//EN" "http://www.w3.org/Graphics/SVG/1.1/DTD/svg11.dtd">
<svg xmlns="http://www.w3.org/2000/svg" version="1.1" width="96px" height="96px" style="shape-rendering:geometricPrecision; text-rendering:geometricPrecision; image-rendering:optimizeQuality; fill-rule:evenodd; clip-rule:evenodd" xmlns:xlink="http://www.w3.org/1999/xlink">
<g><path style="opacity:1" fill="#01353a" d="M 2.5,2.5 C 32.5,2.5 62.5,2.5 92.5,2.5C 92.5,32.5 92.5,62.5 92.5,92.5C 62.5,92.5 32.5,92.5 2.5,92.5C 2.5,62.5 2.5,32.5 2.5,2.5 Z"/></g>
<g><path style="opacity:1" fill="#395d63" d="M 4.5,3.5 C 33.4072,3.1714 62.2405,3.50474 91,4.5C 91.8282,33.4052 91.6616,62.2386 90.5,91C 61.5948,91.8282 32.7614,91.6616 4,90.5C 3.17564,61.4281 3.34231,32.4281 4.5,3.5 Z"/></g>
<g><path style="opacity:1" fill="#48686d" d="M 81.5,83.5 C 81.3347,79.8183 81.5014,76.1516 82,72.5C 83.8594,71.3545 84.6927,69.6878 84.5,67.5C 83.5155,63.0435 81.8488,58.8769 79.5,55C 80.7827,53.8643 81.7827,52.531 82.5,51C 81.3207,48.6571 79.6541,46.8238 77.5,45.5C 77.2333,41.4256 75.9,37.7589 73.5,34.5C 68.2418,34.0428 63.2418,33.0428 58.5,31.5C 56.0121,19.1754 48.5121,12.8421 36,12.5C 26.1285,12.2659 19.1285,16.5993 15,25.5C 14.2109,27.7116 14.3775,29.7116 15.5,31.5C 15.082,34.4389 13.582,36.7722 11,38.5C 10.2839,41.4182 10.7839,44.0849 12.5,46.5C 9.1426,52.3955 7.80927,58.7289 8.5,65.5C 7.00613,54.037 6.33947,42.3703 6.5,30.5C 6.5076,22.5907 6.84094,14.7573 7.5,7C 34.1667,6.33333 60.8333,6.33333 87.5,7C 88.327,33.9752 88.4937,60.8085 88,87.5C 86.9505,88.5171 85.7839,88.6838 84.5,88C 84.0853,85.9737 83.0853,84.4737 81.5,83.5 Z"/></g>
<g><path style="opacity:1" fill="#dbecf1" d="M 58.5,31.5 C 54.9657,33.3254 52.6323,32.3254 51.5,28.5C 48.9457,21.2968 43.7791,17.9635 36,18.5C 28.8893,17.686 23.7227,20.3526 20.5,26.5C 19.71,27.6085 19.21,28.9419 19,30.5C 17.9887,31.3366 16.8221,31.67 15.5,31.5C 14.3775,29.7116 14.2109,27.7116 15,25.5C 19.1285,16.5993 26.1285,12.2659 36,12.5C 48.5121,12.8421 56.0121,19.1754 58.5,31.5 Z"/></g>
<g><path style="opacity:1" fill="#4a6a6f" d="M 51.5,28.5 C 50.836,31.0146 49.5026,33.1813 47.5,35C 45.2499,35.6108 43.5832,36.9441 42.5,39C 41.2068,39.49 39.8734,39.6567 38.5,39.5C 38.6495,38.448 38.4828,37.448 38,36.5C 34.2811,34.7902 31.1144,32.2902 28.5,29C 25.8078,28.5702 23.1411,28.7369 20.5,29.5C 20.5,28.5 20.5,27.5 20.5,26.5C 23.7227,20.3526 28.8893,17.686 36,18.5C 43.7791,17.9635 48.9457,21.2968 51.5,28.5 Z"/></g>
<g><path style="opacity:1" fill="#a5b9bb" d="M 20.5,26.5 C 20.5,27.5 20.5,28.5 20.5,29.5C 23.1411,28.7369 25.8078,28.5702 28.5,29C 31.1144,32.2902 34.2811,34.7902 38,36.5C 38.4828,37.448 38.6495,38.448 38.5,39.5C 39.8734,39.6567 41.2068,39.49 42.5,39C 43.5832,36.9441 45.2499,35.6108 47.5,35C 49.5026,33.1813 50.836,31.0146 51.5,28.5C 52.6323,32.3254 54.9657,33.3254 58.5,31.5C 63.2418,33.0428 68.2418,34.0428 73.5,34.5C 75.9,37.7589 77.2333,41.4256 77.5,45.5C 75.7163,44.1066 73.7163,43.6066 71.5,44C 72.5541,46.3822 73.2208,48.8822 73.5,51.5C 70.1928,50.6412 67.5261,51.8079 65.5,55C 59.8333,55.3333 54.1667,55.6667 48.5,56C 43.6111,58.598 41.1111,62.7647 41,68.5C 34.6803,75.2826 27.0137,77.2826 18,74.5C 17.5065,76.1341 17.3398,77.8008 17.5,79.5C 15.5,79.5 13.5,79.5 11.5,79.5C 10.8826,79.3893 10.3826,79.056 10,78.5C 9.77246,74.0829 9.27246,69.7496 8.5,65.5C 7.80927,58.7289 9.1426,52.3955 12.5,46.5C 10.7839,44.0849 10.2839,41.4182 11,38.5C 13.582,36.7722 15.082,34.4389 15.5,31.5C 16.8221,31.67 17.9887,31.3366 19,30.5C 19.21,28.9419 19.71,27.6085 20.5,26.5 Z"/></g>
<g><path style="opacity:1" fill="#787d7c" d="M 67.5,37.5 C 71.2243,36.7731 73.8909,38.1064 75.5,41.5C 72.5817,42.8698 69.5817,43.8698 66.5,44.5C 66.298,42.0504 66.6314,39.717 67.5,37.5 Z"/></g>
<g><path style="opacity:1" fill="#f2f4f4" d="M 77.5,45.5 C 79.6541,46.8238 81.3207,48.6571 82.5,51C 81.7827,52.531 80.7827,53.8643 79.5,55C 81.8488,58.8769 83.5155,63.0435 84.5,67.5C 84.6927,69.6878 83.8594,71.3545 82,72.5C 81.5014,76.1516 81.3347,79.8183 81.5,83.5C 81.4431,84.609 81.1098,85.609 80.5,86.5C 77.7615,87.0352 75.9282,86.0352 75,83.5C 74.3137,76.9795 74.4804,70.4795 75.5,64C 74.59,59.8631 73.9233,55.6964 73.5,51.5C 73.2208,48.8822 72.5541,46.3822 71.5,44C 73.7163,43.6066 75.7163,44.1066 77.5,45.5 Z"/></g>
<g><path style="opacity:1" fill="#48686e" d="M 73.5,51.5 C 73.9233,55.6964 74.59,59.8631 75.5,64C 74.4804,70.4795 74.3137,76.9795 75,83.5C 75.9282,86.0352 77.7615,87.0352 80.5,86.5C 80.631,87.2389 80.4643,87.9056 80,88.5C 56.2104,88.5755 32.0437,88.4089 7.5,88C 5.99074,84.3307 7.32407,82.8307 11.5,83.5C 11.5,82.1667 11.5,80.8333 11.5,79.5C 13.5,79.5 15.5,79.5 17.5,79.5C 17.3398,77.8008 17.5065,76.1341 18,74.5C 27.0137,77.2826 34.6803,75.2826 41,68.5C 41.1111,62.7647 43.6111,58.598 48.5,56C 54.1667,55.6667 59.8333,55.3333 65.5,55C 67.5261,51.8079 70.1928,50.6412 73.5,51.5 Z"/></g>
</svg>
