<?xml version="1.0" encoding="UTF-8"?>
<!DOCTYPE svg PUBLIC "-//W3C//DTD SVG 1.1//EN" "http://www.w3.org/Graphics/SVG/1.1/DTD/svg11.dtd">
<svg xmlns="http://www.w3.org/2000/svg" version="1.1" width="96px" height="96px" style="shape-rendering:geometricPrecision; text-rendering:geometricPrecision; image-rendering:optimizeQuality; fill-rule:evenodd; clip-rule:evenodd" xmlns:xlink="http://www.w3.org/1999/xlink">
<g><path style="opacity:1" fill="#01363e" d="M 2.5,2.5 C 32.5,2.5 62.5,2.5 92.5,2.5C 92.5,32.5 92.5,62.5 92.5,92.5C 62.5,92.5 32.5,92.5 2.5,92.5C 2.5,62.5 2.5,32.5 2.5,2.5 Z"/></g>
<g><path style="opacity:1" fill="#33585f" d="M 4.5,3.5 C 33.4072,3.1714 62.2405,3.50474 91,4.5C 91.8282,33.4052 91.6616,62.2386 90.5,91C 61.5948,91.8282 32.7614,91.6616 4,90.5C 3.17564,61.4281 3.34231,32.4281 4.5,3.5 Z"/></g>
<g><path style="opacity:1" fill="#48696f" d="M 5.5,5.5 C 33.5,5.5 61.5,5.5 89.5,5.5C 89.5,33.5 89.5,61.5 89.5,89.5C 61.5,89.5 33.5,89.5 5.5,89.5C 5.5,61.5 5.5,33.5 5.5,5.5 Z"/></g>
<g><path style="opacity:1" fill="#799296" d="M 41.5,80.5 C 44.8333,80.5 48.1667,80.5 51.5,80.5C 47.179,81.1391 42.8457,82.1391 38.5,83.5C 39.0998,82.1001 40.0998,81.1001 41.5,80.5 Z"/></g>
<g><path style="opacity:1" fill="#758d92" d="M 83.5,69.5 C 84.9468,70.1342 85.6134,71.3009 85.5,73C 85.6134,74.6991 84.9468,75.8658 83.5,76.5C 83.5,74.1667 83.5,71.8333 83.5,69.5 Z"/></g>
<g><path style="opacity:1" fill="#7b9599" d="M 77.5,66.5 C 79.8984,66.2594 81.8984,66.9261 83.5,68.5C 81.1016,68.7406 79.1016,68.0739 77.5,66.5 Z"/></g>
<g><path style="opacity:1" fill="#688488" d="M 86.5,51.5 C 87.8799,51.9623 88.5466,52.9623 88.5,54.5C 88.6502,58.8254 86.6502,60.8254 82.5,60.5C 83.287,58.8958 84.6203,58.2291 86.5,58.5C 86.5,56.1667 86.5,53.8333 86.5,51.5 Z"/></g>
<g><path style="opacity:1" fill="#f9fafa" d="M 41.5,80.5 C 40.0998,81.1001 39.0998,82.1001 38.5,83.5C 37.0413,83.4326 35.7079,83.7659 34.5,84.5C 33.5,84.5 32.5,84.5 31.5,84.5C 28.1113,74.3853 23.6113,64.7186 18,55.5C 17.51,54.2068 17.3433,52.8734 17.5,51.5C 21.2981,53.9841 25.6314,55.4841 30.5,56C 36.1689,63.1785 39.8356,71.3451 41.5,80.5 Z"/></g>
<g><path style="opacity:1" fill="#668287" d="M 7.5,42.5 C 9.02463,45.5828 10.0246,48.9161 10.5,52.5C 8.02369,49.7118 7.02369,46.3785 7.5,42.5 Z"/></g>
<g><path style="opacity:1" fill="#f6f8f8" d="M 71.5,33.5 C 74.8123,37.479 78.479,41.1456 82.5,44.5C 83.8796,46.8618 85.2129,49.1952 86.5,51.5C 86.5,53.8333 86.5,56.1667 86.5,58.5C 84.6203,58.2291 83.287,58.8958 82.5,60.5C 79.6068,56.3945 76.7735,52.0611 74,47.5C 72,45.5 70,43.5 68,41.5C 67.4604,39.8654 67.9604,38.5321 69.5,37.5C 65.0754,33.2728 65.742,31.9395 71.5,33.5 Z"/></g>
<g><path style="opacity:1" fill="#f9fafb" d="M 75.5,65.5 C 76.1667,65.8333 76.8333,66.1667 77.5,66.5C 79.1016,68.0739 81.1016,68.7406 83.5,68.5C 83.5,68.8333 83.5,69.1667 83.5,69.5C 83.5,71.8333 83.5,74.1667 83.5,76.5C 82.4802,78.352 80.9802,79.6853 79,80.5C 76.536,79.8392 74.036,79.3392 71.5,79C 70.6634,77.9887 70.33,76.8221 70.5,75.5C 70.6602,73.8008 70.4935,72.1341 70,70.5C 65.5,65.3333 61,60.1667 56.5,55C 54.324,54.8371 52.4907,54.0037 51,52.5C 44.5736,43.9841 37.907,35.6508 31,27.5C 29.4094,20.9229 31.9094,18.7562 38.5,21C 43.7215,25.7187 48.3882,30.8853 52.5,36.5C 54.5473,38.0152 56.8807,38.8485 59.5,39C 62.6878,43.1847 66.1878,47.0181 70,50.5C 70.4221,53.7595 71.9221,56.4262 74.5,58.5C 74.1667,58.8333 73.8333,59.1667 73.5,59.5C 72.084,57.8608 70.4174,57.0275 68.5,57C 70.6976,60.0228 73.031,62.8562 75.5,65.5 Z"/></g>
<g><path style="opacity:1" fill="#a1b5b8" d="M 71.5,33.5 C 65.742,31.9395 65.0754,33.2728 69.5,37.5C 67.9604,38.5321 67.4604,39.8654 68,41.5C 70,43.5 72,45.5 74,47.5C 76.7735,52.0611 79.6068,56.3945 82.5,60.5C 80.5615,62.1628 78.2282,62.8294 75.5,62.5C 75.5,63.5 75.5,64.5 75.5,65.5C 73.031,62.8562 70.6976,60.0228 68.5,57C 70.4174,57.0275 72.084,57.8608 73.5,59.5C 73.8333,59.1667 74.1667,58.8333 74.5,58.5C 71.9221,56.4262 70.4221,53.7595 70,50.5C 66.1878,47.0181 62.6878,43.1847 59.5,39C 56.8807,38.8485 54.5473,38.0152 52.5,36.5C 48.3882,30.8853 43.7215,25.7187 38.5,21C 31.9094,18.7562 29.4094,20.9229 31,27.5C 37.907,35.6508 44.5736,43.9841 51,52.5C 52.4907,54.0037 54.324,54.8371 56.5,55C 61,60.1667 65.5,65.3333 70,70.5C 70.4935,72.1341 70.6602,73.8008 70.5,75.5C 69.596,74.791 69.2627,73.791 69.5,72.5C 63.1088,74.6168 57.1088,77.2835 51.5,80.5C 48.1667,80.5 44.8333,80.5 41.5,80.5C 39.8356,71.3451 36.1689,63.1785 30.5,56C 25.6314,55.4841 21.2981,53.9841 17.5,51.5C 17.3433,52.8734 17.51,54.2068 18,55.5C 23.6113,64.7186 28.1113,74.3853 31.5,84.5C 32.5,84.5 33.5,84.5 34.5,84.5C 32.7116,85.6225 30.7116,85.7891 28.5,85C 27.2135,82.9777 26.2135,80.8111 25.5,78.5C 24.3112,77.5713 22.9778,77.238 21.5,77.5C 21.0031,73.5116 19.1697,70.1782 16,67.5C 14.8337,62.1593 13.0004,57.1593 10.5,52.5C 10.0246,48.9161 9.02463,45.5828 7.5,42.5C 6.9492,39.1933 6.61587,35.8599 6.5,32.5C 8.5,32.1667 10.5,31.8333 12.5,31.5C 12.6374,27.8209 11.9707,24.3209 10.5,21C 14.9297,13.8994 21.2631,9.39941 29.5,7.5C 32.1092,8.2305 34.7759,8.7305 37.5,9C 41.8258,12.3264 45.8258,15.9931 49.5,20C 52.5,20.3333 55.5,20.6667 58.5,21C 61.5511,24.0545 64.8845,26.7212 68.5,29C 70.1412,30.129 71.1412,31.629 71.5,33.5 Z"/></g>
</svg>
