<?xml version="1.0" encoding="UTF-8"?>
<!DOCTYPE svg PUBLIC "-//W3C//DTD SVG 1.1//EN" "http://www.w3.org/Graphics/SVG/1.1/DTD/svg11.dtd">
<svg xmlns="http://www.w3.org/2000/svg" version="1.1" width="96px" height="96px" style="shape-rendering:geometricPrecision; text-rendering:geometricPrecision; image-rendering:optimizeQuality; fill-rule:evenodd; clip-rule:evenodd" xmlns:xlink="http://www.w3.org/1999/xlink">
<g><path style="opacity:1" fill="#3a0702" d="M 2.5,2.5 C 32.5,2.5 62.5,2.5 92.5,2.5C 92.5,32.5 92.5,62.5 92.5,92.5C 62.5,92.5 32.5,92.5 2.5,92.5C 2.5,62.5 2.5,32.5 2.5,2.5 Z"/></g>
<g><path style="opacity:1" fill="#61403a" d="M 3.5,3.5 C 32.8333,3.5 62.1667,3.5 91.5,3.5C 91.5,32.8333 91.5,62.1667 91.5,91.5C 62.1667,91.5 32.8333,91.5 3.5,91.5C 3.5,62.1667 3.5,32.8333 3.5,3.5 Z"/></g>
<g><path style="opacity:1" fill="#6a4d47" d="M 47.5,90.5 C 48.1667,89.8333 48.8333,89.1667 49.5,88.5C 49.9887,87.0048 50.6554,85.6715 51.5,84.5C 54.6021,80.8315 53.9355,79.4982 49.5,80.5C 49.5,80.1667 49.5,79.8333 49.5,79.5C 49.3653,77.4458 50.032,75.7791 51.5,74.5C 53.9779,72.4363 53.9779,70.4363 51.5,68.5C 51.5,67.5 51.5,66.5 51.5,65.5C 50.5,65.5 49.5,65.5 48.5,65.5C 48.5,64.1667 48.5,62.8333 48.5,61.5C 49.791,61.7373 50.791,61.404 51.5,60.5C 51.5,59.8333 51.5,59.1667 51.5,58.5C 51.189,57.5222 50.5223,56.8555 49.5,56.5C 48.1401,57.1799 46.8068,57.8466 45.5,58.5C 45.4431,57.391 45.1098,56.391 44.5,55.5C 44.5,54.8333 44.8333,54.5 45.5,54.5C 46.5,54.5 47.5,54.5 48.5,54.5C 48.5674,53.0413 48.2341,51.7079 47.5,50.5C 47.5,49.8333 47.5,49.1667 47.5,48.5C 48.3382,48.1583 48.6716,47.4916 48.5,46.5C 47.2086,45.5272 47.2086,44.5272 48.5,43.5C 46.9928,42.2612 45.8261,42.5946 45,44.5C 43.6026,43.7741 42.7692,42.6075 42.5,41C 43.7202,36.0117 43.7202,31.1784 42.5,26.5C 41.9177,23.1677 41.0844,19.8344 40,16.5C 39.6852,19.3715 39.1852,22.2048 38.5,25C 38.7355,25.8732 39.0688,26.7065 39.5,27.5C 37.9848,29.5473 37.1515,31.8807 37,34.5C 35.3123,36.0449 33.3123,37.0449 31,37.5C 30.51,38.7932 30.3433,40.1266 30.5,41.5C 26.1234,41.5775 21.7901,42.0775 17.5,43C 16.4829,44.0495 16.3162,45.2161 17,46.5C 21.3915,49.1992 21.3915,51.5326 17,53.5C 15.5603,52.8524 14.0603,52.5191 12.5,52.5C 12.2606,54.4672 12.5939,56.3005 13.5,58C 12.5842,58.2784 11.9175,58.7784 11.5,59.5C 11.33,60.8221 11.6634,61.9887 12.5,63C 11.0142,65.4745 9.68085,67.9745 8.5,70.5C 7.88258,70.6107 7.38258,70.944 7,71.5C 6.50454,73.4727 6.33788,75.4727 6.5,77.5C 5.51658,81.2984 5.18325,85.2984 5.5,89.5C 17.8333,89.5 30.1667,89.5 42.5,89.5C 42.8333,85.5 43.1667,85.5 43.5,89.5C 44.791,89.2627 45.791,89.596 46.5,90.5C 32.5,90.5 18.5,90.5 4.5,90.5C 4.5,61.8333 4.5,33.1667 4.5,4.5C 33.1667,4.5 61.8333,4.5 90.5,4.5C 90.5,33.1667 90.5,61.8333 90.5,90.5C 76.1667,90.5 61.8333,90.5 47.5,90.5 Z"/></g>
<g><path style="opacity:1" fill="#968380" d="M 79.5,46.5 C 76.0657,46.0298 73.399,47.1965 71.5,50C 72.0556,51.0111 72.7222,51.8444 73.5,52.5C 72.5,52.5 71.5,52.5 70.5,52.5C 70.762,51.0222 70.4287,49.6888 69.5,48.5C 68.0981,48.1345 67.0981,47.3012 66.5,46C 68.1109,43.7903 68.7776,41.2903 68.5,38.5C 65.5448,39.1587 62.5448,39.4921 59.5,39.5C 60.219,35.8346 61.0524,32.168 62,28.5C 65.3085,26.2764 64.8085,24.9431 60.5,24.5C 59.6648,21.8596 59.4981,19.1929 60,16.5C 55.9738,12.4429 51.1405,9.77623 45.5,8.5C 45.281,7.32496 45.6143,6.32496 46.5,5.5C 50.0916,6.93044 53.7583,8.09711 57.5,9C 60.0618,11.4133 63.0618,13.08 66.5,14C 67.3802,15.3561 67.7135,16.8561 67.5,18.5C 69.3904,18.2965 70.8904,18.9632 72,20.5C 72.0435,23.4752 71.8769,26.4752 71.5,29.5C 72.9305,29.4208 74.2638,29.7542 75.5,30.5C 79.2644,34.9462 79.2644,39.2795 75.5,43.5C 77.1836,44.1497 78.5169,45.1497 79.5,46.5 Z"/></g>
<g><path style="opacity:1" fill="#968480" d="M 42.5,26.5 C 42.0019,31.1522 41.6686,35.8189 41.5,40.5C 38.2268,40.4706 37.5602,41.8039 39.5,44.5C 39.4712,46.0293 38.8045,47.196 37.5,48C 35.5273,48.4955 33.5273,48.6621 31.5,48.5C 31.6633,50.8568 31.4966,53.1902 31,55.5C 29.5134,56.1552 28.3467,57.1552 27.5,58.5C 24.3837,58.9201 21.7171,59.9201 19.5,61.5C 17.1998,59.7982 14.5331,59.1315 11.5,59.5C 11.9175,58.7784 12.5842,58.2784 13.5,58C 12.5939,56.3005 12.2606,54.4672 12.5,52.5C 14.0603,52.5191 15.5603,52.8524 17,53.5C 21.3915,51.5326 21.3915,49.1992 17,46.5C 16.3162,45.2161 16.4829,44.0495 17.5,43C 21.7901,42.0775 26.1234,41.5775 30.5,41.5C 30.3433,40.1266 30.51,38.7932 31,37.5C 33.3123,37.0449 35.3123,36.0449 37,34.5C 37.1515,31.8807 37.9848,29.5473 39.5,27.5C 39.0688,26.7065 38.7355,25.8732 38.5,25C 39.1852,22.2048 39.6852,19.3715 40,16.5C 41.0844,19.8344 41.9177,23.1677 42.5,26.5 Z"/></g>
<g><path style="opacity:1" fill="#6d4f4a" d="M 42.5,26.5 C 43.7202,31.1784 43.7202,36.0117 42.5,41C 42.7692,42.6075 43.6026,43.7741 45,44.5C 45.8261,42.5946 46.9928,42.2612 48.5,43.5C 47.2086,44.5272 47.2086,45.5272 48.5,46.5C 46.5759,46.7107 46.2426,47.3774 47.5,48.5C 47.5,49.1667 47.5,49.8333 47.5,50.5C 45.8958,51.287 45.2291,52.6203 45.5,54.5C 44.8333,54.5 44.5,54.8333 44.5,55.5C 42.9519,55.8212 42.2852,56.8212 42.5,58.5C 43.5,58.5 44.5,58.5 45.5,58.5C 46.8068,57.8466 48.1401,57.1799 49.5,56.5C 50.5223,56.8555 51.189,57.5222 51.5,58.5C 47.5,59.1667 47.5,59.8333 51.5,60.5C 50.791,61.404 49.791,61.7373 48.5,61.5C 48.5,62.8333 48.5,64.1667 48.5,65.5C 49.5,65.5 50.5,65.5 51.5,65.5C 51.5,66.5 51.5,67.5 51.5,68.5C 50.8826,68.3893 50.3826,68.056 50,67.5C 49.3551,68.646 48.5217,69.646 47.5,70.5C 48.2458,71.7362 48.5792,73.0695 48.5,74.5C 49.5,74.5 50.5,74.5 51.5,74.5C 50.032,75.7791 49.3653,77.4458 49.5,79.5C 48.596,78.791 48.2627,77.791 48.5,76.5C 47.8106,75.2264 46.9772,75.2264 46,76.5C 45.815,81.436 44.6483,81.7693 42.5,77.5C 41.9556,75.4205 41.1223,73.4205 40,71.5C 39.5604,73.0762 38.727,74.4096 37.5,75.5C 38.1272,76.4168 38.4606,77.4168 38.5,78.5C 40.8234,79.4956 42.4901,81.1623 43.5,83.5C 44.6006,84.8484 45.6006,86.3484 46.5,88C 47.448,88.4828 48.448,88.6495 49.5,88.5C 48.8333,89.1667 48.1667,89.8333 47.5,90.5C 47.1667,90.5 46.8333,90.5 46.5,90.5C 45.791,89.596 44.791,89.2627 43.5,89.5C 43.1667,85.5 42.8333,85.5 42.5,89.5C 30.1667,89.5 17.8333,89.5 5.5,89.5C 5.18325,85.2984 5.51658,81.2984 6.5,77.5C 6.83333,77.5 7.16667,77.5 7.5,77.5C 9.71897,78.8796 11.719,78.5463 13.5,76.5C 15.1837,71.6605 17.8504,67.4938 21.5,64C 20.6195,63.2917 19.9528,62.4584 19.5,61.5C 21.7171,59.9201 24.3837,58.9201 27.5,58.5C 28.3467,57.1552 29.5134,56.1552 31,55.5C 31.4966,53.1902 31.6633,50.8568 31.5,48.5C 33.5273,48.6621 35.5273,48.4955 37.5,48C 38.8045,47.196 39.4712,46.0293 39.5,44.5C 37.5602,41.8039 38.2268,40.4706 41.5,40.5C 41.6686,35.8189 42.0019,31.1522 42.5,26.5 Z"/></g>
<g><path style="opacity:1" fill="#c9c2c1" d="M 48.5,46.5 C 48.6716,47.4916 48.3382,48.1583 47.5,48.5C 46.2426,47.3774 46.5759,46.7107 48.5,46.5 Z"/></g>
<g><path style="opacity:1" fill="#f1efef" d="M 79.5,46.5 C 79.4606,47.5832 79.1272,48.5832 78.5,49.5C 81.7443,53.303 83.2443,57.6363 83,62.5C 81.3333,63.8333 79.6667,63.8333 78,62.5C 76.0162,59.3812 74.5162,56.0478 73.5,52.5C 72.7222,51.8444 72.0556,51.0111 71.5,50C 73.399,47.1965 76.0657,46.0298 79.5,46.5 Z"/></g>
<g><path style="opacity:1" fill="#c3b9b7" d="M 47.5,50.5 C 48.2341,51.7079 48.5674,53.0413 48.5,54.5C 47.5,54.5 46.5,54.5 45.5,54.5C 45.2291,52.6203 45.8958,51.287 47.5,50.5 Z"/></g>
<g><path style="opacity:1" fill="#dbd4d4" d="M 44.5,55.5 C 45.1098,56.391 45.4431,57.391 45.5,58.5C 44.5,58.5 43.5,58.5 42.5,58.5C 42.2852,56.8212 42.9519,55.8212 44.5,55.5 Z"/></g>
<g><path style="opacity:1" fill="#dfdada" d="M 51.5,58.5 C 51.5,59.1667 51.5,59.8333 51.5,60.5C 47.5,59.8333 47.5,59.1667 51.5,58.5 Z"/></g>
<g><path style="opacity:1" fill="#f4f2f2" d="M 11.5,59.5 C 14.5331,59.1315 17.1998,59.7982 19.5,61.5C 19.9528,62.4584 20.6195,63.2917 21.5,64C 17.8504,67.4938 15.1837,71.6605 13.5,76.5C 11.719,78.5463 9.71897,78.8796 7.5,77.5C 7.44805,75.0971 7.78138,72.7638 8.5,70.5C 9.68085,67.9745 11.0142,65.4745 12.5,63C 11.6634,61.9887 11.33,60.8221 11.5,59.5 Z"/></g>
<g><path style="opacity:1" fill="#d4cac7" d="M 42.5,62.5 C 45.1662,62.0658 46.3329,63.0658 46,65.5C 42.4034,67.0661 41.2368,66.0661 42.5,62.5 Z"/></g>
<g><path style="opacity:1" fill="#e5dedf" d="M 51.5,68.5 C 53.9779,70.4363 53.9779,72.4363 51.5,74.5C 50.5,74.5 49.5,74.5 48.5,74.5C 48.5792,73.0695 48.2458,71.7362 47.5,70.5C 48.5217,69.646 49.3551,68.646 50,67.5C 50.3826,68.056 50.8826,68.3893 51.5,68.5 Z"/></g>
<g><path style="opacity:1" fill="#a99994" d="M 8.5,70.5 C 7.78138,72.7638 7.44805,75.0971 7.5,77.5C 7.16667,77.5 6.83333,77.5 6.5,77.5C 6.33788,75.4727 6.50454,73.4727 7,71.5C 7.38258,70.944 7.88258,70.6107 8.5,70.5 Z"/></g>
<g><path style="opacity:1" fill="#f2eeea" d="M 42.5,77.5 C 41.2921,78.2341 39.9587,78.5674 38.5,78.5C 38.4606,77.4168 38.1272,76.4168 37.5,75.5C 38.727,74.4096 39.5604,73.0762 40,71.5C 41.1223,73.4205 41.9556,75.4205 42.5,77.5 Z"/></g>
<g><path style="opacity:1" fill="#937f7b" d="M 48.5,76.5 C 46.7868,77.6354 46.1201,79.302 46.5,81.5C 44.8212,81.2852 43.8212,81.9519 43.5,83.5C 42.4901,81.1623 40.8234,79.4956 38.5,78.5C 39.9587,78.5674 41.2921,78.2341 42.5,77.5C 44.6483,81.7693 45.815,81.436 46,76.5C 46.9772,75.2264 47.8106,75.2264 48.5,76.5 Z"/></g>
<g><path style="opacity:1" fill="#f5f3f2" d="M 48.5,76.5 C 48.2627,77.791 48.596,78.791 49.5,79.5C 49.5,79.8333 49.5,80.1667 49.5,80.5C 50.8062,81.4674 51.4729,82.8007 51.5,84.5C 50.6554,85.6715 49.9887,87.0048 49.5,88.5C 48.448,88.6495 47.448,88.4828 46.5,88C 45.6006,86.3484 44.6006,84.8484 43.5,83.5C 43.8212,81.9519 44.8212,81.2852 46.5,81.5C 46.1201,79.302 46.7868,77.6354 48.5,76.5 Z"/></g>
<g><path style="opacity:1" fill="#b8abaa" d="M 51.5,84.5 C 51.4729,82.8007 50.8062,81.4674 49.5,80.5C 53.9355,79.4982 54.6021,80.8315 51.5,84.5 Z"/></g>
</svg>
