<?xml version="1.0" encoding="UTF-8"?>
<!DOCTYPE svg PUBLIC "-//W3C//DTD SVG 1.1//EN" "http://www.w3.org/Graphics/SVG/1.1/DTD/svg11.dtd">
<svg xmlns="http://www.w3.org/2000/svg" version="1.1" width="96px" height="96px" style="shape-rendering:geometricPrecision; text-rendering:geometricPrecision; image-rendering:optimizeQuality; fill-rule:evenodd; clip-rule:evenodd" xmlns:xlink="http://www.w3.org/1999/xlink">
<g><path style="opacity:1" fill="#012e35" d="M 2.5,2.5 C 32.5,2.5 62.5,2.5 92.5,2.5C 92.5,32.5 92.5,62.5 92.5,92.5C 62.5,92.5 32.5,92.5 2.5,92.5C 2.5,62.5 2.5,32.5 2.5,2.5 Z"/></g>
<g><path style="opacity:1" fill="#395c62" d="M 3.5,3.5 C 32.8333,3.5 62.1667,3.5 91.5,3.5C 91.5,32.8333 91.5,62.1667 91.5,91.5C 62.1667,91.5 32.8333,91.5 3.5,91.5C 3.5,62.1667 3.5,32.8333 3.5,3.5 Z"/></g>
<g><path style="opacity:1" fill="#47676d" d="M 4.5,4.5 C 33.1667,4.5 61.8333,4.5 90.5,4.5C 90.5,33.1667 90.5,61.8333 90.5,90.5C 61.8333,90.5 33.1667,90.5 4.5,90.5C 4.5,61.8333 4.5,33.1667 4.5,4.5 Z"/></g>
<g><path style="opacity:1" fill="#fafbfb" d="M 83.5,27.5 C 83.6633,29.8568 83.4966,32.1902 83,34.5C 78.4856,31.6592 76.4856,32.9925 77,38.5C 81.221,41.6563 83.721,40.6563 84.5,35.5C 84.5,39.5 84.5,43.5 84.5,47.5C 81.9327,47.7215 79.5994,48.3882 77.5,49.5C 74.8478,49.4095 72.5145,50.0762 70.5,51.5C 65.3986,51.2793 62.3986,53.6127 61.5,58.5C 60.1667,58.5 58.8333,58.5 57.5,58.5C 57.5,61.5 57.5,64.5 57.5,67.5C 51.4406,67.7461 45.4406,67.4128 39.5,66.5C 37.8523,65.1902 36.1856,63.8569 34.5,62.5C 32.6385,63.5283 31.3052,65.0283 30.5,67C 26.7897,68.2243 24.1231,67.0576 22.5,63.5C 18.959,62.8 15.459,62.1334 12,61.5C 5.70736,48.5935 9.87403,42.2601 24.5,42.5C 24.2771,39.8858 25.4438,38.2191 28,37.5C 28.7568,35.6854 29.5902,34.0188 30.5,32.5C 32.099,32.2322 33.4324,32.5655 34.5,33.5C 36.2637,34.7122 37.9303,34.3788 39.5,32.5C 39.3764,31.8933 39.0431,31.56 38.5,31.5C 37.8902,30.609 37.5569,29.609 37.5,28.5C 40.2903,28.2224 42.7903,28.8891 45,30.5C 52.5872,27.8993 59.9206,24.566 67,20.5C 71.4707,21.1737 75.9707,21.3403 80.5,21C 82.9193,22.5088 83.9193,24.6755 83.5,27.5 Z"/></g>
<g><path style="opacity:1" fill="#bed1d3" d="M 76.5,24.5 C 82.0159,24.4734 83.3492,26.64 80.5,31C 75.5705,31.427 74.2372,29.2604 76.5,24.5 Z"/></g>
<g><path style="opacity:1" fill="#bcd0d2" d="M 69.5,25.5 C 73.4735,26.0755 74.4735,28.2421 72.5,32C 68.4943,32.9874 66.661,31.4874 67,27.5C 67.9947,26.9341 68.828,26.2674 69.5,25.5 Z"/></g>
<g><path style="opacity:1" fill="#d3dadb" d="M 37.5,28.5 C 37.5569,29.609 37.8902,30.609 38.5,31.5C 36.9382,31.7329 35.6049,32.3995 34.5,33.5C 33.4324,32.5655 32.099,32.2322 30.5,32.5C 32.7933,31.1722 35.1267,29.8389 37.5,28.5 Z"/></g>
<g><path style="opacity:1" fill="#8e9fa3" d="M 38.5,31.5 C 39.0431,31.56 39.3764,31.8933 39.5,32.5C 37.9303,34.3788 36.2637,34.7122 34.5,33.5C 35.6049,32.3995 36.9382,31.7329 38.5,31.5 Z"/></g>
<g><path style="opacity:1" fill="#c0d1d3" d="M 83.5,27.5 C 84.4731,29.9479 84.8064,32.6146 84.5,35.5C 83.721,40.6563 81.221,41.6563 77,38.5C 76.4856,32.9925 78.4856,31.6592 83,34.5C 83.4966,32.1902 83.6633,29.8568 83.5,27.5 Z"/></g>
<g><path style="opacity:1" fill="#bdd0d2" d="M 69.5,34.5 C 75.0159,34.4734 76.3492,36.64 73.5,41C 68.5705,41.427 67.2372,39.2604 69.5,34.5 Z"/></g>
<g><path style="opacity:1" fill="#7c9296" d="M 77.5,49.5 C 75.4855,50.9238 73.1522,51.5905 70.5,51.5C 72.5145,50.0762 74.8478,49.4095 77.5,49.5 Z"/></g>
<g><path style="opacity:1" fill="#70888c" d="M 61.5,58.5 C 60.791,59.404 59.791,59.7373 58.5,59.5C 58.5,62.5 58.5,65.5 58.5,68.5C 52.4908,68.6662 46.4908,68.4995 40.5,68C 39.944,67.6174 39.6107,67.1174 39.5,66.5C 45.4406,67.4128 51.4406,67.7461 57.5,67.5C 57.5,64.5 57.5,61.5 57.5,58.5C 58.8333,58.5 60.1667,58.5 61.5,58.5 Z"/></g>
</svg>
