<?xml version="1.0" encoding="UTF-8"?>
<!DOCTYPE svg PUBLIC "-//W3C//DTD SVG 1.1//EN" "http://www.w3.org/Graphics/SVG/1.1/DTD/svg11.dtd">
<svg xmlns="http://www.w3.org/2000/svg" version="1.1" width="96px" height="96px" style="shape-rendering:geometricPrecision; text-rendering:geometricPrecision; image-rendering:optimizeQuality; fill-rule:evenodd; clip-rule:evenodd" xmlns:xlink="http://www.w3.org/1999/xlink">
<g><path style="opacity:1" fill="#01353a" d="M 2.5,2.5 C 32.5,2.5 62.5,2.5 92.5,2.5C 92.5,32.5 92.5,62.5 92.5,92.5C 62.5,92.5 32.5,92.5 2.5,92.5C 2.5,62.5 2.5,32.5 2.5,2.5 Z"/></g>
<g><path style="opacity:1" fill="#375c62" d="M 4.5,3.5 C 33.4072,3.1714 62.2405,3.50474 91,4.5C 91.8282,33.4052 91.6616,62.2386 90.5,91C 61.5948,91.8282 32.7614,91.6616 4,90.5C 3.17564,61.4281 3.34231,32.4281 4.5,3.5 Z"/></g>
<g><path style="opacity:1" fill="#48686d" d="M 7.5,6.5 C 34.4075,6.17176 61.2408,6.5051 88,7.5C 88.8279,34.4055 88.6612,61.2388 87.5,88C 60.5945,88.8279 33.7612,88.6612 7,87.5C 6.17632,60.4279 6.34298,33.4279 7.5,6.5 Z"/></g>
<g><path style="opacity:1" fill="#aabfc2" d="M 61.5,28.5 C 60.5489,27.0813 60.2155,25.4147 60.5,23.5C 51.8333,23.5 43.1667,23.5 34.5,23.5C 34.3379,25.5273 34.5045,27.5273 35,29.5C 35.49,28.2068 35.6567,26.8734 35.5,25.5C 43.0191,25.175 50.3524,25.5084 57.5,26.5C 50.8333,26.5 44.1667,26.5 37.5,26.5C 37.5,27.5 37.5,28.5 37.5,29.5C 44.1667,29.5 50.8333,29.5 57.5,29.5C 50.9347,29.8511 44.6014,30.8511 38.5,32.5C 36.1432,32.3367 33.8098,32.5034 31.5,33C 30.5783,35.294 29.5783,37.4606 28.5,39.5C 27.596,40.209 27.2627,41.209 27.5,42.5C 26.1667,42.5 24.8333,42.5 23.5,42.5C 26.1882,38.9545 28.0215,34.9545 29,30.5C 30.3561,29.6198 31.8561,29.2865 33.5,29.5C 33.2317,26.8806 33.565,24.3806 34.5,22C 43.1667,21.3333 51.8333,21.3333 60.5,22C 61.4231,24.0408 61.7564,26.2075 61.5,28.5 Z"/></g>
<g><path style="opacity:1" fill="#c1d3d5" d="M 61.5,28.5 C 62.9187,29.4511 64.5853,29.7845 66.5,29.5C 66.0882,31.9726 67.0882,33.3059 69.5,33.5C 69.427,35.0269 70.0937,36.0269 71.5,36.5C 69.8307,39.4886 70.4974,41.8219 73.5,43.5C 74.6654,52.8155 74.8321,62.1489 74,71.5C 72.5905,72.7875 71.0905,73.9542 69.5,75C 54.822,75.8328 40.1553,75.6662 25.5,74.5C 24.2402,73.6184 23.0736,72.6184 22,71.5C 21.8333,66.6667 21.6667,61.8333 21.5,57C 21.5063,51.7843 22.1729,46.951 23.5,42.5C 24.8333,42.5 26.1667,42.5 27.5,42.5C 27.2627,41.209 27.596,40.209 28.5,39.5C 28.2606,41.4672 28.5939,43.3005 29.5,45C 33.8206,45.499 38.1539,45.6657 42.5,45.5C 42.5,41.1667 42.5,36.8333 42.5,32.5C 41.1667,32.5 39.8333,32.5 38.5,32.5C 44.6014,30.8511 50.9347,29.8511 57.5,29.5C 57.5,28.5 57.5,27.5 57.5,26.5C 50.3524,25.5084 43.0191,25.175 35.5,25.5C 35.6567,26.8734 35.49,28.2068 35,29.5C 34.5045,27.5273 34.3379,25.5273 34.5,23.5C 43.1667,23.5 51.8333,23.5 60.5,23.5C 60.2155,25.4147 60.5489,27.0813 61.5,28.5 Z"/></g>
<g><path style="opacity:1" fill="#4d6f74" d="M 57.5,26.5 C 57.5,27.5 57.5,28.5 57.5,29.5C 50.8333,29.5 44.1667,29.5 37.5,29.5C 37.5,28.5 37.5,27.5 37.5,26.5C 44.1667,26.5 50.8333,26.5 57.5,26.5 Z"/></g>
<g><path style="opacity:1" fill="#e6f8fc" d="M 38.5,32.5 C 39.8333,32.5 41.1667,32.5 42.5,32.5C 42.5,36.8333 42.5,41.1667 42.5,45.5C 38.1539,45.6657 33.8206,45.499 29.5,45C 28.5939,43.3005 28.2606,41.4672 28.5,39.5C 29.5783,37.4606 30.5783,35.294 31.5,33C 33.8098,32.5034 36.1432,32.3367 38.5,32.5 Z"/></g>
<g><path style="opacity:1" fill="#e5f7fb" d="M 52.5,32.5 C 56.5138,32.3345 60.5138,32.5012 64.5,33C 66.7772,36.6312 67.4439,40.4646 66.5,44.5C 61.8804,45.4933 57.2137,45.8266 52.5,45.5C 52.5,41.1667 52.5,36.8333 52.5,32.5 Z"/></g>
<g><path style="opacity:1" fill="#88a0a3" d="M 69.5,33.5 C 70.9063,33.9731 71.573,34.9731 71.5,36.5C 70.0937,36.0269 69.427,35.0269 69.5,33.5 Z"/></g>
</svg>
