<?xml version="1.0" encoding="UTF-8"?>
<!DOCTYPE svg PUBLIC "-//W3C//DTD SVG 1.1//EN" "http://www.w3.org/Graphics/SVG/1.1/DTD/svg11.dtd">
<svg xmlns="http://www.w3.org/2000/svg" version="1.1" width="96px" height="96px" style="shape-rendering:geometricPrecision; text-rendering:geometricPrecision; image-rendering:optimizeQuality; fill-rule:evenodd; clip-rule:evenodd" xmlns:xlink="http://www.w3.org/1999/xlink">
<g><path style="opacity:1" fill="#01363e" d="M 2.5,2.5 C 32.5,2.5 62.5,2.5 92.5,2.5C 92.5,32.5 92.5,62.5 92.5,92.5C 62.5,92.5 32.5,92.5 2.5,92.5C 2.5,62.5 2.5,32.5 2.5,2.5 Z"/></g>
<g><path style="opacity:1" fill="#284e56" d="M 90.5,90.5 C 61.6715,91.498 32.6715,91.8314 3.5,91.5C 3.5,62.1667 3.5,32.8333 3.5,3.5C 32.8333,3.5 62.1667,3.5 91.5,3.5C 91.8314,32.6715 91.498,61.6715 90.5,90.5 Z"/></g>
<g><path style="opacity:1" fill="#46676d" d="M 90.5,90.5 C 61.8333,90.5 33.1667,90.5 4.5,90.5C 4.5,61.8333 4.5,33.1667 4.5,4.5C 33.1667,4.5 61.8333,4.5 90.5,4.5C 90.5,33.1667 90.5,61.8333 90.5,90.5 Z"/></g>
<g><path style="opacity:1" fill="#f4f6f6" d="M 60.5,29.5 C 61.8333,29.5 63.1667,29.5 64.5,29.5C 66.2932,38.6062 67.9598,47.6062 69.5,56.5C 69.5,63.8333 69.5,71.1667 69.5,78.5C 68.5,78.5 67.5,78.5 66.5,78.5C 66.8168,74.2984 66.4834,70.2984 65.5,66.5C 65.2032,56.0692 64.0366,45.7358 62,35.5C 61.6174,34.944 61.1174,34.6107 60.5,34.5C 60.5,32.8333 60.5,31.1667 60.5,29.5 Z"/></g>
<g><path style="opacity:1" fill="#6a868b" d="M 60.5,29.5 C 60.5,31.1667 60.5,32.8333 60.5,34.5C 60.5,49.1667 60.5,63.8333 60.5,78.5C 62.1667,78.5 63.8333,78.5 65.5,78.5C 65.5,78.8333 65.5,79.1667 65.5,79.5C 63.5,79.5 61.5,79.5 59.5,79.5C 59.1702,62.6583 59.5035,45.9916 60.5,29.5 Z"/></g>
<g><path style="opacity:1" fill="#849da2" d="M 60.5,34.5 C 61.1174,34.6107 61.6174,34.944 62,35.5C 64.0366,45.7358 65.2032,56.0692 65.5,66.5C 65.5,70.5 65.5,74.5 65.5,78.5C 63.8333,78.5 62.1667,78.5 60.5,78.5C 60.5,63.8333 60.5,49.1667 60.5,34.5 Z"/></g>
<g><path style="opacity:1" fill="#bbcdd0" d="M 47.5,64.5 C 47.44,63.9569 47.1067,63.6236 46.5,63.5C 45.5059,68.456 45.1725,73.456 45.5,78.5C 39.8333,78.5 34.1667,78.5 28.5,78.5C 28.8282,73.1254 28.4948,67.7921 27.5,62.5C 26.8933,62.6236 26.56,62.9569 26.5,63.5C 24.5785,66.0761 22.7452,68.7428 21,71.5C 19.1147,71.1379 18.2814,69.9713 18.5,68C 19.3273,64.5122 20.8273,61.3456 23,58.5C 26.0575,56.0296 28.8908,53.3629 31.5,50.5C 27.1261,45.5009 27.7928,41.3342 33.5,38C 42.3933,37.3619 45.2266,41.1953 42,49.5C 41.0754,50.0465 40.2421,50.7132 39.5,51.5C 49.1432,54.7954 54.1432,61.462 54.5,71.5C 53.1266,71.6567 51.7932,71.49 50.5,71C 49.5941,68.7787 48.5941,66.6121 47.5,64.5 Z"/></g>
<g><path style="opacity:1" fill="#e5f5f9" d="M 34.5,39.5 C 35.8333,39.5 37.1667,39.5 38.5,39.5C 38.6602,41.1992 38.4935,42.8659 38,44.5C 33.6331,45.5748 32.4664,43.9081 34.5,39.5 Z"/></g>
<g><path style="opacity:1" fill="#c2ccce" d="M 69.5,56.5 C 70.492,63.9818 70.8254,71.6484 70.5,79.5C 68.8333,79.5 67.1667,79.5 65.5,79.5C 65.5,79.1667 65.5,78.8333 65.5,78.5C 65.5,74.5 65.5,70.5 65.5,66.5C 66.4834,70.2984 66.8168,74.2984 66.5,78.5C 67.5,78.5 68.5,78.5 69.5,78.5C 69.5,71.1667 69.5,63.8333 69.5,56.5 Z"/></g>
<g><path style="opacity:1" fill="#91a8ac" d="M 26.5,63.5 C 26.56,62.9569 26.8933,62.6236 27.5,62.5C 28.4948,67.7921 28.8282,73.1254 28.5,78.5C 34.1667,78.5 39.8333,78.5 45.5,78.5C 45.1725,73.456 45.5059,68.456 46.5,63.5C 47.1067,63.6236 47.44,63.9569 47.5,64.5C 46.5128,69.3054 46.1795,74.3054 46.5,79.5C 40.1667,79.5 33.8333,79.5 27.5,79.5C 27.8214,73.9738 27.4881,68.6405 26.5,63.5 Z"/></g>
</svg>
