<?xml version="1.0" encoding="UTF-8"?>
<!DOCTYPE svg PUBLIC "-//W3C//DTD SVG 1.1//EN" "http://www.w3.org/Graphics/SVG/1.1/DTD/svg11.dtd">
<svg xmlns="http://www.w3.org/2000/svg" version="1.1" width="96px" height="96px" style="shape-rendering:geometricPrecision; text-rendering:geometricPrecision; image-rendering:optimizeQuality; fill-rule:evenodd; clip-rule:evenodd" xmlns:xlink="http://www.w3.org/1999/xlink">
<g><path style="opacity:1" fill="#525d36" d="M 2.5,2.5 C 32.5,2.5 62.5,2.5 92.5,2.5C 92.5,32.5 92.5,62.5 92.5,92.5C 62.5,92.5 32.5,92.5 2.5,92.5C 2.5,62.5 2.5,32.5 2.5,2.5 Z"/></g>
<g><path style="opacity:1" fill="#748054" d="M 3.5,3.5 C 32.8333,3.5 62.1667,3.5 91.5,3.5C 91.5,32.8333 91.5,62.1667 91.5,91.5C 62.1667,91.5 32.8333,91.5 3.5,91.5C 3.5,62.1667 3.5,32.8333 3.5,3.5 Z"/></g>
<g><path style="opacity:1" fill="#7d8a5d" d="M 4.5,4.5 C 33.1667,4.5 61.8333,4.5 90.5,4.5C 90.5,33.1667 90.5,61.8333 90.5,90.5C 61.8333,90.5 33.1667,90.5 4.5,90.5C 4.5,61.8333 4.5,33.1667 4.5,4.5 Z"/></g>
<g><path style="opacity:1" fill="#ced2c4" d="M 58.5,16.5 C 57.6971,17.4232 57.5304,18.4232 58,19.5C 63.8925,22.3933 68.8925,26.3933 73,31.5C 74.2572,33.5126 75.0905,35.6793 75.5,38C 75.2451,39.3261 74.5784,40.3261 73.5,41C 75.4727,41.4955 77.4727,41.6621 79.5,41.5C 79.5,42.8333 79.5,44.1667 79.5,45.5C 82.1667,45.5 84.8333,45.5 87.5,45.5C 87.5,46.8333 87.5,48.1667 87.5,49.5C 84.8333,49.5 82.1667,49.5 79.5,49.5C 77.1667,67.1667 67.1667,77.1667 49.5,79.5C 49.5,82.1667 49.5,84.8333 49.5,87.5C 48.1667,87.5 46.8333,87.5 45.5,87.5C 45.5,85.1667 45.5,82.8333 45.5,80.5C 43.4855,79.0762 41.1522,78.4095 38.5,78.5C 39.1098,77.609 39.4431,76.609 39.5,75.5C 41.3792,76.3414 43.3792,76.6747 45.5,76.5C 45.5,72.8333 45.5,69.1667 45.5,65.5C 39.6706,65.1882 35.1706,62.5215 32,57.5C 30.2932,55.0912 29.4598,52.4245 29.5,49.5C 25.8333,49.5 22.1667,49.5 18.5,49.5C 18.3253,51.6208 18.6586,53.6208 19.5,55.5C 18.1667,55.8333 16.8333,56.1667 15.5,56.5C 15.5,54.1667 15.5,51.8333 15.5,49.5C 12.8333,49.5 10.1667,49.5 7.5,49.5C 7.5,48.1667 7.5,46.8333 7.5,45.5C 10.1667,45.5 12.8333,45.5 15.5,45.5C 17.8333,27.8333 27.8333,17.8333 45.5,15.5C 45.5,12.8333 45.5,10.1667 45.5,7.5C 46.8333,7.5 48.1667,7.5 49.5,7.5C 49.5,10.1667 49.5,12.8333 49.5,15.5C 52.5176,15.7038 55.5176,16.0371 58.5,16.5 Z"/></g>
<g><path style="opacity:1" fill="#cdd0c3" d="M 83.5,40.5 C 82.2825,39.8386 80.9492,39.1719 79.5,38.5C 75.2061,28.5404 68.2061,21.2071 58.5,16.5C 58.4325,12.8012 59.9325,10.1345 63,8.5C 78.0798,13.7194 86.5798,24.0528 88.5,39.5C 86.9291,40.3094 85.2624,40.6427 83.5,40.5 Z"/></g>
<g><path style="opacity:1" fill="#7e8b5f" d="M 40.5,18.5 C 42.1667,18.5 43.8333,18.5 45.5,18.5C 45.5,22.1667 45.5,25.8333 45.5,29.5C 36.5,31.1667 31.1667,36.5 29.5,45.5C 25.8333,45.5 22.1667,45.5 18.5,45.5C 19.9954,31.6773 27.3287,22.6773 40.5,18.5 Z"/></g>
<g><path style="opacity:1" fill="#818d62" d="M 49.5,18.5 C 52.6405,17.9082 54.9739,18.9082 56.5,21.5C 55.6221,24.1298 54.9555,26.7965 54.5,29.5C 52.8333,29.5 51.1667,29.5 49.5,29.5C 49.5,25.8333 49.5,22.1667 49.5,18.5 Z"/></g>
<g><path style="opacity:1" fill="#eaece5" d="M 58.5,16.5 C 68.2061,21.2071 75.2061,28.5404 79.5,38.5C 80.9492,39.1719 82.2825,39.8386 83.5,40.5C 81.901,40.2322 80.5676,40.5655 79.5,41.5C 77.4727,41.6621 75.4727,41.4955 73.5,41C 74.5784,40.3261 75.2451,39.3261 75.5,38C 75.0905,35.6793 74.2572,33.5126 73,31.5C 68.8925,26.3933 63.8925,22.3933 58,19.5C 57.5304,18.4232 57.6971,17.4232 58.5,16.5 Z"/></g>
<g><path style="opacity:1" fill="#8f9a75" d="M 49.5,31.5 C 50.5,31.5 51.5,31.5 52.5,31.5C 50.348,40.5263 49.348,40.5263 49.5,31.5 Z"/></g>
<g><path style="opacity:1" fill="#7d8a5e" d="M 40.5,33.5 C 41.8333,33.5 43.1667,33.5 44.5,33.5C 44.5,37.1667 44.5,40.8333 44.5,44.5C 40.8333,44.5 37.1667,44.5 33.5,44.5C 33.5,43.1667 33.5,41.8333 33.5,40.5C 34.8333,37.1667 37.1667,34.8333 40.5,33.5 Z"/></g>
<g><path style="opacity:1" fill="#8d9873" d="M 33.5,40.5 C 33.5,41.8333 33.5,43.1667 33.5,44.5C 37.1667,44.5 40.8333,44.5 44.5,44.5C 44.5,40.8333 44.5,37.1667 44.5,33.5C 43.1667,33.5 41.8333,33.5 40.5,33.5C 41.7804,32.0687 43.4471,31.4021 45.5,31.5C 45.5,36.1667 45.5,40.8333 45.5,45.5C 41.1667,45.5 36.8333,45.5 32.5,45.5C 32.2155,43.5853 32.5489,41.9187 33.5,40.5 Z"/></g>
<g><path style="opacity:1" fill="#e3e5dd" d="M 65.5,44.5 C 60.2699,45.0984 55.1032,46.0984 50,47.5C 49.1667,47.1667 48.3333,46.8333 47.5,46.5C 48.0521,44.6666 48.8855,42.9999 50,41.5C 50.4828,42.448 50.6495,43.448 50.5,44.5C 54.1879,44.2189 57.8546,43.7189 61.5,43C 62.0219,42.4387 62.3552,41.772 62.5,41C 60.5119,37.1697 57.5119,34.6697 53.5,33.5C 53.281,32.325 53.6143,31.325 54.5,30.5C 60.8285,33.1528 64.4951,37.8195 65.5,44.5 Z"/></g>
<g><path style="opacity:1" fill="#8b966f" d="M 65.5,44.5 C 68.9981,43.0832 72.6648,42.4165 76.5,42.5C 76.5,43.5 76.5,44.5 76.5,45.5C 72.6286,45.815 68.9619,45.4816 65.5,44.5 Z"/></g>
<g><path style="opacity:1" fill="#919c78" d="M 62.5,52.5 C 58.9707,50.5772 54.9707,49.9106 50.5,50.5C 50.1832,54.7016 50.5166,58.7016 51.5,62.5C 51.44,63.0431 51.1067,63.3764 50.5,63.5C 49.5067,58.8804 49.1734,54.2137 49.5,49.5C 54.1667,49.5 58.8333,49.5 63.5,49.5C 63.7373,50.791 63.404,51.791 62.5,52.5 Z"/></g>
<g><path style="opacity:1" fill="#808d62" d="M 39.5,75.5 C 38.217,70.7515 35.217,69.4181 30.5,71.5C 27.7573,69.7607 25.7573,67.4274 24.5,64.5C 26.7389,59.3937 25.0723,56.3937 19.5,55.5C 18.6586,53.6208 18.3253,51.6208 18.5,49.5C 22.1667,49.5 25.8333,49.5 29.5,49.5C 29.4598,52.4245 30.2932,55.0912 32,57.5C 35.1706,62.5215 39.6706,65.1882 45.5,65.5C 45.5,69.1667 45.5,72.8333 45.5,76.5C 43.3792,76.6747 41.3792,76.3414 39.5,75.5 Z"/></g>
<g><path style="opacity:1" fill="#7e8a5e" d="M 40.5,61.5 C 38.9826,61.4894 37.8159,60.8228 37,59.5C 35.2136,56.9201 33.7136,54.2535 32.5,51.5C 36.2984,50.5166 40.2984,50.1832 44.5,50.5C 44.5,54.1667 44.5,57.8333 44.5,61.5C 43.1667,61.5 41.8333,61.5 40.5,61.5 Z"/></g>
<g><path style="opacity:1" fill="#7d8a5e" d="M 62.5,52.5 C 60.725,57.9428 57.0583,61.2762 51.5,62.5C 50.5166,58.7016 50.1832,54.7016 50.5,50.5C 54.9707,49.9106 58.9707,50.5772 62.5,52.5 Z"/></g>
<g><path style="opacity:1" fill="#7f8b5f" d="M 65.5,49.5 C 69.1667,49.5 72.8333,49.5 76.5,49.5C 74.5092,65.4908 65.5092,74.4908 49.5,76.5C 49.5,72.8333 49.5,69.1667 49.5,65.5C 59.1667,64.5 64.5,59.1667 65.5,49.5 Z"/></g>
<g><path style="opacity:1" fill="#909a75" d="M 40.5,61.5 C 41.8333,61.5 43.1667,61.5 44.5,61.5C 44.5,57.8333 44.5,54.1667 44.5,50.5C 40.2984,50.1832 36.2984,50.5166 32.5,51.5C 31.9569,51.44 31.6236,51.1067 31.5,50.5C 36.1196,49.5067 40.7863,49.1734 45.5,49.5C 45.8266,54.2137 45.4933,58.8804 44.5,63.5C 42.9745,63.0057 41.6412,62.339 40.5,61.5 Z"/></g>
<g><path style="opacity:1" fill="#f5f7f2" d="M 19.5,55.5 C 25.0723,56.3937 26.7389,59.3937 24.5,64.5C 22.1998,66.2018 19.5331,66.8685 16.5,66.5C 12.905,63.5761 12.5717,60.2427 15.5,56.5C 16.8333,56.1667 18.1667,55.8333 19.5,55.5 Z"/></g>
<g><path style="opacity:1" fill="#d0d4c7" d="M 24.5,64.5 C 25.7573,67.4274 27.7573,69.7607 30.5,71.5C 29.6586,73.3792 29.3253,75.3792 29.5,77.5C 27.274,71.2691 22.9406,67.6025 16.5,66.5C 19.5331,66.8685 22.1998,66.2018 24.5,64.5 Z"/></g>
<g><path style="opacity:1" fill="#f4f6f1" d="M 39.5,75.5 C 39.4431,76.609 39.1098,77.609 38.5,78.5C 38.5,78.8333 38.5,79.1667 38.5,79.5C 34.7059,82.5181 31.7059,81.8515 29.5,77.5C 29.3253,75.3792 29.6586,73.3792 30.5,71.5C 35.217,69.4181 38.217,70.7515 39.5,75.5 Z"/></g>
<g><path style="opacity:1" fill="#a8b094" d="M 38.5,79.5 C 38.5,79.1667 38.5,78.8333 38.5,78.5C 41.1522,78.4095 43.4855,79.0762 45.5,80.5C 43.0971,80.552 40.7638,80.2186 38.5,79.5 Z"/></g>
</svg>
