<?xml version="1.0" encoding="UTF-8"?>
<!DOCTYPE svg PUBLIC "-//W3C//DTD SVG 1.1//EN" "http://www.w3.org/Graphics/SVG/1.1/DTD/svg11.dtd">
<svg xmlns="http://www.w3.org/2000/svg" version="1.1" width="96px" height="96px" style="shape-rendering:geometricPrecision; text-rendering:geometricPrecision; image-rendering:optimizeQuality; fill-rule:evenodd; clip-rule:evenodd" xmlns:xlink="http://www.w3.org/1999/xlink">
<g><path style="opacity:1" fill="#01373f" d="M 2.5,2.5 C 32.5,2.5 62.5,2.5 92.5,2.5C 92.5,32.5 92.5,62.5 92.5,92.5C 62.5,92.5 32.5,92.5 2.5,92.5C 2.5,62.5 2.5,32.5 2.5,2.5 Z"/></g>
<g><path style="opacity:1" fill="#395e64" d="M 3.5,3.5 C 32.8333,3.5 62.1667,3.5 91.5,3.5C 91.5,32.8333 91.5,62.1667 91.5,91.5C 62.1667,91.5 32.8333,91.5 3.5,91.5C 3.5,62.1667 3.5,32.8333 3.5,3.5 Z"/></g>
<g><path style="opacity:1" fill="#47686d" d="M 4.5,4.5 C 33.1667,4.5 61.8333,4.5 90.5,4.5C 90.5,33.1667 90.5,61.8333 90.5,90.5C 61.8333,90.5 33.1667,90.5 4.5,90.5C 4.5,61.8333 4.5,33.1667 4.5,4.5 Z"/></g>
<g><path style="opacity:1" fill="#7f9599" d="M 44.5,68.5 C 42.8534,71.9207 42.1868,75.5874 42.5,79.5C 40.901,79.7678 39.5676,79.4345 38.5,78.5C 39.5,78.5 40.5,78.5 41.5,78.5C 41.3354,75.4816 41.502,72.4816 42,69.5C 42.6708,68.7476 43.5041,68.4142 44.5,68.5 Z"/></g>
<g><path style="opacity:1" fill="#c4cdcf" d="M 30.5,75.5 C 29.7677,74.1917 28.9344,72.8584 28,71.5C 27.6174,72.056 27.1174,72.3893 26.5,72.5C 26.8425,70.7748 27.8425,70.2748 29.5,71C 30.3802,72.3561 30.7135,73.8561 30.5,75.5 Z"/></g>
<g><path style="opacity:1" fill="#bfc2c2" d="M 54.5,59.5 C 54.5,61.5 54.5,63.5 54.5,65.5C 51.8333,65.5 49.1667,65.5 46.5,65.5C 49.1283,63.5116 51.795,61.5116 54.5,59.5 Z"/></g>
<g><path style="opacity:1" fill="#ebedee" d="M 13.5,54.5 C 14.1599,55.964 14.4932,57.6307 14.5,59.5C 14.4439,61.6397 13.7773,63.3064 12.5,64.5C 12.2767,62.6583 11.9434,60.825 11.5,59C 11.5247,57.124 12.1914,55.624 13.5,54.5 Z"/></g>
<g><path style="opacity:1" fill="#7b8e91" d="M 86.5,38.5 C 87.162,40.3035 87.4954,42.3035 87.5,44.5C 87.6575,47.8136 86.9908,50.8136 85.5,53.5C 86.254,48.5365 86.5874,43.5365 86.5,38.5 Z"/></g>
<g><path style="opacity:1" fill="#fafbfb" d="M 48.5,43.5 C 48.3379,45.5273 48.5045,47.5273 49,49.5C 51.41,52.3968 53.5767,55.3968 55.5,58.5C 55.5,59.1667 55.1667,59.5 54.5,59.5C 51.795,61.5116 49.1283,63.5116 46.5,65.5C 46.0679,66.7095 45.4013,67.7095 44.5,68.5C 43.5041,68.4142 42.6708,68.7476 42,69.5C 41.502,72.4816 41.3354,75.4816 41.5,78.5C 40.5,78.5 39.5,78.5 38.5,78.5C 35.9127,77.2513 33.246,76.2513 30.5,75.5C 30.7135,73.8561 30.3802,72.3561 29.5,71C 27.8425,70.2748 26.8425,70.7748 26.5,72.5C 23.039,73.1105 20.3723,71.9439 18.5,69C 17.552,68.5172 16.552,68.3505 15.5,68.5C 15.281,67.325 15.6143,66.325 16.5,65.5C 21.6726,67.8434 27.0059,68.0101 32.5,66C 23.9513,64.4837 20.7847,59.6503 23,51.5C 25.4412,48.5464 28.2745,46.2131 31.5,44.5C 37.1064,43.5931 42.773,43.2598 48.5,43.5 Z"/></g>
<g><path style="opacity:1" fill="#c7c8c8" d="M 27.5,18.5 C 24.5,18.5 21.5,18.5 18.5,18.5C 18.3335,28.1724 18.5002,37.8391 19,47.5C 20.1393,38.4851 20.9726,29.4851 21.5,20.5C 21.1872,24.0419 21.5206,27.3752 22.5,30.5C 22.1734,35.2137 22.5067,39.8804 23.5,44.5C 24.1067,44.3764 24.44,44.0431 24.5,43.5C 27.0593,43.1984 29.3926,43.5318 31.5,44.5C 28.2745,46.2131 25.4412,48.5464 23,51.5C 20.7847,59.6503 23.9513,64.4837 32.5,66C 27.0059,68.0101 21.6726,67.8434 16.5,65.5C 15.6143,66.325 15.281,67.325 15.5,68.5C 14.6588,67.0736 13.6588,65.7403 12.5,64.5C 13.7773,63.3064 14.4439,61.6397 14.5,59.5C 14.4932,57.6307 14.1599,55.964 13.5,54.5C 14.072,53.0267 14.9054,51.6934 16,50.5C 16.2863,39.4797 16.7863,28.4797 17.5,17.5C 21.0419,17.1872 24.3752,17.5206 27.5,18.5 Z"/></g>
<g><path style="opacity:1" fill="#93a3a6" d="M 51.5,35.5 C 51.821,38.5769 50.821,40.9103 48.5,42.5C 44.5,42.5 40.5,42.5 36.5,42.5C 40.6344,41.5151 44.9677,41.1818 49.5,41.5C 49.595,39.2143 50.2616,37.2143 51.5,35.5 Z"/></g>
<g><path style="opacity:1" fill="#e3e5e5" d="M 31.5,26.5 C 31.1795,31.6946 31.5128,36.6946 32.5,41.5C 33.5676,42.4345 34.901,42.7678 36.5,42.5C 40.5,42.5 44.5,42.5 48.5,42.5C 48.5,42.8333 48.5,43.1667 48.5,43.5C 42.773,43.2598 37.1064,43.5931 31.5,44.5C 29.3926,43.5318 27.0593,43.1984 24.5,43.5C 26.2646,42.5386 28.2646,42.2053 30.5,42.5C 30.1786,36.9738 30.5119,31.6405 31.5,26.5 Z"/></g>
<g><path style="opacity:1" fill="#c7c8c8" d="M 86.5,38.5 C 86.5874,43.5365 86.254,48.5365 85.5,53.5C 84.596,54.209 84.2627,55.209 84.5,56.5C 74.9164,58.145 65.2497,58.8117 55.5,58.5C 53.5767,55.3968 51.41,52.3968 49,49.5C 48.5045,47.5273 48.3379,45.5273 48.5,43.5C 48.5,43.1667 48.5,42.8333 48.5,42.5C 50.821,40.9103 51.821,38.5769 51.5,35.5C 51.8588,33.629 52.8588,32.129 54.5,31C 63.5,30.3333 72.5,30.3333 81.5,31C 83.3141,33.4795 84.9808,35.9795 86.5,38.5 Z"/></g>
<g><path style="opacity:1" fill="#fcfcfc" d="M 68.5,33.5 C 79.7286,33.5445 83.8953,38.8778 81,49.5C 74.4492,56.316 68.7826,55.6493 64,47.5C 63.3333,45.1667 63.3333,42.8333 64,40.5C 65.7498,38.2657 67.2498,35.9324 68.5,33.5 Z"/></g>
<g><path style="opacity:1" fill="#fbfbfb" d="M 31.5,26.5 C 30.5119,31.6405 30.1786,36.9738 30.5,42.5C 28.2646,42.2053 26.2646,42.5386 24.5,43.5C 24.44,44.0431 24.1067,44.3764 23.5,44.5C 22.5067,39.8804 22.1734,35.2137 22.5,30.5C 22.5,27.8333 22.5,25.1667 22.5,22.5C 25.5,22.5 28.5,22.5 31.5,22.5C 31.5,23.8333 31.5,25.1667 31.5,26.5 Z"/></g>
<g><path style="opacity:1" fill="#b5b8b9" d="M 27.5,18.5 C 28.8195,19.9418 30.4862,20.6085 32.5,20.5C 32.5,27.5 32.5,34.5 32.5,41.5C 31.5128,36.6946 31.1795,31.6946 31.5,26.5C 31.5,25.1667 31.5,23.8333 31.5,22.5C 28.5,22.5 25.5,22.5 22.5,22.5C 22.5,25.1667 22.5,27.8333 22.5,30.5C 21.5206,27.3752 21.1872,24.0419 21.5,20.5C 24.0821,20.9746 26.0821,20.3079 27.5,18.5 Z"/></g>
<g><path style="opacity:1" fill="#f7f7f7" d="M 27.5,18.5 C 26.0821,20.3079 24.0821,20.9746 21.5,20.5C 20.9726,29.4851 20.1393,38.4851 19,47.5C 18.5002,37.8391 18.3335,28.1724 18.5,18.5C 21.5,18.5 24.5,18.5 27.5,18.5 Z"/></g>
</svg>
