<?xml version="1.0" encoding="UTF-8"?>
<!DOCTYPE svg PUBLIC "-//W3C//DTD SVG 1.1//EN" "http://www.w3.org/Graphics/SVG/1.1/DTD/svg11.dtd">
<svg xmlns="http://www.w3.org/2000/svg" version="1.1" width="96px" height="96px" style="shape-rendering:geometricPrecision; text-rendering:geometricPrecision; image-rendering:optimizeQuality; fill-rule:evenodd; clip-rule:evenodd" xmlns:xlink="http://www.w3.org/1999/xlink">
<g><path style="opacity:1" fill="#01363e" d="M 2.5,2.5 C 32.5,2.5 62.5,2.5 92.5,2.5C 92.5,32.5 92.5,62.5 92.5,92.5C 62.5,92.5 32.5,92.5 2.5,92.5C 2.5,62.5 2.5,32.5 2.5,2.5 Z"/></g>
<g><path style="opacity:1" fill="#395d64" d="M 3.5,3.5 C 32.8333,3.5 62.1667,3.5 91.5,3.5C 91.5,32.8333 91.5,62.1667 91.5,91.5C 62.1667,91.5 32.8333,91.5 3.5,91.5C 3.5,62.1667 3.5,32.8333 3.5,3.5 Z"/></g>
<g><path style="opacity:1" fill="#47686d" d="M 4.5,4.5 C 33.1667,4.5 61.8333,4.5 90.5,4.5C 90.5,33.1667 90.5,61.8333 90.5,90.5C 61.8333,90.5 33.1667,90.5 4.5,90.5C 4.5,61.8333 4.5,33.1667 4.5,4.5 Z"/></g>
<g><path style="opacity:1" fill="#f9fafa" d="M 58.5,26.5 C 63.772,25.5998 69.1053,25.2665 74.5,25.5C 84.4155,31.123 86.0822,38.623 79.5,48C 74.684,51.1593 69.3506,52.326 63.5,51.5C 63.5,52.8333 63.5,54.1667 63.5,55.5C 61.8958,56.287 61.2291,57.6203 61.5,59.5C 59.6799,65.326 56.0132,69.6593 50.5,72.5C 49.209,72.7373 48.209,72.404 47.5,71.5C 54.258,66.6598 57.9247,59.9931 58.5,51.5C 58.0233,50.5224 57.3567,49.6891 56.5,49C 53.4459,48.1786 50.4459,48.3452 47.5,49.5C 46.8727,53.293 44.7061,55.6263 41,56.5C 40.4809,59.5554 38.9809,61.8888 36.5,63.5C 34.3175,62.2679 32.1508,62.2679 30,63.5C 28.5405,63.1918 27.3739,62.5251 26.5,61.5C 26.4595,58.1194 26.7929,54.7861 27.5,51.5C 24.9407,51.1984 22.6074,51.5318 20.5,52.5C 21.1667,57.1667 21.8333,61.8333 22.5,66.5C 22.5,67.8333 21.8333,68.5 20.5,68.5C 19.3077,66.8869 18.3077,65.2202 17.5,63.5C 17.5905,60.8478 16.9238,58.5145 15.5,56.5C 15.9746,53.9179 15.3079,51.9179 13.5,50.5C 10.6076,47.1032 9.77425,43.1032 11,38.5C 11.7475,36.249 13.2475,34.9156 15.5,34.5C 19.6423,33.9603 23.6423,33.2937 27.5,32.5C 29.4758,30.9891 31.8091,30.1558 34.5,30C 37.0114,24.7788 41.0114,22.9454 46.5,24.5C 47.4287,25.6888 47.762,27.0222 47.5,28.5C 51.232,28.0157 54.8987,27.349 58.5,26.5 Z"/></g>
<g><path style="opacity:1" fill="#9eaeb1" d="M 74.5,25.5 C 69.1053,25.2665 63.772,25.5998 58.5,26.5C 58.6107,25.8826 58.944,25.3826 59.5,25C 64.6842,24.1837 69.6842,24.3503 74.5,25.5 Z"/></g>
<g><path style="opacity:1" fill="#a5babd" d="M 64.5,29.5 C 75.0766,27.9217 79.9099,32.255 79,42.5C 72.3975,49.4803 66.2309,49.1469 60.5,41.5C 59.3526,39.2351 59.1859,36.9018 60,34.5C 61.7073,32.9625 63.2073,31.2959 64.5,29.5 Z"/></g>
<g><path style="opacity:1" fill="#b9c5c7" d="M 27.5,32.5 C 23.6423,33.2937 19.6423,33.9603 15.5,34.5C 15.6107,33.8826 15.944,33.3826 16.5,33C 20.1516,32.5014 23.8183,32.3347 27.5,32.5 Z"/></g>
<g><path style="opacity:1" fill="#4c6b71" d="M 47.5,71.5 C 37.5435,76.8526 29.2102,75.1859 22.5,66.5C 21.8333,61.8333 21.1667,57.1667 20.5,52.5C 22.5273,52.3379 24.5273,52.5045 26.5,53C 25.1834,55.9365 25.1834,58.7699 26.5,61.5C 27.3739,62.5251 28.5405,63.1918 30,63.5C 32.1508,62.2679 34.3175,62.2679 36.5,63.5C 38.9809,61.8888 40.4809,59.5554 41,56.5C 44.7061,55.6263 46.8727,53.293 47.5,49.5C 50.4459,48.3452 53.4459,48.1786 56.5,49C 57.3567,49.6891 58.0233,50.5224 58.5,51.5C 57.9247,59.9931 54.258,66.6598 47.5,71.5 Z"/></g>
<g><path style="opacity:1" fill="#7a9094" d="M 13.5,50.5 C 15.3079,51.9179 15.9746,53.9179 15.5,56.5C 14.7148,54.6264 14.0482,52.6264 13.5,50.5 Z"/></g>
<g><path style="opacity:1" fill="#8ea1a5" d="M 20.5,52.5 C 22.6074,51.5318 24.9407,51.1984 27.5,51.5C 26.7929,54.7861 26.4595,58.1194 26.5,61.5C 25.1834,58.7699 25.1834,55.9365 26.5,53C 24.5273,52.5045 22.5273,52.3379 20.5,52.5 Z"/></g>
<g><path style="opacity:1" fill="#a3b2b5" d="M 63.5,55.5 C 63.3404,57.153 62.6737,58.4863 61.5,59.5C 61.2291,57.6203 61.8958,56.287 63.5,55.5 Z"/></g>
<g><path style="opacity:1" fill="#97a8ab" d="M 15.5,56.5 C 16.9238,58.5145 17.5905,60.8478 17.5,63.5C 16.0762,61.4855 15.4095,59.1522 15.5,56.5 Z"/></g>
<g><path style="opacity:1" fill="#d5dbdc" d="M 22.5,66.5 C 29.2102,75.1859 37.5435,76.8526 47.5,71.5C 48.209,72.404 49.209,72.7373 50.5,72.5C 42.0554,77.6276 33.3887,77.7943 24.5,73C 22.9586,71.6288 21.6253,70.1288 20.5,68.5C 21.8333,68.5 22.5,67.8333 22.5,66.5 Z"/></g>
</svg>
