<?xml version="1.0" encoding="UTF-8"?>
<!DOCTYPE svg PUBLIC "-//W3C//DTD SVG 1.1//EN" "http://www.w3.org/Graphics/SVG/1.1/DTD/svg11.dtd">
<svg xmlns="http://www.w3.org/2000/svg" version="1.1" width="96px" height="96px" style="shape-rendering:geometricPrecision; text-rendering:geometricPrecision; image-rendering:optimizeQuality; fill-rule:evenodd; clip-rule:evenodd" xmlns:xlink="http://www.w3.org/1999/xlink">
<g><path style="opacity:1" fill="#936e29" d="M 2.5,2.5 C 32.5,2.5 62.5,2.5 92.5,2.5C 92.5,32.5 92.5,62.5 92.5,92.5C 62.5,92.5 32.5,92.5 2.5,92.5C 2.5,62.5 2.5,32.5 2.5,2.5 Z"/></g>
<g><path style="opacity:1" fill="#bd9643" d="M 3.5,3.5 C 32.8333,3.5 62.1667,3.5 91.5,3.5C 91.5,32.8333 91.5,62.1667 91.5,91.5C 62.1667,91.5 32.8333,91.5 3.5,91.5C 3.5,62.1667 3.5,32.8333 3.5,3.5 Z"/></g>
<g><path style="opacity:1" fill="#c8a14c" d="M 4.5,4.5 C 33.1667,4.5 61.8333,4.5 90.5,4.5C 90.5,33.1667 90.5,61.8333 90.5,90.5C 61.8333,90.5 33.1667,90.5 4.5,90.5C 4.5,61.8333 4.5,33.1667 4.5,4.5 Z"/></g>
<g><path style="opacity:1" fill="#dac28a" d="M 82.5,67.5 C 76.588,69.4563 70.2547,70.1229 63.5,69.5C 63.5,69.1667 63.5,68.8333 63.5,68.5C 69.8918,68.7513 76.2252,68.418 82.5,67.5 Z"/></g>
<g><path style="opacity:1" fill="#dec089" d="M 25.5,58.5 C 28.1667,60.1667 28.1667,61.8333 25.5,63.5C 25.5,61.8333 25.5,60.1667 25.5,58.5 Z"/></g>
<g><path style="opacity:1" fill="#dac189" d="M 16.5,48.5 C 16.33,49.8221 16.6634,50.9887 17.5,52C 21.0252,52.1787 24.3586,52.6787 27.5,53.5C 23.8183,53.6653 20.1516,53.4986 16.5,53C 15.1991,51.3845 15.1991,49.8845 16.5,48.5 Z"/></g>
<g><path style="opacity:1" fill="#caa757" d="M 65.5,43.5 C 61.5302,47.9297 61.5302,52.4297 65.5,57C 69.8333,57.3333 74.1667,57.6667 78.5,58C 79.8333,60 79.8333,62 78.5,64C 73.5111,64.4993 68.5111,64.6659 63.5,64.5C 63.5,65.8333 63.5,67.1667 63.5,68.5C 63.5,68.8333 63.5,69.1667 63.5,69.5C 63.1034,70.525 62.4368,70.6917 61.5,70C 60.3702,64.1799 58.8702,64.0132 57,69.5C 56.6667,68.8333 56.3333,68.1667 56,67.5C 51.6964,69.4141 47.1964,69.9141 42.5,69C 41.944,68.6174 41.6107,68.1174 41.5,67.5C 52.7331,70.9036 58.7331,66.9036 59.5,55.5C 59.2973,52.8031 58.964,50.1364 58.5,47.5C 59.5,47.5 60.5,47.5 61.5,47.5C 61.5,46.1667 61.5,44.8333 61.5,43.5C 62.8333,43.5 64.1667,43.5 65.5,43.5 Z"/></g>
<g><path style="opacity:1" fill="#fcfaf6" d="M 65.5,43.5 C 71.8333,43.5 78.1667,43.5 84.5,43.5C 84.5,44.8333 84.5,46.1667 84.5,47.5C 79.4889,47.3341 74.4889,47.5007 69.5,48C 66.9974,49.5494 66.9974,51.2161 69.5,53C 74.5191,53.0582 79.3524,53.8916 84,55.5C 86.2073,59.9092 85.7073,63.9092 82.5,67.5C 76.2252,68.418 69.8918,68.7513 63.5,68.5C 63.5,67.1667 63.5,65.8333 63.5,64.5C 68.5111,64.6659 73.5111,64.4993 78.5,64C 79.8333,62 79.8333,60 78.5,58C 74.1667,57.6667 69.8333,57.3333 65.5,57C 61.5302,52.4297 61.5302,47.9297 65.5,43.5 Z"/></g>
<g><path style="opacity:1" fill="#fbf8f1" d="M 58.5,47.5 C 58.964,50.1364 59.2973,52.8031 59.5,55.5C 58.7331,66.9036 52.7331,70.9036 41.5,67.5C 38.5392,66.6072 36.7059,64.6072 36,61.5C 35.0151,56.3105 35.5151,51.3105 37.5,46.5C 44.7509,40.9838 51.7509,41.3172 58.5,47.5 Z"/></g>
<g><path style="opacity:1" fill="#ddbe87" d="M 52.5,49.5 C 55.0794,53.5303 55.0794,57.5303 52.5,61.5C 52.5,57.5 52.5,53.5 52.5,49.5 Z"/></g>
<g><path style="opacity:1" fill="#c8a24f" d="M 52.5,49.5 C 52.5,53.5 52.5,57.5 52.5,61.5C 49.1226,65.4778 45.6226,65.4778 42,61.5C 41.2039,57.2452 41.3705,53.0785 42.5,49C 46.0248,46.8723 49.3582,47.0389 52.5,49.5 Z"/></g>
<g><path style="opacity:1" fill="#fcfaf7" d="M 30.5,47.5 C 25.6367,47.1805 20.97,47.5139 16.5,48.5C 15.1991,49.8845 15.1991,51.3845 16.5,53C 20.1516,53.4986 23.8183,53.6653 27.5,53.5C 30.8362,54.4651 32.5029,56.7984 32.5,60.5C 32.373,63.3873 31.373,65.8873 29.5,68C 23.1754,68.4995 16.8421,68.6662 10.5,68.5C 10.5,67.1667 10.5,65.8333 10.5,64.5C 15.6946,64.8205 20.6946,64.4872 25.5,63.5C 28.1667,61.8333 28.1667,60.1667 25.5,58.5C 21.3528,57.6753 17.0195,57.1753 12.5,57C 9.60614,54.0913 8.7728,50.5913 10,46.5C 10.7083,45.6195 11.5416,44.9528 12.5,44.5C 18.4406,43.5872 24.4406,43.2539 30.5,43.5C 30.5,44.8333 30.5,46.1667 30.5,47.5 Z"/></g>
<g><path style="opacity:1" fill="#e4d0a6" d="M 30.5,47.5 C 30.5,46.1667 30.5,44.8333 30.5,43.5C 24.4406,43.2539 18.4406,43.5872 12.5,44.5C 12.6107,43.8826 12.944,43.3826 13.5,43C 19.4908,42.5005 25.4908,42.3338 31.5,42.5C 31.7845,44.4147 31.4511,46.0813 30.5,47.5 Z"/></g>
<g><path style="opacity:1" fill="#dbbf84" d="M 39.5,32.5 C 44.5111,32.3341 49.5111,32.5007 54.5,33C 57.3286,34.2467 59.9952,35.7467 62.5,37.5C 62.1131,38.7199 61.2798,39.3865 60,39.5C 51.6818,35.558 43.3485,35.558 35,39.5C 33.0543,39.2373 32.3877,38.2373 33,36.5C 35.0948,34.8753 37.2615,33.5419 39.5,32.5 Z"/></g>
<g><path style="opacity:1" fill="#e9d8b4" d="M 40.5,20.5 C 51.9029,19.3759 62.2362,22.0425 71.5,28.5C 70.5,30.1667 69.1667,31.5 67.5,32.5C 61.451,28.4821 54.7844,26.8155 47.5,27.5C 40.3262,26.6148 33.8262,28.2814 28,32.5C 25.0517,30.9571 24.2184,28.7905 25.5,26C 30.4003,23.647 35.4003,21.8136 40.5,20.5 Z"/></g>
<g><path style="opacity:1" fill="#f2e6d0" d="M 38.5,9.5 C 54.0263,7.76214 68.0263,11.2621 80.5,20C 79.3867,21.3943 78.0534,22.561 76.5,23.5C 70.3357,20.7089 64.0023,18.3755 57.5,16.5C 43.819,14.0861 30.9856,16.4194 19,23.5C 17.0403,22.7082 15.5403,21.3749 14.5,19.5C 21.8323,14.3941 29.8323,11.0608 38.5,9.5 Z"/></g>
</svg>
