<?xml version="1.0" encoding="UTF-8"?>
<!DOCTYPE svg PUBLIC "-//W3C//DTD SVG 1.1//EN" "http://www.w3.org/Graphics/SVG/1.1/DTD/svg11.dtd">
<svg xmlns="http://www.w3.org/2000/svg" version="1.1" width="96px" height="96px" style="shape-rendering:geometricPrecision; text-rendering:geometricPrecision; image-rendering:optimizeQuality; fill-rule:evenodd; clip-rule:evenodd" xmlns:xlink="http://www.w3.org/1999/xlink">
<g><path style="opacity:1" fill="#01363e" d="M 2.5,2.5 C 32.5,2.5 62.5,2.5 92.5,2.5C 92.5,32.5 92.5,62.5 92.5,92.5C 62.5,92.5 32.5,92.5 2.5,92.5C 2.5,62.5 2.5,32.5 2.5,2.5 Z"/></g>
<g><path style="opacity:1" fill="#395d64" d="M 3.5,3.5 C 32.8333,3.5 62.1667,3.5 91.5,3.5C 91.5,32.8333 91.5,62.1667 91.5,91.5C 62.1667,91.5 32.8333,91.5 3.5,91.5C 3.5,62.1667 3.5,32.8333 3.5,3.5 Z"/></g>
<g><path style="opacity:1" fill="#47686e" d="M 4.5,4.5 C 33.1667,4.5 61.8333,4.5 90.5,4.5C 90.5,33.1667 90.5,61.8333 90.5,90.5C 61.8333,90.5 33.1667,90.5 4.5,90.5C 4.5,61.8333 4.5,33.1667 4.5,4.5 Z"/></g>
<g><path style="opacity:1" fill="#c2d3d7" d="M 73.5,53.5 C 73.9817,52.5837 74.315,51.5837 74.5,50.5C 70.245,42.0591 64.5784,34.5591 57.5,28C 55.8659,27.5065 54.1992,27.3398 52.5,27.5C 51.8333,27.5 51.5,27.1667 51.5,26.5C 53.288,26.7852 54.9547,26.4519 56.5,25.5C 56.1667,24.8333 55.8333,24.1667 55.5,23.5C 58.5912,18.9863 61.9245,14.653 65.5,10.5C 66.086,10.7093 66.586,11.0426 67,11.5C 72.4144,21.331 78.0811,30.9977 84,40.5C 86.3332,48.1522 85.6666,55.4856 82,62.5C 79.6161,58.9528 76.7827,55.9528 73.5,53.5 Z"/></g>
<g><path style="opacity:1" fill="#c7d7db" d="M 51.5,26.5 C 51.5,27.1667 51.8333,27.5 52.5,27.5C 57.1302,32.6313 61.9635,37.6313 67,42.5C 68.1852,46.5981 70.0185,50.2647 72.5,53.5C 72.5,53.8333 72.5,54.1667 72.5,54.5C 71.254,57.2933 71.5873,59.96 73.5,62.5C 75.9806,66.2985 77.9806,70.2985 79.5,74.5C 78.0222,74.762 76.6888,74.4287 75.5,73.5C 74.5589,71.2279 73.2255,69.2279 71.5,67.5C 70.2613,67.9424 69.2613,68.6091 68.5,69.5C 66.602,68.9035 64.9354,68.9035 63.5,69.5C 60.1762,65.676 56.6762,62.0093 53,58.5C 52.6667,56.5 52.3333,54.5 52,52.5C 47.7597,47.6825 43.7597,42.6825 40,37.5C 39.1841,36.1772 38.0174,35.5106 36.5,35.5C 35.6967,30.9206 37.3634,27.7539 41.5,26C 43.3904,24.8877 45.3904,24.0544 47.5,23.5C 49.4172,23.7538 50.7505,24.7538 51.5,26.5 Z"/></g>
<g><path style="opacity:1" fill="#e6f6fa" d="M 46.5,26.5 C 49.2919,26.4521 51.1253,27.7854 52,30.5C 54.2844,34.3822 55.9511,38.3822 57,42.5C 52,38.8333 47,35.1667 42,31.5C 41.3333,30.8333 41.3333,30.1667 42,29.5C 43.6516,28.6006 45.1516,27.6006 46.5,26.5 Z"/></g>
<g><path style="opacity:1" fill="#c3d4d8" d="M 34.5,36.5 C 33.5325,39.4453 33.3658,42.4453 34,45.5C 38.3333,51.5 42.6667,57.5 47,63.5C 48.0113,64.3366 49.1779,64.67 50.5,64.5C 52.14,67.1492 53.8067,69.8159 55.5,72.5C 52.0381,73.4816 48.3714,73.815 44.5,73.5C 38.4035,71.579 33.5701,67.9123 30,62.5C 22.7293,52.9446 15.2293,43.6113 7.5,34.5C 6.61432,33.675 6.28099,32.675 6.5,31.5C 13.8521,30.6253 21.1854,30.6253 28.5,31.5C 29.482,34.5335 31.482,36.2002 34.5,36.5 Z"/></g>
<g><path style="opacity:1" fill="#e6f6fa" d="M 36.5,35.5 C 38.0174,35.5106 39.1841,36.1772 40,37.5C 43.7597,42.6825 47.7597,47.6825 52,52.5C 52.3333,54.5 52.6667,56.5 53,58.5C 56.6762,62.0093 60.1762,65.676 63.5,69.5C 63.8333,70.5 64.5,71.1667 65.5,71.5C 66.9885,73.6451 67.9885,75.9785 68.5,78.5C 62.7762,74.9389 58.1095,70.1055 54.5,64C 52.9343,63.235 51.6009,63.4017 50.5,64.5C 49.1779,64.67 48.0113,64.3366 47,63.5C 42.6667,57.5 38.3333,51.5 34,45.5C 33.3658,42.4453 33.5325,39.4453 34.5,36.5C 35.4916,36.6716 36.1583,36.3382 36.5,35.5 Z"/></g>
<g><path style="opacity:1" fill="#e3f4f7" d="M 52.5,27.5 C 54.1992,27.3398 55.8659,27.5065 57.5,28C 64.5784,34.5591 70.245,42.0591 74.5,50.5C 74.315,51.5837 73.9817,52.5837 73.5,53.5C 73.1667,53.5 72.8333,53.5 72.5,53.5C 70.0185,50.2647 68.1852,46.5981 67,42.5C 61.9635,37.6313 57.1302,32.6313 52.5,27.5 Z"/></g>
<g><path style="opacity:1" fill="#96adb1" d="M 72.5,54.5 C 72.8333,57.1667 73.1667,59.8333 73.5,62.5C 71.5873,59.96 71.254,57.2933 72.5,54.5 Z"/></g>
<g><path style="opacity:1" fill="#708b90" d="M 68.5,69.5 C 67.5,70.1667 66.5,70.8333 65.5,71.5C 64.5,71.1667 63.8333,70.5 63.5,69.5C 64.9354,68.9035 66.602,68.9035 68.5,69.5 Z"/></g>
<g><path style="opacity:1" fill="#8ea5a9" d="M 55.5,72.5 C 56.0431,72.56 56.3764,72.8933 56.5,73.5C 52.3507,74.8095 48.3507,74.8095 44.5,73.5C 48.3714,73.815 52.0381,73.4816 55.5,72.5 Z"/></g>
</svg>
