<?xml version="1.0" encoding="UTF-8"?>
<!DOCTYPE svg PUBLIC "-//W3C//DTD SVG 1.1//EN" "http://www.w3.org/Graphics/SVG/1.1/DTD/svg11.dtd">
<svg xmlns="http://www.w3.org/2000/svg" version="1.1" width="96px" height="96px" style="shape-rendering:geometricPrecision; text-rendering:geometricPrecision; image-rendering:optimizeQuality; fill-rule:evenodd; clip-rule:evenodd" xmlns:xlink="http://www.w3.org/1999/xlink">
<g><path style="opacity:1" fill="#174349" d="M 2.5,2.5 C 32.5,2.5 62.5,2.5 92.5,2.5C 92.5,32.5 92.5,62.5 92.5,92.5C 62.5,92.5 32.5,92.5 2.5,92.5C 2.5,62.5 2.5,32.5 2.5,2.5 Z"/></g>
<g><path style="opacity:1" fill="#47676d" d="M 89.5,87.5 C 88.8191,79.7653 88.1524,71.932 87.5,64C 87.9574,63.586 88.2907,63.086 88.5,62.5C 87.3112,61.5713 85.9778,61.238 84.5,61.5C 79.7193,58.54 77.386,54.2066 77.5,48.5C 75.1022,43.4898 72.6022,38.4898 70,33.5C 69.3162,32.2161 69.4829,31.0495 70.5,30C 68.2411,27.5366 65.5744,26.2032 62.5,26C 59.4053,29.2111 55.7386,31.3778 51.5,32.5C 49.6814,32.6578 48.3481,31.9911 47.5,30.5C 50.7592,25.0935 49.7592,20.5935 44.5,17C 39.8467,17.0794 35.68,15.9127 32,13.5C 29.2639,14.7608 27.4306,16.7608 26.5,19.5C 26.1667,20.1667 25.8333,20.8333 25.5,21.5C 25.1667,21.5 24.8333,21.5 24.5,21.5C 23.5166,25.2984 23.1832,29.2984 23.5,33.5C 21.3453,33.628 19.3453,33.128 17.5,32C 13.9504,24.9004 11.7837,25.0671 11,32.5C 7.50701,34.4019 6.34034,37.0685 7.5,40.5C 6.33991,55.8697 6.33991,71.7031 7.5,88C 34.3365,88.1678 61.0031,88.6678 87.5,89.5C 60.1667,89.5 32.8333,89.5 5.5,89.5C 5.82992,72.3251 5.49659,55.3251 4.5,38.5C 4.5,36.8333 4.5,35.1667 4.5,33.5C 5.49356,24.3483 5.82689,15.015 5.5,5.5C 33.5,5.5 61.5,5.5 89.5,5.5C 89.5,32.8333 89.5,60.1667 89.5,87.5 Z"/></g>
<g><path style="opacity:1" fill="#a3b6b9" d="M 26.5,19.5 C 32.9988,22.3414 36.3321,27.3414 36.5,34.5C 37.8333,36.5 39.5,38.1667 41.5,39.5C 42.4519,41.0453 42.7852,42.712 42.5,44.5C 49.1138,43.0634 54.1138,45.3968 57.5,51.5C 55.8333,52.5 54.5,53.8333 53.5,55.5C 46.4227,50.5911 40.5894,44.5911 36,37.5C 34.1217,39.0429 32.6217,40.8762 31.5,43C 29.4032,44.6104 27.0698,45.7771 24.5,46.5C 25.9416,49.0496 27.1083,51.7163 28,54.5C 28.6708,55.2524 29.5041,55.5858 30.5,55.5C 27.8284,57.5985 24.9951,59.5985 22,61.5C 16.9398,54.6152 12.1065,47.6152 7.5,40.5C 6.34034,37.0685 7.50701,34.4019 11,32.5C 11.7837,25.0671 13.9504,24.9004 17.5,32C 19.3453,33.128 21.3453,33.628 23.5,33.5C 23.1832,29.2984 23.5166,25.2984 24.5,21.5C 24.3347,25.1817 24.5014,28.8484 25,32.5C 32.1432,29.3292 32.3099,25.6625 25.5,21.5C 25.8333,20.8333 26.1667,20.1667 26.5,19.5 Z"/></g>
<g><path style="opacity:1" fill="#f9fafa" d="M 77.5,48.5 C 77.5,50.5 77.5,52.5 77.5,54.5C 73.1214,55.2003 69.1214,56.867 65.5,59.5C 65.1667,60.3333 64.8333,61.1667 64.5,62C 65.527,65.3694 67.027,68.5361 69,71.5C 69.765,73.0657 69.5983,74.3991 68.5,75.5C 64.1522,69.9933 60.1522,64.16 56.5,58C 52.5753,58.5184 48.5753,58.5184 44.5,58C 41.9841,55.3167 39.3174,52.8167 36.5,50.5C 33.8708,51.4667 31.8708,53.1334 30.5,55.5C 29.5041,55.5858 28.6708,55.2524 28,54.5C 27.1083,51.7163 25.9416,49.0496 24.5,46.5C 27.0698,45.7771 29.4032,44.6104 31.5,43C 32.6217,40.8762 34.1217,39.0429 36,37.5C 40.5894,44.5911 46.4227,50.5911 53.5,55.5C 54.5,53.8333 55.8333,52.5 57.5,51.5C 54.1138,45.3968 49.1138,43.0634 42.5,44.5C 42.7852,42.712 42.4519,41.0453 41.5,39.5C 39.5,38.1667 37.8333,36.5 36.5,34.5C 36.3321,27.3414 32.9988,22.3414 26.5,19.5C 27.4306,16.7608 29.2639,14.7608 32,13.5C 35.68,15.9127 39.8467,17.0794 44.5,17C 49.7592,20.5935 50.7592,25.0935 47.5,30.5C 48.3481,31.9911 49.6814,32.6578 51.5,32.5C 55.7386,31.3778 59.4053,29.2111 62.5,26C 65.5744,26.2032 68.2411,27.5366 70.5,30C 69.4829,31.0495 69.3162,32.2161 70,33.5C 72.6022,38.4898 75.1022,43.4898 77.5,48.5 Z"/></g>
<g><path style="opacity:1" fill="#3c5f63" d="M 4.5,38.5 C 5.49659,55.3251 5.82992,72.3251 5.5,89.5C 32.8333,89.5 60.1667,89.5 87.5,89.5C 88.8333,89.5 89.5,88.8333 89.5,87.5C 89.5,60.1667 89.5,32.8333 89.5,5.5C 61.5,5.5 33.5,5.5 5.5,5.5C 5.82689,15.015 5.49356,24.3483 4.5,33.5C 4.5,23.8333 4.5,14.1667 4.5,4.5C 33.1667,4.5 61.8333,4.5 90.5,4.5C 90.5,33.1667 90.5,61.8333 90.5,90.5C 61.8333,90.5 33.1667,90.5 4.5,90.5C 4.5,73.1667 4.5,55.8333 4.5,38.5 Z"/></g>
<g><path style="opacity:1" fill="#a2b5b7" d="M 77.5,48.5 C 77.386,54.2066 79.7193,58.54 84.5,61.5C 86.291,65.3264 87.1243,69.3264 87,73.5C 84.5,76 82,78.5 79.5,81C 74.2662,82.0991 70.5996,80.2658 68.5,75.5C 69.5983,74.3991 69.765,73.0657 69,71.5C 67.027,68.5361 65.527,65.3694 64.5,62C 64.8333,61.1667 65.1667,60.3333 65.5,59.5C 69.1214,56.867 73.1214,55.2003 77.5,54.5C 77.5,52.5 77.5,50.5 77.5,48.5 Z"/></g>
<g><path style="opacity:1" fill="#48686d" d="M 7.5,40.5 C 12.1065,47.6152 16.9398,54.6152 22,61.5C 24.9951,59.5985 27.8284,57.5985 30.5,55.5C 31.8708,53.1334 33.8708,51.4667 36.5,50.5C 39.3174,52.8167 41.9841,55.3167 44.5,58C 48.5753,58.5184 52.5753,58.5184 56.5,58C 60.1522,64.16 64.1522,69.9933 68.5,75.5C 70.5996,80.2658 74.2662,82.0991 79.5,81C 82,78.5 84.5,76 87,73.5C 87.1243,69.3264 86.291,65.3264 84.5,61.5C 85.9778,61.238 87.3112,61.5713 88.5,62.5C 88.2907,63.086 87.9574,63.586 87.5,64C 88.1524,71.932 88.8191,79.7653 89.5,87.5C 89.5,88.8333 88.8333,89.5 87.5,89.5C 61.0031,88.6678 34.3365,88.1678 7.5,88C 6.33991,71.7031 6.33991,55.8697 7.5,40.5 Z"/></g>
<g><path style="opacity:1" fill="#fbfbfb" d="M 24.5,21.5 C 24.8333,21.5 25.1667,21.5 25.5,21.5C 32.3099,25.6625 32.1432,29.3292 25,32.5C 24.5014,28.8484 24.3347,25.1817 24.5,21.5 Z"/></g>
</svg>
