<?xml version="1.0" encoding="UTF-8"?>
<!DOCTYPE svg PUBLIC "-//W3C//DTD SVG 1.1//EN" "http://www.w3.org/Graphics/SVG/1.1/DTD/svg11.dtd">
<svg xmlns="http://www.w3.org/2000/svg" version="1.1" width="96px" height="96px" style="shape-rendering:geometricPrecision; text-rendering:geometricPrecision; image-rendering:optimizeQuality; fill-rule:evenodd; clip-rule:evenodd" xmlns:xlink="http://www.w3.org/1999/xlink">
<g><path style="opacity:1" fill="#370a06" d="M 2.5,2.5 C 32.5,2.5 62.5,2.5 92.5,2.5C 92.5,32.5 92.5,62.5 92.5,92.5C 62.5,92.5 32.5,92.5 2.5,92.5C 2.5,62.5 2.5,32.5 2.5,2.5 Z"/></g>
<g><path style="opacity:1" fill="#48211d" d="M 3.5,3.5 C 32.8333,3.5 62.1667,3.5 91.5,3.5C 91.5,32.8333 91.5,62.1667 91.5,91.5C 62.1667,91.5 32.8333,91.5 3.5,91.5C 3.5,62.1667 3.5,32.8333 3.5,3.5 Z"/></g>
<g><path style="opacity:1" fill="#62423d" d="M 4.5,4.5 C 33.1667,4.5 61.8333,4.5 90.5,4.5C 90.5,33.1667 90.5,61.8333 90.5,90.5C 61.8333,90.5 33.1667,90.5 4.5,90.5C 4.5,61.8333 4.5,33.1667 4.5,4.5 Z"/></g>
<g><path style="opacity:1" fill="#6a4d48" d="M 5.5,5.5 C 33.5,5.5 61.5,5.5 89.5,5.5C 89.5,33.5 89.5,61.5 89.5,89.5C 61.5,89.5 33.5,89.5 5.5,89.5C 5.5,61.5 5.5,33.5 5.5,5.5 Z"/></g>
<g><path style="opacity:1" fill="#9f8e89" d="M 86.5,85.5 C 86.8333,85.5 87.1667,85.5 87.5,85.5C 84.0623,86.8232 80.229,87.4898 76,87.5C 71.9848,87.4988 68.1515,87.1655 64.5,86.5C 72.0191,86.825 79.3524,86.4916 86.5,85.5 Z"/></g>
<g><path style="opacity:1" fill="#ddd7d6" d="M 60.5,84.5 C 60.5,84.1667 60.5,83.8333 60.5,83.5C 69.0556,85.1714 77.7223,85.838 86.5,85.5C 79.3524,86.4916 72.0191,86.825 64.5,86.5C 63.8166,84.8235 62.4832,84.1568 60.5,84.5 Z"/></g>
<g><path style="opacity:1" fill="#a69391" d="M 60.5,84.5 C 62.4832,84.1568 63.8166,84.8235 64.5,86.5C 63.0048,86.0113 61.6715,85.3446 60.5,84.5 Z"/></g>
<g><path style="opacity:1" fill="#bcadab" d="M 56.5,69.5 C 60.5727,70.587 62.2394,73.2536 61.5,77.5C 56.3292,77.8758 51.3292,79.0425 46.5,81C 51.1315,82.088 55.7981,82.9213 60.5,83.5C 60.5,83.8333 60.5,84.1667 60.5,84.5C 55.0767,84.4763 49.7434,83.8097 44.5,82.5C 44.5,81.5 44.5,80.5 44.5,79.5C 49.7671,78.1836 55.1004,77.1836 60.5,76.5C 60.0387,73.6967 58.7053,71.3634 56.5,69.5 Z"/></g>
<g><path style="opacity:1" fill="#b7a8a9" d="M 61.5,65.5 C 62.0431,65.56 62.3764,65.8933 62.5,66.5C 60.0251,66.9642 58.0251,67.9642 56.5,69.5C 55.596,68.791 55.2627,67.791 55.5,66.5C 57.7354,66.7947 59.7354,66.4614 61.5,65.5 Z"/></g>
<g><path style="opacity:1" fill="#d3cac8" d="M 83.5,55.5 C 84.1663,59.0208 84.8329,62.6875 85.5,66.5C 87.2141,65.3915 87.8808,66.0582 87.5,68.5C 86.1667,68.5 84.8333,68.5 83.5,68.5C 83.5,64.1667 83.5,59.8333 83.5,55.5 Z"/></g>
<g><path style="opacity:1" fill="#c4b7b7" d="M 56.5,60.5 C 58.5,60.5 59.5,61.5 59.5,63.5C 58.1667,62.8333 57.1667,61.8333 56.5,60.5 Z"/></g>
<g><path style="opacity:1" fill="#a08d89" d="M 87.5,85.5 C 87.5,79.8333 87.5,74.1667 87.5,68.5C 87.8808,66.0582 87.2141,65.3915 85.5,66.5C 84.8329,62.6875 84.1663,59.0208 83.5,55.5C 83.9227,53.2188 83.256,51.5521 81.5,50.5C 81.7058,48.4508 82.5391,48.1175 84,49.5C 85.1601,54.4342 85.6601,59.4342 85.5,64.5C 86.5,64.5 87.5,64.5 88.5,64.5C 88.8245,71.6866 88.4912,78.6866 87.5,85.5 Z"/></g>
<g><path style="opacity:1" fill="#c0b0ac" d="M 51.5,54.5 C 53.8598,55.865 55.5265,57.865 56.5,60.5C 54.1097,59.1092 52.4431,57.1092 51.5,54.5 Z"/></g>
<g><path style="opacity:1" fill="#c8bebe" d="M 68.5,50.5 C 67.834,53.3583 67.1674,56.3583 66.5,59.5C 65.8933,59.3764 65.56,59.0431 65.5,58.5C 66.8333,55.5 66.8333,52.5 65.5,49.5C 65.3505,48.448 65.5172,47.448 66,46.5C 67.7058,47.3079 68.5391,48.6412 68.5,50.5 Z"/></g>
<g><path style="opacity:1" fill="#907b77" d="M 65.5,49.5 C 66.8333,52.5 66.8333,55.5 65.5,58.5C 65.1667,57.8333 64.8333,57.1667 64.5,56.5C 65.4682,54.3926 65.8016,52.0593 65.5,49.5 Z"/></g>
<g><path style="opacity:1" fill="#b5a7a5" d="M 53.5,47.5 C 52.1667,47.5 50.8333,47.5 49.5,47.5C 49.4003,50.1085 50.0669,52.4418 51.5,54.5C 46.1721,51.4883 46.1721,48.4883 51.5,45.5C 52.5223,45.8555 53.189,46.5222 53.5,47.5 Z"/></g>
<g><path style="opacity:1" fill="#fbfafa" d="M 53.5,47.5 C 55.1667,48.5 56.5,49.8333 57.5,51.5C 58.865,53.8598 60.865,55.5265 63.5,56.5C 63.8333,56.5 64.1667,56.5 64.5,56.5C 64.8333,57.1667 65.1667,57.8333 65.5,58.5C 65.56,59.0431 65.8933,59.3764 66.5,59.5C 67.1674,56.3583 67.834,53.3583 68.5,50.5C 70.6433,52.1307 72.31,54.1307 73.5,56.5C 74.2341,57.7079 74.5674,59.0413 74.5,60.5C 75.791,60.7373 76.791,60.404 77.5,59.5C 79.5837,56.9466 80.917,53.9466 81.5,50.5C 83.256,51.5521 83.9227,53.2188 83.5,55.5C 83.5,59.8333 83.5,64.1667 83.5,68.5C 84.8333,68.5 86.1667,68.5 87.5,68.5C 87.5,74.1667 87.5,79.8333 87.5,85.5C 87.1667,85.5 86.8333,85.5 86.5,85.5C 77.7223,85.838 69.0556,85.1714 60.5,83.5C 55.7981,82.9213 51.1315,82.088 46.5,81C 51.3292,79.0425 56.3292,77.8758 61.5,77.5C 62.2394,73.2536 60.5727,70.587 56.5,69.5C 58.0251,67.9642 60.0251,66.9642 62.5,66.5C 62.3764,65.8933 62.0431,65.56 61.5,65.5C 60.5,65.1667 59.8333,64.5 59.5,63.5C 59.5,61.5 58.5,60.5 56.5,60.5C 55.5265,57.865 53.8598,55.865 51.5,54.5C 50.0669,52.4418 49.4003,50.1085 49.5,47.5C 50.8333,47.5 52.1667,47.5 53.5,47.5 Z"/></g>
<g><path style="opacity:1" fill="#8f7b79" d="M 78.5,55.5 C 78.1667,56.8333 77.8333,58.1667 77.5,59.5C 76.791,60.404 75.791,60.7373 74.5,60.5C 74.5674,59.0413 74.2341,57.7079 73.5,56.5C 74.7498,56.5774 75.5831,57.244 76,58.5C 76.3768,57.0577 77.2101,56.0577 78.5,55.5 Z"/></g>
<g><path style="opacity:1" fill="#b9acaa" d="M 81.5,50.5 C 80.917,53.9466 79.5837,56.9466 77.5,59.5C 77.8333,58.1667 78.1667,56.8333 78.5,55.5C 78.953,53.4348 79.953,51.7682 81.5,50.5 Z"/></g>
<g><path style="opacity:1" fill="#c7bbba" d="M 57.5,51.5 C 60.1092,52.4431 62.1092,54.1097 63.5,56.5C 60.865,55.5265 58.865,53.8598 57.5,51.5 Z"/></g>
<g><path style="opacity:1" fill="#eeeaea" d="M 30.5,27.5 C 32.8537,30.8515 35.8537,33.5181 39.5,35.5C 42.5177,36.855 43.851,39.1884 43.5,42.5C 42.1667,43.8333 40.8333,43.8333 39.5,42.5C 37.9059,39.2358 35.5725,36.5691 32.5,34.5C 32.5,32.5 31.5,31.5 29.5,31.5C 29.5,30.8333 29.1667,30.5 28.5,30.5C 28.2852,28.8212 28.9519,27.8212 30.5,27.5 Z"/></g>
<g><path style="opacity:1" fill="#ae9c99" d="M 32.5,34.5 C 35.5725,36.5691 37.9059,39.2358 39.5,42.5C 36.4275,40.4309 34.0941,37.7642 32.5,34.5 Z"/></g>
<g><path style="opacity:1" fill="#917a77" d="M 37.5,32.5 C 42.6959,34.2824 44.6959,37.6158 43.5,42.5C 43.851,39.1884 42.5177,36.855 39.5,35.5C 38.8333,34.5 38.1667,33.5 37.5,32.5 Z"/></g>
<g><path style="opacity:1" fill="#c6b7b8" d="M 29.5,31.5 C 31.5,31.5 32.5,32.5 32.5,34.5C 31.1667,33.8333 30.1667,32.8333 29.5,31.5 Z"/></g>
<g><path style="opacity:1" fill="#c3b6b5" d="M 30.5,27.5 C 33.1117,28.7787 35.4451,30.4453 37.5,32.5C 38.1667,33.5 38.8333,34.5 39.5,35.5C 35.8537,33.5181 32.8537,30.8515 30.5,27.5 Z"/></g>
<g><path style="opacity:1" fill="#bbacac" d="M 30.5,27.5 C 28.9519,27.8212 28.2852,28.8212 28.5,30.5C 27.5655,29.4324 27.2322,28.099 27.5,26.5C 28.791,26.2627 29.791,26.596 30.5,27.5 Z"/></g>
<g><path style="opacity:1" fill="#c2b3b0" d="M 24.5,21.5 C 25.404,22.209 25.7373,23.209 25.5,24.5C 23.302,24.8799 21.6354,24.2132 20.5,22.5C 21.5832,22.5394 22.5832,22.8728 23.5,23.5C 24.2975,23.0431 24.6309,22.3764 24.5,21.5 Z"/></g>
<g><path style="opacity:1" fill="#e2d9d9" d="M 21.5,19.5 C 22.5,20.1667 23.5,20.8333 24.5,21.5C 24.6309,22.3764 24.2975,23.0431 23.5,23.5C 22.5832,22.8728 21.5832,22.5394 20.5,22.5C 20.5,22.1667 20.5,21.8333 20.5,21.5C 20.3284,20.5084 20.6618,19.8417 21.5,19.5 Z"/></g>
<g><path style="opacity:1" fill="#beb2af" d="M 15.5,13.5 C 17.8333,15.1667 19.8333,17.1667 21.5,19.5C 20.6618,19.8417 20.3284,20.5084 20.5,21.5C 18.1667,19.8333 16.1667,17.8333 14.5,15.5C 14.3284,14.5084 14.6618,13.8417 15.5,13.5 Z"/></g>
<g><path style="opacity:1" fill="#a3938f" d="M 15.5,13.5 C 14.6618,13.8417 14.3284,14.5084 14.5,15.5C 12.5212,14.1879 10.8545,12.5212 9.5,10.5C 12.2634,9.53308 14.2634,10.5331 15.5,13.5 Z"/></g>
</svg>
