<?xml version="1.0" encoding="UTF-8"?>
<!DOCTYPE svg PUBLIC "-//W3C//DTD SVG 1.1//EN" "http://www.w3.org/Graphics/SVG/1.1/DTD/svg11.dtd">
<svg xmlns="http://www.w3.org/2000/svg" version="1.1" width="96px" height="96px" style="shape-rendering:geometricPrecision; text-rendering:geometricPrecision; image-rendering:optimizeQuality; fill-rule:evenodd; clip-rule:evenodd" xmlns:xlink="http://www.w3.org/1999/xlink">
<g><path style="opacity:1" fill="#8c6722" d="M 2.5,2.5 C 32.5,2.5 62.5,2.5 92.5,2.5C 92.5,32.5 92.5,62.5 92.5,92.5C 62.5,92.5 32.5,92.5 2.5,92.5C 2.5,62.5 2.5,32.5 2.5,2.5 Z"/></g>
<g><path style="opacity:1" fill="#b08b40" d="M 3.5,3.5 C 32.8333,3.5 62.1667,3.5 91.5,3.5C 91.5,32.8333 91.5,62.1667 91.5,91.5C 62.1667,91.5 32.8333,91.5 3.5,91.5C 3.5,62.1667 3.5,32.8333 3.5,3.5 Z"/></g>
<g><path style="opacity:1" fill="#bc984d" d="M 4.5,4.5 C 33.1667,4.5 61.8333,4.5 90.5,4.5C 90.5,33.1667 90.5,61.8333 90.5,90.5C 61.8333,90.5 33.1667,90.5 4.5,90.5C 4.5,61.8333 4.5,33.1667 4.5,4.5 Z"/></g>
<g><path style="opacity:1" fill="#f8e5c9" d="M 29.5,71.5 C 31.8333,71.5 34.1667,71.5 36.5,71.5C 38.5354,72.9399 40.7021,74.2732 43,75.5C 46.1052,74.6328 49.2719,74.2994 52.5,74.5C 54.0699,75.5593 55.4032,75.0593 56.5,73C 61.7259,71.8361 66.5592,72.6694 71,75.5C 71.8249,77.7008 71.3249,79.5341 69.5,81C 66.0456,82.3024 62.7123,83.8024 59.5,85.5C 55.5935,84.4275 51.7602,84.7608 48,86.5C 45.4316,86.0492 43.0983,85.0492 41,83.5C 38.7763,85.1953 36.2763,86.1953 33.5,86.5C 29.5068,84.8461 25.5068,83.1795 21.5,81.5C 19.4077,79.2114 19.0744,76.7114 20.5,74C 23.5787,73.0272 26.5787,72.1939 29.5,71.5 Z"/></g>
<g><path style="opacity:1" fill="#efd6b0" d="M 39.5,69.5 C 43.5,69.5 47.5,69.5 51.5,69.5C 51.2322,71.099 51.5655,72.4324 52.5,73.5C 52.5,73.8333 52.5,74.1667 52.5,74.5C 49.2719,74.2994 46.1052,74.6328 43,75.5C 40.7021,74.2732 38.5354,72.9399 36.5,71.5C 38.1788,71.7148 39.1788,71.0481 39.5,69.5 Z"/></g>
<g><path style="opacity:1" fill="#d0b073" d="M 34.5,69.5 C 36.1667,69.5 37.8333,69.5 39.5,69.5C 39.1788,71.0481 38.1788,71.7148 36.5,71.5C 34.1667,71.5 31.8333,71.5 29.5,71.5C 31.1667,70.8333 32.8333,70.1667 34.5,69.5 Z"/></g>
<g><path style="opacity:1" fill="#d3ba89" d="M 68.5,68.5 C 63.3673,69.6649 58.034,70.3315 52.5,70.5C 52.5,71.5 52.5,72.5 52.5,73.5C 51.5655,72.4324 51.2322,71.099 51.5,69.5C 57.1523,68.9682 62.819,68.6349 68.5,68.5 Z"/></g>
<g><path style="opacity:1" fill="#f8f4ee" d="M 30.5,51.5 C 32.8568,51.3367 35.1902,51.5034 37.5,52C 35.2922,52.1909 33.2922,52.6909 31.5,53.5C 27.9166,54.5178 24.2499,55.3511 20.5,56C 16.2413,60.8608 17.5746,63.8608 24.5,65C 28.1135,65.9358 31.7802,66.4358 35.5,66.5C 43.9901,67.6569 52.6567,67.8236 61.5,67C 62.7375,66.7679 63.7375,66.2679 64.5,65.5C 68.7207,65.1568 72.5541,63.8235 76,61.5C 76.7805,60.0563 76.6139,58.723 75.5,57.5C 72.9836,56.6701 70.6502,55.6701 68.5,54.5C 69.9187,53.5489 71.5853,53.2155 73.5,53.5C 77.328,54.4972 80.828,56.1638 84,58.5C 84.6667,59.8333 84.6667,61.1667 84,62.5C 79.0266,65.246 73.8599,67.246 68.5,68.5C 62.819,68.6349 57.1523,68.9682 51.5,69.5C 47.5,69.5 43.5,69.5 39.5,69.5C 37.8333,69.5 36.1667,69.5 34.5,69.5C 26.5074,68.947 18.8408,67.1137 11.5,64C 7.18637,59.5991 8.18637,56.5991 14.5,55C 19.5274,52.4798 24.8607,51.3131 30.5,51.5 Z"/></g>
<g><path style="opacity:1" fill="#efdfc7" d="M 64.5,65.5 C 63.7375,66.2679 62.7375,66.7679 61.5,67C 52.6567,67.8236 43.9901,67.6569 35.5,66.5C 36.8333,66.5 38.1667,66.5 39.5,66.5C 43.1667,66.5 46.8333,66.5 50.5,66.5C 50.8333,66.5 51.1667,66.5 51.5,66.5C 55.8689,66.5328 60.2022,66.1995 64.5,65.5 Z"/></g>
<g><path style="opacity:1" fill="#e0bd7f" d="M 52.5,53.5 C 51.9198,57.81 51.5865,62.1434 51.5,66.5C 51.1667,66.5 50.8333,66.5 50.5,66.5C 50.335,63.1501 50.5017,59.8168 51,56.5C 51.2321,55.2625 51.7321,54.2625 52.5,53.5 Z"/></g>
<g><path style="opacity:1" fill="#bc984d" d="M 52.5,53.5 C 55.8333,53.5 59.1667,53.5 62.5,53.5C 64.2646,54.4614 66.2646,54.7947 68.5,54.5C 70.6502,55.6701 72.9836,56.6701 75.5,57.5C 76.6139,58.723 76.7805,60.0563 76,61.5C 72.5541,63.8235 68.7207,65.1568 64.5,65.5C 60.2022,66.1995 55.8689,66.5328 51.5,66.5C 51.5865,62.1434 51.9198,57.81 52.5,53.5 Z"/></g>
<g><path style="opacity:1" fill="#bd994f" d="M 31.5,53.5 C 33.924,53.1924 36.2573,53.5258 38.5,54.5C 39.4328,58.4295 39.7662,62.4295 39.5,66.5C 38.1667,66.5 36.8333,66.5 35.5,66.5C 31.7802,66.4358 28.1135,65.9358 24.5,65C 17.5746,63.8608 16.2413,60.8608 20.5,56C 24.2499,55.3511 27.9166,54.5178 31.5,53.5 Z"/></g>
<g><path style="opacity:1" fill="#e4d4b8" d="M 63.5,51.5 C 67.1595,51.1588 70.4928,51.8255 73.5,53.5C 71.5853,53.2155 69.9187,53.5489 68.5,54.5C 66.2646,54.7947 64.2646,54.4614 62.5,53.5C 64.1992,53.6602 65.8659,53.4935 67.5,53C 65.9419,52.79 64.6085,52.29 63.5,51.5 Z"/></g>
<g><path style="opacity:1" fill="#efe5d4" d="M 53.5,50.5 C 57.0419,50.1872 60.3752,50.5206 63.5,51.5C 64.6085,52.29 65.9419,52.79 67.5,53C 65.8659,53.4935 64.1992,53.6602 62.5,53.5C 58.9792,52.8337 55.3125,52.1671 51.5,51.5C 51.9569,50.7025 52.6236,50.3691 53.5,50.5 Z"/></g>
<g><path style="opacity:1" fill="#ecd3ab" d="M 56.5,46.5 C 54.5544,47.0347 53.5544,48.368 53.5,50.5C 52.6236,50.3691 51.9569,50.7025 51.5,51.5C 55.3125,52.1671 58.9792,52.8337 62.5,53.5C 59.1667,53.5 55.8333,53.5 52.5,53.5C 51.7321,54.2625 51.2321,55.2625 51,56.5C 50.5017,59.8168 50.335,63.1501 50.5,66.5C 46.8333,66.5 43.1667,66.5 39.5,66.5C 39.7662,62.4295 39.4328,58.4295 38.5,54.5C 36.2573,53.5258 33.924,53.1924 31.5,53.5C 33.2922,52.6909 35.2922,52.1909 37.5,52C 35.1902,51.5034 32.8568,51.3367 30.5,51.5C 32.6979,50.8347 35.0312,50.1681 37.5,49.5C 37.1667,48.8333 36.8333,48.1667 36.5,47.5C 33.3583,46.8326 30.3583,46.166 27.5,45.5C 31.5138,45.6655 35.5138,45.4988 39.5,45C 43.1786,41.0931 47.5119,40.4264 52.5,43C 54.0931,43.9487 55.4264,45.1154 56.5,46.5 Z"/></g>
<g><path style="opacity:1" fill="#f9e6cb" d="M 56.5,46.5 C 55.4264,45.1154 54.0931,43.9487 52.5,43C 47.5119,40.4264 43.1786,41.0931 39.5,45C 35.5138,45.4988 31.5138,45.6655 27.5,45.5C 24.4922,45.7009 21.4922,46.0343 18.5,46.5C 10.215,45.263 8.54835,41.263 13.5,34.5C 10.8138,30.4116 10.9805,26.4116 14,22.5C 20.3491,18.9222 26.1824,14.7556 31.5,10C 34.3592,9.44702 37.1925,9.61369 40,10.5C 46.3111,6.03317 52.1444,6.53317 57.5,12C 64.0172,12.0932 69.3505,14.5932 73.5,19.5C 81.9685,21.1214 85.4685,26.1214 84,34.5C 82.3626,36.8102 80.196,38.3102 77.5,39C 72.4212,46.7493 65.4212,49.2493 56.5,46.5 Z"/></g>
</svg>
