<?xml version="1.0" encoding="UTF-8"?>
<!DOCTYPE svg PUBLIC "-//W3C//DTD SVG 1.1//EN" "http://www.w3.org/Graphics/SVG/1.1/DTD/svg11.dtd">
<svg xmlns="http://www.w3.org/2000/svg" version="1.1" width="96px" height="96px" style="shape-rendering:geometricPrecision; text-rendering:geometricPrecision; image-rendering:optimizeQuality; fill-rule:evenodd; clip-rule:evenodd" xmlns:xlink="http://www.w3.org/1999/xlink">
<g><path style="opacity:1" fill="#525d39" d="M 2.5,2.5 C 32.5,2.5 62.5,2.5 92.5,2.5C 92.5,32.5 92.5,62.5 92.5,92.5C 62.5,92.5 32.5,92.5 2.5,92.5C 2.5,62.5 2.5,32.5 2.5,2.5 Z"/></g>
<g><path style="opacity:1" fill="#738057" d="M 3.5,3.5 C 32.8333,3.5 62.1667,3.5 91.5,3.5C 91.5,32.8333 91.5,62.1667 91.5,91.5C 62.1667,91.5 32.8333,91.5 3.5,91.5C 3.5,62.1667 3.5,32.8333 3.5,3.5 Z"/></g>
<g><path style="opacity:1" fill="#7b8860" d="M 4.5,4.5 C 33.1667,4.5 61.8333,4.5 90.5,4.5C 90.5,33.1667 90.5,61.8333 90.5,90.5C 61.8333,90.5 33.1667,90.5 4.5,90.5C 4.5,61.8333 4.5,33.1667 4.5,4.5 Z"/></g>
<g><path style="opacity:1" fill="#cfd2c4" d="M 46.5,9.5 C 44.9016,11.8567 43.9016,14.5234 43.5,17.5C 43.5,14.5 43.5,11.5 43.5,8.5C 44.791,8.26269 45.791,8.59603 46.5,9.5 Z"/></g>
<g><path style="opacity:1" fill="#fbfbfa" d="M 46.5,9.5 C 47.3143,15.2027 47.3143,20.8694 46.5,26.5C 46.281,27.675 46.6143,28.675 47.5,29.5C 51.79,29.9577 54.29,32.291 55,36.5C 55.498,33.5184 55.6646,30.5184 55.5,27.5C 55.1924,25.076 55.5258,22.7427 56.5,20.5C 57.4841,23.4281 57.8174,26.4281 57.5,29.5C 57.3359,32.1873 57.5026,34.854 58,37.5C 59.0113,38.3366 60.1779,38.67 61.5,38.5C 61.6495,39.552 61.4828,40.552 61,41.5C 57.4723,44.033 54.3056,46.8664 51.5,50C 55.5002,59.1585 56.8336,68.6585 55.5,78.5C 54.3998,79.5585 53.0664,80.3918 51.5,81C 48.4277,80.9371 45.4277,81.1037 42.5,81.5C 38.8825,78.5692 36.5491,74.9025 35.5,70.5C 34.791,69.596 33.791,69.2627 32.5,69.5C 32.3354,66.4816 32.502,63.4816 33,60.5C 34.9831,56.7219 36.4831,52.7219 37.5,48.5C 35.5452,46.0424 33.3785,43.709 31,41.5C 30.5304,40.4232 30.6971,39.4232 31.5,38.5C 33.5,37.1667 35.1667,35.5 36.5,33.5C 38.7188,31.3939 41.3855,30.3939 44.5,30.5C 44.8016,27.9407 44.4682,25.6074 43.5,23.5C 43.5,21.5 43.5,19.5 43.5,17.5C 43.9016,14.5234 44.9016,11.8567 46.5,9.5 Z"/></g>
<g><path style="opacity:1" fill="#bac3a6" d="M 46.5,26.5 C 49.4552,27.1587 52.4552,27.4921 55.5,27.5C 55.6646,30.5184 55.498,33.5184 55,36.5C 54.29,32.291 51.79,29.9577 47.5,29.5C 46.6143,28.675 46.281,27.675 46.5,26.5 Z"/></g>
<g><path style="opacity:1" fill="#bdc4a9" d="M 43.5,23.5 C 44.4682,25.6074 44.8016,27.9407 44.5,30.5C 41.3855,30.3939 38.7188,31.3939 36.5,33.5C 36.5,31.5 36.5,29.5 36.5,27.5C 38.8056,27.0074 41.139,26.6741 43.5,26.5C 43.5,25.5 43.5,24.5 43.5,23.5 Z"/></g>
<g><path style="opacity:1" fill="#bcc6a9" d="M 40.5,32.5 C 43.5184,32.3354 46.5184,32.502 49.5,33C 50.8333,34 50.8333,35 49.5,36C 46.8333,36.6667 44.1667,36.6667 41.5,36C 40.6634,34.9887 40.33,33.8221 40.5,32.5 Z"/></g>
<g><path style="opacity:1" fill="#b6bf9f" d="M 31.5,38.5 C 30.6971,39.4232 30.5304,40.4232 31,41.5C 33.3785,43.709 35.5452,46.0424 37.5,48.5C 36.4831,52.7219 34.9831,56.7219 33,60.5C 32.502,63.4816 32.3354,66.4816 32.5,69.5C 33.791,69.2627 34.791,69.596 35.5,70.5C 34.1667,70.5 32.8333,70.5 31.5,70.5C 31.5,73.5 31.5,76.5 31.5,79.5C 26.0915,77.9457 21.9248,74.6124 19,69.5C 16.6793,57.7692 18.6793,46.7692 25,36.5C 25.6891,35.6433 26.5224,34.9767 27.5,34.5C 28.6669,36.0792 30.0002,37.4125 31.5,38.5 Z"/></g>
<g><path style="opacity:1" fill="#b5bf9f" d="M 57.5,29.5 C 58.1499,29.8039 58.8165,30.1373 59.5,30.5C 60.1168,33.7549 61.2835,36.7549 63,39.5C 65.0342,36.141 67.3676,35.8076 70,38.5C 73.9169,48.1572 75.5835,58.1572 75,68.5C 72.9715,71.0292 71.1381,73.6959 69.5,76.5C 65.3651,78.2031 61.3651,80.2031 57.5,82.5C 56.8281,81.0508 56.1614,79.7175 55.5,78.5C 56.8336,68.6585 55.5002,59.1585 51.5,50C 54.3056,46.8664 57.4723,44.033 61,41.5C 61.4828,40.552 61.6495,39.552 61.5,38.5C 60.1779,38.67 59.0113,38.3366 58,37.5C 57.5026,34.854 57.3359,32.1873 57.5,29.5 Z"/></g>
</svg>
