<?xml version="1.0" encoding="UTF-8"?>
<!DOCTYPE svg PUBLIC "-//W3C//DTD SVG 1.1//EN" "http://www.w3.org/Graphics/SVG/1.1/DTD/svg11.dtd">
<svg xmlns="http://www.w3.org/2000/svg" version="1.1" width="96px" height="96px" style="shape-rendering:geometricPrecision; text-rendering:geometricPrecision; image-rendering:optimizeQuality; fill-rule:evenodd; clip-rule:evenodd" xmlns:xlink="http://www.w3.org/1999/xlink">
<g><path style="opacity:1" fill="#380501" d="M 2.5,2.5 C 32.5,2.5 62.5,2.5 92.5,2.5C 92.5,32.5 92.5,62.5 92.5,92.5C 62.5,92.5 32.5,92.5 2.5,92.5C 2.5,62.5 2.5,32.5 2.5,2.5 Z"/></g>
<g><path style="opacity:1" fill="#61423b" d="M 90.5,4.5 C 91.8333,33.1667 91.8333,61.8333 90.5,90.5C 61.8333,90.5 33.1667,90.5 4.5,90.5C 4.5,61.8333 4.5,33.1667 4.5,4.5C 33.1667,4.5 61.8333,4.5 90.5,4.5 Z"/></g>
<g><path style="opacity:1" fill="#4f2b23" d="M 90.5,4.5 C 61.8333,4.5 33.1667,4.5 4.5,4.5C 4.5,33.1667 4.5,61.8333 4.5,90.5C 33.1667,90.5 61.8333,90.5 90.5,90.5C 61.6715,91.498 32.6715,91.8314 3.5,91.5C 3.5,62.1667 3.5,32.8333 3.5,3.5C 32.6715,3.16863 61.6715,3.50197 90.5,4.5 Z"/></g>
<g><path style="opacity:1" fill="#6a4c46" d="M 5.5,5.5 C 33.5,5.5 61.5,5.5 89.5,5.5C 89.5,33.5 89.5,61.5 89.5,89.5C 61.5,89.5 33.5,89.5 5.5,89.5C 5.5,61.5 5.5,33.5 5.5,5.5 Z"/></g>
<g><path style="opacity:1" fill="#f9f9f8" d="M 44.5,12.5 C 45.1667,16.5 45.8333,20.5 46.5,24.5C 46.7425,30.9966 48.7425,31.83 52.5,27C 53.1667,26.3333 53.8333,26.3333 54.5,27C 52.4898,33.0951 53.4898,38.5951 57.5,43.5C 58.5,44.8333 59.5,44.8333 60.5,43.5C 62.568,40.8433 63.9013,37.8433 64.5,34.5C 66.0981,36.6979 67.4314,39.0313 68.5,41.5C 68.427,43.0269 69.0937,44.0269 70.5,44.5C 70.2594,46.8984 70.9261,48.8984 72.5,50.5C 73.7202,55.4548 73.7202,60.4548 72.5,65.5C 70.8958,66.287 70.2291,67.6203 70.5,69.5C 69.5139,71.4261 68.5139,73.4261 67.5,75.5C 63.8832,76.6417 60.5498,78.3084 57.5,80.5C 56.9033,80.2648 56.5699,79.7648 56.5,79C 57.5652,75.9357 58.8985,73.1024 60.5,70.5C 61.1471,69.7261 61.4805,68.7261 61.5,67.5C 61.6598,65.6455 60.9931,64.3121 59.5,63.5C 59.5299,62.5028 59.0299,61.8361 58,61.5C 54.4976,63.043 51.8309,62.043 50,58.5C 48.8202,54.7831 47.4869,51.1165 46,47.5C 44.9639,50.2954 43.6305,52.962 42,55.5C 41.8253,59.211 41.3253,62.8776 40.5,66.5C 39.1401,65.8201 37.8068,65.1534 36.5,64.5C 36.44,63.9569 36.1067,63.6236 35.5,63.5C 34.1968,66.6447 34.1968,69.6447 35.5,72.5C 37.448,74.7887 39.448,77.122 41.5,79.5C 39.9547,80.4519 38.288,80.7852 36.5,80.5C 30.6126,77.4514 25.7793,73.1181 22,67.5C 19.6778,60.8229 20.1778,54.4896 23.5,48.5C 24.5,47.1667 25.5,47.1667 26.5,48.5C 27.4286,49.9361 28.5952,51.2695 30,52.5C 30.212,46.7521 30.712,41.0855 31.5,35.5C 33.6545,33.3826 34.6545,30.716 34.5,27.5C 34.5,27.1667 34.5,26.8333 34.5,26.5C 35.9063,26.0269 36.573,25.0269 36.5,23.5C 38.4251,19.2493 41.0918,15.5827 44.5,12.5 Z"/></g>
<g><path style="opacity:1" fill="#8e7975" d="M 44.5,12.5 C 44.56,11.9569 44.8933,11.6236 45.5,11.5C 46.4922,15.7828 46.8256,20.1161 46.5,24.5C 45.8333,20.5 45.1667,16.5 44.5,12.5 Z"/></g>
<g><path style="opacity:1" fill="#a89793" d="M 36.5,23.5 C 36.573,25.0269 35.9063,26.0269 34.5,26.5C 34.427,24.9731 35.0937,23.9731 36.5,23.5 Z"/></g>
<g><path style="opacity:1" fill="#c3b8b6" d="M 34.5,27.5 C 34.6545,30.716 33.6545,33.3826 31.5,35.5C 32.129,32.6027 33.129,29.936 34.5,27.5 Z"/></g>
<g><path style="opacity:1" fill="#b9ada9" d="M 68.5,41.5 C 69.9063,41.9731 70.573,42.9731 70.5,44.5C 69.0937,44.0269 68.427,43.0269 68.5,41.5 Z"/></g>
<g><path style="opacity:1" fill="#bcb0ad" d="M 26.5,48.5 C 25.5,47.1667 24.5,47.1667 23.5,48.5C 24.5,45.8333 25.5,45.8333 26.5,48.5 Z"/></g>
<g><path style="opacity:1" fill="#c2b7b5" d="M 70.5,44.5 C 72.0739,46.1016 72.7406,48.1016 72.5,50.5C 70.9261,48.8984 70.2594,46.8984 70.5,44.5 Z"/></g>
<g><path style="opacity:1" fill="#988481" d="M 59.5,63.5 C 60.2186,65.7638 60.552,68.0971 60.5,70.5C 58.8985,73.1024 57.5652,75.9357 56.5,79C 56.5699,79.7648 56.9033,80.2648 57.5,80.5C 53.5419,80.4884 49.5419,81.4884 45.5,83.5C 42.4851,82.1821 39.4851,81.1821 36.5,80.5C 38.288,80.7852 39.9547,80.4519 41.5,79.5C 39.448,77.122 37.448,74.7887 35.5,72.5C 35.1936,69.6146 35.5269,66.9479 36.5,64.5C 37.8068,65.1534 39.1401,65.8201 40.5,66.5C 41.3253,62.8776 41.8253,59.211 42,55.5C 43.6305,52.962 44.9639,50.2954 46,47.5C 47.4869,51.1165 48.8202,54.7831 50,58.5C 51.8309,62.043 54.4976,63.043 58,61.5C 59.0299,61.8361 59.5299,62.5028 59.5,63.5 Z"/></g>
<g><path style="opacity:1" fill="#cec5c4" d="M 59.5,63.5 C 60.9931,64.3121 61.6598,65.6455 61.5,67.5C 61.4805,68.7261 61.1471,69.7261 60.5,70.5C 60.552,68.0971 60.2186,65.7638 59.5,63.5 Z"/></g>
<g><path style="opacity:1" fill="#b3a4a1" d="M 72.5,65.5 C 72.3404,67.153 71.6737,68.4863 70.5,69.5C 70.2291,67.6203 70.8958,66.287 72.5,65.5 Z"/></g>
<g><path style="opacity:1" fill="#cdc4c2" d="M 36.5,64.5 C 35.5269,66.9479 35.1936,69.6146 35.5,72.5C 34.1968,69.6447 34.1968,66.6447 35.5,63.5C 36.1067,63.6236 36.44,63.9569 36.5,64.5 Z"/></g>
<g><path style="opacity:1" fill="#937d79" d="M 70.5,69.5 C 70.9689,72.3933 69.9689,74.3933 67.5,75.5C 68.5139,73.4261 69.5139,71.4261 70.5,69.5 Z"/></g>
</svg>
