<?xml version="1.0" encoding="UTF-8"?>
<!DOCTYPE svg PUBLIC "-//W3C//DTD SVG 1.1//EN" "http://www.w3.org/Graphics/SVG/1.1/DTD/svg11.dtd">
<svg xmlns="http://www.w3.org/2000/svg" version="1.1" width="96px" height="96px" style="shape-rendering:geometricPrecision; text-rendering:geometricPrecision; image-rendering:optimizeQuality; fill-rule:evenodd; clip-rule:evenodd" xmlns:xlink="http://www.w3.org/1999/xlink">
<g><path style="opacity:0.976" fill="#124047" d="M 2.5,2.5 C 32.5,2.5 62.5,2.5 92.5,2.5C 92.5,32.5 92.5,62.5 92.5,92.5C 62.5,92.5 32.5,92.5 2.5,92.5C 2.5,62.5 2.5,32.5 2.5,2.5 Z"/></g>
<g><path style="opacity:1" fill="#46676d" d="M 4.5,4.5 C 33.1667,4.5 61.8333,4.5 90.5,4.5C 90.5,33.1667 90.5,61.8333 90.5,90.5C 61.8333,90.5 33.1667,90.5 4.5,90.5C 4.5,61.8333 4.5,33.1667 4.5,4.5 Z"/></g>
<g><path style="opacity:1" fill="#f8f9fa" d="M 61.5,12.5 C 66.126,15.9541 70.626,19.6207 75,23.5C 76.122,25.4068 76.9553,27.4068 77.5,29.5C 77.5,32.8333 77.5,36.1667 77.5,39.5C 79.9726,39.9118 81.3059,38.9118 81.5,36.5C 82.3023,35.1153 82.9689,35.282 83.5,37C 85.8778,42.1704 85.7111,47.337 83,52.5C 81.6032,54.0703 80.1032,55.4036 78.5,56.5C 77.5,56.8333 76.8333,57.5 76.5,58.5C 75.0222,58.762 73.6888,58.4287 72.5,57.5C 75.1377,53.8653 75.971,49.8653 75,45.5C 73.647,46.6853 72.4803,48.0186 71.5,49.5C 71.2178,46.9433 71.0511,44.2766 71,41.5C 69.3333,39.8333 67.6667,38.1667 66,36.5C 65.5014,40.1516 65.3347,43.8183 65.5,47.5C 63.326,47.0798 61.326,47.0798 59.5,47.5C 60.4259,51.0938 60.7592,54.7604 60.5,58.5C 49.8128,57.4903 46.1461,51.8236 49.5,41.5C 49.5569,40.391 49.8902,39.391 50.5,38.5C 50.8746,34.5575 51.8746,30.8909 53.5,27.5C 55.3468,29.1824 56.8468,31.1824 58,33.5C 58.3333,33.1667 58.6667,32.8333 59,32.5C 60.3789,27.964 60.8789,23.2973 60.5,18.5C 60.2053,16.2646 60.5386,14.2646 61.5,12.5 Z"/></g>
<g><path style="opacity:1" fill="#c1cccd" d="M 61.5,12.5 C 60.5386,14.2646 60.2053,16.2646 60.5,18.5C 59.2031,16.3066 59.2031,13.9732 60.5,11.5C 61.1067,11.6236 61.44,11.9569 61.5,12.5 Z"/></g>
<g><path style="opacity:1" fill="#a5b9bc" d="M 49.5,41.5 C 46.1461,51.8236 49.8128,57.4903 60.5,58.5C 65.9217,58.5295 71.2551,58.5295 76.5,58.5C 76.8333,57.5 77.5,56.8333 78.5,56.5C 79.2719,63.5968 76.2719,66.2635 69.5,64.5C 65.0851,65.5425 61.0851,67.3758 57.5,70C 54.5,70.3333 51.5,70.6667 48.5,71C 46.7396,74.3512 45.4063,77.8512 44.5,81.5C 42.8008,81.6602 41.1341,81.4935 39.5,81C 36.6402,76.121 33.6402,71.2877 30.5,66.5C 27.8333,64.5 25.1667,62.5 22.5,60.5C 19.6412,56.6522 18.9746,52.4855 20.5,48C 16.0187,44.6857 12.0187,40.8524 8.5,36.5C 10.5272,33.8061 12.8605,31.4728 15.5,29.5C 20.4202,32.4112 25.0869,35.7445 29.5,39.5C 30.4982,36.6674 32.4982,35.334 35.5,35.5C 40.64,36.605 45.3067,38.605 49.5,41.5 Z"/></g>
<g><path style="opacity:1" fill="#c6d0d1" d="M 77.5,29.5 C 78.3195,32.3054 78.8195,35.3054 79,38.5C 79.7083,37.6195 80.5416,36.9528 81.5,36.5C 81.3059,38.9118 79.9726,39.9118 77.5,39.5C 77.5,36.1667 77.5,32.8333 77.5,29.5 Z"/></g>
<g><path style="opacity:1" fill="#8ea1a4" d="M 53.5,27.5 C 51.8746,30.8909 50.8746,34.5575 50.5,38.5C 50.5,34.5 50.5,30.5 50.5,26.5C 51.791,26.2627 52.791,26.596 53.5,27.5 Z"/></g>
<g><path style="opacity:1" fill="#c7d8db" d="M 76.5,58.5 C 71.2551,58.5295 65.9217,58.5295 60.5,58.5C 60.7592,54.7604 60.4259,51.0938 59.5,47.5C 61.326,47.0798 63.326,47.0798 65.5,47.5C 65.3347,43.8183 65.5014,40.1516 66,36.5C 67.6667,38.1667 69.3333,39.8333 71,41.5C 71.0511,44.2766 71.2178,46.9433 71.5,49.5C 72.4803,48.0186 73.647,46.6853 75,45.5C 75.971,49.8653 75.1377,53.8653 72.5,57.5C 73.6888,58.4287 75.0222,58.762 76.5,58.5 Z"/></g>
</svg>
