<?xml version="1.0" encoding="UTF-8"?>
<!DOCTYPE svg PUBLIC "-//W3C//DTD SVG 1.1//EN" "http://www.w3.org/Graphics/SVG/1.1/DTD/svg11.dtd">
<svg xmlns="http://www.w3.org/2000/svg" version="1.1" width="96px" height="96px" style="shape-rendering:geometricPrecision; text-rendering:geometricPrecision; image-rendering:optimizeQuality; fill-rule:evenodd; clip-rule:evenodd" xmlns:xlink="http://www.w3.org/1999/xlink">
<g><path style="opacity:1" fill="#01363e" d="M 2.5,2.5 C 32.5,2.5 62.5,2.5 92.5,2.5C 92.5,32.5 92.5,62.5 92.5,92.5C 62.5,92.5 32.5,92.5 2.5,92.5C 2.5,62.5 2.5,32.5 2.5,2.5 Z"/></g>
<g><path style="opacity:1" fill="#284e56" d="M 90.5,90.5 C 61.6715,91.498 32.6715,91.8314 3.5,91.5C 3.5,62.1667 3.5,32.8333 3.5,3.5C 32.8333,3.5 62.1667,3.5 91.5,3.5C 91.8314,32.6715 91.498,61.6715 90.5,90.5 Z"/></g>
<g><path style="opacity:1" fill="#47676d" d="M 90.5,90.5 C 61.8333,90.5 33.1667,90.5 4.5,90.5C 4.5,61.8333 4.5,33.1667 4.5,4.5C 33.1667,4.5 61.8333,4.5 90.5,4.5C 90.5,33.1667 90.5,61.8333 90.5,90.5 Z"/></g>
<g><path style="opacity:1" fill="#728d92" d="M 45.5,13.5 C 44.4376,14.5754 44.4376,15.5754 45.5,16.5C 47.0709,15.6906 48.7376,15.3573 50.5,15.5C 48.0209,16.7949 45.3542,17.7949 42.5,18.5C 42.1788,16.9519 41.1788,16.2852 39.5,16.5C 41.4561,15.5082 43.4561,14.5082 45.5,13.5 Z"/></g>
<g><path style="opacity:1" fill="#d8e9ec" d="M 45.5,13.5 C 47.7812,13.0773 49.4479,13.744 50.5,15.5C 48.7376,15.3573 47.0709,15.6906 45.5,16.5C 44.4376,15.5754 44.4376,14.5754 45.5,13.5 Z"/></g>
<g><path style="opacity:1" fill="#c2d5d8" d="M 52.5,13.5 C 55.1667,13.8333 57.8333,14.1667 60.5,14.5C 60.5,15.5 60.5,16.5 60.5,17.5C 57.7938,17.4249 55.1272,17.0916 52.5,16.5C 52.5,15.5 52.5,14.5 52.5,13.5 Z"/></g>
<g><path style="opacity:1" fill="#ccdee2" d="M 39.5,16.5 C 41.1788,16.2852 42.1788,16.9519 42.5,18.5C 36.6069,22.9294 35.6069,22.2627 39.5,16.5 Z"/></g>
<g><path style="opacity:1" fill="#cbdee1" d="M 61.5,17.5 C 64.1008,18.2796 66.1008,19.9463 67.5,22.5C 63.8526,23.21 61.8526,21.5433 61.5,17.5 Z"/></g>
<g><path style="opacity:1" fill="#c7d9dd" d="M 32.5,22.5 C 33.5,22.5 34.5,22.5 35.5,22.5C 35.5531,25.0606 34.5531,27.0606 32.5,28.5C 31.7691,26.5988 31.7691,24.5988 32.5,22.5 Z"/></g>
<g><path style="opacity:1" fill="#94acb0" d="M 70.5,26.5 C 69.1667,26.5 68.5,27.1667 68.5,28.5C 67.596,27.791 67.2627,26.791 67.5,25.5C 68.791,25.2627 69.791,25.596 70.5,26.5 Z"/></g>
<g><path style="opacity:1" fill="#ccdee1" d="M 30.5,30.5 C 31.3764,30.3691 32.0431,30.7025 32.5,31.5C 31.4981,33.5101 30.4981,35.5101 29.5,37.5C 28.3679,35.0097 28.7012,32.6763 30.5,30.5 Z"/></g>
<g><path style="opacity:1" fill="#d0e2e5" d="M 70.5,26.5 C 72.5848,28.6845 73.5848,31.3511 73.5,34.5C 72.5,34.5 71.5,34.5 70.5,34.5C 70.3964,32.2972 69.7298,30.2972 68.5,28.5C 68.5,27.1667 69.1667,26.5 70.5,26.5 Z"/></g>
<g><path style="opacity:1" fill="#d9eaee" d="M 76.5,40.5 C 76.8795,43.5669 75.8795,44.5669 73.5,43.5C 73.3259,41.139 72.9926,38.8056 72.5,36.5C 73.5,36.5 74.5,36.5 75.5,36.5C 75.2322,38.099 75.5655,39.4324 76.5,40.5 Z"/></g>
<g><path style="opacity:1" fill="#bbcdd0" d="M 40.5,68.5 C 40.44,67.9569 40.1067,67.6236 39.5,67.5C 38.5052,72.7921 38.1718,78.1254 38.5,83.5C 32.8333,83.5 27.1667,83.5 21.5,83.5C 21.6661,77.8236 21.4994,72.1569 21,66.5C 20.2828,67.0442 19.7828,67.7109 19.5,68.5C 17.1496,70.2133 16.1496,72.5466 16.5,75.5C 12.3228,76.1584 10.8228,74.4918 12,70.5C 14.8589,63.641 19.6923,58.8077 26.5,56C 22.7885,53.487 21.6218,49.987 23,45.5C 27.2514,40.274 31.5847,40.274 36,45.5C 36.6667,47.8333 36.6667,50.1667 36,52.5C 34.3221,53.4658 33.6554,54.7991 34,56.5C 35.6477,57.717 37.481,58.5503 39.5,59C 42.7004,61.5426 45.2004,64.7093 47,68.5C 49.8686,73.1045 48.7019,75.4378 43.5,75.5C 43.3122,72.7939 42.3122,70.4605 40.5,68.5 Z"/></g>
<g><path style="opacity:1" fill="#e6f6fa" d="M 27.5,44.5 C 28.8333,44.5 30.1667,44.5 31.5,44.5C 31.9899,46.9484 31.1566,48.615 29,49.5C 26.3894,48.5001 25.8894,46.8334 27.5,44.5 Z"/></g>
<g><path style="opacity:1" fill="#819a9e" d="M 76.5,40.5 C 77.4511,41.9187 77.7845,43.5853 77.5,45.5C 75.5168,45.8432 74.1834,45.1765 73.5,43.5C 75.8795,44.5669 76.8795,43.5669 76.5,40.5 Z"/></g>
<g><path style="opacity:1" fill="#d4e6e9" d="M 77.5,47.5 C 77.5751,50.2062 77.9084,52.8728 78.5,55.5C 77.5,55.5 76.5,55.5 75.5,55.5C 75.1667,52.8333 74.8333,50.1667 74.5,47.5C 75.5,47.5 76.5,47.5 77.5,47.5 Z"/></g>
<g><path style="opacity:1" fill="#769196" d="M 77.5,47.5 C 78.913,50.2186 79.5797,53.2186 79.5,56.5C 77.901,56.7678 76.5676,56.4345 75.5,55.5C 76.5,55.5 77.5,55.5 78.5,55.5C 77.9084,52.8728 77.5751,50.2062 77.5,47.5 Z"/></g>
<g><path style="opacity:1" fill="#93abaf" d="M 83.5,65.5 C 81.8333,65.5 80.1667,65.5 78.5,65.5C 77.8333,56.1667 77.1667,56.1667 76.5,65.5C 75.1667,65.5 73.8333,65.5 72.5,65.5C 73.209,64.596 74.209,64.2627 75.5,64.5C 75.5,62.1667 75.5,59.8333 75.5,57.5C 76.8333,57.5 78.1667,57.5 79.5,57.5C 79.5,59.8333 79.5,62.1667 79.5,64.5C 81.099,64.2322 82.4324,64.5655 83.5,65.5 Z"/></g>
<g><path style="opacity:1" fill="#dcedf1" d="M 83.5,65.5 C 82.3849,70.3902 80.7182,75.0569 78.5,79.5C 75.9418,75.0526 73.9418,70.3859 72.5,65.5C 73.8333,65.5 75.1667,65.5 76.5,65.5C 77.1667,56.1667 77.8333,56.1667 78.5,65.5C 80.1667,65.5 81.8333,65.5 83.5,65.5 Z"/></g>
<g><path style="opacity:1" fill="#92a9ac" d="M 21.5,83.5 C 20.8333,78.5 20.1667,73.5 19.5,68.5C 19.7828,67.7109 20.2828,67.0442 21,66.5C 21.4994,72.1569 21.6661,77.8236 21.5,83.5 Z"/></g>
<g><path style="opacity:1" fill="#93aaae" d="M 40.5,68.5 C 39.8333,73.5 39.1667,78.5 38.5,83.5C 38.1718,78.1254 38.5052,72.7921 39.5,67.5C 40.1067,67.6236 40.44,67.9569 40.5,68.5 Z"/></g>
</svg>
