<?xml version="1.0" encoding="UTF-8"?>
<!DOCTYPE svg PUBLIC "-//W3C//DTD SVG 1.1//EN" "http://www.w3.org/Graphics/SVG/1.1/DTD/svg11.dtd">
<svg xmlns="http://www.w3.org/2000/svg" version="1.1" width="96px" height="96px" style="shape-rendering:geometricPrecision; text-rendering:geometricPrecision; image-rendering:optimizeQuality; fill-rule:evenodd; clip-rule:evenodd" xmlns:xlink="http://www.w3.org/1999/xlink">
<g><path style="opacity:1" fill="#01363e" d="M 2.5,2.5 C 32.5,2.5 62.5,2.5 92.5,2.5C 92.5,32.5 92.5,62.5 92.5,92.5C 62.5,92.5 32.5,92.5 2.5,92.5C 2.5,62.5 2.5,32.5 2.5,2.5 Z"/></g>
<g><path style="opacity:1" fill="#33585f" d="M 4.5,3.5 C 33.4072,3.1714 62.2405,3.50474 91,4.5C 91.8282,33.4052 91.6616,62.2386 90.5,91C 61.5948,91.8282 32.7614,91.6616 4,90.5C 3.17564,61.4281 3.34231,32.4281 4.5,3.5 Z"/></g>
<g><path style="opacity:1" fill="#47686e" d="M 89.5,46.5 C 89.5,60.8333 89.5,75.1667 89.5,89.5C 61.5,89.5 33.5,89.5 5.5,89.5C 5.79691,76.1175 5.46357,62.7841 4.5,49.5C 5.81953,50.9418 7.4862,51.6085 9.5,51.5C 12.9385,53.2043 16.6052,54.5376 20.5,55.5C 21.7041,59.9032 24.0374,63.7365 27.5,67C 37.5173,68.6893 45.8507,73.3559 52.5,81C 54.8098,81.4966 57.1432,81.6633 59.5,81.5C 59.6706,76.804 60.1706,72.1373 61,67.5C 63.4689,65.3485 66.3022,63.8485 69.5,63C 72.3,59.0323 75.6333,55.5323 79.5,52.5C 81.5273,52.6621 83.5273,52.4955 85.5,52C 86.2524,51.3292 86.5858,50.4959 86.5,49.5C 86.8333,48.8333 87.1667,48.1667 87.5,47.5C 88.1667,47.1667 88.8333,46.8333 89.5,46.5 Z"/></g>
<g><path style="opacity:1" fill="#8ea2a5" d="M 86.5,49.5 C 86.5858,50.4959 86.2524,51.3292 85.5,52C 83.5273,52.4955 81.5273,52.6621 79.5,52.5C 81.9344,51.8689 84.2677,50.8689 86.5,49.5 Z"/></g>
<g><path style="opacity:1" fill="#b7c3c6" d="M 5.5,43.5 C 5.83333,43.5 6.16667,43.5 6.5,43.5C 5.82851,46.986 6.82851,49.6527 9.5,51.5C 7.4862,51.6085 5.81953,50.9418 4.5,49.5C 4.51715,47.4352 4.85048,45.4352 5.5,43.5 Z"/></g>
<g><path style="opacity:1" fill="#c7cacb" d="M 9.5,39.5 C 16.0359,39.044 22.3692,40.3773 28.5,43.5C 26.8812,44.0716 25.2145,44.4049 23.5,44.5C 21.8833,48.014 20.8833,51.6807 20.5,55.5C 16.6052,54.5376 12.9385,53.2043 9.5,51.5C 11.861,51.6741 14.1944,52.0074 16.5,52.5C 16.5565,48.4949 17.8899,44.9949 20.5,42C 16.896,40.8461 13.2293,40.0128 9.5,39.5 Z"/></g>
<g><path style="opacity:1" fill="#fbfcfc" d="M 8.5,39.5 C 8.83333,39.5 9.16667,39.5 9.5,39.5C 13.2293,40.0128 16.896,40.8461 20.5,42C 17.8899,44.9949 16.5565,48.4949 16.5,52.5C 14.1944,52.0074 11.861,51.6741 9.5,51.5C 6.82851,49.6527 5.82851,46.986 6.5,43.5C 6.5,43.1667 6.5,42.8333 6.5,42.5C 7.90632,42.0269 8.57298,41.0269 8.5,39.5 Z"/></g>
<g><path style="opacity:1" fill="#fbfbfb" d="M 87.5,47.5 C 87.1667,48.1667 86.8333,48.8333 86.5,49.5C 84.2677,50.8689 81.9344,51.8689 79.5,52.5C 75.6333,55.5323 72.3,59.0323 69.5,63C 66.3022,63.8485 63.4689,65.3485 61,67.5C 60.1706,72.1373 59.6706,76.804 59.5,81.5C 57.1432,81.6633 54.8098,81.4966 52.5,81C 45.8507,73.3559 37.5173,68.6893 27.5,67C 24.0374,63.7365 21.7041,59.9032 20.5,55.5C 20.8833,51.6807 21.8833,48.014 23.5,44.5C 25.2145,44.4049 26.8812,44.0716 28.5,43.5C 28.5,42.8333 28.5,42.1667 28.5,41.5C 29.3534,38.4821 31.3534,36.6488 34.5,36C 37.8255,35.8281 41.1589,35.9947 44.5,36.5C 45.1499,36.8039 45.8165,37.1373 46.5,37.5C 49.3041,35.8619 51.9708,34.0285 54.5,32C 56.5675,31.3131 58.5675,31.4798 60.5,32.5C 64.2739,30.2294 67.6072,27.3961 70.5,24C 72.8098,23.5034 75.1432,23.3367 77.5,23.5C 81.026,31.4092 84.3594,39.4092 87.5,47.5 Z"/></g>
<g><path style="opacity:1" fill="#cccccc" d="M 73.5,29.5 C 76.2014,35.2319 79.2014,40.8986 82.5,46.5C 76.8333,47.8333 71.1667,47.8333 65.5,46.5C 67.9214,40.66 70.588,34.9934 73.5,29.5 Z"/></g>
<g><path style="opacity:1" fill="#47686d" d="M 89.5,46.5 C 88.8333,46.8333 88.1667,47.1667 87.5,47.5C 84.3594,39.4092 81.026,31.4092 77.5,23.5C 75.1432,23.3367 72.8098,23.5034 70.5,24C 67.6072,27.3961 64.2739,30.2294 60.5,32.5C 58.5675,31.4798 56.5675,31.3131 54.5,32C 51.9708,34.0285 49.3041,35.8619 46.5,37.5C 45.8165,37.1373 45.1499,36.8039 44.5,36.5C 43.4324,35.5655 42.099,35.2322 40.5,35.5C 40.405,33.2143 39.7384,31.2143 38.5,29.5C 37.7902,19.1624 33.1236,16.8291 24.5,22.5C 23.5,23.8333 22.5,25.1667 21.5,26.5C 22.6609,29.3584 23.9943,32.025 25.5,34.5C 26.2638,37.0177 27.2638,39.351 28.5,41.5C 28.5,42.1667 28.5,42.8333 28.5,43.5C 22.3692,40.3773 16.0359,39.044 9.5,39.5C 9.16667,39.5 8.83333,39.5 8.5,39.5C 7.09368,39.9731 6.42702,40.9731 6.5,42.5C 6.5,42.8333 6.5,43.1667 6.5,43.5C 6.16667,43.5 5.83333,43.5 5.5,43.5C 5.5,30.8333 5.5,18.1667 5.5,5.5C 33.5,5.5 61.5,5.5 89.5,5.5C 89.5,19.1667 89.5,32.8333 89.5,46.5 Z"/></g>
<g><path style="opacity:1" fill="#9dadb0" d="M 8.5,39.5 C 8.57298,41.0269 7.90632,42.0269 6.5,42.5C 6.42702,40.9731 7.09368,39.9731 8.5,39.5 Z"/></g>
<g><path style="opacity:1" fill="#c9cbcb" d="M 38.5,29.5 C 39.7384,31.2143 40.405,33.2143 40.5,35.5C 42.099,35.2322 43.4324,35.5655 44.5,36.5C 41.1589,35.9947 37.8255,35.8281 34.5,36C 31.3534,36.6488 29.3534,38.4821 28.5,41.5C 27.2638,39.351 26.2638,37.0177 25.5,34.5C 29.5795,31.9518 33.9128,30.2851 38.5,29.5 Z"/></g>
<g><path style="opacity:1" fill="#f2f4f4" d="M 38.5,29.5 C 33.9128,30.2851 29.5795,31.9518 25.5,34.5C 23.9943,32.025 22.6609,29.3584 21.5,26.5C 22.5,25.1667 23.5,23.8333 24.5,22.5C 33.1236,16.8291 37.7902,19.1624 38.5,29.5 Z"/></g>
</svg>
