<?xml version="1.0" encoding="UTF-8"?>
<!DOCTYPE svg PUBLIC "-//W3C//DTD SVG 1.1//EN" "http://www.w3.org/Graphics/SVG/1.1/DTD/svg11.dtd">
<svg xmlns="http://www.w3.org/2000/svg" version="1.1" width="96px" height="96px" style="shape-rendering:geometricPrecision; text-rendering:geometricPrecision; image-rendering:optimizeQuality; fill-rule:evenodd; clip-rule:evenodd" xmlns:xlink="http://www.w3.org/1999/xlink">
<g><path style="opacity:1" fill="#515c39" d="M 2.5,2.5 C 32.5,2.5 62.5,2.5 92.5,2.5C 92.5,32.5 92.5,62.5 92.5,92.5C 62.5,92.5 32.5,92.5 2.5,92.5C 2.5,62.5 2.5,32.5 2.5,2.5 Z"/></g>
<g><path style="opacity:1" fill="#6f7a55" d="M 4.5,4.5 C 33.1667,4.5 61.8333,4.5 90.5,4.5C 90.5,33.1667 90.5,61.8333 90.5,90.5C 61.8333,90.5 33.1667,90.5 4.5,90.5C 4.5,61.8333 4.5,33.1667 4.5,4.5 Z"/></g>
<g><path style="opacity:1" fill="#7b8760" d="M 5.5,5.5 C 33.5,5.5 61.5,5.5 89.5,5.5C 89.5,33.5 89.5,61.5 89.5,89.5C 61.5,89.5 33.5,89.5 5.5,89.5C 5.5,61.5 5.5,33.5 5.5,5.5 Z"/></g>
<g><path style="opacity:1" fill="#949d7e" d="M 55.5,10.5 C 56.2739,9.85287 57.2739,9.51954 58.5,9.5C 60.3545,9.34024 61.6879,10.0069 62.5,11.5C 60.2362,10.7814 57.9029,10.448 55.5,10.5 Z"/></g>
<g><path style="opacity:1" fill="#fcfcfc" d="M 62.5,12.5 C 63.8976,15.007 63.5643,17.3403 61.5,19.5C 57.5587,23.3271 54.0587,27.6604 51,32.5C 50.3333,34.5 50.3333,36.5 51,38.5C 51.3826,39.056 51.8826,39.3893 52.5,39.5C 53.1168,42.3554 54.1168,45.0221 55.5,47.5C 55.3347,51.1817 55.5014,54.8484 56,58.5C 57.0113,59.3366 58.1779,59.67 59.5,59.5C 59.5,62.8333 59.5,66.1667 59.5,69.5C 58.5,69.5 57.5,69.5 56.5,69.5C 56.5,71.1667 56.5,72.8333 56.5,74.5C 59.3554,76.2501 62.6887,77.0835 66.5,77C 50.5,77.6667 34.5,77.6667 18.5,77C 22.0252,76.8213 25.3586,76.3213 28.5,75.5C 29.4614,73.7354 29.7947,71.7354 29.5,69.5C 27.8333,69.5 26.1667,69.5 24.5,69.5C 24.5,66.1667 24.5,62.8333 24.5,59.5C 26.4147,59.7845 28.0813,59.4511 29.5,58.5C 30.3007,56.9582 30.634,55.2915 30.5,53.5C 30.719,52.325 30.3857,51.325 29.5,50.5C 28.2638,51.2458 26.9305,51.5792 25.5,51.5C 24.0669,49.4418 23.4003,47.1085 23.5,44.5C 24.5983,43.3991 24.765,42.0657 24,40.5C 23.3292,39.7476 22.4959,39.4142 21.5,39.5C 20.5584,35.5815 19.8918,31.5815 19.5,27.5C 20.5,27.5 21.5,27.5 22.5,27.5C 24.8333,27.1667 26.1667,25.8333 26.5,23.5C 26.2627,22.209 26.596,21.209 27.5,20.5C 29.5138,20.3915 31.1805,21.0582 32.5,22.5C 33.6266,23.1217 34.6266,23.955 35.5,25C 36.7494,25.7401 37.7494,25.5735 38.5,24.5C 38.8333,24.5 39.1667,24.5 39.5,24.5C 45.2222,20.9579 50.5555,16.7912 55.5,12C 57.7513,12.2068 60.0846,12.3735 62.5,12.5 Z"/></g>
<g><path style="opacity:1" fill="#bbc0ac" d="M 55.5,10.5 C 57.9029,10.448 60.2362,10.7814 62.5,11.5C 62.5,11.8333 62.5,12.1667 62.5,12.5C 60.0846,12.3735 57.7513,12.2068 55.5,12C 50.5555,16.7912 45.2222,20.9579 39.5,24.5C 39.5106,22.9826 40.1772,21.8159 41.5,21C 46.3049,17.6965 50.9716,14.1965 55.5,10.5 Z"/></g>
<g><path style="opacity:1" fill="#b6bda8" d="M 30.5,19.5 C 29.209,19.2627 28.209,19.596 27.5,20.5C 26.596,21.209 26.2627,22.209 26.5,23.5C 26.1667,23.5 25.8333,23.5 25.5,23.5C 24.9245,20.4285 26.0912,18.4285 29,17.5C 30.0299,17.8361 30.5299,18.5028 30.5,19.5 Z"/></g>
<g><path style="opacity:1" fill="#d5d9cb" d="M 27.5,20.5 C 28.209,19.596 29.209,19.2627 30.5,19.5C 31.1667,19.8333 31.8333,20.1667 32.5,20.5C 32.5,21.1667 32.5,21.8333 32.5,22.5C 31.1805,21.0582 29.5138,20.3915 27.5,20.5 Z"/></g>
<g><path style="opacity:1" fill="#b0b9a2" d="M 32.5,20.5 C 34.2459,22.2516 36.2459,23.5849 38.5,24.5C 37.7494,25.5735 36.7494,25.7401 35.5,25C 34.6266,23.955 33.6266,23.1217 32.5,22.5C 32.5,21.8333 32.5,21.1667 32.5,20.5 Z"/></g>
<g><path style="opacity:1" fill="#bbc0ac" d="M 61.5,19.5 C 58.5942,24.3013 55.4275,28.968 52,33.5C 51.5099,35.5454 51.6765,37.5454 52.5,39.5C 51.8826,39.3893 51.3826,39.056 51,38.5C 50.3333,36.5 50.3333,34.5 51,32.5C 54.0587,27.6604 57.5587,23.3271 61.5,19.5 Z"/></g>
<g><path style="opacity:1" fill="#e1e5dc" d="M 25.5,23.5 C 25.8333,23.5 26.1667,23.5 26.5,23.5C 26.1667,25.8333 24.8333,27.1667 22.5,27.5C 22.5,27.1667 22.5,26.8333 22.5,26.5C 23.8333,25.8333 24.8333,24.8333 25.5,23.5 Z"/></g>
<g><path style="opacity:1" fill="#c0c5b2" d="M 22.5,26.5 C 22.5,26.8333 22.5,27.1667 22.5,27.5C 21.5,27.5 20.5,27.5 19.5,27.5C 19.8918,31.5815 20.5584,35.5815 21.5,39.5C 20.2749,38.8478 19.6083,37.6811 19.5,36C 18.8926,32.8571 18.5592,29.6905 18.5,26.5C 19.8333,26.5 21.1667,26.5 22.5,26.5 Z"/></g>
<g><path style="opacity:1" fill="#cfd1c4" d="M 21.5,39.5 C 22.4959,39.4142 23.3292,39.7476 24,40.5C 24.765,42.0657 24.5983,43.3991 23.5,44.5C 23.1075,42.7162 22.4408,41.0495 21.5,39.5 Z"/></g>
<g><path style="opacity:1" fill="#bdc2ae" d="M 44.5,41.5 C 47.7195,42.0211 48.7195,43.6878 47.5,46.5C 45.244,45.5791 44.244,43.9124 44.5,41.5 Z"/></g>
<g><path style="opacity:1" fill="#d4d8cb" d="M 23.5,44.5 C 23.4003,47.1085 24.0669,49.4418 25.5,51.5C 24.1667,50.8333 23.1667,49.8333 22.5,48.5C 22.5,47.5 22.5,46.5 22.5,45.5C 22.5,44.8333 22.8333,44.5 23.5,44.5 Z"/></g>
<g><path style="opacity:1" fill="#b1b8a0" d="M 22.5,45.5 C 22.5,46.5 22.5,47.5 22.5,48.5C 20.0155,47.2601 20.0155,46.2601 22.5,45.5 Z"/></g>
<g><path style="opacity:1" fill="#cdd1c3" d="M 30.5,53.5 C 29.1667,53.5 27.8333,53.5 26.5,53.5C 25.6618,53.1583 25.3284,52.4916 25.5,51.5C 26.9305,51.5792 28.2638,51.2458 29.5,50.5C 30.3857,51.325 30.719,52.325 30.5,53.5 Z"/></g>
<g><path style="opacity:1" fill="#dcdfd4" d="M 55.5,47.5 C 56.3213,50.6414 56.8213,53.9748 57,57.5C 58.0113,58.3366 59.1779,58.67 60.5,58.5C 60.815,62.3714 60.4816,66.0381 59.5,69.5C 59.5,66.1667 59.5,62.8333 59.5,59.5C 58.1779,59.67 57.0113,59.3366 56,58.5C 55.5014,54.8484 55.3347,51.1817 55.5,47.5 Z"/></g>
<g><path style="opacity:1" fill="#9aa384" d="M 26.5,53.5 C 27.8333,53.5 29.1667,53.5 30.5,53.5C 30.634,55.2915 30.3007,56.9582 29.5,58.5C 27.5,58.5 25.5,58.5 23.5,58.5C 24.9187,57.5489 26.5853,57.2155 28.5,57.5C 28.4729,55.8007 27.8062,54.4674 26.5,53.5 Z"/></g>
<g><path style="opacity:1" fill="#d5d8cd" d="M 23.5,58.5 C 25.5,58.5 27.5,58.5 29.5,58.5C 28.0813,59.4511 26.4147,59.7845 24.5,59.5C 24.5,62.8333 24.5,66.1667 24.5,69.5C 26.1667,69.5 27.8333,69.5 29.5,69.5C 29.7947,71.7354 29.4614,73.7354 28.5,75.5C 28.7845,73.5853 28.4511,71.9187 27.5,70.5C 26.1667,70.5 24.8333,70.5 23.5,70.5C 23.5,66.5 23.5,62.5 23.5,58.5 Z"/></g>
<g><path style="opacity:1" fill="#b8bfa9" d="M 52.5,39.5 C 54.9842,41.1198 56.4842,43.4531 57,46.5C 57.3333,49.8333 57.6667,53.1667 58,56.5C 59.0113,57.3366 60.1779,57.67 61.5,57.5C 61.5,61.8333 61.5,66.1667 61.5,70.5C 60.1667,70.5 58.8333,70.5 57.5,70.5C 57.5,71.8333 57.5,73.1667 57.5,74.5C 57.1667,74.5 56.8333,74.5 56.5,74.5C 56.5,72.8333 56.5,71.1667 56.5,69.5C 57.5,69.5 58.5,69.5 59.5,69.5C 60.4816,66.0381 60.815,62.3714 60.5,58.5C 59.1779,58.67 58.0113,58.3366 57,57.5C 56.8213,53.9748 56.3213,50.6414 55.5,47.5C 54.1168,45.0221 53.1168,42.3554 52.5,39.5 Z"/></g>
<g><path style="opacity:1" fill="#aeb59d" d="M 27.5,70.5 C 28.4511,71.9187 28.7845,73.5853 28.5,75.5C 24.8333,75.5 21.1667,75.5 17.5,75.5C 17.5,76.5 17.5,77.5 17.5,78.5C 16.5655,77.4324 16.2322,76.099 16.5,74.5C 20.1667,74.5 23.8333,74.5 27.5,74.5C 27.5,73.1667 27.5,71.8333 27.5,70.5 Z"/></g>
<g><path style="opacity:1" fill="#d5d9cd" d="M 56.5,74.5 C 56.8333,74.5 57.1667,74.5 57.5,74.5C 61.0419,74.1872 64.3752,74.5206 67.5,75.5C 67.5,76.8333 67.5,78.1667 67.5,79.5C 50.8333,79.5 34.1667,79.5 17.5,79.5C 17.5,79.1667 17.5,78.8333 17.5,78.5C 17.5,77.5 17.5,76.5 17.5,75.5C 21.1667,75.5 24.8333,75.5 28.5,75.5C 25.3586,76.3213 22.0252,76.8213 18.5,77C 34.5,77.6667 50.5,77.6667 66.5,77C 62.6887,77.0835 59.3554,76.2501 56.5,74.5 Z"/></g>
<g><path style="opacity:1" fill="#929b7c" d="M 67.5,75.5 C 68.4511,76.9187 68.7845,78.5853 68.5,80.5C 51.3251,80.8299 34.3251,80.4966 17.5,79.5C 34.1667,79.5 50.8333,79.5 67.5,79.5C 67.5,78.1667 67.5,76.8333 67.5,75.5 Z"/></g>
</svg>
