<?xml version="1.0" encoding="UTF-8"?>
<!DOCTYPE svg PUBLIC "-//W3C//DTD SVG 1.1//EN" "http://www.w3.org/Graphics/SVG/1.1/DTD/svg11.dtd">
<svg xmlns="http://www.w3.org/2000/svg" version="1.1" width="96px" height="96px" style="shape-rendering:geometricPrecision; text-rendering:geometricPrecision; image-rendering:optimizeQuality; fill-rule:evenodd; clip-rule:evenodd" xmlns:xlink="http://www.w3.org/1999/xlink">
<g><path style="opacity:1" fill="#01353a" d="M 2.5,2.5 C 32.5,2.5 62.5,2.5 92.5,2.5C 92.5,32.5 92.5,62.5 92.5,92.5C 62.5,92.5 32.5,92.5 2.5,92.5C 2.5,62.5 2.5,32.5 2.5,2.5 Z"/></g>
<g><path style="opacity:1" fill="#31585e" d="M 4.5,3.5 C 33.4072,3.1714 62.2405,3.50474 91,4.5C 91.8282,33.4052 91.6616,62.2386 90.5,91C 61.5948,91.8282 32.7614,91.6616 4,90.5C 3.17564,61.4281 3.34231,32.4281 4.5,3.5 Z"/></g>
<g><path style="opacity:1" fill="#48686e" d="M 5.5,5.5 C 33.5,5.5 61.5,5.5 89.5,5.5C 89.5,33.5 89.5,61.5 89.5,89.5C 61.5,89.5 33.5,89.5 5.5,89.5C 5.5,61.5 5.5,33.5 5.5,5.5 Z"/></g>
<g><path style="opacity:1" fill="#7e9598" d="M 62.5,17.5 C 59.2569,17.0857 56.2569,16.0857 53.5,14.5C 53.3691,13.6236 53.7025,12.9569 54.5,12.5C 58.161,13.3418 61.4944,14.8418 64.5,17C 63.9056,17.4643 63.2389,17.631 62.5,17.5 Z"/></g>
<g><path style="opacity:1" fill="#a0b4b7" d="M 65.5,47.5 C 64.8501,47.1961 64.1835,46.8627 63.5,46.5C 61.3932,47.6368 59.2265,48.6368 57,49.5C 55.3771,50.921 54.2105,52.5876 53.5,54.5C 53.719,53.325 53.3857,52.325 52.5,51.5C 51.265,52.3398 50.265,53.3398 49.5,54.5C 49.4226,53.2502 48.756,52.4169 47.5,52C 43.9551,51.2829 40.4551,51.4496 37,52.5C 35.9701,52.8361 35.4701,53.5028 35.5,54.5C 34.8501,54.1961 34.1835,53.8627 33.5,53.5C 31.0418,56.1396 28.2084,58.1396 25,59.5C 22.2562,59.5879 21.0895,58.2546 21.5,55.5C 21.5698,54.2284 21.9032,53.0617 22.5,52C 27.3652,51.7794 31.3652,49.9461 34.5,46.5C 35.2506,47.5735 36.2506,47.7401 37.5,47C 40.058,43.9503 42.3913,40.7836 44.5,37.5C 47.3286,36.2533 49.9952,34.7533 52.5,33C 54.1124,32.2797 55.6124,32.4464 57,33.5C 59.7365,28.603 62.2365,23.603 64.5,18.5C 66.6204,17.5967 66.9538,16.2633 65.5,14.5C 67.0277,12.1907 69.0277,10.1907 71.5,8.5C 76.0341,10.2607 80.0341,12.7607 83.5,16C 81.5418,20.7514 79.2085,25.2514 76.5,29.5C 76.9867,30.4461 77.3201,31.4461 77.5,32.5C 76.3489,34.3254 75.6822,36.3254 75.5,38.5C 72.7766,39.3519 70.11,40.5186 67.5,42C 65.8446,43.4443 65.178,45.2776 65.5,47.5 Z"/></g>
<g><path style="opacity:1" fill="#fafbfb" d="M 51.5,11.5 C 52.1667,12.5 52.8333,13.5 53.5,14.5C 56.2569,16.0857 59.2569,17.0857 62.5,17.5C 62.8417,18.3382 63.5084,18.6716 64.5,18.5C 62.2365,23.603 59.7365,28.603 57,33.5C 55.6124,32.4464 54.1124,32.2797 52.5,33C 49.9952,34.7533 47.3286,36.2533 44.5,37.5C 42.3913,40.7836 40.058,43.9503 37.5,47C 36.2506,47.7401 35.2506,47.5735 34.5,46.5C 35.0476,44.6064 36.0476,42.9397 37.5,41.5C 37.3764,40.8933 37.0431,40.56 36.5,40.5C 37.2178,38.8632 37.3845,37.1966 37,35.5C 35.3602,33.421 34.1936,31.0876 33.5,28.5C 33.0431,27.7025 32.3764,27.3691 31.5,27.5C 31.19,24.2869 31.5233,21.2869 32.5,18.5C 34.1172,17.962 35.7839,17.6287 37.5,17.5C 37.7373,16.209 37.404,15.209 36.5,14.5C 34.1368,12.917 34.1368,11.0836 36.5,9C 40.1516,8.50137 43.8183,8.3347 47.5,8.5C 47.5,9.83333 47.5,11.1667 47.5,12.5C 48.9587,12.5674 50.2921,12.2341 51.5,11.5 Z"/></g>
<g><path style="opacity:1" fill="#8fa3a7" d="M 36.5,14.5 C 37.404,15.209 37.7373,16.209 37.5,17.5C 35.7839,17.6287 34.1172,17.962 32.5,18.5C 34.0414,17.3332 35.3748,15.9999 36.5,14.5 Z"/></g>
<g><path style="opacity:1" fill="#d6dede" d="M 51.5,11.5 C 51.9169,10.8761 52.5836,10.5427 53.5,10.5C 57.5917,11.6417 61.5917,12.975 65.5,14.5C 66.9538,16.2633 66.6204,17.5967 64.5,18.5C 63.5084,18.6716 62.8417,18.3382 62.5,17.5C 63.2389,17.631 63.9056,17.4643 64.5,17C 61.4944,14.8418 58.161,13.3418 54.5,12.5C 53.7025,12.9569 53.3691,13.6236 53.5,14.5C 52.8333,13.5 52.1667,12.5 51.5,11.5 Z"/></g>
<g><path style="opacity:1" fill="#a1b4b6" d="M 31.5,27.5 C 32.3764,27.3691 33.0431,27.7025 33.5,28.5C 34.1936,31.0876 35.3602,33.421 37,35.5C 37.3845,37.1966 37.2178,38.8632 36.5,40.5C 32.6454,42.023 28.9788,41.6896 25.5,39.5C 23.9581,38.8365 22.2914,38.1698 20.5,37.5C 20.8627,36.8165 21.1961,36.1499 21.5,35.5C 21.5,34.5 21.5,33.5 21.5,32.5C 25.2407,33.4015 27.2407,32.0681 27.5,28.5C 29.099,28.7678 30.4324,28.4345 31.5,27.5 Z"/></g>
<g><path style="opacity:1" fill="#8ea5a8" d="M 21.5,35.5 C 21.1961,36.1499 20.8627,36.8165 20.5,37.5C 22.2914,38.1698 23.9581,38.8365 25.5,39.5C 22.1501,39.335 18.8168,39.5017 15.5,40C 13.8715,43.1499 11.5382,43.9832 8.5,42.5C 13.7298,41.0753 13.7298,39.9086 8.5,39C 12.6025,37.1433 16.9358,35.9766 21.5,35.5 Z"/></g>
<g><path style="opacity:1" fill="#f6f7f8" d="M 65.5,47.5 C 65.876,50.522 65.2093,53.522 63.5,56.5C 64.1667,57.5 64.8333,58.5 65.5,59.5C 64.3406,62.4814 63.3406,65.4814 62.5,68.5C 60.4805,69.5383 60.1472,70.8716 61.5,72.5C 62.6225,74.2884 62.7891,76.2884 62,78.5C 59.9633,80.7059 57.7966,82.7059 55.5,84.5C 54.5,84.5 53.5,84.5 52.5,84.5C 52.5,83.5 52.5,82.5 52.5,81.5C 50.8333,81.5 49.1667,81.5 47.5,81.5C 46.4017,80.3991 46.235,79.0657 47,77.5C 49.5313,76.0773 51.3647,74.0773 52.5,71.5C 53.1524,70.5514 53.4857,69.3847 53.5,68C 52.6643,65.5103 51.9976,63.0103 51.5,60.5C 52.7298,58.7028 53.3964,56.7028 53.5,54.5C 54.2105,52.5876 55.3771,50.921 57,49.5C 59.2265,48.6368 61.3932,47.6368 63.5,46.5C 64.1835,46.8627 64.8501,47.1961 65.5,47.5 Z"/></g>
<g><path style="opacity:1" fill="#f4f6f6" d="M 49.5,54.5 C 45.9217,57.6565 43.9217,61.6565 43.5,66.5C 41.9291,67.3094 40.2624,67.6427 38.5,67.5C 35.9327,67.7215 33.5994,68.3882 31.5,69.5C 29.4872,68.5248 28.1539,66.8581 27.5,64.5C 31.0174,62.9921 33.8507,60.6588 36,57.5C 36.7401,56.2506 36.5735,55.2506 35.5,54.5C 35.4701,53.5028 35.9701,52.8361 37,52.5C 40.4551,51.4496 43.9551,51.2829 47.5,52C 48.756,52.4169 49.4226,53.2502 49.5,54.5 Z"/></g>
<g><path style="opacity:1" fill="#90a4a7" d="M 51.5,60.5 C 51.9976,63.0103 52.6643,65.5103 53.5,68C 53.4857,69.3847 53.1524,70.5514 52.5,71.5C 52.5,69.5 52.5,67.5 52.5,65.5C 51.325,65.719 50.325,65.3857 49.5,64.5C 49.9943,62.9745 50.661,61.6412 51.5,60.5 Z"/></g>
<g><path style="opacity:1" fill="#91a4a5" d="M 38.5,67.5 C 36.5615,69.1628 34.2282,69.8294 31.5,69.5C 33.5994,68.3882 35.9327,67.7215 38.5,67.5 Z"/></g>
<g><path style="opacity:1" fill="#99acad" d="M 62.5,68.5 C 62.1667,69.8333 61.8333,71.1667 61.5,72.5C 60.1472,70.8716 60.4805,69.5383 62.5,68.5 Z"/></g>
<g><path style="opacity:1" fill="#8ba0a3" d="M 47.5,81.5 C 49.1667,81.5 50.8333,81.5 52.5,81.5C 52.5,82.5 52.5,83.5 52.5,84.5C 53.5,84.5 54.5,84.5 55.5,84.5C 54.4324,85.4345 53.099,85.7678 51.5,85.5C 51.5,84.5 51.5,83.5 51.5,82.5C 49.901,82.7678 48.5676,82.4345 47.5,81.5 Z"/></g>
</svg>
