<?xml version="1.0" encoding="UTF-8"?>
<!DOCTYPE svg PUBLIC "-//W3C//DTD SVG 1.1//EN" "http://www.w3.org/Graphics/SVG/1.1/DTD/svg11.dtd">
<svg xmlns="http://www.w3.org/2000/svg" version="1.1" width="96px" height="96px" style="shape-rendering:geometricPrecision; text-rendering:geometricPrecision; image-rendering:optimizeQuality; fill-rule:evenodd; clip-rule:evenodd" xmlns:xlink="http://www.w3.org/1999/xlink">
<g><path style="opacity:1" fill="#01353a" d="M 2.5,2.5 C 32.5,2.5 62.5,2.5 92.5,2.5C 92.5,32.5 92.5,62.5 92.5,92.5C 62.5,92.5 32.5,92.5 2.5,92.5C 2.5,62.5 2.5,32.5 2.5,2.5 Z"/></g>
<g><path style="opacity:1" fill="#32585e" d="M 4.5,3.5 C 33.4072,3.1714 62.2405,3.50474 91,4.5C 91.8282,33.4052 91.6616,62.2386 90.5,91C 61.5948,91.8282 32.7614,91.6616 4,90.5C 3.17564,61.4281 3.34231,32.4281 4.5,3.5 Z"/></g>
<g><path style="opacity:1" fill="#47676d" d="M 36.5,5.5 C 36.5,7.16667 36.5,8.83333 36.5,10.5C 34.2655,10.6199 32.0989,10.2865 30,9.5C 27.5627,10.8001 25.0627,11.8001 22.5,12.5C 22.4208,13.9305 22.7542,15.2638 23.5,16.5C 22.8075,17.5178 22.1408,18.5178 21.5,19.5C 18.3864,20.0913 15.8864,21.758 14,24.5C 13.9066,28.5503 12.7399,32.217 10.5,35.5C 11.1882,36.8549 12.1882,37.8549 13.5,38.5C 12.5,39.8333 11.5,41.1667 10.5,42.5C 9.16667,42.5 7.83333,42.5 6.5,42.5C 6.48628,57.7009 6.81961,72.8675 7.5,88C 33.9932,87.6639 60.6599,87.6639 87.5,88C 87.9553,78.0189 88.2886,68.1856 88.5,58.5C 88.1316,56.8247 87.1316,55.8247 85.5,55.5C 84.1149,53.1165 82.1149,51.4499 79.5,50.5C 78.2524,48.31 76.5857,47.9766 74.5,49.5C 73.1733,48.1999 71.84,46.8665 70.5,45.5C 67.239,40.6425 64.239,35.6425 61.5,30.5C 57.4786,26.7966 52.8119,24.4633 47.5,23.5C 47.1967,18.186 44.53,14.5193 39.5,12.5C 38.5258,10.2573 38.1924,7.92397 38.5,5.5C 55.5,5.5 72.5,5.5 89.5,5.5C 89.5,33.5 89.5,61.5 89.5,89.5C 61.5,89.5 33.5,89.5 5.5,89.5C 5.5,61.5 5.5,33.5 5.5,5.5C 15.5949,4.87446 25.4282,5.54113 35,7.5C 35.2784,6.5842 35.7784,5.91753 36.5,5.5 Z"/></g>
<g><path style="opacity:1" fill="#a1b6b8" d="M 79.5,50.5 C 82.1149,51.4499 84.1149,53.1165 85.5,55.5C 87.1021,60.337 86.7688,65.0037 84.5,69.5C 81.9135,70.48 79.2469,70.8134 76.5,70.5C 77.7372,67.7554 79.5705,65.4221 82,63.5C 83.1577,58.6935 82.3243,54.3601 79.5,50.5 Z"/></g>
<g><path style="opacity:1" fill="#869da1" d="M 79.5,50.5 C 77.5853,50.7845 75.9187,50.4511 74.5,49.5C 76.5857,47.9766 78.2524,48.31 79.5,50.5 Z"/></g>
<g><path style="opacity:1" fill="#a1b5b7" d="M 13.5,38.5 C 14.6527,39.3132 14.6527,40.3132 13.5,41.5C 15.4233,42.3078 17.4233,42.8078 19.5,43C 21.628,46.1301 24.128,48.9634 27,51.5C 28.0086,53.0249 28.5086,54.6916 28.5,56.5C 29.552,56.3505 30.552,56.5172 31.5,57C 36.6773,63.0091 42.0106,68.8424 47.5,74.5C 48.5192,76.4595 48.5192,78.4595 47.5,80.5C 41.2611,86.0907 35.4277,85.7573 30,79.5C 29.3583,75.5092 28.8583,71.5092 28.5,67.5C 21.2589,67.5928 17.5923,63.9261 17.5,56.5C 15.0194,56.6766 13.1861,55.6766 12,53.5C 10.7633,49.9399 10.2633,46.2733 10.5,42.5C 11.5,41.1667 12.5,39.8333 13.5,38.5 Z"/></g>
<g><path style="opacity:1" fill="#49696e" d="M 10.5,42.5 C 10.2633,46.2733 10.7633,49.9399 12,53.5C 13.1861,55.6766 15.0194,56.6766 17.5,56.5C 17.5923,63.9261 21.2589,67.5928 28.5,67.5C 28.8583,71.5092 29.3583,75.5092 30,79.5C 35.4277,85.7573 41.2611,86.0907 47.5,80.5C 50.3596,81.2439 53.3596,81.9106 56.5,82.5C 57.1067,82.3764 57.44,82.0431 57.5,81.5C 62.9611,79.4675 68.2944,77.1341 73.5,74.5C 74.1497,72.8164 75.1497,71.4831 76.5,70.5C 79.2469,70.8134 81.9135,70.48 84.5,69.5C 86.7688,65.0037 87.1021,60.337 85.5,55.5C 87.1316,55.8247 88.1316,56.8247 88.5,58.5C 88.2886,68.1856 87.9553,78.0189 87.5,88C 60.6599,87.6639 33.9932,87.6639 7.5,88C 6.81961,72.8675 6.48628,57.7009 6.5,42.5C 7.83333,42.5 9.16667,42.5 10.5,42.5 Z"/></g>
<g><path style="opacity:1" fill="#c4cecf" d="M 47.5,80.5 C 50.9387,80.2529 54.272,80.5863 57.5,81.5C 57.44,82.0431 57.1067,82.3764 56.5,82.5C 53.3596,81.9106 50.3596,81.2439 47.5,80.5 Z"/></g>
<g><path style="opacity:1" fill="#fcfcfc" d="M 21.5,19.5 C 24.546,26.7241 30.2126,30.5574 38.5,31C 42.3333,34.8333 46.1667,38.6667 50,42.5C 50.3114,43.7425 49.8114,44.7425 48.5,45.5C 49.8957,47.7914 51.729,48.1247 54,46.5C 54.9503,47.0223 55.7836,47.689 56.5,48.5C 57.7362,47.7542 59.0695,47.4208 60.5,47.5C 62.9249,42.2756 61.2582,39.7756 55.5,40C 52.7031,36.2012 49.5364,32.7012 46,29.5C 45.2615,27.1195 45.7615,25.1195 47.5,23.5C 52.8119,24.4633 57.4786,26.7966 61.5,30.5C 64.239,35.6425 67.239,40.6425 70.5,45.5C 71.84,46.8665 73.1733,48.1999 74.5,49.5C 75.9187,50.4511 77.5853,50.7845 79.5,50.5C 82.3243,54.3601 83.1577,58.6935 82,63.5C 79.5705,65.4221 77.7372,67.7554 76.5,70.5C 75.1497,71.4831 74.1497,72.8164 73.5,74.5C 68.2944,77.1341 62.9611,79.4675 57.5,81.5C 54.272,80.5863 50.9387,80.2529 47.5,80.5C 48.5192,78.4595 48.5192,76.4595 47.5,74.5C 42.0106,68.8424 36.6773,63.0091 31.5,57C 30.552,56.5172 29.552,56.3505 28.5,56.5C 28.5086,54.6916 28.0086,53.0249 27,51.5C 24.128,48.9634 21.628,46.1301 19.5,43C 17.4233,42.8078 15.4233,42.3078 13.5,41.5C 14.6527,40.3132 14.6527,39.3132 13.5,38.5C 12.1882,37.8549 11.1882,36.8549 10.5,35.5C 12.7399,32.217 13.9066,28.5503 14,24.5C 15.8864,21.758 18.3864,20.0913 21.5,19.5 Z"/></g>
<g><path style="opacity:1" fill="#a3b6b8" d="M 36.5,5.5 C 37.1667,5.5 37.8333,5.5 38.5,5.5C 38.1924,7.92397 38.5258,10.2573 39.5,12.5C 44.53,14.5193 47.1967,18.186 47.5,23.5C 45.7615,25.1195 45.2615,27.1195 46,29.5C 49.5364,32.7012 52.7031,36.2012 55.5,40C 61.2582,39.7756 62.9249,42.2756 60.5,47.5C 59.0695,47.4208 57.7362,47.7542 56.5,48.5C 55.7836,47.689 54.9503,47.0223 54,46.5C 51.729,48.1247 49.8957,47.7914 48.5,45.5C 49.8114,44.7425 50.3114,43.7425 50,42.5C 46.1667,38.6667 42.3333,34.8333 38.5,31C 30.2126,30.5574 24.546,26.7241 21.5,19.5C 22.1408,18.5178 22.8075,17.5178 23.5,16.5C 22.7542,15.2638 22.4208,13.9305 22.5,12.5C 25.0627,11.8001 27.5627,10.8001 30,9.5C 32.0989,10.2865 34.2655,10.6199 36.5,10.5C 36.5,8.83333 36.5,7.16667 36.5,5.5 Z"/></g>
</svg>
