<?xml version="1.0" encoding="UTF-8"?>
<!DOCTYPE svg PUBLIC "-//W3C//DTD SVG 1.1//EN" "http://www.w3.org/Graphics/SVG/1.1/DTD/svg11.dtd">
<svg xmlns="http://www.w3.org/2000/svg" version="1.1" width="96px" height="96px" style="shape-rendering:geometricPrecision; text-rendering:geometricPrecision; image-rendering:optimizeQuality; fill-rule:evenodd; clip-rule:evenodd" xmlns:xlink="http://www.w3.org/1999/xlink">
<g><path style="opacity:0.976" fill="#124047" d="M 2.5,2.5 C 32.5,2.5 62.5,2.5 92.5,2.5C 92.5,32.5 92.5,62.5 92.5,92.5C 62.5,92.5 32.5,92.5 2.5,92.5C 2.5,62.5 2.5,32.5 2.5,2.5 Z"/></g>
<g><path style="opacity:1" fill="#47676d" d="M 4.5,4.5 C 33.1667,4.5 61.8333,4.5 90.5,4.5C 90.5,33.1667 90.5,61.8333 90.5,90.5C 61.8333,90.5 33.1667,90.5 4.5,90.5C 4.5,61.8333 4.5,33.1667 4.5,4.5 Z"/></g>
<g><path style="opacity:1" fill="#fcfcfc" d="M 29.5,11.5 C 30.1556,12.2778 30.9889,12.9444 32,13.5C 34.216,12.227 36.3827,12.227 38.5,13.5C 40.5054,15.334 42.6721,17.0007 45,18.5C 46.2393,23.3968 49.406,25.5635 54.5,25C 55.3734,26.045 56.3734,26.8783 57.5,27.5C 60.8538,28.7542 64.3538,28.7542 68,27.5C 69.0299,27.8361 69.5299,28.5028 69.5,29.5C 66.427,29.4528 64.0937,30.6194 62.5,33C 67.0964,38.4288 71.0964,44.2622 74.5,50.5C 82.0449,51.6021 84.5449,55.9354 82,63.5C 79.2179,65.7705 77.0512,68.4372 75.5,71.5C 74.7756,74.5487 72.7756,76.2153 69.5,76.5C 67.597,76.7959 65.9303,77.4625 64.5,78.5C 59.0655,81.4477 53.3988,82.1144 47.5,80.5C 48.1495,78.5648 48.4828,76.5648 48.5,74.5C 42.4189,69.5754 37.0856,63.742 32.5,57C 31.2068,56.51 29.8734,56.3433 28.5,56.5C 28.5086,54.6916 28.0086,53.0249 27,51.5C 24.128,48.9634 21.628,46.1301 19.5,43C 17.4233,42.8078 15.4233,42.3078 13.5,41.5C 14.6527,40.3132 14.6527,39.3132 13.5,38.5C 10.2985,37.1605 9.9652,35.4939 12.5,33.5C 12.1224,24.8871 16.1224,19.8871 24.5,18.5C 23.4869,14.187 25.1536,11.8537 29.5,11.5 Z"/></g>
<g><path style="opacity:1" fill="#bac5c7" d="M 38.5,13.5 C 36.3827,12.227 34.216,12.227 32,13.5C 30.9889,12.9444 30.1556,12.2778 29.5,11.5C 31.588,11.1348 33.9213,11.1348 36.5,11.5C 36.2011,9.39605 36.5344,7.39605 37.5,5.5C 38.48,8.08645 38.8134,10.7531 38.5,13.5 Z"/></g>
<g><path style="opacity:1" fill="#d4dbdc" d="M 69.5,29.5 C 69.5299,28.5028 69.0299,27.8361 68,27.5C 64.3538,28.7542 60.8538,28.7542 57.5,27.5C 61.8566,27.4135 66.19,27.0802 70.5,26.5C 70.7373,27.791 70.404,28.791 69.5,29.5 Z"/></g>
<g><path style="opacity:1" fill="#a0b4b7" d="M 13.5,38.5 C 14.6527,39.3132 14.6527,40.3132 13.5,41.5C 15.4233,42.3078 17.4233,42.8078 19.5,43C 21.628,46.1301 24.128,48.9634 27,51.5C 28.0086,53.0249 28.5086,54.6916 28.5,56.5C 29.8734,56.3433 31.2068,56.51 32.5,57C 37.0856,63.742 42.4189,69.5754 48.5,74.5C 48.4828,76.5648 48.1495,78.5648 47.5,80.5C 41.3071,86.0781 35.4737,85.7447 30,79.5C 29.2811,75.8546 28.7811,72.1879 28.5,68.5C 21.2213,68.005 17.5546,64.005 17.5,56.5C 16.0222,56.762 14.6888,56.4287 13.5,55.5C 10.0106,51.8246 8.84393,47.4912 10,42.5C 11.1022,41.051 12.2689,39.7177 13.5,38.5 Z"/></g>
<g><path style="opacity:1" fill="#9fb3b6" d="M 75.5,71.5 C 77.0512,68.4372 79.2179,65.7705 82,63.5C 84.5449,55.9354 82.0449,51.6021 74.5,50.5C 75.6948,50.3225 76.8615,49.9891 78,49.5C 87.1094,54.4509 88.9428,61.4509 83.5,70.5C 80.9159,71.3928 78.2492,71.7261 75.5,71.5 Z"/></g>
<g><path style="opacity:1" fill="#8da1a5" d="M 69.5,76.5 C 68.3646,78.2132 66.698,78.8799 64.5,78.5C 65.9303,77.4625 67.597,76.7959 69.5,76.5 Z"/></g>
</svg>
