<?xml version="1.0" encoding="UTF-8"?>
<!DOCTYPE svg PUBLIC "-//W3C//DTD SVG 1.1//EN" "http://www.w3.org/Graphics/SVG/1.1/DTD/svg11.dtd">
<svg xmlns="http://www.w3.org/2000/svg" version="1.1" width="96px" height="96px" style="shape-rendering:geometricPrecision; text-rendering:geometricPrecision; image-rendering:optimizeQuality; fill-rule:evenodd; clip-rule:evenodd" xmlns:xlink="http://www.w3.org/1999/xlink">
<g><path style="opacity:1" fill="#01363e" d="M 2.5,2.5 C 32.5,2.5 62.5,2.5 92.5,2.5C 92.5,32.5 92.5,62.5 92.5,92.5C 62.5,92.5 32.5,92.5 2.5,92.5C 2.5,62.5 2.5,32.5 2.5,2.5 Z"/></g>
<g><path style="opacity:1" fill="#34595f" d="M 4.5,3.5 C 33.4072,3.1714 62.2405,3.50474 91,4.5C 91.8282,33.4052 91.6616,62.2386 90.5,91C 61.5948,91.8282 32.7614,91.6616 4,90.5C 3.17564,61.4281 3.34231,32.4281 4.5,3.5 Z"/></g>
<g><path style="opacity:1" fill="#47686e" d="M 5.5,5.5 C 33.5,5.5 61.5,5.5 89.5,5.5C 89.3642,33.5863 89.3642,61.5863 89.5,89.5C 61.5,89.5 33.5,89.5 5.5,89.5C 6.16877,61.5137 6.16877,33.5137 5.5,5.5 Z"/></g>
<g><path style="opacity:1" fill="#f8f9f9" d="M 86.5,78.5 C 84.0971,78.448 81.7638,78.7814 79.5,79.5C 77.5015,68.136 74.8349,56.8026 71.5,45.5C 68.2317,44.513 64.8984,44.1796 61.5,44.5C 61.5,45.8333 61.5,47.1667 61.5,48.5C 60.7321,49.2625 60.2321,50.2625 60,51.5C 59.6266,57.1888 59.1266,62.8555 58.5,68.5C 58.5,69.1667 58.5,69.8333 58.5,70.5C 57.5269,72.9479 57.1936,75.6146 57.5,78.5C 56.1667,78.5 54.8333,78.5 53.5,78.5C 52.2921,77.7659 50.9587,77.4326 49.5,77.5C 51.3025,73.7484 52.3025,69.7484 52.5,65.5C 53.9873,59.2223 55.654,52.889 57.5,46.5C 54.6872,46.5481 52.0205,47.2147 49.5,48.5C 49.0223,54.1116 49.0223,59.7783 49.5,65.5C 48.2223,65.7822 47.2223,66.4489 46.5,67.5C 35.4187,67.8099 24.4187,67.4766 13.5,66.5C 13.5,65.1667 13.5,63.8333 13.5,62.5C 11.5328,62.7394 9.69946,62.4061 8,61.5C 7.33333,56.5 7.33333,51.5 8,46.5C 9.35613,45.6198 10.8561,45.2865 12.5,45.5C 12.5,44.1667 12.5,42.8333 12.5,41.5C 15.3113,41.1743 17.978,40.3409 20.5,39C 21.8333,36.3333 23.8333,34.3333 26.5,33C 32.8558,30.7396 39.5225,29.4063 46.5,29C 49.9099,26.6284 53.5766,24.7951 57.5,23.5C 61.8461,23.6657 66.1794,23.499 70.5,23C 71.056,22.6174 71.3893,22.1174 71.5,21.5C 75.0188,18.7193 78.8522,18.0527 83,19.5C 83.7975,21.2588 83.6309,22.9255 82.5,24.5C 78.7127,25.7068 75.046,27.2068 71.5,29C 72.3333,30.5 73.5,31.6667 75,32.5C 74.1128,42.3753 76.4462,51.3753 82,59.5C 83.0672,65.4428 84.9005,71.1095 87.5,76.5C 87.4573,77.4164 87.1239,78.0831 86.5,78.5 Z"/></g>
<g><path style="opacity:1" fill="#bec9cb" d="M 71.5,21.5 C 71.3893,22.1174 71.056,22.6174 70.5,23C 66.1794,23.499 61.8461,23.6657 57.5,23.5C 62.0286,22.7265 66.6953,22.0599 71.5,21.5 Z"/></g>
<g><path style="opacity:1" fill="#567479" d="M 52.5,65.5 C 51.4722,53.7536 50.4722,53.7536 49.5,65.5C 49.0223,59.7783 49.0223,54.1116 49.5,48.5C 52.0205,47.2147 54.6872,46.5481 57.5,46.5C 55.654,52.889 53.9873,59.2223 52.5,65.5 Z"/></g>
<g><path style="opacity:1" fill="#869b9f" d="M 61.5,48.5 C 60.8734,54.1445 60.3734,59.8112 60,65.5C 59.7679,66.7375 59.2679,67.7375 58.5,68.5C 59.1266,62.8555 59.6266,57.1888 60,51.5C 60.2321,50.2625 60.7321,49.2625 61.5,48.5 Z"/></g>
<g><path style="opacity:1" fill="#617c81" d="M 13.5,66.5 C 24.4187,67.4766 35.4187,67.8099 46.5,67.5C 41.1771,68.1661 35.6771,68.4994 30,68.5C 24.1238,68.4952 18.6238,67.8286 13.5,66.5 Z"/></g>
<g><path style="opacity:1" fill="#758d91" d="M 58.5,70.5 C 58.5079,73.5448 58.8413,76.5448 59.5,79.5C 57.2646,79.7947 55.2646,79.4614 53.5,78.5C 54.8333,78.5 56.1667,78.5 57.5,78.5C 57.1936,75.6146 57.5269,72.9479 58.5,70.5 Z"/></g>
<g><path style="opacity:1" fill="#81969a" d="M 86.5,78.5 C 84.2866,80.3117 81.9533,80.6451 79.5,79.5C 81.7638,78.7814 84.0971,78.448 86.5,78.5 Z"/></g>
</svg>
