<?xml version="1.0" encoding="UTF-8"?>
<!DOCTYPE svg PUBLIC "-//W3C//DTD SVG 1.1//EN" "http://www.w3.org/Graphics/SVG/1.1/DTD/svg11.dtd">
<svg xmlns="http://www.w3.org/2000/svg" version="1.1" width="96px" height="96px" style="shape-rendering:geometricPrecision; text-rendering:geometricPrecision; image-rendering:optimizeQuality; fill-rule:evenodd; clip-rule:evenodd" xmlns:xlink="http://www.w3.org/1999/xlink">
<g><path style="opacity:1" fill="#00343c" d="M 2.5,2.5 C 32.5,2.5 62.5,2.5 92.5,2.5C 92.5,32.5 92.5,62.5 92.5,92.5C 62.5,92.5 32.5,92.5 2.5,92.5C 2.5,62.5 2.5,32.5 2.5,2.5 Z"/></g>
<g><path style="opacity:1" fill="#3d6066" d="M 3.5,3.5 C 32.8333,3.5 62.1667,3.5 91.5,3.5C 91.5,32.8333 91.5,62.1667 91.5,91.5C 62.1667,91.5 32.8333,91.5 3.5,91.5C 3.5,62.1667 3.5,32.8333 3.5,3.5 Z"/></g>
<g><path style="opacity:1" fill="#47686e" d="M 32.5,89.5 C 32.5,86.5 32.5,83.5 32.5,80.5C 38.9325,80.5569 45.2659,79.8902 51.5,78.5C 53.369,76.3647 54.0356,73.6981 53.5,70.5C 62.3832,66.7542 71.7165,64.5875 81.5,64C 82.4158,63.7216 83.0825,63.2216 83.5,62.5C 84.4959,62.4142 85.3292,62.7476 86,63.5C 86.8286,45.6619 86.6619,27.9952 85.5,10.5C 84.5,10.1667 83.8333,9.5 83.5,8.5C 72.1924,6.69393 60.8591,6.3606 49.5,7.5C 46.1498,10.3112 44.6498,13.9779 45,18.5C 39.523,19.1405 36.023,22.1405 34.5,27.5C 32.4235,29.2877 30.2568,30.9544 28,32.5C 27.6667,37.5 27.3333,42.5 27,47.5C 22,51.1667 17,54.8333 12,58.5C 11.502,61.4816 11.3354,64.4816 11.5,67.5C 11.5,71.8333 11.5,76.1667 11.5,80.5C 14.3854,80.8064 17.0521,80.4731 19.5,79.5C 21.2338,77.9096 22.4005,75.9096 23,73.5C 22.9972,79.0746 23.8305,84.4079 25.5,89.5C 18.6866,90.4912 11.6866,90.8245 4.5,90.5C 4.5,61.8333 4.5,33.1667 4.5,4.5C 33.1667,4.5 61.8333,4.5 90.5,4.5C 90.5,33.1667 90.5,61.8333 90.5,90.5C 70.9928,90.8303 51.6595,90.497 32.5,89.5 Z"/></g>
<g><path style="opacity:1" fill="#fafbfb" d="M 49.5,7.5 C 60.8333,7.83333 72.1667,8.16667 83.5,8.5C 83.8333,9.5 84.5,10.1667 85.5,10.5C 86.1311,28.0708 85.4644,45.4042 83.5,62.5C 83.0825,63.2216 82.4158,63.7216 81.5,64C 71.7165,64.5875 62.3832,66.7542 53.5,70.5C 52.7451,73.0529 52.0784,75.7196 51.5,78.5C 45.2659,79.8902 38.9325,80.5569 32.5,80.5C 32.5,83.5 32.5,86.5 32.5,89.5C 30.1667,89.5 27.8333,89.5 25.5,89.5C 23.8305,84.4079 22.9972,79.0746 23,73.5C 22.4005,75.9096 21.2338,77.9096 19.5,79.5C 17.1667,79.5 14.8333,79.5 12.5,79.5C 12.8168,75.2984 12.4834,71.2984 11.5,67.5C 11.3354,64.4816 11.502,61.4816 12,58.5C 17,54.8333 22,51.1667 27,47.5C 27.3333,42.5 27.6667,37.5 28,32.5C 30.2568,30.9544 32.4235,29.2877 34.5,27.5C 36.023,22.1405 39.523,19.1405 45,18.5C 44.6498,13.9779 46.1498,10.3112 49.5,7.5 Z"/></g>
<g><path style="opacity:1" fill="#789297" d="M 49.5,7.5 C 60.8591,6.3606 72.1924,6.69393 83.5,8.5C 72.1667,8.16667 60.8333,7.83333 49.5,7.5 Z"/></g>
<g><path style="opacity:1" fill="#8ca4a7" d="M 73.5,12.5 C 79.2098,11.8675 81.2098,14.2008 79.5,19.5C 72.2543,21.2661 70.2543,18.9328 73.5,12.5 Z"/></g>
<g><path style="opacity:1" fill="#8aa2a6" d="M 63.5,11.5 C 69.1906,11.548 70.8573,14.2147 68.5,19.5C 64.8396,21.3445 62.5063,20.3445 61.5,16.5C 61.4365,14.4861 62.1032,12.8194 63.5,11.5 Z"/></g>
<g><path style="opacity:1" fill="#8fa7aa" d="M 63.5,22.5 C 69.487,21.9773 71.487,24.4773 69.5,30C 61.8394,32.1683 59.8394,29.6683 63.5,22.5 Z"/></g>
<g><path style="opacity:1" fill="#8ca4a7" d="M 74.5,22.5 C 80.1906,22.548 81.8573,25.2147 79.5,30.5C 73.3802,32.8815 71.2135,30.8815 73,24.5C 73.7172,23.9558 74.2172,23.2891 74.5,22.5 Z"/></g>
<g><path style="opacity:1" fill="#8ea6a9" d="M 63.5,33.5 C 70.4863,33.331 72.153,36.1643 68.5,42C 65.6824,42.8395 63.5157,42.0062 62,39.5C 61.6066,37.2837 62.1066,35.2837 63.5,33.5 Z"/></g>
<g><path style="opacity:1" fill="#8ca4a7" d="M 73.5,34.5 C 78.9933,33.178 81.4933,35.178 81,40.5C 79.1917,42.3959 77.025,42.8959 74.5,42C 72.2854,39.7585 71.9521,37.2585 73.5,34.5 Z"/></g>
<g><path style="opacity:1" fill="#638186" d="M 85.5,10.5 C 86.6619,27.9952 86.8286,45.6619 86,63.5C 85.3292,62.7476 84.4959,62.4142 83.5,62.5C 85.4644,45.4042 86.1311,28.0708 85.5,10.5 Z"/></g>
<g><path style="opacity:1" fill="#8ea6a8" d="M 63.5,44.5 C 70.4863,44.331 72.153,47.1643 68.5,53C 61.9459,52.9566 60.2793,50.1233 63.5,44.5 Z"/></g>
<g><path style="opacity:1" fill="#8ba3a6" d="M 74.5,44.5 C 81.4959,44.9834 82.8293,47.8167 78.5,53C 73.5036,53.6643 71.6703,51.4977 73,46.5C 73.7172,45.9558 74.2172,45.2891 74.5,44.5 Z"/></g>
<g><path style="opacity:1" fill="#84989c" d="M 53.5,70.5 C 54.0356,73.6981 53.369,76.3647 51.5,78.5C 52.0784,75.7196 52.7451,73.0529 53.5,70.5 Z"/></g>
<g><path style="opacity:1" fill="#8a9ea1" d="M 11.5,67.5 C 12.4834,71.2984 12.8168,75.2984 12.5,79.5C 14.8333,79.5 17.1667,79.5 19.5,79.5C 17.0521,80.4731 14.3854,80.8064 11.5,80.5C 11.5,76.1667 11.5,71.8333 11.5,67.5 Z"/></g>
</svg>
