<?xml version="1.0" encoding="UTF-8"?>
<!DOCTYPE svg PUBLIC "-//W3C//DTD SVG 1.1//EN" "http://www.w3.org/Graphics/SVG/1.1/DTD/svg11.dtd">
<svg xmlns="http://www.w3.org/2000/svg" version="1.1" width="96px" height="96px" style="shape-rendering:geometricPrecision; text-rendering:geometricPrecision; image-rendering:optimizeQuality; fill-rule:evenodd; clip-rule:evenodd" xmlns:xlink="http://www.w3.org/1999/xlink">
<g><path style="opacity:1" fill="#5b6542" d="M 2.5,2.5 C 32.5,2.5 62.5,2.5 92.5,2.5C 92.5,32.5 92.5,62.5 92.5,92.5C 62.5,92.5 32.5,92.5 2.5,92.5C 2.5,62.5 2.5,32.5 2.5,2.5 Z"/></g>
<g><path style="opacity:1" fill="#7c8760" d="M 4.5,4.5 C 33.1667,4.5 61.8333,4.5 90.5,4.5C 90.5,33.1667 90.5,61.8333 90.5,90.5C 61.8333,90.5 33.1667,90.5 4.5,90.5C 4.5,61.8333 4.5,33.1667 4.5,4.5 Z"/></g>
<g><path style="opacity:1" fill="#c0c6b4" d="M 15.5,22.5 C 23.6499,21.5073 31.9832,21.1739 40.5,21.5C 40.5,22.5 40.5,23.5 40.5,24.5C 45.8333,24.5 51.1667,24.5 56.5,24.5C 51.0247,25.4889 45.358,25.8222 39.5,25.5C 39.5,24.5 39.5,23.5 39.5,22.5C 31.5,22.5 23.5,22.5 15.5,22.5 Z"/></g>
<g><path style="opacity:1" fill="#fbfbfa" d="M 73.5,33.5 C 70.7883,34.5187 68.1216,34.1854 65.5,32.5C 59.6692,33.0288 54.0025,33.6954 48.5,34.5C 48.6349,37.4175 47.9682,40.0842 46.5,42.5C 48.2646,43.4614 50.2646,43.7947 52.5,43.5C 52.5,44.5 52.5,45.5 52.5,46.5C 54.1667,46.5 55.8333,46.5 57.5,46.5C 57.5,48.5 57.5,50.5 57.5,52.5C 55.901,52.2322 54.5676,52.5655 53.5,53.5C 52.5318,55.6074 52.1984,57.9407 52.5,60.5C 50.8333,60.5 49.1667,60.5 47.5,60.5C 47.2053,62.7354 47.5386,64.7354 48.5,66.5C 52.1667,66.5 55.8333,66.5 59.5,66.5C 59.5,67.5 59.5,68.5 59.5,69.5C 43.8175,69.325 28.1509,69.6583 12.5,70.5C 12.5,69.1667 12.5,67.8333 12.5,66.5C 15.8333,66.5 19.1667,66.5 22.5,66.5C 23.4682,64.3926 23.8016,62.0593 23.5,59.5C 22.5,59.5 21.5,59.5 20.5,59.5C 20.5,55.8333 20.5,52.1667 20.5,48.5C 20.5,44.5 20.5,40.5 20.5,36.5C 16.536,36.0022 13.8694,33.8356 12.5,30C 12.8618,28.5657 13.5285,27.3991 14.5,26.5C 15.4345,25.4324 15.7678,24.099 15.5,22.5C 23.5,22.5 31.5,22.5 39.5,22.5C 39.5,23.5 39.5,24.5 39.5,25.5C 45.358,25.8222 51.0247,25.4889 56.5,24.5C 60.1667,24.5 63.8333,24.5 67.5,24.5C 70.5997,24.0645 73.5997,23.7312 76.5,23.5C 76.9704,22.3065 77.9704,21.6399 79.5,21.5C 84.0885,22.3409 85.0885,24.5076 82.5,28C 84.761,31.0081 83.761,32.8414 79.5,33.5C 77.296,32.7006 75.296,32.7006 73.5,33.5 Z"/></g>
<g><path style="opacity:1" fill="#d6d9cd" d="M 76.5,23.5 C 73.5997,23.7312 70.5997,24.0645 67.5,24.5C 67.9704,23.3065 68.9704,22.6399 70.5,22.5C 72.5122,22.8396 74.5122,23.1729 76.5,23.5 Z"/></g>
<g><path style="opacity:1" fill="#d5d8cb" d="M 62.5,27.5 C 64.2646,26.5386 66.2646,26.2053 68.5,26.5C 68.7678,28.099 68.4345,29.4324 67.5,30.5C 67.5,29.5 67.5,28.5 67.5,27.5C 65.8333,27.5 64.1667,27.5 62.5,27.5 Z"/></g>
<g><path style="opacity:1" fill="#8a9371" d="M 62.5,27.5 C 64.1667,27.5 65.8333,27.5 67.5,27.5C 67.5,28.5 67.5,29.5 67.5,30.5C 61.1373,30.407 54.8039,30.7403 48.5,31.5C 48.5,30.1667 48.5,28.8333 48.5,27.5C 53.1667,27.5 57.8333,27.5 62.5,27.5 Z"/></g>
<g><path style="opacity:1" fill="#c6cabb" d="M 73.5,27.5 C 74.5676,26.5655 75.901,26.2322 77.5,26.5C 77.5,27.8333 77.5,29.1667 77.5,30.5C 75.8333,30.5 74.1667,30.5 72.5,30.5C 72.2627,29.209 72.596,28.209 73.5,27.5 Z"/></g>
<g><path style="opacity:1" fill="#818c67" d="M 73.5,27.5 C 74.675,27.281 75.675,27.6143 76.5,28.5C 74.9483,29.7979 73.9483,29.4646 73.5,27.5 Z"/></g>
<g><path style="opacity:1" fill="#a6ad94" d="M 73.5,33.5 C 73.0296,34.6935 72.0296,35.3601 70.5,35.5C 69.0055,35.2908 67.8388,34.6241 67,33.5C 60.9242,34.4764 54.7576,34.8097 48.5,34.5C 54.0025,33.6954 59.6692,33.0288 65.5,32.5C 68.1216,34.1854 70.7883,34.5187 73.5,33.5 Z"/></g>
<g><path style="opacity:1" fill="#bfc4b2" d="M 14.5,26.5 C 13.5285,27.3991 12.8618,28.5657 12.5,30C 13.8694,33.8356 16.536,36.0022 20.5,36.5C 17.3356,36.4422 14.3356,35.7755 11.5,34.5C 11.5,31.8333 11.5,29.1667 11.5,26.5C 12.5,26.5 13.5,26.5 14.5,26.5 Z"/></g>
<g><path style="opacity:1" fill="#bcc2ae" d="M 46.5,42.5 C 48.8333,42.5 51.1667,42.5 53.5,42.5C 53.5,43.5 53.5,44.5 53.5,45.5C 54.8333,45.5 56.1667,45.5 57.5,45.5C 57.5,45.8333 57.5,46.1667 57.5,46.5C 55.8333,46.5 54.1667,46.5 52.5,46.5C 52.5,45.5 52.5,44.5 52.5,43.5C 50.2646,43.7947 48.2646,43.4614 46.5,42.5 Z"/></g>
<g><path style="opacity:1" fill="#949d7e" d="M 57.5,45.5 C 59.369,47.6353 60.0356,50.3019 59.5,53.5C 57.5,53.5 55.5,53.5 53.5,53.5C 54.5676,52.5655 55.901,52.2322 57.5,52.5C 57.5,50.5 57.5,48.5 57.5,46.5C 57.5,46.1667 57.5,45.8333 57.5,45.5 Z"/></g>
<g><path style="opacity:1" fill="#bec3b2" d="M 20.5,48.5 C 20.5,52.1667 20.5,55.8333 20.5,59.5C 21.5,59.5 22.5,59.5 23.5,59.5C 23.8016,62.0593 23.4682,64.3926 22.5,66.5C 22.5,64.5 22.5,62.5 22.5,60.5C 21.5,60.5 20.5,60.5 19.5,60.5C 19.1832,56.2984 19.5166,52.2984 20.5,48.5 Z"/></g>
<g><path style="opacity:1" fill="#b6bca8" d="M 53.5,53.5 C 53.5,56.1667 53.5,58.8333 53.5,61.5C 51.8333,61.5 50.1667,61.5 48.5,61.5C 48.5,63.1667 48.5,64.8333 48.5,66.5C 47.5386,64.7354 47.2053,62.7354 47.5,60.5C 49.1667,60.5 50.8333,60.5 52.5,60.5C 52.1984,57.9407 52.5318,55.6074 53.5,53.5 Z"/></g>
<g><path style="opacity:1" fill="#b7bca8" d="M 59.5,69.5 C 47.674,70.4555 35.674,71.1222 23.5,71.5C 19.6508,71.4987 15.9841,71.1654 12.5,70.5C 28.1509,69.6583 43.8175,69.325 59.5,69.5 Z"/></g>
</svg>
