<?xml version="1.0" encoding="UTF-8"?>
<!DOCTYPE svg PUBLIC "-//W3C//DTD SVG 1.1//EN" "http://www.w3.org/Graphics/SVG/1.1/DTD/svg11.dtd">
<svg xmlns="http://www.w3.org/2000/svg" version="1.1" width="96px" height="96px" style="shape-rendering:geometricPrecision; text-rendering:geometricPrecision; image-rendering:optimizeQuality; fill-rule:evenodd; clip-rule:evenodd" xmlns:xlink="http://www.w3.org/1999/xlink">
<g><path style="opacity:1" fill="#3a0703" d="M 2.5,2.5 C 32.5,2.5 62.5,2.5 92.5,2.5C 92.5,32.5 92.5,62.5 92.5,92.5C 62.5,92.5 32.5,92.5 2.5,92.5C 2.5,62.5 2.5,32.5 2.5,2.5 Z"/></g>
<g><path style="opacity:1" fill="#aa9691" d="M 37.5,3.5 C 40.1667,3.5 42.8333,3.5 45.5,3.5C 45.5,4.16667 45.8333,4.5 46.5,4.5C 48.1153,7.44951 50.1153,10.1162 52.5,12.5C 48.4877,11.8874 46.4877,13.5541 46.5,17.5C 43.0043,13.1813 40.0043,8.51459 37.5,3.5 Z"/></g>
<g><path style="opacity:1" fill="#61403a" d="M 45.5,3.5 C 60.8333,3.5 76.1667,3.5 91.5,3.5C 91.5,22.5 91.5,41.5 91.5,60.5C 91.1667,60.5 90.8333,60.5 90.5,60.5C 90.5,41.8333 90.5,23.1667 90.5,4.5C 75.8333,4.5 61.1667,4.5 46.5,4.5C 45.8333,4.5 45.5,4.16667 45.5,3.5 Z"/></g>
<g><path style="opacity:1" fill="#6a4c46" d="M 37.5,3.5 C 40.0043,8.51459 43.0043,13.1813 46.5,17.5C 47.2485,19.3325 48.2485,20.9991 49.5,22.5C 53.2144,28.2547 58.2144,31.9214 64.5,33.5C 64.4043,27.4189 62.071,22.4189 57.5,18.5C 56.2993,16.0905 54.6326,14.0905 52.5,12.5C 50.1153,10.1162 48.1153,7.44951 46.5,4.5C 61.1667,4.5 75.8333,4.5 90.5,4.5C 90.5,23.1667 90.5,41.8333 90.5,60.5C 88.0326,60.7549 86.0326,61.7549 84.5,63.5C 66.6027,69.7956 48.936,76.4623 31.5,83.5C 25.8202,85.2264 20.1535,87.0598 14.5,89C 13.6195,89.7083 12.9528,90.5416 12.5,91.5C 11.8333,91.5 11.1667,91.5 10.5,91.5C 8.73535,90.5386 6.73535,90.2053 4.5,90.5C 4.5,70.8333 4.5,51.1667 4.5,31.5C 6.11358,34.3923 7.44691,37.3923 8.5,40.5C 9.48615,42.4261 10.4861,44.4261 11.5,46.5C 13.7105,51.5441 16.5439,56.2107 20,60.5C 21.897,62.0163 24.0637,62.683 26.5,62.5C 26.665,59.1501 26.4983,55.8168 26,52.5C 23.824,49.2081 21.9906,45.8747 20.5,42.5C 19.9213,39.6689 18.588,37.3356 16.5,35.5C 14.3,30.0963 11.8,24.763 9,19.5C 8.27509,16.6234 8.77509,13.9567 10.5,11.5C 9.12691,7.97482 6.79357,6.97482 3.5,8.5C 3.5,6.83333 3.5,5.16667 3.5,3.5C 14.8333,3.5 26.1667,3.5 37.5,3.5 Z"/></g>
<g><path style="opacity:1" fill="#826863" d="M 32.5,26.5 C 30.2054,27.1355 28.5387,28.4689 27.5,30.5C 23.139,23.4441 19.139,16.1108 15.5,8.5C 17.3904,8.2965 18.8904,8.96317 20,10.5C 24.0304,16.0196 28.197,21.3529 32.5,26.5 Z"/></g>
<g><path style="opacity:1" fill="#dfcfcc" d="M 52.5,12.5 C 54.6326,14.0905 56.2993,16.0905 57.5,18.5C 54.6393,19.3398 51.9727,20.6732 49.5,22.5C 48.2485,20.9991 47.2485,19.3325 46.5,17.5C 46.4877,13.5541 48.4877,11.8874 52.5,12.5 Z"/></g>
<g><path style="opacity:1" fill="#a99490" d="M 16.5,35.5 C 11.8254,34.3395 9.15872,36.0061 8.5,40.5C 7.44691,37.3923 6.11358,34.3923 4.5,31.5C 4.73731,30.209 4.40397,29.209 3.5,28.5C 3.5,21.8333 3.5,15.1667 3.5,8.5C 6.79357,6.97482 9.12691,7.97482 10.5,11.5C 8.77509,13.9567 8.27509,16.6234 9,19.5C 11.8,24.763 14.3,30.0963 16.5,35.5 Z"/></g>
<g><path style="opacity:1" fill="#a99490" d="M 57.5,18.5 C 62.071,22.4189 64.4043,27.4189 64.5,33.5C 58.2144,31.9214 53.2144,28.2547 49.5,22.5C 51.9727,20.6732 54.6393,19.3398 57.5,18.5 Z"/></g>
<g><path style="opacity:1" fill="#aa9591" d="M 32.5,26.5 C 34.4804,26.8536 36.4804,27.187 38.5,27.5C 39.2435,30.443 39.7435,33.443 40,36.5C 43.4413,40.1018 46.2747,44.1018 48.5,48.5C 44.6509,48.0193 42.6509,49.686 42.5,53.5C 40.0269,49.2295 37.5269,44.8961 35,40.5C 30.9905,39.6099 27.6572,37.6099 25,34.5C 24.3333,33.8333 24.3333,33.1667 25,32.5C 25.9947,31.9341 26.828,31.2674 27.5,30.5C 28.5387,28.4689 30.2054,27.1355 32.5,26.5 Z"/></g>
<g><path style="opacity:1" fill="#613f3a" d="M 3.5,28.5 C 4.40397,29.209 4.73731,30.209 4.5,31.5C 4.5,51.1667 4.5,70.8333 4.5,90.5C 6.73535,90.2053 8.73535,90.5386 10.5,91.5C 8.16667,91.5 5.83333,91.5 3.5,91.5C 3.5,70.5 3.5,49.5 3.5,28.5 Z"/></g>
<g><path style="opacity:1" fill="#e1d1cd" d="M 16.5,35.5 C 18.588,37.3356 19.9213,39.6689 20.5,42.5C 20.38,43.5862 19.7133,44.2528 18.5,44.5C 16.2383,45.4669 13.905,46.1336 11.5,46.5C 10.4861,44.4261 9.48615,42.4261 8.5,40.5C 9.15872,36.0061 11.8254,34.3395 16.5,35.5 Z"/></g>
<g><path style="opacity:1" fill="#ab9793" d="M 20.5,42.5 C 21.9906,45.8747 23.824,49.2081 26,52.5C 26.4983,55.8168 26.665,59.1501 26.5,62.5C 24.0637,62.683 21.897,62.0163 20,60.5C 16.5439,56.2107 13.7105,51.5441 11.5,46.5C 13.905,46.1336 16.2383,45.4669 18.5,44.5C 19.7133,44.2528 20.38,43.5862 20.5,42.5 Z"/></g>
<g><path style="opacity:1" fill="#ddcdc9" d="M 48.5,48.5 C 50.8903,49.8908 52.5569,51.8908 53.5,54.5C 51.4374,56.0818 49.1041,57.4151 46.5,58.5C 44.9373,57.0552 43.604,55.3885 42.5,53.5C 42.6509,49.686 44.6509,48.0193 48.5,48.5 Z"/></g>
<g><path style="opacity:1" fill="#ac9893" d="M 53.5,54.5 C 57.8277,58.4667 59.8277,63.4667 59.5,69.5C 53.0767,68.4176 48.7433,64.7509 46.5,58.5C 49.1041,57.4151 51.4374,56.0818 53.5,54.5 Z"/></g>
<g><path style="opacity:1" fill="#a9928e" d="M 31.5,83.5 C 48.936,76.4623 66.6027,69.7956 84.5,63.5C 86.4412,63.1307 88.2745,62.464 90,61.5C 90.4998,71.1609 90.6665,80.8276 90.5,90.5C 65.4978,90.6666 40.4978,90.5 15.5,90C 21.2484,88.4823 26.5818,86.3156 31.5,83.5 Z"/></g>
<g><path style="opacity:1" fill="#957a76" d="M 90.5,60.5 C 90.8333,60.5 91.1667,60.5 91.5,60.5C 91.5,70.8333 91.5,81.1667 91.5,91.5C 65.1667,91.5 38.8333,91.5 12.5,91.5C 12.9528,90.5416 13.6195,89.7083 14.5,89C 20.1535,87.0598 25.8202,85.2264 31.5,83.5C 26.5818,86.3156 21.2484,88.4823 15.5,90C 40.4978,90.5 65.4978,90.6666 90.5,90.5C 90.6665,80.8276 90.4998,71.1609 90,61.5C 88.2745,62.464 86.4412,63.1307 84.5,63.5C 86.0326,61.7549 88.0326,60.7549 90.5,60.5 Z"/></g>
</svg>
