<?xml version="1.0" encoding="UTF-8"?>
<!DOCTYPE svg PUBLIC "-//W3C//DTD SVG 1.1//EN" "http://www.w3.org/Graphics/SVG/1.1/DTD/svg11.dtd">
<svg xmlns="http://www.w3.org/2000/svg" version="1.1" width="96px" height="96px" style="shape-rendering:geometricPrecision; text-rendering:geometricPrecision; image-rendering:optimizeQuality; fill-rule:evenodd; clip-rule:evenodd" xmlns:xlink="http://www.w3.org/1999/xlink">
<g><path style="opacity:1" fill="#01363e" d="M 2.5,2.5 C 32.5,2.5 62.5,2.5 92.5,2.5C 92.5,32.5 92.5,62.5 92.5,92.5C 62.5,92.5 32.5,92.5 2.5,92.5C 2.5,62.5 2.5,32.5 2.5,2.5 Z"/></g>
<g><path style="opacity:1" fill="#33585f" d="M 4.5,3.5 C 33.4072,3.1714 62.2405,3.50474 91,4.5C 91.8282,33.4052 91.6616,62.2386 90.5,91C 61.5948,91.8282 32.7614,91.6616 4,90.5C 3.17564,61.4281 3.34231,32.4281 4.5,3.5 Z"/></g>
<g><path style="opacity:1" fill="#47686e" d="M 5.5,5.5 C 33.5,5.5 61.5,5.5 89.5,5.5C 89.5,33.5 89.5,61.5 89.5,89.5C 61.5,89.5 33.5,89.5 5.5,89.5C 5.5,61.5 5.5,33.5 5.5,5.5 Z"/></g>
<g><path style="opacity:1" fill="#dae0e1" d="M 57.5,12.5 C 61.3714,12.185 65.0381,12.5184 68.5,13.5C 67.5084,13.3284 66.8417,13.6618 66.5,14.5C 64.5,14.5 62.5,14.5 60.5,14.5C 60.5,16.1667 60.5,17.8333 60.5,19.5C 62.5,19.5 64.5,19.5 66.5,19.5C 64.3926,20.4682 62.0593,20.8016 59.5,20.5C 59.6633,18.1432 59.4966,15.8098 59,13.5C 58.8138,16.0356 58.3138,18.369 57.5,20.5C 57.5,17.8333 57.5,15.1667 57.5,12.5 Z"/></g>
<g><path style="opacity:1" fill="#fbfbfb" d="M 66.5,19.5 C 66.5,17.8333 66.5,16.1667 66.5,14.5C 66.8417,13.6618 67.5084,13.3284 68.5,13.5C 68.1765,20.0221 68.5098,26.3554 69.5,32.5C 70.8333,33.5 72.1667,34.5 73.5,35.5C 76.003,36.3705 78.6697,37.0372 81.5,37.5C 81.5,38.1667 81.8333,38.5 82.5,38.5C 82.6633,40.8568 82.4966,43.1902 82,45.5C 81.1903,38.843 77.6903,37.0097 71.5,40C 69.8097,43.5254 70.4764,46.5254 73.5,49C 76.2569,49.782 78.7569,49.282 81,47.5C 81.4828,48.448 81.6495,49.448 81.5,50.5C 79.6455,51.6896 77.8121,53.0229 76,54.5C 71.8808,63.0602 65.0475,66.0602 55.5,63.5C 55.5,64.5 55.5,65.5 55.5,66.5C 51.0309,66.5421 46.6975,65.8755 42.5,64.5C 42.5,65.5 42.5,66.5 42.5,67.5C 40.5,67.5 38.5,67.5 36.5,67.5C 36.2739,70.2492 36.6072,72.9159 37.5,75.5C 36.6602,76.735 35.6602,77.735 34.5,78.5C 32.8333,77.8333 31.1667,77.1667 29.5,76.5C 28.8826,76.3893 28.3826,76.056 28,75.5C 27.9049,69.843 28.0716,64.1763 28.5,58.5C 23.9855,59.9816 19.3188,60.6483 14.5,60.5C 14.3341,55.4889 14.5007,50.4889 15,45.5C 19.3228,45.5472 22.4894,43.7139 24.5,40C 26.8867,39.4363 28.8867,38.2696 30.5,36.5C 33.0838,35.9517 34.0838,34.285 33.5,31.5C 35.4147,31.2155 37.0813,31.5489 38.5,32.5C 35.6846,32.7826 35.1846,33.7826 37,35.5C 40.914,34.5637 44.7473,33.397 48.5,32C 46.5273,31.5045 44.5273,31.3379 42.5,31.5C 41.448,31.6495 40.448,31.4828 39.5,31C 43.6653,30.2946 47.6653,29.4613 51.5,28.5C 52.5,28.5 53.5,28.5 54.5,28.5C 54.5,30.1667 54.5,31.8333 54.5,33.5C 55.5,33.5 56.5,33.5 57.5,33.5C 57.5,30.1667 57.5,26.8333 57.5,23.5C 56.0998,22.8999 55.0998,21.8999 54.5,20.5C 55.5,20.5 56.5,20.5 57.5,20.5C 58.3138,18.369 58.8138,16.0356 59,13.5C 59.4966,15.8098 59.6633,18.1432 59.5,20.5C 62.0593,20.8016 64.3926,20.4682 66.5,19.5 Z"/></g>
<g><path style="opacity:1" fill="#8da1a4" d="M 57.5,12.5 C 61.2984,11.5166 65.2984,11.1832 69.5,11.5C 69.5,18.5 69.5,25.5 69.5,32.5C 68.5098,26.3554 68.1765,20.0221 68.5,13.5C 65.0381,12.5184 61.3714,12.185 57.5,12.5 Z"/></g>
<g><path style="opacity:1" fill="#517075" d="M 66.5,14.5 C 66.5,16.1667 66.5,17.8333 66.5,19.5C 64.5,19.5 62.5,19.5 60.5,19.5C 60.5,17.8333 60.5,16.1667 60.5,14.5C 62.5,14.5 64.5,14.5 66.5,14.5 Z"/></g>
<g><path style="opacity:1" fill="#81969b" d="M 54.5,20.5 C 55.0998,21.8999 56.0998,22.8999 57.5,23.5C 56.1779,23.33 55.0113,23.6634 54,24.5C 53.235,22.9343 53.4017,21.6009 54.5,20.5 Z"/></g>
<g><path style="opacity:1" fill="#4e6d73" d="M 60.5,22.5 C 62.5,22.5 64.5,22.5 66.5,22.5C 66.5,25.1667 66.5,27.8333 66.5,30.5C 64.5,30.5 62.5,30.5 60.5,30.5C 60.5,27.8333 60.5,25.1667 60.5,22.5 Z"/></g>
<g><path style="opacity:1" fill="#dee3e4" d="M 51.5,28.5 C 47.6653,29.4613 43.6653,30.2946 39.5,31C 40.448,31.4828 41.448,31.6495 42.5,31.5C 41.4324,32.4345 40.099,32.7678 38.5,32.5C 37.0813,31.5489 35.4147,31.2155 33.5,31.5C 34.0838,34.285 33.0838,35.9517 30.5,36.5C 31.6166,34.1958 32.95,32.0291 34.5,30C 40.1493,29.2425 45.816,28.7425 51.5,28.5 Z"/></g>
<g><path style="opacity:1" fill="#d3dadb" d="M 60.5,22.5 C 60.5,25.1667 60.5,27.8333 60.5,30.5C 62.5,30.5 64.5,30.5 66.5,30.5C 64.7211,32.3435 62.3878,33.0102 59.5,32.5C 59.1872,28.9581 59.5206,25.6248 60.5,22.5 Z"/></g>
<g><path style="opacity:1" fill="#889ca0" d="M 42.5,31.5 C 44.5273,31.3379 46.5273,31.5045 48.5,32C 44.7473,33.397 40.914,34.5637 37,35.5C 35.1846,33.7826 35.6846,32.7826 38.5,32.5C 40.099,32.7678 41.4324,32.4345 42.5,31.5 Z"/></g>
<g><path style="opacity:1" fill="#7b9196" d="M 73.5,35.5 C 75.8568,35.3367 78.1902,35.5034 80.5,36C 81.056,36.3826 81.3893,36.8826 81.5,37.5C 78.6697,37.0372 76.003,36.3705 73.5,35.5 Z"/></g>
<g><path style="opacity:1" fill="#e1e2e2" d="M 82.5,38.5 C 85.3261,42.7214 84.9928,46.7214 81.5,50.5C 81.6495,49.448 81.4828,48.448 81,47.5C 78.7569,49.282 76.2569,49.782 73.5,49C 70.4764,46.5254 69.8097,43.5254 71.5,40C 77.6903,37.0097 81.1903,38.843 82,45.5C 82.4966,43.1902 82.6633,40.8568 82.5,38.5 Z"/></g>
<g><path style="opacity:1" fill="#bbc7c8" d="M 29.5,76.5 C 31.1667,77.1667 32.8333,77.8333 34.5,78.5C 32.2572,79.8584 30.5905,79.1917 29.5,76.5 Z"/></g>
</svg>
