<?xml version="1.0" encoding="UTF-8"?>
<!DOCTYPE svg PUBLIC "-//W3C//DTD SVG 1.1//EN" "http://www.w3.org/Graphics/SVG/1.1/DTD/svg11.dtd">
<svg xmlns="http://www.w3.org/2000/svg" version="1.1" width="96px" height="96px" style="shape-rendering:geometricPrecision; text-rendering:geometricPrecision; image-rendering:optimizeQuality; fill-rule:evenodd; clip-rule:evenodd" xmlns:xlink="http://www.w3.org/1999/xlink">
<g><path style="opacity:1" fill="#01353a" d="M 2.5,2.5 C 32.5,2.5 62.5,2.5 92.5,2.5C 92.5,32.5 92.5,62.5 92.5,92.5C 62.5,92.5 32.5,92.5 2.5,92.5C 2.5,62.5 2.5,32.5 2.5,2.5 Z"/></g>
<g><path style="opacity:1" fill="#385d63" d="M 4.5,3.5 C 33.4072,3.1714 62.2405,3.50474 91,4.5C 91.8282,33.4052 91.6616,62.2386 90.5,91C 61.5948,91.8282 32.7614,91.6616 4,90.5C 3.17564,61.4281 3.34231,32.4281 4.5,3.5 Z"/></g>
<g><path style="opacity:1" fill="#48686d" d="M 85.5,45.5 C 85.5,44.5 85.5,43.5 85.5,42.5C 83.5,42.5 81.5,42.5 79.5,42.5C 79.5,41.1667 79.5,39.8333 79.5,38.5C 81.5,38.5 83.5,38.5 85.5,38.5C 85.5,37.1667 85.5,35.8333 85.5,34.5C 79.0412,34.6945 72.7079,34.6945 66.5,34.5C 66.4533,31.4318 65.9533,28.4318 65,25.5C 64.6232,24.0577 63.7899,23.0577 62.5,22.5C 62.3893,21.8826 62.056,21.3826 61.5,21C 59.1902,20.5034 56.8568,20.3367 54.5,20.5C 55.0838,17.715 54.0838,16.0483 51.5,15.5C 47.4769,13.5024 43.1436,13.0024 38.5,14C 37.944,14.3826 37.6107,14.8826 37.5,15.5C 36.448,15.3505 35.448,15.5172 34.5,16C 32.6298,18.0396 30.6298,19.8729 28.5,21.5C 28.5,18.1667 28.5,14.8333 28.5,11.5C 26.5853,11.2155 24.9187,11.5489 23.5,12.5C 22.8826,12.6107 22.3826,12.944 22,13.5C 21.5034,15.8098 21.3367,18.1432 21.5,20.5C 19.302,20.1201 17.6354,20.7868 16.5,22.5C 14.5275,25.0836 13.5275,28.0836 13.5,31.5C 11.7033,31.9349 9.70329,31.9349 7.5,31.5C 6.30463,23.5495 6.30463,15.3828 7.5,7C 34.1667,6.33333 60.8333,6.33333 87.5,7C 88.3578,17.4018 88.6911,27.7352 88.5,38C 88.3845,40.0421 88.0512,42.0421 87.5,44C 87.1639,45.0299 86.4972,45.5299 85.5,45.5 Z"/></g>
<g><path style="opacity:1" fill="#f9fafa" d="M 23.5,12.5 C 24.8333,12.5 26.1667,12.5 27.5,12.5C 27.19,15.7131 27.5233,18.7131 28.5,21.5C 30.6298,19.8729 32.6298,18.0396 34.5,16C 35.448,15.5172 36.448,15.3505 37.5,15.5C 38.1667,23.1667 38.8333,30.8333 39.5,38.5C 42.9619,39.4816 46.6286,39.815 50.5,39.5C 50.2053,41.7354 50.5386,43.7354 51.5,45.5C 52.7079,46.2341 54.0413,46.5674 55.5,46.5C 57.1755,50.5869 58.8422,54.5869 60.5,58.5C 61.6651,59.4961 62.3318,60.8295 62.5,62.5C 60.8606,64.8061 58.8606,66.8061 56.5,68.5C 57.1367,72.6512 58.3034,76.6512 60,80.5C 61.6037,81.6493 63.2703,81.6493 65,80.5C 66.6833,81.1765 66.8499,82.1765 65.5,83.5C 58.8333,83.5 52.1667,83.5 45.5,83.5C 45.5,82.5 45.5,81.5 45.5,80.5C 46.8333,80.5 48.1667,80.5 49.5,80.5C 47.6646,75.8926 45.3313,71.3926 42.5,67C 48.4054,63.2244 49.072,58.7244 44.5,53.5C 42.866,52.8389 41.0326,52.5056 39,52.5C 36.7047,52.5465 34.8714,53.2132 33.5,54.5C 32.1667,56.8333 32.1667,59.1667 33.5,61.5C 33.5,66.5 33.5,71.5 33.5,76.5C 31.8235,77.1834 31.1568,78.5168 31.5,80.5C 32.5,80.5 33.5,80.5 34.5,80.5C 34.7373,81.791 34.404,82.791 33.5,83.5C 29.1161,83.8256 24.7828,83.4922 20.5,82.5C 21.2427,81.8182 21.9094,81.1515 22.5,80.5C 22.9916,73.6733 22.325,67.0066 20.5,60.5C 21.9048,55.5945 22.5715,50.5945 22.5,45.5C 25.2062,45.4249 27.8728,45.0916 30.5,44.5C 30.6621,42.4727 30.4955,40.4727 30,38.5C 28.9887,37.6634 27.8221,37.33 26.5,37.5C 23.4651,36.6255 20.4651,35.6255 17.5,34.5C 15.9567,33.4402 14.9567,31.9402 14.5,30C 15.8713,27.6813 16.5379,25.1813 16.5,22.5C 17.6354,20.7868 19.302,20.1201 21.5,20.5C 21.3367,18.1432 21.5034,15.8098 22,13.5C 22.3826,12.944 22.8826,12.6107 23.5,12.5 Z"/></g>
<g><path style="opacity:1" fill="#a0b4b7" d="M 51.5,15.5 C 51.5,15.8333 51.5,16.1667 51.5,16.5C 50.5084,23.6476 50.175,30.9809 50.5,38.5C 46.8333,38.5 43.1667,38.5 39.5,38.5C 38.8333,30.8333 38.1667,23.1667 37.5,15.5C 37.6107,14.8826 37.944,14.3826 38.5,14C 43.1436,13.0024 47.4769,13.5024 51.5,15.5 Z"/></g>
<g><path style="opacity:1" fill="#d1d9db" d="M 23.5,12.5 C 24.9187,11.5489 26.5853,11.2155 28.5,11.5C 28.5,14.8333 28.5,18.1667 28.5,21.5C 27.5233,18.7131 27.19,15.7131 27.5,12.5C 26.1667,12.5 24.8333,12.5 23.5,12.5 Z"/></g>
<g><path style="opacity:1" fill="#5f7c81" d="M 51.5,16.5 C 51.5,16.1667 51.5,15.8333 51.5,15.5C 54.0838,16.0483 55.0838,17.715 54.5,20.5C 56.8568,20.3367 59.1902,20.5034 61.5,21C 62.056,21.3826 62.3893,21.8826 62.5,22.5C 59.0613,22.7471 55.728,22.4137 52.5,21.5C 52.7845,19.5853 52.4511,17.9187 51.5,16.5 Z"/></g>
<g><path style="opacity:1" fill="#f9fafa" d="M 52.5,21.5 C 55.728,22.4137 59.0613,22.7471 62.5,22.5C 63.7899,23.0577 64.6232,24.0577 65,25.5C 65.9533,28.4318 66.4533,31.4318 66.5,34.5C 63.9292,36.2306 60.9292,37.2306 57.5,37.5C 55.8333,37.5 54.1667,37.5 52.5,37.5C 51.1667,32.1667 51.1667,26.8333 52.5,21.5 Z"/></g>
<g><path style="opacity:1" fill="#ced6d9" d="M 16.5,22.5 C 16.5379,25.1813 15.8713,27.6813 14.5,30C 14.9567,31.9402 15.9567,33.4402 17.5,34.5C 15.0274,34.9118 13.6941,33.9118 13.5,31.5C 13.5275,28.0836 14.5275,25.0836 16.5,22.5 Z"/></g>
<g><path style="opacity:1" fill="#9eb2b5" d="M 7.5,31.5 C 9.70329,31.9349 11.7033,31.9349 13.5,31.5C 13.6941,33.9118 15.0274,34.9118 17.5,34.5C 20.4651,35.6255 23.4651,36.6255 26.5,37.5C 24.8333,37.5 23.1667,37.5 21.5,37.5C 21.4971,42.5275 21.1637,47.5275 20.5,52.5C 18.1432,52.6633 15.8098,52.4966 13.5,52C 10.8479,49.152 8.84787,45.9853 7.5,42.5C 7.5,38.8333 7.5,35.1667 7.5,31.5 Z"/></g>
<g><path style="opacity:1" fill="#9fb3b6" d="M 66.5,34.5 C 72.7079,34.6945 79.0412,34.6945 85.5,34.5C 85.5,35.8333 85.5,37.1667 85.5,38.5C 83.5,38.5 81.5,38.5 79.5,38.5C 79.5,39.8333 79.5,41.1667 79.5,42.5C 81.5,42.5 83.5,42.5 85.5,42.5C 85.5,43.5 85.5,44.5 85.5,45.5C 85.5,46.1667 85.1667,46.5 84.5,46.5C 80.3675,47.8976 76.0341,48.7309 71.5,49C 67.9954,51.7493 63.9954,53.416 59.5,54C 60.3802,55.3561 60.7135,56.8561 60.5,58.5C 58.8422,54.5869 57.1755,50.5869 55.5,46.5C 55.5578,43.3356 56.2245,40.3356 57.5,37.5C 60.9292,37.2306 63.9292,36.2306 66.5,34.5 Z"/></g>
<g><path style="opacity:1" fill="#d7dee0" d="M 51.5,16.5 C 52.4511,17.9187 52.7845,19.5853 52.5,21.5C 51.1667,26.8333 51.1667,32.1667 52.5,37.5C 51.612,40.0545 51.2786,42.7212 51.5,45.5C 50.5386,43.7354 50.2053,41.7354 50.5,39.5C 46.6286,39.815 42.9619,39.4816 39.5,38.5C 43.1667,38.5 46.8333,38.5 50.5,38.5C 50.175,30.9809 50.5084,23.6476 51.5,16.5 Z"/></g>
<g><path style="opacity:1" fill="#5d7a7f" d="M 52.5,37.5 C 54.1667,37.5 55.8333,37.5 57.5,37.5C 56.2245,40.3356 55.5578,43.3356 55.5,46.5C 54.0413,46.5674 52.7079,46.2341 51.5,45.5C 51.2786,42.7212 51.612,40.0545 52.5,37.5 Z"/></g>
<g><path style="opacity:1" fill="#48686d" d="M 84.5,46.5 C 85.531,47.2485 86.6976,47.9152 88,48.5C 88.6667,61.5 88.6667,74.5 88,87.5C 77.9105,88.652 67.7438,88.8186 57.5,88C 56.9341,87.0053 56.2674,86.172 55.5,85.5C 58.8333,84.8333 62.1667,84.1667 65.5,83.5C 66.8499,82.1765 66.6833,81.1765 65,80.5C 63.2703,81.6493 61.6037,81.6493 60,80.5C 58.3034,76.6512 57.1367,72.6512 56.5,68.5C 58.8606,66.8061 60.8606,64.8061 62.5,62.5C 62.3318,60.8295 61.6651,59.4961 60.5,58.5C 60.7135,56.8561 60.3802,55.3561 59.5,54C 63.9954,53.416 67.9954,51.7493 71.5,49C 76.0341,48.7309 80.3675,47.8976 84.5,46.5 Z"/></g>
<g><path style="opacity:1" fill="#4a6a70" d="M 26.5,37.5 C 27.8221,37.33 28.9887,37.6634 30,38.5C 30.4955,40.4727 30.6621,42.4727 30.5,44.5C 27.8728,45.0916 25.2062,45.4249 22.5,45.5C 22.5715,50.5945 21.9048,55.5945 20.5,60.5C 22.325,67.0066 22.9916,73.6733 22.5,80.5C 21.5,80.5 20.5,80.5 19.5,80.5C 19.5,81.8333 19.5,83.1667 19.5,84.5C 24.3633,84.8195 29.03,84.4861 33.5,83.5C 34.404,82.791 34.7373,81.791 34.5,80.5C 33.7659,79.2921 33.4326,77.9587 33.5,76.5C 36.0597,71.5132 36.0597,66.5132 33.5,61.5C 32.1667,59.1667 32.1667,56.8333 33.5,54.5C 37.0641,53.5773 40.7307,53.244 44.5,53.5C 49.072,58.7244 48.4054,63.2244 42.5,67C 45.3313,71.3926 47.6646,75.8926 49.5,80.5C 48.1667,80.5 46.8333,80.5 45.5,80.5C 45.5,81.5 45.5,82.5 45.5,83.5C 52.1667,83.5 58.8333,83.5 65.5,83.5C 62.1667,84.1667 58.8333,84.8333 55.5,85.5C 53.6412,85.4609 52.3079,86.2942 51.5,88C 48.8333,88.1667 46.1667,88.3333 43.5,88.5C 31.8036,88.0989 19.8036,87.9323 7.5,88C 6.39841,72.3892 6.39841,57.2225 7.5,42.5C 8.84787,45.9853 10.8479,49.152 13.5,52C 15.8098,52.4966 18.1432,52.6633 20.5,52.5C 21.1637,47.5275 21.4971,42.5275 21.5,37.5C 23.1667,37.5 24.8333,37.5 26.5,37.5 Z"/></g>
<g><path style="opacity:1" fill="#b9c4c5" d="M 44.5,53.5 C 40.7307,53.244 37.0641,53.5773 33.5,54.5C 34.8714,53.2132 36.7047,52.5465 39,52.5C 41.0326,52.5056 42.866,52.8389 44.5,53.5 Z"/></g>
<g><path style="opacity:1" fill="#bdc8ca" d="M 33.5,61.5 C 36.0597,66.5132 36.0597,71.5132 33.5,76.5C 33.5,71.5 33.5,66.5 33.5,61.5 Z"/></g>
<g><path style="opacity:1" fill="#889b9e" d="M 33.5,76.5 C 33.4326,77.9587 33.7659,79.2921 34.5,80.5C 33.5,80.5 32.5,80.5 31.5,80.5C 31.1568,78.5168 31.8235,77.1834 33.5,76.5 Z"/></g>
<g><path style="opacity:1" fill="#bec9cb" d="M 22.5,80.5 C 21.9094,81.1515 21.2427,81.8182 20.5,82.5C 24.7828,83.4922 29.1161,83.8256 33.5,83.5C 29.03,84.4861 24.3633,84.8195 19.5,84.5C 19.5,83.1667 19.5,81.8333 19.5,80.5C 20.5,80.5 21.5,80.5 22.5,80.5 Z"/></g>
</svg>
