<?xml version="1.0" encoding="UTF-8"?>
<!DOCTYPE svg PUBLIC "-//W3C//DTD SVG 1.1//EN" "http://www.w3.org/Graphics/SVG/1.1/DTD/svg11.dtd">
<svg xmlns="http://www.w3.org/2000/svg" version="1.1" width="96px" height="96px" style="shape-rendering:geometricPrecision; text-rendering:geometricPrecision; image-rendering:optimizeQuality; fill-rule:evenodd; clip-rule:evenodd" xmlns:xlink="http://www.w3.org/1999/xlink">
<g><path style="opacity:1" fill="#4f2b23" d="M 90.5,4.5 C 61.8333,4.5 33.1667,4.5 4.5,4.5C 4.84316,6.48324 4.17649,7.81658 2.5,8.5C 2.5,8.16667 2.5,7.83333 2.5,7.5C 3.43448,6.43236 3.76781,5.09903 3.5,3.5C 32.6715,3.16863 61.6715,3.50197 90.5,4.5 Z"/></g>
<g><path style="opacity:1" fill="#6a4c46" d="M 90.5,4.5 C 91.4961,19.324 91.8294,34.324 91.5,49.5C 91.1667,49.5 90.8333,49.5 90.5,49.5C 85.1563,49.334 79.8229,49.5006 74.5,50C 72.2418,50.876 70.2418,52.0427 68.5,53.5C 64.4237,55.1861 60.4237,56.8528 56.5,58.5C 54.5648,59.1495 52.5648,59.4828 50.5,59.5C 49.2498,57.0676 47.7498,54.7343 46,52.5C 32.6838,38.5702 19.1838,24.7368 5.5,11C 5.16667,10.8333 4.83333,10.6667 4.5,10.5C 3.82434,11.6016 3.15767,12.6016 2.5,13.5C 2.5,11.8333 2.5,10.1667 2.5,8.5C 4.17649,7.81658 4.84316,6.48324 4.5,4.5C 33.1667,4.5 61.8333,4.5 90.5,4.5 Z"/></g>
<g><path style="opacity:1" fill="#8f7772" d="M 50.5,59.5 C 34.5,44.5 18.5,29.5 2.5,14.5C 2.5,14.1667 2.5,13.8333 2.5,13.5C 3.15767,12.6016 3.82434,11.6016 4.5,10.5C 4.83333,10.6667 5.16667,10.8333 5.5,11C 19.1838,24.7368 32.6838,38.5702 46,52.5C 47.7498,54.7343 49.2498,57.0676 50.5,59.5 Z"/></g>
<g><path style="opacity:1" fill="#f6f4f3" d="M 2.5,14.5 C 18.5,29.5 34.5,44.5 50.5,59.5C 52.3569,60.7537 54.3569,60.7537 56.5,59.5C 57.4077,60.79 57.241,62.1233 56,63.5C 52.9381,66.1145 49.4381,67.7812 45.5,68.5C 45.5,67.5 45.5,66.5 45.5,65.5C 46.2674,64.828 46.9341,63.9947 47.5,63C 33.2921,51.2866 18.9588,39.7866 4.5,28.5C 3.83333,28.1667 3.16667,27.8333 2.5,27.5C 2.5,23.1667 2.5,18.8333 2.5,14.5 Z"/></g>
<g><path style="opacity:1" fill="#d5cfce" d="M 54.5,28.5 C 54.6658,33.1785 54.4992,37.8452 54,42.5C 53.7679,41.2625 53.2679,40.2625 52.5,39.5C 52.0578,35.8455 51.7244,32.1788 51.5,28.5C 52.5,28.5 53.5,28.5 54.5,28.5 Z"/></g>
<g><path style="opacity:1" fill="#6c4e48" d="M 2.5,27.5 C 3.16667,27.8333 3.83333,28.1667 4.5,28.5C 5.17226,31.3425 6.5056,33.8425 8.5,36C 18.5,43.3333 28.5,50.6667 38.5,58C 41.4276,60.09 43.7609,62.59 45.5,65.5C 44.5416,65.9528 43.7083,66.6195 43,67.5C 41.1185,72.9324 38.9518,78.2657 36.5,83.5C 35.0762,85.5145 34.4095,87.8478 34.5,90.5C 53.1667,90.5 71.8333,90.5 90.5,90.5C 90.5,76.8333 90.5,63.1667 90.5,49.5C 90.8333,49.5 91.1667,49.5 91.5,49.5C 91.5,63.5 91.5,77.5 91.5,91.5C 72.1667,91.5 52.8333,91.5 33.5,91.5C 24.0144,90.5062 14.3478,90.1729 4.5,90.5C 4.83035,70.9928 4.49701,51.6595 3.5,32.5C 3.5,31.8333 3.16667,31.5 2.5,31.5C 2.5,30.1667 2.5,28.8333 2.5,27.5 Z"/></g>
<g><path style="opacity:1" fill="#ab9d9a" d="M 54.5,28.5 C 55.4872,33.3054 55.8205,38.3054 55.5,43.5C 54.5,43.5 53.5,43.5 52.5,43.5C 52.5,42.1667 52.5,40.8333 52.5,39.5C 53.2679,40.2625 53.7679,41.2625 54,42.5C 54.4992,37.8452 54.6658,33.1785 54.5,28.5 Z"/></g>
<g><path style="opacity:1" fill="#8e7671" d="M 4.5,28.5 C 18.9588,39.7866 33.2921,51.2866 47.5,63C 46.9341,63.9947 46.2674,64.828 45.5,65.5C 43.7609,62.59 41.4276,60.09 38.5,58C 28.5,50.6667 18.5,43.3333 8.5,36C 6.5056,33.8425 5.17226,31.3425 4.5,28.5 Z"/></g>
<g><path style="opacity:1" fill="#380502" d="M 2.5,31.5 C 3.16667,31.5 3.5,31.8333 3.5,32.5C 3.5,52.1667 3.5,71.8333 3.5,91.5C 13.5,91.5 23.5,91.5 33.5,91.5C 52.8333,91.5 72.1667,91.5 91.5,91.5C 91.5,77.5 91.5,63.5 91.5,49.5C 91.8294,34.324 91.4961,19.324 90.5,4.5C 61.6715,3.50197 32.6715,3.16863 3.5,3.5C 3.76781,5.09903 3.43448,6.43236 2.5,7.5C 2.5,5.83333 2.5,4.16667 2.5,2.5C 32.5,2.5 62.5,2.5 92.5,2.5C 92.5,32.5 92.5,62.5 92.5,92.5C 62.5,92.5 32.5,92.5 2.5,92.5C 2.5,72.1667 2.5,51.8333 2.5,31.5 Z"/></g>
<g><path style="opacity:1" fill="#9d8682" d="M 90.5,49.5 C 90.5,63.1667 90.5,76.8333 90.5,90.5C 71.8333,90.5 53.1667,90.5 34.5,90.5C 34.4095,87.8478 35.0762,85.5145 36.5,83.5C 36.6427,85.2624 36.3094,86.9291 35.5,88.5C 53.4877,89.4995 71.4877,89.8329 89.5,89.5C 89.5,76.5 89.5,63.5 89.5,50.5C 82.3473,50.5258 75.3473,51.5258 68.5,53.5C 70.2418,52.0427 72.2418,50.876 74.5,50C 79.8229,49.5006 85.1563,49.334 90.5,49.5 Z"/></g>
<g><path style="opacity:1" fill="#c3b9b7" d="M 28.5,75.5 C 30.3786,75.3932 30.7119,75.8932 29.5,77C 24.8333,79.6667 20.1667,82.3333 15.5,85C 14.0563,85.7805 12.723,85.6139 11.5,84.5C 17.3099,81.7618 22.9766,78.7618 28.5,75.5 Z"/></g>
<g><path style="opacity:1" fill="#8d7773" d="M 31.5,65.5 C 33.6648,65.1159 35.3315,65.7826 36.5,67.5C 33.2317,68.487 29.8984,68.8204 26.5,68.5C 28.9686,67.6829 31.6353,67.1829 34.5,67C 33.2625,66.7679 32.2625,66.2679 31.5,65.5 Z"/></g>
<g><path style="opacity:1" fill="#d9d3d2" d="M 31.5,65.5 C 32.2625,66.2679 33.2625,66.7679 34.5,67C 31.6353,67.1829 28.9686,67.6829 26.5,68.5C 22.1539,68.6657 17.8206,68.499 13.5,68C 12.2888,67.1072 12.2888,66.2739 13.5,65.5C 19.4494,64.8207 25.4494,64.8207 31.5,65.5 Z"/></g>
<g><path style="opacity:1" fill="#baaba9" d="M 48.5,81.5 C 50.463,78.482 50.963,75.1487 50,71.5C 49.1482,72.5707 48.3149,73.5707 47.5,74.5C 46.4324,73.5655 45.099,73.2322 43.5,73.5C 43.3915,71.4862 44.0582,69.8195 45.5,68.5C 49.4381,67.7812 52.9381,66.1145 56,63.5C 57.241,62.1233 57.4077,60.79 56.5,59.5C 54.3569,60.7537 52.3569,60.7537 50.5,59.5C 52.5648,59.4828 54.5648,59.1495 56.5,58.5C 58.2624,58.6427 59.9291,58.3094 61.5,57.5C 63.2828,58.3482 63.7828,59.6815 63,61.5C 60.3151,65.1831 56.9818,68.1831 53,70.5C 51.8468,73.7111 51.1802,77.0445 51,80.5C 50.3292,81.2524 49.4959,81.5858 48.5,81.5 Z"/></g>
<g><path style="opacity:1" fill="#a08f8b" d="M 22.5,52.5 C 24.0481,52.8212 24.7148,53.8212 24.5,55.5C 22.5853,55.7845 20.9187,55.4511 19.5,54.5C 20.8734,54.6567 22.2068,54.49 23.5,54C 22.944,53.6174 22.6107,53.1174 22.5,52.5 Z"/></g>
<g><path style="opacity:1" fill="#aa9390" d="M 36.5,83.5 C 38.9518,78.2657 41.1185,72.9324 43,67.5C 43.7083,66.6195 44.5416,65.9528 45.5,65.5C 45.5,66.5 45.5,67.5 45.5,68.5C 44.0582,69.8195 43.3915,71.4862 43.5,73.5C 45.099,73.2322 46.4324,73.5655 47.5,74.5C 47.1062,75.9672 46.7728,77.4672 46.5,79C 46.6842,80.3756 47.3509,81.2089 48.5,81.5C 49.4959,81.5858 50.3292,81.2524 51,80.5C 51.1802,77.0445 51.8468,73.7111 53,70.5C 56.9818,68.1831 60.3151,65.1831 63,61.5C 63.7828,59.6815 63.2828,58.3482 61.5,57.5C 59.9291,58.3094 58.2624,58.6427 56.5,58.5C 60.4237,56.8528 64.4237,55.1861 68.5,53.5C 75.3473,51.5258 82.3473,50.5258 89.5,50.5C 89.5,63.5 89.5,76.5 89.5,89.5C 71.4877,89.8329 53.4877,89.4995 35.5,88.5C 36.3094,86.9291 36.6427,85.2624 36.5,83.5 Z"/></g>
<g><path style="opacity:1" fill="#e8e3e2" d="M 48.5,81.5 C 47.3509,81.2089 46.6842,80.3756 46.5,79C 46.7728,77.4672 47.1062,75.9672 47.5,74.5C 48.3149,73.5707 49.1482,72.5707 50,71.5C 50.963,75.1487 50.463,78.482 48.5,81.5 Z"/></g>
<g><path style="opacity:1" fill="#ded7d5" d="M 68.5,65.5 C 71.1873,65.3359 73.854,65.5026 76.5,66C 77.9733,66.7096 78.6399,67.8762 78.5,69.5C 74.8333,69.5 71.1667,69.5 67.5,69.5C 67.4326,68.0413 67.7659,66.7079 68.5,65.5 Z"/></g>
<g><path style="opacity:1" fill="#e0d9d7" d="M 80.5,54.5 C 81.8333,54.5 83.1667,54.5 84.5,54.5C 84.6399,56.1238 83.9733,57.2904 82.5,58C 78.9813,58.3773 75.4813,58.8773 72,59.5C 71.1667,59.1667 70.3333,58.8333 69.5,58.5C 69.8333,58.1667 70.1667,57.8333 70.5,57.5C 73.9535,56.4873 77.2869,55.4873 80.5,54.5 Z"/></g>
<g><path style="opacity:1" fill="#998783" d="M 19.5,50.5 C 21.0269,50.427 22.0269,51.0937 22.5,52.5C 20.9731,52.573 19.9731,51.9063 19.5,50.5 Z"/></g>
<g><path style="opacity:1" fill="#cfc7c6" d="M 19.5,50.5 C 19.9731,51.9063 20.9731,52.573 22.5,52.5C 22.6107,53.1174 22.944,53.6174 23.5,54C 22.2068,54.49 20.8734,54.6567 19.5,54.5C 15.6509,54.9807 13.6509,53.314 13.5,49.5C 15.6208,49.3253 17.6208,49.6586 19.5,50.5 Z"/></g>
<g><path style="opacity:1" fill="#9a8884" d="M 61.5,44.5 C 61.2627,45.791 61.596,46.791 62.5,47.5C 61.9254,50.0147 60.9254,50.5147 59.5,49C 59.899,47.2725 60.5657,45.7725 61.5,44.5 Z"/></g>
<g><path style="opacity:1" fill="#d0c8c7" d="M 67.5,38.5 C 66.0869,41.6612 64.4203,44.6612 62.5,47.5C 61.596,46.791 61.2627,45.791 61.5,44.5C 62.3448,41.4569 63.3448,38.4569 64.5,35.5C 65.4959,35.5858 66.3292,35.2524 67,34.5C 67.49,35.7932 67.6567,37.1266 67.5,38.5 Z"/></g>
<g><path style="opacity:1" fill="#b4a7a5" d="M 67.5,38.5 C 67.6567,37.1266 67.49,35.7932 67,34.5C 66.3292,35.2524 65.4959,35.5858 64.5,35.5C 65.287,33.8958 66.6203,33.2291 68.5,33.5C 68.7845,35.4147 68.4511,37.0813 67.5,38.5 Z"/></g>
<g><path style="opacity:1" fill="#502b23" d="M 3.5,32.5 C 4.49701,51.6595 4.83035,70.9928 4.5,90.5C 14.3478,90.1729 24.0144,90.5062 33.5,91.5C 23.5,91.5 13.5,91.5 3.5,91.5C 3.5,71.8333 3.5,52.1667 3.5,32.5 Z"/></g>
</svg>
