<?xml version="1.0" encoding="UTF-8"?>
<!DOCTYPE svg PUBLIC "-//W3C//DTD SVG 1.1//EN" "http://www.w3.org/Graphics/SVG/1.1/DTD/svg11.dtd">
<svg xmlns="http://www.w3.org/2000/svg" version="1.1" width="96px" height="96px" style="shape-rendering:geometricPrecision; text-rendering:geometricPrecision; image-rendering:optimizeQuality; fill-rule:evenodd; clip-rule:evenodd" xmlns:xlink="http://www.w3.org/1999/xlink">
<g><path style="opacity:1" fill="#5b6542" d="M 2.5,2.5 C 32.5,2.5 62.5,2.5 92.5,2.5C 92.5,32.5 92.5,62.5 92.5,92.5C 62.5,92.5 32.5,92.5 2.5,92.5C 2.5,62.5 2.5,32.5 2.5,2.5 Z"/></g>
<g><path style="opacity:1" fill="#7c8760" d="M 4.5,4.5 C 33.1667,4.5 61.8333,4.5 90.5,4.5C 90.5,33.1667 90.5,61.8333 90.5,90.5C 61.8333,90.5 33.1667,90.5 4.5,90.5C 4.5,61.8333 4.5,33.1667 4.5,4.5 Z"/></g>
<g><path style="opacity:1" fill="#c1c6b6" d="M 15.5,22.5 C 23.6499,21.5073 31.9832,21.1739 40.5,21.5C 40.5,22.5 40.5,23.5 40.5,24.5C 43.3854,24.1936 46.0521,24.5269 48.5,25.5C 45.5,25.5 42.5,25.5 39.5,25.5C 39.5,24.5 39.5,23.5 39.5,22.5C 31.5,22.5 23.5,22.5 15.5,22.5 Z"/></g>
<g><path style="opacity:1" fill="#fdfdfc" d="M 15.5,22.5 C 23.5,22.5 31.5,22.5 39.5,22.5C 39.5,23.5 39.5,24.5 39.5,25.5C 42.5,25.5 45.5,25.5 48.5,25.5C 60.3217,26.4951 72.3217,26.8284 84.5,26.5C 84.5,28.1667 84.5,29.8333 84.5,31.5C 72.3337,32.2318 60.3337,33.2318 48.5,34.5C 48.6349,37.4175 47.9682,40.0842 46.5,42.5C 48.2646,43.4614 50.2646,43.7947 52.5,43.5C 52.5,44.5 52.5,45.5 52.5,46.5C 54.1667,46.5 55.8333,46.5 57.5,46.5C 57.5,48.5 57.5,50.5 57.5,52.5C 55.901,52.2322 54.5676,52.5655 53.5,53.5C 52.5318,55.6074 52.1984,57.9407 52.5,60.5C 50.8333,60.5 49.1667,60.5 47.5,60.5C 47.2053,62.7354 47.5386,64.7354 48.5,66.5C 52.1667,66.5 55.8333,66.5 59.5,66.5C 59.5,67.5 59.5,68.5 59.5,69.5C 43.8175,69.325 28.1509,69.6583 12.5,70.5C 12.5,69.1667 12.5,67.8333 12.5,66.5C 15.8333,66.5 19.1667,66.5 22.5,66.5C 23.4682,64.3926 23.8016,62.0593 23.5,59.5C 22.5,59.5 21.5,59.5 20.5,59.5C 20.5,55.8333 20.5,52.1667 20.5,48.5C 20.5,44.5 20.5,40.5 20.5,36.5C 16.536,36.0022 13.8694,33.8356 12.5,30C 12.8618,28.5657 13.5285,27.3991 14.5,26.5C 15.4345,25.4324 15.7678,24.099 15.5,22.5 Z"/></g>
<g><path style="opacity:1" fill="#b5baa5" d="M 84.5,31.5 C 72.7392,33.6287 60.7392,34.6287 48.5,34.5C 60.3337,33.2318 72.3337,32.2318 84.5,31.5 Z"/></g>
<g><path style="opacity:1" fill="#bfc4b2" d="M 14.5,26.5 C 13.5285,27.3991 12.8618,28.5657 12.5,30C 13.8694,33.8356 16.536,36.0022 20.5,36.5C 17.3356,36.4422 14.3356,35.7755 11.5,34.5C 11.5,31.8333 11.5,29.1667 11.5,26.5C 12.5,26.5 13.5,26.5 14.5,26.5 Z"/></g>
<g><path style="opacity:1" fill="#bcc2ae" d="M 46.5,42.5 C 48.8333,42.5 51.1667,42.5 53.5,42.5C 53.5,43.5 53.5,44.5 53.5,45.5C 54.8333,45.5 56.1667,45.5 57.5,45.5C 57.5,45.8333 57.5,46.1667 57.5,46.5C 55.8333,46.5 54.1667,46.5 52.5,46.5C 52.5,45.5 52.5,44.5 52.5,43.5C 50.2646,43.7947 48.2646,43.4614 46.5,42.5 Z"/></g>
<g><path style="opacity:1" fill="#949d7e" d="M 57.5,45.5 C 59.369,47.6353 60.0356,50.3019 59.5,53.5C 57.5,53.5 55.5,53.5 53.5,53.5C 54.5676,52.5655 55.901,52.2322 57.5,52.5C 57.5,50.5 57.5,48.5 57.5,46.5C 57.5,46.1667 57.5,45.8333 57.5,45.5 Z"/></g>
<g><path style="opacity:1" fill="#bec3b2" d="M 20.5,48.5 C 20.5,52.1667 20.5,55.8333 20.5,59.5C 21.5,59.5 22.5,59.5 23.5,59.5C 23.8016,62.0593 23.4682,64.3926 22.5,66.5C 22.5,64.5 22.5,62.5 22.5,60.5C 21.5,60.5 20.5,60.5 19.5,60.5C 19.1832,56.2984 19.5166,52.2984 20.5,48.5 Z"/></g>
<g><path style="opacity:1" fill="#b6bca8" d="M 53.5,53.5 C 53.5,56.1667 53.5,58.8333 53.5,61.5C 51.8333,61.5 50.1667,61.5 48.5,61.5C 48.5,63.1667 48.5,64.8333 48.5,66.5C 47.5386,64.7354 47.2053,62.7354 47.5,60.5C 49.1667,60.5 50.8333,60.5 52.5,60.5C 52.1984,57.9407 52.5318,55.6074 53.5,53.5 Z"/></g>
<g><path style="opacity:1" fill="#b7bca8" d="M 59.5,69.5 C 47.674,70.4555 35.674,71.1222 23.5,71.5C 19.6508,71.4987 15.9841,71.1654 12.5,70.5C 28.1509,69.6583 43.8175,69.325 59.5,69.5 Z"/></g>
</svg>
