<?xml version="1.0" encoding="UTF-8"?>
<!DOCTYPE svg PUBLIC "-//W3C//DTD SVG 1.1//EN" "http://www.w3.org/Graphics/SVG/1.1/DTD/svg11.dtd">
<svg xmlns="http://www.w3.org/2000/svg" version="1.1" width="96px" height="96px" style="shape-rendering:geometricPrecision; text-rendering:geometricPrecision; image-rendering:optimizeQuality; fill-rule:evenodd; clip-rule:evenodd" xmlns:xlink="http://www.w3.org/1999/xlink">
<g><path style="opacity:0.996" fill="#4e2921" d="M 90.5,4.5 C 61.8333,4.5 33.1667,4.5 4.5,4.5C 4.81,7.7131 4.47667,10.7131 3.5,13.5C 3.16667,13.5 2.83333,13.5 2.5,13.5C 2.5,13.1667 2.5,12.8333 2.5,12.5C 3.47667,9.7131 3.81,6.7131 3.5,3.5C 32.6715,3.16863 61.6715,3.50197 90.5,4.5 Z"/></g>
<g><path style="opacity:1" fill="#6a4c46" d="M 90.5,4.5 C 90.5,19.8333 90.5,35.1667 90.5,50.5C 86.1667,50.5 81.8333,50.5 77.5,50.5C 73.5967,48.8472 73.5967,47.0139 77.5,45C 76.6667,44.8333 75.8333,44.6667 75,44.5C 70.6329,45.9697 66.1329,46.9697 61.5,47.5C 56.2798,49.6074 50.9465,51.4408 45.5,53C 44.8278,56.164 43.4945,58.9973 41.5,61.5C 39.044,64.9924 37.8773,68.9924 38,73.5C 34.956,74.8029 33.7893,77.1362 34.5,80.5C 34.9175,81.2216 35.5842,81.7216 36.5,82C 35.287,84.6865 34.6203,87.5198 34.5,90.5C 53.1667,90.5 71.8333,90.5 90.5,90.5C 71.674,91.497 52.674,91.8303 33.5,91.5C 24.0144,90.5062 14.3478,90.1729 4.5,90.5C 4.5,67.8333 4.5,45.1667 4.5,22.5C 6.38411,22.2882 7.71745,21.2882 8.5,19.5C 6.81027,17.4807 5.14361,15.4807 3.5,13.5C 4.47667,10.7131 4.81,7.7131 4.5,4.5C 33.1667,4.5 61.8333,4.5 90.5,4.5 Z"/></g>
<g><path style="opacity:1" fill="#d9d3d1" d="M 2.5,13.5 C 2.83333,13.5 3.16667,13.5 3.5,13.5C 5.14361,15.4807 6.81027,17.4807 8.5,19.5C 7.71745,21.2882 6.38411,22.2882 4.5,22.5C 4.16667,21.5 3.5,20.8333 2.5,20.5C 2.5,18.1667 2.5,15.8333 2.5,13.5 Z"/></g>
<g><path style="opacity:0.996" fill="#4f2a22" d="M 2.5,20.5 C 3.5,20.8333 4.16667,21.5 4.5,22.5C 4.5,45.1667 4.5,67.8333 4.5,90.5C 14.3478,90.1729 24.0144,90.5062 33.5,91.5C 23.5,91.5 13.5,91.5 3.5,91.5C 3.83084,68.3273 3.49751,45.3273 2.5,22.5C 2.5,21.8333 2.5,21.1667 2.5,20.5 Z"/></g>
<g><path style="opacity:0.976" fill="#3c0d09" d="M 2.5,22.5 C 3.49751,45.3273 3.83084,68.3273 3.5,91.5C 13.5,91.5 23.5,91.5 33.5,91.5C 52.674,91.8303 71.674,91.497 90.5,90.5C 91.8333,77.1667 91.8333,63.8333 90.5,50.5C 90.5,35.1667 90.5,19.8333 90.5,4.5C 61.6715,3.50197 32.6715,3.16863 3.5,3.5C 3.81,6.7131 3.47667,9.7131 2.5,12.5C 2.5,9.16667 2.5,5.83333 2.5,2.5C 32.5,2.5 62.5,2.5 92.5,2.5C 92.5,32.5 92.5,62.5 92.5,92.5C 62.5,92.5 32.5,92.5 2.5,92.5C 2.5,69.1667 2.5,45.8333 2.5,22.5 Z"/></g>
<g><path style="opacity:1" fill="#967c78" d="M 77.5,50.5 C 81.8333,50.5 86.1667,50.5 90.5,50.5C 91.8333,63.8333 91.8333,77.1667 90.5,90.5C 71.8333,90.5 53.1667,90.5 34.5,90.5C 34.6203,87.5198 35.287,84.6865 36.5,82C 35.5842,81.7216 34.9175,81.2216 34.5,80.5C 35.4916,80.6716 36.1583,80.3382 36.5,79.5C 37.2389,79.369 37.9056,79.5357 38.5,80C 37.2494,82.925 36.2494,85.925 35.5,89C 53.4969,89.4999 71.4969,89.6666 89.5,89.5C 89.5,76.8333 89.5,64.1667 89.5,51.5C 85.8333,51.5 82.1667,51.5 78.5,51.5C 77.8333,51.5 77.5,51.1667 77.5,50.5 Z"/></g>
<g><path style="opacity:1" fill="#6f524c" d="M 48.5,58.5 C 49.8333,59.1667 50.8333,60.1667 51.5,61.5C 49.4016,64.6059 46.7349,66.9393 43.5,68.5C 43.44,69.0431 43.1067,69.3764 42.5,69.5C 41.4249,67.1889 41.4249,64.8555 42.5,62.5C 44.1274,60.5363 46.1274,59.203 48.5,58.5 Z"/></g>
<g><path style="opacity:1" fill="#c1aeab" d="M 61.5,47.5 C 62.9187,48.4511 64.5853,48.7845 66.5,48.5C 66.5,49.5 66.5,50.5 66.5,51.5C 67.5,51.5 68.5,51.5 69.5,51.5C 68.4324,52.4345 67.099,52.7678 65.5,52.5C 65.5,51.5 65.5,50.5 65.5,49.5C 62.3926,49.3512 59.3926,49.8512 56.5,51C 54.249,51.7475 52.9156,53.2475 52.5,55.5C 50.9969,54.3184 49.3302,53.8184 47.5,54C 46.4186,55.7106 46.752,57.2106 48.5,58.5C 46.1274,59.203 44.1274,60.5363 42.5,62.5C 42.5,61.8333 42.1667,61.5 41.5,61.5C 43.4945,58.9973 44.8278,56.164 45.5,53C 50.9465,51.4408 56.2798,49.6074 61.5,47.5 Z"/></g>
<g><path style="opacity:1" fill="#e5dfde" d="M 52.5,55.5 C 53.1667,56.8333 54.1667,57.8333 55.5,58.5C 56.4787,60.1454 57.812,61.4787 59.5,62.5C 58.6518,64.2828 57.3185,64.7828 55.5,64C 54.5291,62.5187 53.1958,61.6854 51.5,61.5C 50.8333,60.1667 49.8333,59.1667 48.5,58.5C 46.752,57.2106 46.4186,55.7106 47.5,54C 49.3302,53.8184 50.9969,54.3184 52.5,55.5 Z"/></g>
<g><path style="opacity:1" fill="#a9928f" d="M 43.5,68.5 C 46.7349,66.9393 49.4016,64.6059 51.5,61.5C 53.1958,61.6854 54.5291,62.5187 55.5,64C 57.3185,64.7828 58.6518,64.2828 59.5,62.5C 57.812,61.4787 56.4787,60.1454 55.5,58.5C 59.1521,57.0083 62.4854,55.0083 65.5,52.5C 67.099,52.7678 68.4324,52.4345 69.5,51.5C 70.3864,50.2241 71.3864,50.2241 72.5,51.5C 74.0692,56.1825 73.4025,60.5158 70.5,64.5C 68.8918,65.2421 67.2251,65.4087 65.5,65C 64.3147,66.353 62.9814,67.5197 61.5,68.5C 62.9327,70.8088 62.266,72.3088 59.5,73C 54.9342,74.3092 50.2675,74.8092 45.5,74.5C 45.4208,73.0695 45.7542,71.7362 46.5,70.5C 45.9953,69.0815 44.9953,68.4148 43.5,68.5 Z"/></g>
<g><path style="opacity:1" fill="#aa9390" d="M 78.5,51.5 C 82.1667,51.5 85.8333,51.5 89.5,51.5C 89.5,64.1667 89.5,76.8333 89.5,89.5C 71.4969,89.6666 53.4969,89.4999 35.5,89C 36.2494,85.925 37.2494,82.925 38.5,80C 37.9056,79.5357 37.2389,79.369 36.5,79.5C 37.4057,78.0351 38.739,77.0351 40.5,76.5C 45.1112,79.2982 50.1112,80.1315 55.5,79C 59.1717,77.497 62.8383,75.997 66.5,74.5C 68.8,76.0247 71.1333,77.1913 73.5,78C 75.1884,76.3116 76.8551,74.6449 78.5,73C 76.8253,71.4981 75.1587,69.9981 73.5,68.5C 74.8029,66.0324 76.3029,63.699 78,61.5C 78.4983,58.1832 78.665,54.8499 78.5,51.5 Z"/></g>
<g><path style="opacity:1" fill="#6f514b" d="M 65.5,52.5 C 62.4854,55.0083 59.1521,57.0083 55.5,58.5C 54.1667,57.8333 53.1667,56.8333 52.5,55.5C 52.9156,53.2475 54.249,51.7475 56.5,51C 59.3926,49.8512 62.3926,49.3512 65.5,49.5C 65.5,50.5 65.5,51.5 65.5,52.5 Z"/></g>
<g><path style="opacity:1" fill="#d6cfcd" d="M 32.5,40.5 C 33.552,40.3505 34.552,40.5172 35.5,41C 38.8814,44.027 41.7147,47.1937 44,50.5C 43.3109,51.3567 42.4776,52.0233 41.5,52.5C 38.0171,49.2608 34.3504,46.2608 30.5,43.5C 31.1925,42.4822 31.8592,41.4822 32.5,40.5 Z"/></g>
<g><path style="opacity:1" fill="#d9c9c6" d="M 77.5,50.5 C 77.5,51.1667 77.8333,51.5 78.5,51.5C 78.665,54.8499 78.4983,58.1832 78,61.5C 76.3029,63.699 74.8029,66.0324 73.5,68.5C 75.1587,69.9981 76.8253,71.4981 78.5,73C 76.8551,74.6449 75.1884,76.3116 73.5,78C 71.1333,77.1913 68.8,76.0247 66.5,74.5C 62.8383,75.997 59.1717,77.497 55.5,79C 50.1112,80.1315 45.1112,79.2982 40.5,76.5C 38.739,77.0351 37.4057,78.0351 36.5,79.5C 36.1583,80.3382 35.4916,80.6716 34.5,80.5C 33.7893,77.1362 34.956,74.8029 38,73.5C 37.8773,68.9924 39.044,64.9924 41.5,61.5C 42.1667,61.5 42.5,61.8333 42.5,62.5C 41.4249,64.8555 41.4249,67.1889 42.5,69.5C 43.1067,69.3764 43.44,69.0431 43.5,68.5C 44.9953,68.4148 45.9953,69.0815 46.5,70.5C 45.7542,71.7362 45.4208,73.0695 45.5,74.5C 50.2675,74.8092 54.9342,74.3092 59.5,73C 62.266,72.3088 62.9327,70.8088 61.5,68.5C 62.9814,67.5197 64.3147,66.353 65.5,65C 67.2251,65.4087 68.8918,65.2421 70.5,64.5C 73.4025,60.5158 74.0692,56.1825 72.5,51.5C 71.3864,50.2241 70.3864,50.2241 69.5,51.5C 68.5,51.5 67.5,51.5 66.5,51.5C 66.5,50.5 66.5,49.5 66.5,48.5C 64.5853,48.7845 62.9187,48.4511 61.5,47.5C 66.1329,46.9697 70.6329,45.9697 75,44.5C 75.8333,44.6667 76.6667,44.8333 77.5,45C 73.5967,47.0139 73.5967,48.8472 77.5,50.5 Z"/></g>
<g><path style="opacity:1" fill="#d8d1cf" d="M 13.5,23.5 C 18.516,26.3242 23.1827,29.8242 27.5,34C 30.1667,37 29.5,38.6667 25.5,39C 20.6588,34.9901 15.9922,30.8234 11.5,26.5C 12.1925,25.4822 12.8592,24.4822 13.5,23.5 Z"/></g>
</svg>
