<?xml version="1.0" encoding="UTF-8"?>
<!DOCTYPE svg PUBLIC "-//W3C//DTD SVG 1.1//EN" "http://www.w3.org/Graphics/SVG/1.1/DTD/svg11.dtd">
<svg xmlns="http://www.w3.org/2000/svg" version="1.1" width="96px" height="96px" style="shape-rendering:geometricPrecision; text-rendering:geometricPrecision; image-rendering:optimizeQuality; fill-rule:evenodd; clip-rule:evenodd" xmlns:xlink="http://www.w3.org/1999/xlink">
<g><path style="opacity:1" fill="#01363e" d="M 2.5,2.5 C 32.5,2.5 62.5,2.5 92.5,2.5C 92.5,32.5 92.5,62.5 92.5,92.5C 62.5,92.5 32.5,92.5 2.5,92.5C 2.5,62.5 2.5,32.5 2.5,2.5 Z"/></g>
<g><path style="opacity:1" fill="#33585f" d="M 4.5,3.5 C 33.4072,3.1714 62.2405,3.50474 91,4.5C 91.8282,33.4052 91.6616,62.2386 90.5,91C 61.5948,91.8282 32.7614,91.6616 4,90.5C 3.17564,61.4281 3.34231,32.4281 4.5,3.5 Z"/></g>
<g><path style="opacity:1" fill="#47676d" d="M 5.5,5.5 C 33.5,5.5 61.5,5.5 89.5,5.5C 89.5,33.5 89.5,61.5 89.5,89.5C 61.5,89.5 33.5,89.5 5.5,89.5C 5.5,61.5 5.5,33.5 5.5,5.5 Z"/></g>
<g><path style="opacity:1" fill="#acb9bc" d="M 75.5,17.5 C 69.7171,15.9948 64.0505,16.3281 58.5,18.5C 59.0577,17.2101 60.0577,16.3768 61.5,16C 63.5,15.8333 65.5,15.6667 67.5,15.5C 70.5267,15.2865 73.1934,15.9532 75.5,17.5 Z"/></g>
<g><path style="opacity:1" fill="#fafbfb" d="M 75.5,17.5 C 84.0758,23.2306 86.9092,31.2306 84,41.5C 82.5,43.6667 81,45.8333 79.5,48C 76.8877,48.6395 74.5543,49.8062 72.5,51.5C 68.3507,52.8095 64.3507,52.8095 60.5,51.5C 60.2648,50.9033 59.7648,50.5699 59,50.5C 56.7039,50.8588 54.8705,51.8588 53.5,53.5C 51.9201,55.7171 50.9201,58.3837 50.5,61.5C 49.5224,61.9767 48.6891,62.6433 48,63.5C 47.8238,67.6877 47.3238,71.6877 46.5,75.5C 43.4682,75.505 40.4682,75.8384 37.5,76.5C 35.3074,76.2295 33.6407,75.2295 32.5,73.5C 31.701,70.5701 31.3677,67.5701 31.5,64.5C 16.2844,70.9779 9.1177,65.9779 10,49.5C 11.0298,47.6536 12.1964,45.9869 13.5,44.5C 16.7,43.4119 19.7,42.0785 22.5,40.5C 24.2964,38.1 26.6298,36.4333 29.5,35.5C 30.4959,35.5858 31.3292,35.2524 32,34.5C 32.3333,32.5 32.6667,30.5 33,28.5C 34.8022,27.2107 35.9688,25.5441 36.5,23.5C 37.9464,22.3871 39.6131,22.2204 41.5,23C 42.5596,24.298 43.7263,25.4647 45,26.5C 47.3366,25.1924 49.8366,24.1924 52.5,23.5C 53.9308,21.0623 55.9308,19.3956 58.5,18.5C 64.0505,16.3281 69.7171,15.9948 75.5,17.5 Z"/></g>
<g><path style="opacity:1" fill="#a5babd" d="M 63.5,21.5 C 75.8227,19.9906 81.3227,25.324 80,37.5C 74.3919,46.4536 67.3919,47.787 59,41.5C 54.5429,33.3317 56.0429,26.665 63.5,21.5 Z"/></g>
<g><path style="opacity:1" fill="#c9d1d3" d="M 36.5,23.5 C 35.9688,25.5441 34.8022,27.2107 33,28.5C 32.6667,30.5 32.3333,32.5 32,34.5C 31.3292,35.2524 30.4959,35.5858 29.5,35.5C 31.0696,33.1489 31.9029,30.4823 32,27.5C 33.3712,25.9586 34.8712,24.6253 36.5,23.5 Z"/></g>
<g><path style="opacity:1" fill="#c2ccce" d="M 22.5,40.5 C 19.7,42.0785 16.7,43.4119 13.5,44.5C 15.5843,41.2942 18.5843,39.9609 22.5,40.5 Z"/></g>
<g><path style="opacity:1" fill="#81979a" d="M 60.5,51.5 C 58.1667,52.1667 55.8333,52.8333 53.5,53.5C 54.8705,51.8588 56.7039,50.8588 59,50.5C 59.7648,50.5699 60.2648,50.9033 60.5,51.5 Z"/></g>
<g><path style="opacity:1" fill="#728a8f" d="M 32.5,73.5 C 33.6407,75.2295 35.3074,76.2295 37.5,76.5C 40.4682,75.8384 43.4682,75.505 46.5,75.5C 43.8185,76.2484 41.1519,77.2484 38.5,78.5C 36.5466,77.8444 34.5466,77.5111 32.5,77.5C 32.5,76.1667 32.5,74.8333 32.5,73.5 Z"/></g>
</svg>
