<?xml version="1.0" encoding="UTF-8"?>
<!DOCTYPE svg PUBLIC "-//W3C//DTD SVG 1.1//EN" "http://www.w3.org/Graphics/SVG/1.1/DTD/svg11.dtd">
<svg xmlns="http://www.w3.org/2000/svg" version="1.1" width="96px" height="96px" style="shape-rendering:geometricPrecision; text-rendering:geometricPrecision; image-rendering:optimizeQuality; fill-rule:evenodd; clip-rule:evenodd" xmlns:xlink="http://www.w3.org/1999/xlink">
<g><path style="opacity:1" fill="#976f29" d="M 2.5,2.5 C 32.5,2.5 62.5,2.5 92.5,2.5C 92.5,32.5 92.5,62.5 92.5,92.5C 62.5,92.5 32.5,92.5 2.5,92.5C 2.5,62.5 2.5,32.5 2.5,2.5 Z"/></g>
<g><path style="opacity:1" fill="#c79f4b" d="M 3.5,3.5 C 32.8333,3.5 62.1667,3.5 91.5,3.5C 91.5,32.8333 91.5,62.1667 91.5,91.5C 62.1667,91.5 32.8333,91.5 3.5,91.5C 3.5,62.1667 3.5,32.8333 3.5,3.5 Z"/></g>
<g><path style="opacity:1" fill="#feeacd" d="M 51.5,38.5 C 50.596,39.209 50.2627,40.209 50.5,41.5C 53.9783,41.1842 57.3117,41.6842 60.5,43C 67.1491,48.4591 71.4825,55.2924 73.5,63.5C 71.4815,66.9291 69.1482,67.2624 66.5,64.5C 66.5,64.1667 66.5,63.8333 66.5,63.5C 65.3307,60.4887 63.664,57.822 61.5,55.5C 60.52,58.0865 60.1866,60.7531 60.5,63.5C 60.5,67.8333 60.5,72.1667 60.5,76.5C 52.5,76.5 44.5,76.5 36.5,76.5C 36.5674,75.0413 36.2341,73.7079 35.5,72.5C 37.1667,72.5 38.8333,72.5 40.5,72.5C 40.5,69.1667 40.5,65.8333 40.5,62.5C 37.1667,62.5 33.8333,62.5 30.5,62.5C 30.5,59.1667 30.5,55.8333 30.5,52.5C 27.1667,52.5 23.8333,52.5 20.5,52.5C 20.8128,56.0419 20.4794,59.3752 19.5,62.5C 19.5,58.8333 19.5,55.1667 19.5,51.5C 22.5719,51.8174 25.5719,51.4841 28.5,50.5C 32.8067,44.4031 37.8067,40.4031 43.5,38.5C 38.5247,36.1178 36.6913,32.1178 38,26.5C 39.2998,22.0131 42.2998,20.0131 47,20.5C 56.3174,21.4449 59.3174,26.4449 56,35.5C 54.871,37.1412 53.371,38.1412 51.5,38.5 Z"/></g>
<g><path style="opacity:1" fill="#f8dbad" d="M 90.5,48.5 C 91.5918,53.1225 89.9252,54.9558 85.5,54C 84.3969,50.9607 82.8969,48.1274 81,45.5C 80.5005,51.4908 80.3338,57.4908 80.5,63.5C 78.1667,63.5 75.8333,63.5 73.5,63.5C 71.4825,55.2924 67.1491,48.4591 60.5,43C 57.3117,41.6842 53.9783,41.1842 50.5,41.5C 50.2627,40.209 50.596,39.209 51.5,38.5C 51.8425,40.2252 52.8425,40.7252 54.5,40C 57.1858,35.9871 60.8525,33.3205 65.5,32C 59.3136,27.0578 58.9803,21.8912 64.5,16.5C 73.542,14.6161 77.3753,18.2827 76,27.5C 75.1667,29.6667 73.6667,31.1667 71.5,32C 80.1894,34.8604 86.5227,40.3604 90.5,48.5 Z"/></g>
<g><path style="opacity:1" fill="#f9dbad" d="M 43.5,38.5 C 37.8067,40.4031 32.8067,44.4031 28.5,50.5C 25.5719,51.4841 22.5719,51.8174 19.5,51.5C 19.5,55.1667 19.5,58.8333 19.5,62.5C 18.1667,62.5 16.8333,62.5 15.5,62.5C 15.8288,56.7945 15.4954,51.1278 14.5,45.5C 12.2046,47.9183 10.5379,50.7516 9.5,54C 5.07482,54.9558 3.40815,53.1225 4.5,48.5C 8.48022,41.1864 14.1469,35.5198 21.5,31.5C 16.3003,26.4512 16.3003,21.2846 21.5,16C 26.0064,14.662 29.6731,15.8287 32.5,19.5C 34.5794,25.3408 32.9127,29.6742 27.5,32.5C 32.3435,33.2004 36.3435,35.3671 39.5,39C 41.0657,39.765 42.3991,39.5983 43.5,38.5 Z"/></g>
<g><path style="opacity:1" fill="#caa24d" d="M 90.5,48.5 C 86.5227,40.3604 80.1894,34.8604 71.5,32C 73.6667,31.1667 75.1667,29.6667 76,27.5C 77.3753,18.2827 73.542,14.6161 64.5,16.5C 58.9803,21.8912 59.3136,27.0578 65.5,32C 60.8525,33.3205 57.1858,35.9871 54.5,40C 52.8425,40.7252 51.8425,40.2252 51.5,38.5C 53.371,38.1412 54.871,37.1412 56,35.5C 59.3174,26.4449 56.3174,21.4449 47,20.5C 42.2998,20.0131 39.2998,22.0131 38,26.5C 36.6913,32.1178 38.5247,36.1178 43.5,38.5C 42.3991,39.5983 41.0657,39.765 39.5,39C 36.3435,35.3671 32.3435,33.2004 27.5,32.5C 32.9127,29.6742 34.5794,25.3408 32.5,19.5C 29.6731,15.8287 26.0064,14.662 21.5,16C 16.3003,21.2846 16.3003,26.4512 21.5,31.5C 14.1469,35.5198 8.48022,41.1864 4.5,48.5C 4.5,33.8333 4.5,19.1667 4.5,4.5C 33.1667,4.5 61.8333,4.5 90.5,4.5C 90.5,19.1667 90.5,33.8333 90.5,48.5 Z"/></g>
<g><path style="opacity:1" fill="#fffdfb" d="M 44.5,22.5 C 50.704,22.3137 52.0374,24.8137 48.5,30C 45.2854,30.502 43.6188,29.002 43.5,25.5C 43.685,24.4163 44.0183,23.4163 44.5,22.5 Z"/></g>
<g><path style="opacity:1" fill="#fee9cb" d="M 67.5,17.5 C 71.5342,17.6705 72.8676,19.5038 71.5,23C 65.5267,24.1597 64.1934,22.3263 67.5,17.5 Z"/></g>
<g><path style="opacity:1" fill="#fee9cb" d="M 23.5,17.5 C 28.1585,17.0146 29.4919,18.848 27.5,23C 21.5456,24.2271 20.2123,22.3938 23.5,17.5 Z"/></g>
<g><path style="opacity:1" fill="#fefdfc" d="M 35.5,72.5 C 33.8333,72.5 32.1667,72.5 30.5,72.5C 30.5,75.8333 30.5,79.1667 30.5,82.5C 27.1667,82.5 23.8333,82.5 20.5,82.5C 20.5,79.1667 20.5,75.8333 20.5,72.5C 17.1667,72.5 13.8333,72.5 10.5,72.5C 10.5,69.1667 10.5,65.8333 10.5,62.5C 12.1667,62.5 13.8333,62.5 15.5,62.5C 16.8333,62.5 18.1667,62.5 19.5,62.5C 20.4794,59.3752 20.8128,56.0419 20.5,52.5C 23.8333,52.5 27.1667,52.5 30.5,52.5C 30.5,55.8333 30.5,59.1667 30.5,62.5C 33.8333,62.5 37.1667,62.5 40.5,62.5C 40.5,65.8333 40.5,69.1667 40.5,72.5C 38.8333,72.5 37.1667,72.5 35.5,72.5 Z"/></g>
<g><path style="opacity:1" fill="#fadeb3" d="M 66.5,63.5 C 64.5,63.5 62.5,63.5 60.5,63.5C 60.1866,60.7531 60.52,58.0865 61.5,55.5C 63.664,57.822 65.3307,60.4887 66.5,63.5 Z"/></g>
<g><path style="opacity:1" fill="#f5d7a8" d="M 10.5,72.5 C 13.8333,72.5 17.1667,72.5 20.5,72.5C 20.5,75.8333 20.5,79.1667 20.5,82.5C 19.5233,79.7131 19.19,76.7131 19.5,73.5C 16.2869,73.81 13.2869,73.4767 10.5,72.5 Z"/></g>
<g><path style="opacity:1" fill="#e2bb70" d="M 60.5,63.5 C 62.5,63.5 64.5,63.5 66.5,63.5C 66.5,63.8333 66.5,64.1667 66.5,64.5C 64.8333,64.5 63.1667,64.5 61.5,64.5C 61.5,69.1667 61.5,73.8333 61.5,78.5C 52.8269,78.6664 44.1603,78.4998 35.5,78C 34.6198,76.6439 34.2865,75.1439 34.5,73.5C 33.5,73.5 32.5,73.5 31.5,73.5C 31.81,76.7131 31.4767,79.7131 30.5,82.5C 30.5,79.1667 30.5,75.8333 30.5,72.5C 32.1667,72.5 33.8333,72.5 35.5,72.5C 36.2341,73.7079 36.5674,75.0413 36.5,76.5C 44.5,76.5 52.5,76.5 60.5,76.5C 60.5,72.1667 60.5,67.8333 60.5,63.5 Z"/></g>
</svg>
