<?xml version="1.0" encoding="UTF-8"?>
<!DOCTYPE svg PUBLIC "-//W3C//DTD SVG 1.1//EN" "http://www.w3.org/Graphics/SVG/1.1/DTD/svg11.dtd">
<svg xmlns="http://www.w3.org/2000/svg" version="1.1" width="80px" height="80px" style="shape-rendering:geometricPrecision; text-rendering:geometricPrecision; image-rendering:optimizeQuality; fill-rule:evenodd; clip-rule:evenodd" xmlns:xlink="http://www.w3.org/1999/xlink">
<g><path style="opacity:1" fill="#00353d" d="M -0.5,-0.5 C 26.1667,-0.5 52.8333,-0.5 79.5,-0.5C 79.5,26.1667 79.5,52.8333 79.5,79.5C 52.8333,79.5 26.1667,79.5 -0.5,79.5C -0.5,52.8333 -0.5,26.1667 -0.5,-0.5 Z"/></g>
<g><path style="opacity:1" fill="#31545b" d="M 0.5,0.5 C 26.5,0.5 52.5,0.5 78.5,0.5C 78.5,26.5 78.5,52.5 78.5,78.5C 52.5,78.5 26.5,78.5 0.5,78.5C 0.5,52.5 0.5,26.5 0.5,0.5 Z"/></g>
<g><path style="opacity:1" fill="#46676d" d="M 1.5,1.5 C 26.8333,1.5 52.1667,1.5 77.5,1.5C 77.5,26.8333 77.5,52.1667 77.5,77.5C 52.1667,77.5 26.8333,77.5 1.5,77.5C 1.5,52.1667 1.5,26.8333 1.5,1.5 Z"/></g>
<g><path style="opacity:1" fill="#8aa3a7" d="M 39.5,60.5 C 43.5717,56.435 47.2383,52.1017 50.5,47.5C 50.4346,47.9382 50.6012,48.2716 51,48.5C 59.6996,40.5519 59.5329,32.7185 50.5,25C 41.5979,21.462 35.2646,23.962 31.5,32.5C 28.4192,28.0395 24.0859,26.3728 18.5,27.5C 20.2646,26.5386 22.2646,26.2053 24.5,26.5C 20.9587,17.0409 23.6253,14.7076 32.5,19.5C 37.2394,18.361 39.9061,15.361 40.5,10.5C 42.6948,9.23088 44.8615,9.23088 47,10.5C 48.8264,18.945 53.3264,20.6117 60.5,15.5C 65.2336,18.1738 65.567,21.5072 61.5,25.5C 62.6043,29.7718 65.271,32.6052 69.5,34C 70.7596,35.8138 70.7596,37.6471 69.5,39.5C 65.9118,40.2208 63.4118,42.2208 62,45.5C 63.2139,48.6413 63.8806,51.9746 64,55.5C 63.196,56.8045 62.0293,57.4712 60.5,57.5C 52.9719,53.2866 48.3053,55.2866 46.5,63.5C 44.5787,64.641 42.5787,64.8077 40.5,64C 39.6634,62.9887 39.33,61.8221 39.5,60.5 Z"/></g>
<g><path style="opacity:1" fill="#4e6e73" d="M 50.5,47.5 C 54.3347,41.237 54.3347,35.0703 50.5,29C 41.7435,24.4582 35.9101,26.9582 33,36.5C 32.2086,35.255 31.7086,33.9217 31.5,32.5C 35.2646,23.962 41.5979,21.462 50.5,25C 59.5329,32.7185 59.6996,40.5519 51,48.5C 50.6012,48.2716 50.4346,47.9382 50.5,47.5 Z"/></g>
<g><path style="opacity:1" fill="#f7fcfd" d="M 50.5,47.5 C 47.2383,52.1017 43.5717,56.435 39.5,60.5C 37.3253,62.2544 34.992,63.421 32.5,64C 23.208,58.0444 16.0414,50.211 11,40.5C 9.90916,34.0916 12.4092,29.7583 18.5,27.5C 24.0859,26.3728 28.4192,28.0395 31.5,32.5C 31.7086,33.9217 32.2086,35.255 33,36.5C 35.9101,26.9582 41.7435,24.4582 50.5,29C 54.3347,35.0703 54.3347,41.237 50.5,47.5 Z"/></g>
</svg>
