<?xml version="1.0" encoding="UTF-8"?>
<!DOCTYPE svg PUBLIC "-//W3C//DTD SVG 1.1//EN" "http://www.w3.org/Graphics/SVG/1.1/DTD/svg11.dtd">
<svg xmlns="http://www.w3.org/2000/svg" version="1.1" width="96px" height="96px" style="shape-rendering:geometricPrecision; text-rendering:geometricPrecision; image-rendering:optimizeQuality; fill-rule:evenodd; clip-rule:evenodd" xmlns:xlink="http://www.w3.org/1999/xlink">
<g><path style="opacity:1" fill="#124047" d="M 2.5,2.5 C 32.5,2.5 62.5,2.5 92.5,2.5C 92.5,32.5 92.5,62.5 92.5,92.5C 62.5,92.5 32.5,92.5 2.5,92.5C 2.5,62.5 2.5,32.5 2.5,2.5 Z"/></g>
<g><path style="opacity:1" fill="#46676d" d="M 4.5,4.5 C 33.1667,4.5 61.8333,4.5 90.5,4.5C 90.5,33.1667 90.5,61.8333 90.5,90.5C 61.8333,90.5 33.1667,90.5 4.5,90.5C 4.5,61.8333 4.5,33.1667 4.5,4.5 Z"/></g>
<g><path style="opacity:1" fill="#a3b7ba" d="M 78.5,19.5 C 79.0221,26.9885 79.6888,34.3218 80.5,41.5C 81.2371,43.3046 82.2371,44.9713 83.5,46.5C 79.6893,47.7376 79.6893,48.4042 83.5,48.5C 83.5,56.5 83.5,64.5 83.5,72.5C 82.5,72.5 81.5,72.5 80.5,72.5C 80.5,73.5 80.5,74.5 80.5,75.5C 81.5,75.5 82.5,75.5 83.5,75.5C 83.5,77.5 83.5,79.5 83.5,81.5C 76.8333,81.5 70.1667,81.5 63.5,81.5C 63.7576,70.5913 63.7576,59.5913 63.5,48.5C 67.5,48.1667 67.5,47.8333 63.5,47.5C 63.6079,45.2166 64.4412,43.2166 66,41.5C 66.3333,35.5 66.6667,29.5 67,23.5C 67.3306,17.8339 70.1639,15.0006 75.5,15C 77.1412,16.129 78.1412,17.629 78.5,19.5 Z"/></g>
<g><path style="opacity:1" fill="#a4b8bb" d="M 41.5,40.5 C 42.3112,33.3218 42.9779,25.9885 43.5,18.5C 45.9739,13.5802 49.1406,13.2469 53,17.5C 54.2355,25.4233 54.9021,33.4233 55,41.5C 56.6625,43.1579 57.4959,45.1579 57.5,47.5C 53.5,47.8333 53.5,48.1667 57.5,48.5C 58.0846,56.7721 57.4179,64.7721 55.5,72.5C 49.8333,72.5 44.1667,72.5 38.5,72.5C 38.5,70.1667 38.5,67.8333 38.5,65.5C 35.5,65.5 32.5,65.5 29.5,65.5C 29.5,62.1667 29.5,58.8333 29.5,55.5C 26.1667,55.5 22.8333,55.5 19.5,55.5C 19.5,58.8333 19.5,62.1667 19.5,65.5C 16.5,65.5 13.5,65.5 10.5,65.5C 10.5,68.5 10.5,71.5 10.5,74.5C 9.52056,71.3752 9.18723,68.0419 9.5,64.5C 10.5,64.5 11.5,64.5 12.5,64.5C 12.3338,58.1579 12.5005,51.8246 13,45.5C 13.6152,43.8839 14.6152,42.5505 16,41.5C 16.3333,35.1667 16.6667,28.8333 17,22.5C 17.598,19.6922 18.7647,17.1922 20.5,15C 24.1661,13.729 26.6661,14.8956 28,18.5C 29.2305,26.0892 29.8972,33.7559 30,41.5C 31.5588,43.2166 32.3921,45.2166 32.5,47.5C 28.5,47.8333 28.5,48.1667 32.5,48.5C 32.5,53.8333 32.5,59.1667 32.5,64.5C 34.1667,64.5 35.8333,64.5 37.5,64.5C 37.5,59.1667 37.5,53.8333 37.5,48.5C 41.8383,48.3781 42.1716,48.0447 38.5,47.5C 38.6878,44.7939 39.6878,42.4605 41.5,40.5 Z"/></g>
<g><path style="opacity:1" fill="#7d969b" d="M 43.5,18.5 C 42.9779,25.9885 42.3112,33.3218 41.5,40.5C 41.3337,33.825 41.5004,27.1583 42,20.5C 42.2784,19.5842 42.7784,18.9175 43.5,18.5 Z"/></g>
<g><path style="opacity:1" fill="#668287" d="M 78.5,19.5 C 79.2679,20.2625 79.7679,21.2625 80,22.5C 80.4995,28.8246 80.6662,35.1579 80.5,41.5C 79.6888,34.3218 79.0221,26.9885 78.5,19.5 Z"/></g>
<g><path style="opacity:1" fill="#7d969a" d="M 57.5,48.5 C 58.4924,56.3159 58.8257,64.3159 58.5,72.5C 57.5,72.5 56.5,72.5 55.5,72.5C 57.4179,64.7721 58.0846,56.7721 57.5,48.5 Z"/></g>
<g><path style="opacity:1" fill="#fbfcfc" d="M 38.5,72.5 C 36.0122,74.3878 33.0122,75.0545 29.5,74.5C 29.5,76.8333 29.5,79.1667 29.5,81.5C 26.5118,83.273 23.1785,83.9396 19.5,83.5C 19.5,82.8333 19.5,82.1667 19.5,81.5C 19.5,79.1667 19.5,76.8333 19.5,74.5C 16.5,74.5 13.5,74.5 10.5,74.5C 10.5,71.5 10.5,68.5 10.5,65.5C 13.5,65.5 16.5,65.5 19.5,65.5C 19.5,62.1667 19.5,58.8333 19.5,55.5C 22.8333,55.5 26.1667,55.5 29.5,55.5C 29.5,58.8333 29.5,62.1667 29.5,65.5C 32.5,65.5 35.5,65.5 38.5,65.5C 38.5,67.8333 38.5,70.1667 38.5,72.5 Z"/></g>
<g><path style="opacity:1" fill="#a6babd" d="M 55.5,75.5 C 57.256,76.5521 57.9227,78.2188 57.5,80.5C 51.1667,80.5 44.8333,80.5 38.5,80.5C 38.5,78.8333 38.5,77.1667 38.5,75.5C 44.211,74.2625 49.8777,74.2625 55.5,75.5 Z"/></g>
<g><path style="opacity:1" fill="#a6b8bc" d="M 10.5,74.5 C 13.5,74.5 16.5,74.5 19.5,74.5C 19.5,76.8333 19.5,79.1667 19.5,81.5C 17.1667,81.5 14.8333,81.5 12.5,81.5C 12.8151,78.7892 12.1484,76.4559 10.5,74.5 Z"/></g>
<g><path style="opacity:1" fill="#8ba2a6" d="M 38.5,72.5 C 44.1667,72.5 49.8333,72.5 55.5,72.5C 55.5,73.5 55.5,74.5 55.5,75.5C 49.8777,74.2625 44.211,74.2625 38.5,75.5C 38.5,77.1667 38.5,78.8333 38.5,80.5C 44.8333,80.5 51.1667,80.5 57.5,80.5C 51.021,81.4907 44.3543,81.824 37.5,81.5C 37.5,79.5 37.5,77.5 37.5,75.5C 36.1667,75.5 34.8333,75.5 33.5,75.5C 33.5,77.5 33.5,79.5 33.5,81.5C 32.1667,81.5 30.8333,81.5 29.5,81.5C 29.5,79.1667 29.5,76.8333 29.5,74.5C 33.0122,75.0545 36.0122,74.3878 38.5,72.5 Z"/></g>
<g><path style="opacity:1" fill="#aebabc" d="M 29.5,81.5 C 29.5,82.5 29.5,83.5 29.5,84.5C 25.9581,84.8128 22.6248,84.4794 19.5,83.5C 23.1785,83.9396 26.5118,83.273 29.5,81.5 Z"/></g>
</svg>
