<?xml version="1.0" encoding="UTF-8"?>
<!DOCTYPE svg PUBLIC "-//W3C//DTD SVG 1.1//EN" "http://www.w3.org/Graphics/SVG/1.1/DTD/svg11.dtd">
<svg xmlns="http://www.w3.org/2000/svg" version="1.1" width="96px" height="96px" style="shape-rendering:geometricPrecision; text-rendering:geometricPrecision; image-rendering:optimizeQuality; fill-rule:evenodd; clip-rule:evenodd" xmlns:xlink="http://www.w3.org/1999/xlink">
<g><path style="opacity:0.976" fill="#182d31" d="M 2.5,2.5 C 32.5,2.5 62.5,2.5 92.5,2.5C 92.5,32.5 92.5,62.5 92.5,92.5C 62.5,92.5 32.5,92.5 2.5,92.5C 2.5,62.5 2.5,32.5 2.5,2.5 Z"/></g>
<g><path style="opacity:0.996" fill="#2f4a4f" d="M 3.5,3.5 C 32.8333,3.5 62.1667,3.5 91.5,3.5C 91.5,32.8333 91.5,62.1667 91.5,91.5C 62.1667,91.5 32.8333,91.5 3.5,91.5C 3.5,62.1667 3.5,32.8333 3.5,3.5 Z"/></g>
<g><path style="opacity:1" fill="#416166" d="M 4.5,4.5 C 33.1667,4.5 61.8333,4.5 90.5,4.5C 90.5,33.1667 90.5,61.8333 90.5,90.5C 61.8333,90.5 33.1667,90.5 4.5,90.5C 4.5,61.8333 4.5,33.1667 4.5,4.5 Z"/></g>
<g><path style="opacity:1" fill="#47686e" d="M 5.5,5.5 C 33.5,5.5 61.5,5.5 89.5,5.5C 89.5,33.5 89.5,61.5 89.5,89.5C 61.5,89.5 33.5,89.5 5.5,89.5C 5.5,61.5 5.5,33.5 5.5,5.5 Z"/></g>
<g><path style="opacity:1" fill="#89a1a6" d="M 79.5,44.5 C 79.8333,44.5 80.1667,44.5 80.5,44.5C 80.3372,54.594 80.0039,64.594 79.5,74.5C 79.2913,64.828 78.958,55.1614 78.5,45.5C 78.5,44.8333 78.8333,44.5 79.5,44.5 Z"/></g>
<g><path style="opacity:1" fill="#bed3d7" d="M 76.5,15.5 C 77.4584,15.9528 78.2917,16.6195 79,17.5C 80.1059,26.4674 80.6059,35.4674 80.5,44.5C 80.1667,44.5 79.8333,44.5 79.5,44.5C 79.8648,34.5742 78.8648,24.9075 76.5,15.5 Z"/></g>
<g><path style="opacity:1" fill="#b8cace" d="M 33.5,15.5 C 32.791,16.404 31.791,16.7373 30.5,16.5C 30.33,17.8221 30.6634,18.9887 31.5,20C 36.1903,20.5029 40.857,21.1696 45.5,22C 47.3589,23.5578 48.8589,25.3911 50,27.5C 50.3333,35.1667 50.6667,42.8333 51,50.5C 51.5,51 52,51.5 52.5,52C 57.1935,52.5639 61.8602,52.3973 66.5,51.5C 66.1924,53.924 66.5258,56.2573 67.5,58.5C 69.323,57.2528 71.323,56.5861 73.5,56.5C 72.2311,51.2717 73.8977,47.6051 78.5,45.5C 78.958,55.1614 79.2913,64.828 79.5,74.5C 72.452,77.5154 65.452,80.6821 58.5,84C 55.1832,84.4983 51.8499,84.665 48.5,84.5C 45.6177,83.0872 42.4511,82.4205 39,82.5C 36.9674,82.5056 35.134,82.8389 33.5,83.5C 24.0703,88.0118 15.9037,86.3451 9,78.5C 8.60628,62.1284 10.9396,46.1284 16,30.5C 19.3802,25.4526 23.7135,21.4526 29,18.5C 29.4828,17.552 29.6495,16.552 29.5,15.5C 30.8333,15.5 32.1667,15.5 33.5,15.5 Z"/></g>
<g><path style="opacity:1" fill="#99afb4" d="M 33.5,83.5 C 35.134,82.8389 36.9674,82.5056 39,82.5C 42.4511,82.4205 45.6177,83.0872 48.5,84.5C 43.5275,83.8363 38.5275,83.5029 33.5,83.5 Z"/></g>
<g><path style="opacity:1" fill="#779297" d="M 16.5,47.5 C 16.7406,49.8984 16.0739,51.8984 14.5,53.5C 14.2594,51.1016 14.9261,49.1016 16.5,47.5 Z"/></g>
<g><path style="opacity:1" fill="#48696f" d="M 14.5,53.5 C 16.0739,51.8984 16.7406,49.8984 16.5,47.5C 17.2812,39.6441 20.2812,32.8108 25.5,27C 26.7932,26.51 28.1266,26.3433 29.5,26.5C 29.9039,36.3277 30.2372,46.1611 30.5,56C 30.5646,63.2186 30.0646,70.3853 29,77.5C 23.4569,83.0034 18.4569,82.3367 14,75.5C 13.2365,68.1175 13.4032,60.7842 14.5,53.5 Z"/></g>
<g><path style="opacity:1" fill="#e7f7fb" d="M 76.5,15.5 C 78.8648,24.9075 79.8648,34.5742 79.5,44.5C 78.8333,44.5 78.5,44.8333 78.5,45.5C 73.8977,47.6051 72.2311,51.2717 73.5,56.5C 71.323,56.5861 69.323,57.2528 67.5,58.5C 66.5258,56.2573 66.1924,53.924 66.5,51.5C 61.8602,52.3973 57.1935,52.5639 52.5,52C 52,51.5 51.5,51 51,50.5C 50.6667,42.8333 50.3333,35.1667 50,27.5C 48.8589,25.3911 47.3589,23.5578 45.5,22C 40.857,21.1696 36.1903,20.5029 31.5,20C 30.6634,18.9887 30.33,17.8221 30.5,16.5C 31.791,16.7373 32.791,16.404 33.5,15.5C 46.0042,10.9192 59.0042,9.41916 72.5,11C 74.0414,12.3712 75.3747,13.8712 76.5,15.5 Z"/></g>
</svg>
