<?xml version="1.0" encoding="UTF-8"?>
<!DOCTYPE svg PUBLIC "-//W3C//DTD SVG 1.1//EN" "http://www.w3.org/Graphics/SVG/1.1/DTD/svg11.dtd">
<svg xmlns="http://www.w3.org/2000/svg" version="1.1" width="96px" height="96px" style="shape-rendering:geometricPrecision; text-rendering:geometricPrecision; image-rendering:optimizeQuality; fill-rule:evenodd; clip-rule:evenodd" xmlns:xlink="http://www.w3.org/1999/xlink">
<g><path style="opacity:1" fill="#01363e" d="M 2.5,2.5 C 32.5,2.5 62.5,2.5 92.5,2.5C 92.5,32.5 92.5,62.5 92.5,92.5C 62.5,92.5 32.5,92.5 2.5,92.5C 2.5,62.5 2.5,32.5 2.5,2.5 Z"/></g>
<g><path style="opacity:1" fill="#34595f" d="M 4.5,3.5 C 33.4072,3.1714 62.2405,3.50474 91,4.5C 91.8282,33.4052 91.6616,62.2386 90.5,91C 61.5948,91.8282 32.7614,91.6616 4,90.5C 3.17564,61.4281 3.34231,32.4281 4.5,3.5 Z"/></g>
<g><path style="opacity:1" fill="#49686e" d="M 6.5,61.5 C 6.83333,61.5 7.16667,61.5 7.5,61.5C 8.93127,62.7804 9.59794,64.4471 9.5,66.5C 12.9727,66.3977 16.1393,65.3977 19,63.5C 20.2737,64.5353 21.4404,65.702 22.5,67C 24.0657,67.765 25.3991,67.5983 26.5,66.5C 27.8333,66.5 28.5,67.1667 28.5,68.5C 27.4489,69.2223 26.7822,70.2223 26.5,71.5C 26.6107,72.1174 26.944,72.6174 27.5,73C 30.146,73.4974 32.8127,73.6641 35.5,73.5C 38.5023,74.6435 41.5023,74.6435 44.5,73.5C 44.0057,71.9745 43.339,70.6412 42.5,69.5C 42.2767,67.6583 41.9434,65.825 41.5,64C 42.8945,61.3211 43.5612,58.4877 43.5,55.5C 44.5,53.8333 45.8333,52.5 47.5,51.5C 49.7488,50.9202 51.4154,49.5869 52.5,47.5C 52.894,45.2901 54.2273,43.9568 56.5,43.5C 57.466,48.67 57.466,54.0033 56.5,59.5C 56.5,60.1667 56.5,60.8333 56.5,61.5C 55.7321,62.2625 55.2321,63.2625 55,64.5C 54.5014,68.1516 54.3347,71.8183 54.5,75.5C 54.0734,79.5276 52.7401,83.1942 50.5,86.5C 54.5719,87.8827 58.5719,87.716 62.5,86C 63.7112,85.1072 63.7112,84.2739 62.5,83.5C 61.2638,82.7542 59.9305,82.4208 58.5,82.5C 58.5,80.8333 58.5,79.1667 58.5,77.5C 59.404,76.791 59.7373,75.791 59.5,74.5C 60.9034,71.0915 61.5701,67.4248 61.5,63.5C 61.5,61.1667 61.5,58.8333 61.5,56.5C 62.1657,53.9723 62.8324,51.3056 63.5,48.5C 64.1818,49.2427 64.8485,49.9094 65.5,50.5C 65.5569,51.609 65.8902,52.609 66.5,53.5C 66.2291,55.3797 66.8958,56.713 68.5,57.5C 70.5,62.1667 72.5,66.8333 74.5,71.5C 73.7372,73.5675 72.4039,75.2341 70.5,76.5C 75.0775,79.3482 79.4108,79.0149 83.5,75.5C 81.3067,73.103 79.64,70.4363 78.5,67.5C 77.8333,67.5 77.5,67.1667 77.5,66.5C 77.2451,64.0326 76.2451,62.0326 74.5,60.5C 73.1667,57.1667 71.8333,53.8333 70.5,50.5C 70.573,48.9731 69.9063,47.9731 68.5,47.5C 67.4105,43.4568 66.4105,39.4568 65.5,35.5C 65.8333,35.5 66.1667,35.5 66.5,35.5C 68.3407,34.5977 69.674,33.2644 70.5,31.5C 73.0892,30.5806 75.0892,28.914 76.5,26.5C 78.5272,23.8061 80.8605,21.4728 83.5,19.5C 85.3442,18.7961 85.8442,17.4628 85,15.5C 82.8624,13.0253 80.6958,10.5253 78.5,8C 74.3925,8.51626 70.3925,9.34959 66.5,10.5C 65.8333,10.5 65.5,10.8333 65.5,11.5C 63.5544,12.0347 62.5544,13.368 62.5,15.5C 59.1667,18.5 55.8333,21.5 52.5,24.5C 48.9094,24.3117 45.5761,25.145 42.5,27C 36.4594,32.6226 30.9594,38.7893 26,45.5C 24.7083,44.2089 23.5417,44.2089 22.5,45.5C 19.2916,47.0739 17.9582,49.7406 18.5,53.5C 16.302,53.1201 14.6354,53.7868 13.5,55.5C 12.0048,55.9887 10.6715,56.6554 9.5,57.5C 7.97306,57.427 6.97306,58.0937 6.5,59.5C 5.50322,41.6744 5.16988,23.6744 5.5,5.5C 33.5,5.5 61.5,5.5 89.5,5.5C 89.5,33.5 89.5,61.5 89.5,89.5C 61.5,89.5 33.5,89.5 5.5,89.5C 5.17311,79.985 5.50644,70.6517 6.5,61.5 Z"/></g>
<g><path style="opacity:1" fill="#c7d1d3" d="M 83.5,19.5 C 85.0107,17.1625 84.6773,16.4958 82.5,17.5C 81.1944,15.1838 79.8611,12.8505 78.5,10.5C 74.6935,9.96846 70.6935,9.96846 66.5,10.5C 70.3925,9.34959 74.3925,8.51626 78.5,8C 80.6958,10.5253 82.8624,13.0253 85,15.5C 85.8442,17.4628 85.3442,18.7961 83.5,19.5 Z"/></g>
<g><path style="opacity:1" fill="#f7f9f9" d="M 78.5,10.5 C 77.5,10.5 76.5,10.5 75.5,10.5C 75.5,15.1667 77.8333,17.5 82.5,17.5C 84.6773,16.4958 85.0107,17.1625 83.5,19.5C 80.8605,21.4728 78.5272,23.8061 76.5,26.5C 73.9108,27.4194 71.9108,29.086 70.5,31.5C 68.2273,31.9568 66.894,33.2901 66.5,35.5C 66.1667,35.5 65.8333,35.5 65.5,35.5C 64.3775,37.2884 64.2109,39.2884 65,41.5C 65.876,43.7582 67.0427,45.7582 68.5,47.5C 68.427,49.0269 69.0937,50.0269 70.5,50.5C 71.8333,53.8333 73.1667,57.1667 74.5,60.5C 74.7549,62.9674 75.7549,64.9674 77.5,66.5C 77.5,67.1667 77.8333,67.5 78.5,67.5C 78.5,68.8333 78.5,70.1667 78.5,71.5C 77.1667,71.5 75.8333,71.5 74.5,71.5C 72.5,66.8333 70.5,62.1667 68.5,57.5C 68.3404,55.847 67.6737,54.5137 66.5,53.5C 65.8902,52.609 65.5569,51.609 65.5,50.5C 65.8333,47.5 64.5,46.1667 61.5,46.5C 61.5,49.8333 61.5,53.1667 61.5,56.5C 61.5,58.8333 61.5,61.1667 61.5,63.5C 59.783,66.8448 59.1164,70.5115 59.5,74.5C 59.7373,75.791 59.404,76.791 58.5,77.5C 57.5655,78.5676 57.2322,79.901 57.5,81.5C 56.5,81.5 55.5,81.5 54.5,81.5C 54.5,79.5 54.5,77.5 54.5,75.5C 55.6437,71.0363 56.3104,66.3696 56.5,61.5C 56.5,60.8333 56.5,60.1667 56.5,59.5C 57.8142,57.0849 58.4809,54.2515 58.5,51C 58.1667,48.1667 57.8333,45.3333 57.5,42.5C 56.8933,42.6236 56.56,42.9569 56.5,43.5C 54.2273,43.9568 52.894,45.2901 52.5,47.5C 50.2512,48.0798 48.5846,49.4131 47.5,51.5C 45.8333,52.5 44.5,53.8333 43.5,55.5C 42.3264,58.2095 41.3264,61.0428 40.5,64C 40.3932,66.2206 41.0598,68.0539 42.5,69.5C 42.5,70.8333 42.5,72.1667 42.5,73.5C 40.1944,73.0074 37.861,72.6741 35.5,72.5C 32.5448,71.8413 29.5448,71.5079 26.5,71.5C 26.7822,70.2223 27.4489,69.2223 28.5,68.5C 29.4778,68.189 30.1445,67.5223 30.5,66.5C 29.0416,65.218 27.7082,65.218 26.5,66.5C 25.3991,67.5983 24.0657,67.765 22.5,67C 21.4404,65.702 20.2737,64.5353 19,63.5C 16.1393,65.3977 12.9727,66.3977 9.5,66.5C 9.59794,64.4471 8.93127,62.7804 7.5,61.5C 7.73286,59.9382 8.39952,58.6049 9.5,57.5C 10.6715,56.6554 12.0048,55.9887 13.5,55.5C 15.698,55.8799 17.3646,55.2132 18.5,53.5C 17.9582,49.7406 19.2916,47.0739 22.5,45.5C 26.1065,48.6186 28.7732,52.4519 30.5,57C 32.1667,57.6667 33.8333,57.6667 35.5,57C 40.9828,52.3514 46.3161,47.5181 51.5,42.5C 52.6139,41.277 52.7805,39.9437 52,38.5C 49.5946,36.597 47.7612,34.2637 46.5,31.5C 48.8679,29.4667 50.8679,27.1334 52.5,24.5C 55.8333,21.5 59.1667,18.5 62.5,15.5C 63.9744,14.5637 64.9744,13.2303 65.5,11.5C 65.5,10.8333 65.8333,10.5 66.5,10.5C 70.6935,9.96846 74.6935,9.96846 78.5,10.5 Z"/></g>
<g><path style="opacity:1" fill="#a8babe" d="M 78.5,10.5 C 79.8611,12.8505 81.1944,15.1838 82.5,17.5C 77.8333,17.5 75.5,15.1667 75.5,10.5C 76.5,10.5 77.5,10.5 78.5,10.5 Z"/></g>
<g><path style="opacity:1" fill="#acbbbc" d="M 65.5,11.5 C 64.9744,13.2303 63.9744,14.5637 62.5,15.5C 62.5544,13.368 63.5544,12.0347 65.5,11.5 Z"/></g>
<g><path style="opacity:1" fill="#a2b5b8" d="M 52.5,24.5 C 50.8679,27.1334 48.8679,29.4667 46.5,31.5C 47.7612,34.2637 49.5946,36.597 52,38.5C 52.7805,39.9437 52.6139,41.277 51.5,42.5C 46.3161,47.5181 40.9828,52.3514 35.5,57C 33.8333,57.6667 32.1667,57.6667 30.5,57C 28.7732,52.4519 26.1065,48.6186 22.5,45.5C 23.5417,44.2089 24.7083,44.2089 26,45.5C 30.9594,38.7893 36.4594,32.6226 42.5,27C 45.5761,25.145 48.9094,24.3117 52.5,24.5 Z"/></g>
<g><path style="opacity:1" fill="#859b9c" d="M 76.5,26.5 C 75.0892,28.914 73.0892,30.5806 70.5,31.5C 71.9108,29.086 73.9108,27.4194 76.5,26.5 Z"/></g>
<g><path style="opacity:1" fill="#83999b" d="M 70.5,31.5 C 69.674,33.2644 68.3407,34.5977 66.5,35.5C 66.894,33.2901 68.2273,31.9568 70.5,31.5 Z"/></g>
<g><path style="opacity:1" fill="#cfd7d8" d="M 65.5,35.5 C 66.4105,39.4568 67.4105,43.4568 68.5,47.5C 67.0427,45.7582 65.876,43.7582 65,41.5C 64.2109,39.2884 64.3775,37.2884 65.5,35.5 Z"/></g>
<g><path style="opacity:1" fill="#768f92" d="M 52.5,47.5 C 51.4154,49.5869 49.7488,50.9202 47.5,51.5C 48.5846,49.4131 50.2512,48.0798 52.5,47.5 Z"/></g>
<g><path style="opacity:1" fill="#a2b0b1" d="M 68.5,47.5 C 69.9063,47.9731 70.573,48.9731 70.5,50.5C 69.0937,50.0269 68.427,49.0269 68.5,47.5 Z"/></g>
<g><path style="opacity:1" fill="#cad3d6" d="M 65.5,50.5 C 64.8485,49.9094 64.1818,49.2427 63.5,48.5C 62.8324,51.3056 62.1657,53.9723 61.5,56.5C 61.5,53.1667 61.5,49.8333 61.5,46.5C 64.5,46.1667 65.8333,47.5 65.5,50.5 Z"/></g>
<g><path style="opacity:1" fill="#c5cdd2" d="M 18.5,53.5 C 17.3646,55.2132 15.698,55.8799 13.5,55.5C 14.6354,53.7868 16.302,53.1201 18.5,53.5 Z"/></g>
<g><path style="opacity:1" fill="#9aabb0" d="M 66.5,53.5 C 67.6737,54.5137 68.3404,55.847 68.5,57.5C 66.8958,56.713 66.2291,55.3797 66.5,53.5 Z"/></g>
<g><path style="opacity:1" fill="#c0cbcd" d="M 56.5,43.5 C 56.56,42.9569 56.8933,42.6236 57.5,42.5C 57.8333,45.3333 58.1667,48.1667 58.5,51C 58.4809,54.2515 57.8142,57.0849 56.5,59.5C 57.466,54.0033 57.466,48.67 56.5,43.5 Z"/></g>
<g><path style="opacity:1" fill="#8d9fa3" d="M 9.5,57.5 C 8.39952,58.6049 7.73286,59.9382 7.5,61.5C 7.16667,61.5 6.83333,61.5 6.5,61.5C 6.5,60.8333 6.5,60.1667 6.5,59.5C 6.97306,58.0937 7.97306,57.427 9.5,57.5 Z"/></g>
<g><path style="opacity:1" fill="#c1cdcf" d="M 43.5,55.5 C 43.5612,58.4877 42.8945,61.3211 41.5,64C 41.9434,65.825 42.2767,67.6583 42.5,69.5C 41.0598,68.0539 40.3932,66.2206 40.5,64C 41.3264,61.0428 42.3264,58.2095 43.5,55.5 Z"/></g>
<g><path style="opacity:1" fill="#b7c3c7" d="M 74.5,60.5 C 76.2451,62.0326 77.2451,64.0326 77.5,66.5C 75.7549,64.9674 74.7549,62.9674 74.5,60.5 Z"/></g>
<g><path style="opacity:1" fill="#a8b5ba" d="M 26.5,66.5 C 27.7082,65.218 29.0416,65.218 30.5,66.5C 30.1445,67.5223 29.4778,68.189 28.5,68.5C 28.5,67.1667 27.8333,66.5 26.5,66.5 Z"/></g>
<g><path style="opacity:1" fill="#9aaaad" d="M 56.5,61.5 C 56.3104,66.3696 55.6437,71.0363 54.5,75.5C 54.3347,71.8183 54.5014,68.1516 55,64.5C 55.2321,63.2625 55.7321,62.2625 56.5,61.5 Z"/></g>
<g><path style="opacity:1" fill="#7b9297" d="M 61.5,63.5 C 61.5701,67.4248 60.9034,71.0915 59.5,74.5C 59.1164,70.5115 59.783,66.8448 61.5,63.5 Z"/></g>
<g><path style="opacity:1" fill="#778e94" d="M 26.5,71.5 C 29.5448,71.5079 32.5448,71.8413 35.5,72.5C 35.5,72.8333 35.5,73.1667 35.5,73.5C 32.8127,73.6641 30.146,73.4974 27.5,73C 26.944,72.6174 26.6107,72.1174 26.5,71.5 Z"/></g>
<g><path style="opacity:1" fill="#cdd5d8" d="M 42.5,69.5 C 43.339,70.6412 44.0057,71.9745 44.5,73.5C 41.5023,74.6435 38.5023,74.6435 35.5,73.5C 35.5,73.1667 35.5,72.8333 35.5,72.5C 37.861,72.6741 40.1944,73.0074 42.5,73.5C 42.5,72.1667 42.5,70.8333 42.5,69.5 Z"/></g>
<g><path style="opacity:1" fill="#9eb2b5" d="M 78.5,67.5 C 79.64,70.4363 81.3067,73.103 83.5,75.5C 79.4108,79.0149 75.0775,79.3482 70.5,76.5C 72.4039,75.2341 73.7372,73.5675 74.5,71.5C 75.8333,71.5 77.1667,71.5 78.5,71.5C 78.5,70.1667 78.5,68.8333 78.5,67.5 Z"/></g>
<g><path style="opacity:1" fill="#a1b4b7" d="M 54.5,75.5 C 54.5,77.5 54.5,79.5 54.5,81.5C 55.5,81.5 56.5,81.5 57.5,81.5C 57.2322,79.901 57.5655,78.5676 58.5,77.5C 58.5,79.1667 58.5,80.8333 58.5,82.5C 59.9305,82.4208 61.2638,82.7542 62.5,83.5C 63.7112,84.2739 63.7112,85.1072 62.5,86C 58.5719,87.716 54.5719,87.8827 50.5,86.5C 52.7401,83.1942 54.0734,79.5276 54.5,75.5 Z"/></g>
</svg>
