<?xml version="1.0" encoding="UTF-8"?>
<!DOCTYPE svg PUBLIC "-//W3C//DTD SVG 1.1//EN" "http://www.w3.org/Graphics/SVG/1.1/DTD/svg11.dtd">
<svg xmlns="http://www.w3.org/2000/svg" version="1.1" width="96px" height="96px" style="shape-rendering:geometricPrecision; text-rendering:geometricPrecision; image-rendering:optimizeQuality; fill-rule:evenodd; clip-rule:evenodd" xmlns:xlink="http://www.w3.org/1999/xlink">
<g><path style="opacity:1" fill="#01363e" d="M 2.5,2.5 C 32.5,2.5 62.5,2.5 92.5,2.5C 92.5,32.5 92.5,62.5 92.5,92.5C 62.5,92.5 32.5,92.5 2.5,92.5C 2.5,62.5 2.5,32.5 2.5,2.5 Z"/></g>
<g><path style="opacity:1" fill="#284e56" d="M 90.5,90.5 C 61.6715,91.498 32.6715,91.8314 3.5,91.5C 3.5,62.1667 3.5,32.8333 3.5,3.5C 32.8333,3.5 62.1667,3.5 91.5,3.5C 91.8314,32.6715 91.498,61.6715 90.5,90.5 Z"/></g>
<g><path style="opacity:1" fill="#46676d" d="M 90.5,90.5 C 61.8333,90.5 33.1667,90.5 4.5,90.5C 4.5,61.8333 4.5,33.1667 4.5,4.5C 33.1667,4.5 61.8333,4.5 90.5,4.5C 90.5,33.1667 90.5,61.8333 90.5,90.5 Z"/></g>
<g><path style="opacity:1" fill="#eef1f2" d="M 75.5,80.5 C 76.7666,61.7026 72.5999,44.3693 63,28.5C 52.9375,17.0286 42.6042,16.6953 32,27.5C 22.2884,43.3917 17.7884,60.725 18.5,79.5C 16.8333,79.5 15.1667,79.5 13.5,79.5C 13.5,77.5 13.5,75.5 13.5,73.5C 13.5,72.8333 13.5,72.1667 13.5,71.5C 14.9715,67.0808 15.6382,62.4141 15.5,57.5C 17.7003,45.4186 22.5336,34.4186 30,24.5C 41.2617,13.8878 52.595,13.8878 64,24.5C 75.4025,41.4464 80.9025,60.1131 80.5,80.5C 78.8333,80.5 77.1667,80.5 75.5,80.5 Z"/></g>
<g><path style="opacity:1" fill="#819a9f" d="M 75.5,80.5 C 56.5,80.5 37.5,80.5 18.5,80.5C 18.5,80.1667 18.5,79.8333 18.5,79.5C 17.7884,60.725 22.2884,43.3917 32,27.5C 42.6042,16.6953 52.9375,17.0286 63,28.5C 72.5999,44.3693 76.7666,61.7026 75.5,80.5 Z"/></g>
<g><path style="opacity:1" fill="#c9dbdd" d="M 58.5,64.5 C 58.44,63.9569 58.1067,63.6236 57.5,63.5C 56.5059,68.456 56.1725,73.456 56.5,78.5C 50.8333,78.5 45.1667,78.5 39.5,78.5C 39.8282,73.1254 39.4948,67.7921 38.5,62.5C 37.8933,62.6236 37.56,62.9569 37.5,63.5C 35.0156,65.5452 34.0156,68.2118 34.5,71.5C 29.9315,71.9174 28.4315,69.9174 30,65.5C 33.3671,59.2993 38.2004,54.6326 44.5,51.5C 40.7482,49.1705 39.5815,45.8372 41,41.5C 44.8317,36.5076 49.165,36.1742 54,40.5C 55.1893,44.7092 54.356,48.3758 51.5,51.5C 58.1414,54.6431 62.9748,59.6431 66,66.5C 66.9558,70.9252 65.1225,72.5918 60.5,71.5C 60.8342,68.812 60.1675,66.4786 58.5,64.5 Z"/></g>
<g><path style="opacity:1" fill="#aebcbf" d="M 15.5,57.5 C 15.6382,62.4141 14.9715,67.0808 13.5,71.5C 13.3618,66.5859 14.0285,61.9192 15.5,57.5 Z"/></g>
<g><path style="opacity:1" fill="#aec1c4" d="M 37.5,63.5 C 37.56,62.9569 37.8933,62.6236 38.5,62.5C 39.4948,67.7921 39.8282,73.1254 39.5,78.5C 45.1667,78.5 50.8333,78.5 56.5,78.5C 56.1725,73.456 56.5059,68.456 57.5,63.5C 58.1067,63.6236 58.44,63.9569 58.5,64.5C 57.5128,69.3054 57.1795,74.3054 57.5,79.5C 51.1667,79.5 44.8333,79.5 38.5,79.5C 38.8214,73.9738 38.4881,68.6405 37.5,63.5 Z"/></g>
<g><path style="opacity:1" fill="#a1b1b4" d="M 13.5,73.5 C 13.5,75.5 13.5,77.5 13.5,79.5C 15.1667,79.5 16.8333,79.5 18.5,79.5C 18.5,79.8333 18.5,80.1667 18.5,80.5C 16.5,80.5 14.5,80.5 12.5,80.5C 12.1984,77.9407 12.5318,75.6074 13.5,73.5 Z"/></g>
</svg>
