<?xml version="1.0" encoding="UTF-8"?>
<!DOCTYPE svg PUBLIC "-//W3C//DTD SVG 1.1//EN" "http://www.w3.org/Graphics/SVG/1.1/DTD/svg11.dtd">
<svg xmlns="http://www.w3.org/2000/svg" version="1.1" width="96px" height="96px" style="shape-rendering:geometricPrecision; text-rendering:geometricPrecision; image-rendering:optimizeQuality; fill-rule:evenodd; clip-rule:evenodd" xmlns:xlink="http://www.w3.org/1999/xlink">
<g><path style="opacity:1" fill="#380502" d="M 2.5,2.5 C 32.5,2.5 62.5,2.5 92.5,2.5C 92.5,32.5 92.5,62.5 92.5,92.5C 62.5,92.5 32.5,92.5 2.5,92.5C 2.5,62.5 2.5,32.5 2.5,2.5 Z"/></g>
<g><path style="opacity:1" fill="#5b3b35" d="M 4.5,3.5 C 33.4072,3.1714 62.2405,3.50474 91,4.5C 91.8282,33.4052 91.6616,62.2386 90.5,91C 61.5948,91.8282 32.7614,91.6616 4,90.5C 3.17564,61.4281 3.34231,32.4281 4.5,3.5 Z"/></g>
<g><path style="opacity:1" fill="#6a4c46" d="M 5.5,5.5 C 33.5,5.5 61.5,5.5 89.5,5.5C 89.5,33.5 89.5,61.5 89.5,89.5C 61.5,89.5 33.5,89.5 5.5,89.5C 5.5,61.5 5.5,33.5 5.5,5.5 Z"/></g>
<g><path style="opacity:1" fill="#d1c0bd" d="M 23.5,22.5 C 24.209,23.404 25.209,23.7373 26.5,23.5C 26.7678,21.901 26.4345,20.5676 25.5,19.5C 24.5244,18.1851 23.5244,16.8518 22.5,15.5C 27.4317,15.4471 29.7651,18.1138 29.5,23.5C 29.4439,25.6397 28.7773,27.3064 27.5,28.5C 25.3565,30.8138 22.6898,32.1472 19.5,32.5C 16.8908,31.5569 14.8908,29.8903 13.5,27.5C 14.5676,26.5655 15.901,26.2322 17.5,26.5C 17.7373,25.209 17.404,24.209 16.5,23.5C 15.9884,20.1523 14.155,17.8189 11,16.5C 10.4092,15.5165 10.7425,14.8499 12,14.5C 13.8114,15.0779 15.6447,15.5779 17.5,16C 18.9984,18.6637 20.9984,20.8304 23.5,22.5 Z"/></g>
<g><path style="opacity:1" fill="#967f79" d="M 25.5,19.5 C 26.4345,20.5676 26.7678,21.901 26.5,23.5C 25.209,23.7373 24.209,23.404 23.5,22.5C 25.0481,22.1788 25.7148,21.1788 25.5,19.5 Z"/></g>
<g><path style="opacity:1" fill="#a48e89" d="M 16.5,23.5 C 17.404,24.209 17.7373,25.209 17.5,26.5C 15.901,26.2322 14.5676,26.5655 13.5,27.5C 12.9569,27.44 12.6236,27.1067 12.5,26.5C 14.3316,25.9432 15.6649,24.9432 16.5,23.5 Z"/></g>
<g><path style="opacity:1" fill="#aa9691" d="M 61.5,54.5 C 56.164,53.1845 53.4974,55.1845 53.5,60.5C 47.1762,53.3432 40.3428,46.6765 33,40.5C 31.6998,41.7073 30.1998,42.3739 28.5,42.5C 28.5,41.1667 28.5,39.8333 28.5,38.5C 26.5,38.5 24.5,38.5 22.5,38.5C 22.5,36.8333 22.5,35.1667 22.5,33.5C 21.209,33.7373 20.209,33.404 19.5,32.5C 22.6898,32.1472 25.3565,30.8138 27.5,28.5C 28.5676,29.4345 29.901,29.7678 31.5,29.5C 31.5,27.5 31.5,25.5 31.5,23.5C 32.5,23.5 33.5,23.5 34.5,23.5C 34.5,25.5 34.5,27.5 34.5,29.5C 36.8333,29.5 39.1667,29.5 41.5,29.5C 41.3545,32.052 40.8545,34.3854 40,36.5C 47.3322,42.3348 54.4989,48.3348 61.5,54.5 Z"/></g>
<g><path style="opacity:1" fill="#e0d0cd" d="M 61.5,54.5 C 68.1455,59.1455 73.8122,64.8122 78.5,71.5C 79.4656,73.396 79.7989,75.396 79.5,77.5C 74.8662,77.5204 70.5329,76.3538 66.5,74C 61.9633,69.6312 57.6299,65.1312 53.5,60.5C 53.4974,55.1845 56.164,53.1845 61.5,54.5 Z"/></g>
</svg>
