<?xml version="1.0" encoding="UTF-8"?>
<!DOCTYPE svg PUBLIC "-//W3C//DTD SVG 1.1//EN" "http://www.w3.org/Graphics/SVG/1.1/DTD/svg11.dtd">
<svg xmlns="http://www.w3.org/2000/svg" version="1.1" width="96px" height="96px" style="shape-rendering:geometricPrecision; text-rendering:geometricPrecision; image-rendering:optimizeQuality; fill-rule:evenodd; clip-rule:evenodd" xmlns:xlink="http://www.w3.org/1999/xlink">
<g><path style="opacity:1" fill="#3c0a04" d="M 2.5,2.5 C 32.5,2.5 62.5,2.5 92.5,2.5C 92.5,32.5 92.5,62.5 92.5,92.5C 62.5,92.5 32.5,92.5 2.5,92.5C 2.5,62.5 2.5,32.5 2.5,2.5 Z"/></g>
<g><path style="opacity:1" fill="#967a77" d="M 86.5,38.5 C 87.9187,37.5489 89.5853,37.2155 91.5,37.5C 91.5,55.5 91.5,73.5 91.5,91.5C 62.1667,91.5 32.8333,91.5 3.5,91.5C 3.5,90.5 3.5,89.5 3.5,88.5C 3.83333,88.5 4.16667,88.5 4.5,88.5C 32.8139,90.4918 61.4805,91.1585 90.5,90.5C 90.5,73.1667 90.5,55.8333 90.5,38.5C 89.1667,38.5 87.8333,38.5 86.5,38.5 Z"/></g>
<g><path style="opacity:1" fill="#aa9390" d="M 86.5,38.5 C 87.8333,38.5 89.1667,38.5 90.5,38.5C 90.5,55.8333 90.5,73.1667 90.5,90.5C 61.4805,91.1585 32.8139,90.4918 4.5,88.5C 12.4367,80.8672 21.1034,74.2005 30.5,68.5C 30.7286,72.705 29.0619,75.705 25.5,77.5C 24.5481,79.0453 24.2148,80.712 24.5,82.5C 27.0046,82.0198 29.3379,81.0198 31.5,79.5C 37.3834,85.0931 44.3834,86.9264 52.5,85C 56.4463,83.6756 60.4463,83.0089 64.5,83C 66.3551,84.8551 68.1884,86.6884 70,88.5C 72.8208,86.8474 75.3208,84.8474 77.5,82.5C 75.8333,80.5 74.1667,78.5 72.5,76.5C 75.5209,73.3135 78.3542,69.9802 81,66.5C 82.5028,61.043 81.3362,56.3763 77.5,52.5C 78.9358,51.0663 80.6025,49.8996 82.5,49C 78.967,47.2479 75.467,47.4145 72,49.5C 67.8362,48.3324 63.6696,48.3324 59.5,49.5C 67.8748,44.4852 76.8748,40.8186 86.5,38.5 Z"/></g>
<g><path style="opacity:1" fill="#ab9491" d="M 49.5,49.5 C 51.3888,50.3799 53.3888,50.3799 55.5,49.5C 56.1667,49.5 56.8333,49.5 57.5,49.5C 55.0677,50.9582 52.4011,52.1249 49.5,53C 55.1151,52.4835 60.7818,52.4835 66.5,53C 65.2888,53.8928 65.2888,54.7261 66.5,55.5C 68.5,56.8333 70.5,56.8333 72.5,55.5C 75.3342,57.4408 76.1675,60.1074 75,63.5C 73.4059,67.0918 71.0726,70.0918 68,72.5C 66.418,70.9712 64.5847,70.4712 62.5,71C 61.0158,72.5737 59.3492,73.907 57.5,75C 59.8048,76.6639 59.4715,78.1639 56.5,79.5C 50.4653,80.9027 44.4653,80.736 38.5,79C 37.9781,78.4387 37.6448,77.772 37.5,77C 41.8213,72.8098 40.8213,70.9765 34.5,71.5C 34.3398,69.8008 34.5065,68.1341 35,66.5C 36.3848,65.4495 37.3848,64.1161 38,62.5C 41.4017,59.7904 44.9017,57.2904 48.5,55C 47.9444,53.9889 47.2778,53.1556 46.5,52.5C 49.1951,52.4373 50.1951,51.4373 49.5,49.5 Z"/></g>
<g><path style="opacity:1" fill="#b49e9a" d="M 3.5,49.5 C 3.83333,49.5 4.16667,49.5 4.5,49.5C 6.9479,50.4731 9.61456,50.8064 12.5,50.5C 12.2322,52.099 12.5655,53.4324 13.5,54.5C 13.2172,55.2891 12.7172,55.9558 12,56.5C 11.5065,54.8659 11.3398,53.1992 11.5,51.5C 8.83333,51.5 6.16667,51.5 3.5,51.5C 3.5,50.8333 3.5,50.1667 3.5,49.5 Z"/></g>
<g><path style="opacity:1" fill="#d9c9c6" d="M 30.5,68.5 C 33.0832,64.4105 36.2499,60.7438 40,57.5C 40.49,56.2068 40.6567,54.8734 40.5,53.5C 42.5,53.1667 44.5,52.8333 46.5,52.5C 47.2778,53.1556 47.9444,53.9889 48.5,55C 44.9017,57.2904 41.4017,59.7904 38,62.5C 37.3848,64.1161 36.3848,65.4495 35,66.5C 34.5065,68.1341 34.3398,69.8008 34.5,71.5C 40.8213,70.9765 41.8213,72.8098 37.5,77C 37.6448,77.772 37.9781,78.4387 38.5,79C 44.4653,80.736 50.4653,80.9027 56.5,79.5C 59.4715,78.1639 59.8048,76.6639 57.5,75C 59.3492,73.907 61.0158,72.5737 62.5,71C 64.5847,70.4712 66.418,70.9712 68,72.5C 71.0726,70.0918 73.4059,67.0918 75,63.5C 76.1675,60.1074 75.3342,57.4408 72.5,55.5C 70.5,56.8333 68.5,56.8333 66.5,55.5C 65.2888,54.7261 65.2888,53.8928 66.5,53C 60.7818,52.4835 55.1151,52.4835 49.5,53C 52.4011,52.1249 55.0677,50.9582 57.5,49.5C 58.1667,49.5 58.8333,49.5 59.5,49.5C 63.6696,48.3324 67.8362,48.3324 72,49.5C 75.467,47.4145 78.967,47.2479 82.5,49C 80.6025,49.8996 78.9358,51.0663 77.5,52.5C 81.3362,56.3763 82.5028,61.043 81,66.5C 78.3542,69.9802 75.5209,73.3135 72.5,76.5C 74.1667,78.5 75.8333,80.5 77.5,82.5C 75.3208,84.8474 72.8208,86.8474 70,88.5C 68.1884,86.6884 66.3551,84.8551 64.5,83C 60.4463,83.0089 56.4463,83.6756 52.5,85C 44.3834,86.9264 37.3834,85.0931 31.5,79.5C 29.3379,81.0198 27.0046,82.0198 24.5,82.5C 24.2148,80.712 24.5481,79.0453 25.5,77.5C 29.0619,75.705 30.7286,72.705 30.5,68.5 Z"/></g>
<g><path style="opacity:1" fill="#73554f" d="M 3.5,45.5 C 6.81434,46.4101 7.14767,47.7435 4.5,49.5C 4.16667,49.5 3.83333,49.5 3.5,49.5C 3.5,48.1667 3.5,46.8333 3.5,45.5 Z"/></g>
<g><path style="opacity:1" fill="#6c4f49" d="M 28.5,3.5 C 28.5,3.83333 28.5,4.16667 28.5,4.5C 27.9569,4.55999 27.6236,4.89333 27.5,5.5C 33.7304,16.6275 39.3971,27.9609 44.5,39.5C 43.448,39.3505 42.448,39.5172 41.5,40C 43,41.5 44.5,43 46,44.5C 44.8404,47.5375 46.007,49.2042 49.5,49.5C 50.1951,51.4373 49.1951,52.4373 46.5,52.5C 44.5,52.8333 42.5,53.1667 40.5,53.5C 40.6567,54.8734 40.49,56.2068 40,57.5C 36.2499,60.7438 33.0832,64.4105 30.5,68.5C 21.1034,74.2005 12.4367,80.8672 4.5,88.5C 4.16667,88.5 3.83333,88.5 3.5,88.5C 3.5,76.1667 3.5,63.8333 3.5,51.5C 6.16667,51.5 8.83333,51.5 11.5,51.5C 11.3398,53.1992 11.5065,54.8659 12,56.5C 12.7172,55.9558 13.2172,55.2891 13.5,54.5C 20.9064,51.2118 22.2397,46.2118 17.5,39.5C 16.7425,40.8114 15.7425,41.3114 14.5,41C 12.6667,39.1667 10.8333,37.3333 9,35.5C 8.40544,36.8989 8.57211,38.2322 9.5,39.5C 7.59885,40.2309 5.59885,40.2309 3.5,39.5C 3.5,31.8333 3.5,24.1667 3.5,16.5C 11.458,23.4605 18.7913,31.1271 25.5,39.5C 24.5,40.1667 23.5,40.8333 22.5,41.5C 23.7381,43.6374 25.5714,44.9707 28,45.5C 28.4922,46.549 28.3256,47.549 27.5,48.5C 37.3661,49.6088 40.6994,45.2755 37.5,35.5C 36.8333,36.1667 36.1667,36.8333 35.5,37.5C 34.0945,34.7874 32.5945,32.1207 31,29.5C 30.51,30.7932 30.3433,32.1266 30.5,33.5C 29.448,33.6495 28.448,33.4828 27.5,33C 19.8906,26.2111 11.8906,20.0445 3.5,14.5C 3.5,10.8333 3.5,7.16667 3.5,3.5C 11.8333,3.5 20.1667,3.5 28.5,3.5 Z"/></g>
<g><path style="opacity:1" fill="#f2e3e0" d="M 13.5,54.5 C 12.5655,53.4324 12.2322,52.099 12.5,50.5C 9.61456,50.8064 6.9479,50.4731 4.5,49.5C 7.14767,47.7435 6.81434,46.4101 3.5,45.5C 3.5,43.5 3.5,41.5 3.5,39.5C 5.59885,40.2309 7.59885,40.2309 9.5,39.5C 8.57211,38.2322 8.40544,36.8989 9,35.5C 10.8333,37.3333 12.6667,39.1667 14.5,41C 15.7425,41.3114 16.7425,40.8114 17.5,39.5C 22.2397,46.2118 20.9064,51.2118 13.5,54.5 Z"/></g>
<g><path style="opacity:1" fill="#ebdbd7" d="M 28.5,4.5 C 35.0732,15.3081 41.9065,25.9747 49,36.5C 49.8333,35.5 50.6667,34.5 51.5,33.5C 52.7475,36.0601 53.7475,38.7268 54.5,41.5C 55.8626,40.1207 56.8626,40.2874 57.5,42C 56.7511,44.4966 56.0845,46.9966 55.5,49.5C 53.3888,50.3799 51.3888,50.3799 49.5,49.5C 46.007,49.2042 44.8404,47.5375 46,44.5C 44.5,43 43,41.5 41.5,40C 42.448,39.5172 43.448,39.3505 44.5,39.5C 39.3971,27.9609 33.7304,16.6275 27.5,5.5C 27.6236,4.89333 27.9569,4.55999 28.5,4.5 Z"/></g>
<g><path style="opacity:1" fill="#efdfdc" d="M 3.5,14.5 C 11.8906,20.0445 19.8906,26.2111 27.5,33C 28.448,33.4828 29.448,33.6495 30.5,33.5C 30.3433,32.1266 30.51,30.7932 31,29.5C 32.5945,32.1207 34.0945,34.7874 35.5,37.5C 36.1667,36.8333 36.8333,36.1667 37.5,35.5C 40.6994,45.2755 37.3661,49.6088 27.5,48.5C 28.3256,47.549 28.4922,46.549 28,45.5C 25.5714,44.9707 23.7381,43.6374 22.5,41.5C 23.5,40.8333 24.5,40.1667 25.5,39.5C 18.7913,31.1271 11.458,23.4605 3.5,16.5C 3.5,15.8333 3.5,15.1667 3.5,14.5 Z"/></g>
<g><path style="opacity:1" fill="#6a4c46" d="M 28.5,3.5 C 49.5,3.5 70.5,3.5 91.5,3.5C 91.5,14.8333 91.5,26.1667 91.5,37.5C 89.5853,37.2155 87.9187,37.5489 86.5,38.5C 76.8748,40.8186 67.8748,44.4852 59.5,49.5C 58.8333,49.5 58.1667,49.5 57.5,49.5C 56.8333,49.5 56.1667,49.5 55.5,49.5C 56.0845,46.9966 56.7511,44.4966 57.5,42C 56.8626,40.2874 55.8626,40.1207 54.5,41.5C 53.7475,38.7268 52.7475,36.0601 51.5,33.5C 50.6667,34.5 49.8333,35.5 49,36.5C 41.9065,25.9747 35.0732,15.3081 28.5,4.5C 28.5,4.16667 28.5,3.83333 28.5,3.5 Z"/></g>
</svg>
