<?xml version="1.0" encoding="UTF-8"?>
<!DOCTYPE svg PUBLIC "-//W3C//DTD SVG 1.1//EN" "http://www.w3.org/Graphics/SVG/1.1/DTD/svg11.dtd">
<svg xmlns="http://www.w3.org/2000/svg" version="1.1" width="96px" height="96px" style="shape-rendering:geometricPrecision; text-rendering:geometricPrecision; image-rendering:optimizeQuality; fill-rule:evenodd; clip-rule:evenodd" xmlns:xlink="http://www.w3.org/1999/xlink">
<g><path style="opacity:1" fill="#936e29" d="M 2.5,2.5 C 32.5,2.5 62.5,2.5 92.5,2.5C 92.5,32.5 92.5,62.5 92.5,92.5C 62.5,92.5 32.5,92.5 2.5,92.5C 2.5,62.5 2.5,32.5 2.5,2.5 Z"/></g>
<g><path style="opacity:1" fill="#bd9643" d="M 3.5,3.5 C 32.8333,3.5 62.1667,3.5 91.5,3.5C 91.5,32.8333 91.5,62.1667 91.5,91.5C 62.1667,91.5 32.8333,91.5 3.5,91.5C 3.5,62.1667 3.5,32.8333 3.5,3.5 Z"/></g>
<g><path style="opacity:1" fill="#c8a04b" d="M 4.5,4.5 C 33.1667,4.5 61.8333,4.5 90.5,4.5C 90.5,33.1667 90.5,61.8333 90.5,90.5C 61.8333,90.5 33.1667,90.5 4.5,90.5C 4.5,61.8333 4.5,33.1667 4.5,4.5 Z"/></g>
<g><path style="opacity:1" fill="#d2b370" d="M 73.5,84.5 C 72.2426,85.8181 70.9093,87.1515 69.5,88.5C 67.9291,87.6906 66.2624,87.3573 64.5,87.5C 67.341,86.3307 70.341,85.3307 73.5,84.5 Z"/></g>
<g><path style="opacity:1" fill="#dfca99" d="M 55.5,69.5 C 59.5138,69.3345 63.5138,69.5012 67.5,70C 68.4158,70.2784 69.0825,70.7784 69.5,71.5C 64.6616,71.0886 59.9949,70.4219 55.5,69.5 Z"/></g>
<g><path style="opacity:1" fill="#e2cb9d" d="M 41.5,42.5 C 42.9063,42.9731 43.573,43.9731 43.5,45.5C 42.0937,45.0269 41.427,44.0269 41.5,42.5 Z"/></g>
<g><path style="opacity:1" fill="#cea95c" d="M 23.5,29.5 C 26.248,32.6553 28.248,36.322 29.5,40.5C 31.9162,40.6255 34.2496,40.9589 36.5,41.5C 32.574,42.5515 28.574,43.2182 24.5,43.5C 24.2289,41.1789 24.8955,39.1789 26.5,37.5C 25.9017,36.2054 25.4017,34.8721 25,33.5C 23.6439,34.3802 22.1439,34.7135 20.5,34.5C 20.2148,32.712 20.5481,31.0453 21.5,29.5C 22.4288,30.5498 23.0954,30.5498 23.5,29.5 Z"/></g>
<g><path style="opacity:1" fill="#fdfbf9" d="M 31.5,10.5 C 33.2143,11.7384 35.2143,12.405 37.5,12.5C 39.1251,20.554 40.7918,28.554 42.5,36.5C 43.9778,36.238 45.3112,36.5713 46.5,37.5C 45.1502,38.9501 43.4835,39.6168 41.5,39.5C 41.5,40.5 41.5,41.5 41.5,42.5C 41.427,44.0269 42.0937,45.0269 43.5,45.5C 46.4145,52.3973 49.2478,59.3973 52,66.5C 53.5185,67.1634 54.6851,68.1634 55.5,69.5C 59.9949,70.4219 64.6616,71.0886 69.5,71.5C 75.5786,72.7627 77.7452,76.4294 76,82.5C 75.2917,83.3805 74.4584,84.0472 73.5,84.5C 70.341,85.3307 67.341,86.3307 64.5,87.5C 56.1678,88.316 48.1678,87.1493 40.5,84C 36.2635,79.9386 36.5968,76.272 41.5,73C 43.4357,72.187 45.4357,71.687 47.5,71.5C 47.6633,69.1432 47.4966,66.8098 47,64.5C 42.9546,57.0762 39.4546,49.4096 36.5,41.5C 34.2496,40.9589 31.9162,40.6255 29.5,40.5C 28.248,36.322 26.248,32.6553 23.5,29.5C 22.5081,26.1779 21.5081,22.8445 20.5,19.5C 20.8396,17.4878 21.1729,15.4878 21.5,13.5C 22.5,13.5 23.5,13.5 24.5,13.5C 25.1667,13.1667 25.8333,12.8333 26.5,12.5C 28.099,12.7678 29.4324,12.4345 30.5,11.5C 30.5,10.8333 30.8333,10.5 31.5,10.5 Z"/></g>
<g><path style="opacity:1" fill="#d1ae65" d="M 30.5,11.5 C 29.4324,12.4345 28.099,12.7678 26.5,12.5C 26.5,11.5 26.5,10.5 26.5,9.5C 28.1993,9.52709 29.5326,10.1938 30.5,11.5 Z"/></g>
<g><path style="opacity:1" fill="#ebdbbc" d="M 31.5,10.5 C 30.8333,10.5 30.5,10.8333 30.5,11.5C 29.5326,10.1938 28.1993,9.52709 26.5,9.5C 26.5,10.5 26.5,11.5 26.5,12.5C 25.8333,12.8333 25.1667,13.1667 24.5,13.5C 24.0826,8.93151 26.0826,7.43151 30.5,9C 31.056,9.38258 31.3893,9.88258 31.5,10.5 Z"/></g>
</svg>
