<?xml version="1.0" encoding="UTF-8"?>
<!DOCTYPE svg PUBLIC "-//W3C//DTD SVG 1.1//EN" "http://www.w3.org/Graphics/SVG/1.1/DTD/svg11.dtd">
<svg xmlns="http://www.w3.org/2000/svg" version="1.1" width="96px" height="96px" style="shape-rendering:geometricPrecision; text-rendering:geometricPrecision; image-rendering:optimizeQuality; fill-rule:evenodd; clip-rule:evenodd" xmlns:xlink="http://www.w3.org/1999/xlink">
<g><path style="opacity:0.976" fill="#380702" d="M 2.5,2.5 C 32.5,2.5 62.5,2.5 92.5,2.5C 92.5,32.5 92.5,62.5 92.5,92.5C 62.5,92.5 32.5,92.5 2.5,92.5C 2.5,62.5 2.5,32.5 2.5,2.5 Z"/></g>
<g><path style="opacity:1" fill="#684a44" d="M 90.5,4.5 C 91.8333,33.1667 91.8333,61.8333 90.5,90.5C 61.8333,90.5 33.1667,90.5 4.5,90.5C 4.5,61.8333 4.5,33.1667 4.5,4.5C 33.1667,4.5 61.8333,4.5 90.5,4.5 Z"/></g>
<g><path style="opacity:1" fill="#6b4d47" d="M 38.5,8.5 C 33.8333,8.5 29.1667,8.5 24.5,8.5C 24.5,10.8333 24.5,13.1667 24.5,15.5C 25.5,15.5 26.5,15.5 27.5,15.5C 27.5,16.5 27.5,17.5 27.5,18.5C 24.3097,18.5129 21.4763,19.5129 19,21.5C 17.6305,19.7974 15.9638,18.464 14,17.5C 12.5,17.6667 11.6667,18.5 11.5,20C 12.5,21.6667 13.5,23.3333 14.5,25C 5.29812,39.1007 7.63145,51.1007 21.5,61C 41.5679,65.0977 52.2346,56.9311 53.5,36.5C 54.1667,34.5 54.8333,32.5 55.5,30.5C 55.5,41.8333 55.5,53.1667 55.5,64.5C 52.4816,64.3354 49.4816,64.502 46.5,65C 53.3516,71.3527 60.3516,77.5194 67.5,83.5C 73.8543,77.8123 79.8543,71.8123 85.5,65.5C 86.0431,65.44 86.3764,65.1067 86.5,64.5C 83.5719,63.5159 80.5719,63.1826 77.5,63.5C 77.5,52.5 77.5,41.5 77.5,30.5C 78.4944,40.9869 78.8278,51.6536 78.5,62.5C 82.1106,62.0441 85.4439,62.7108 88.5,64.5C 89.4979,72.8068 89.8312,81.1401 89.5,89.5C 61.5,89.5 33.5,89.5 5.5,89.5C 5.5,61.5 5.5,33.5 5.5,5.5C 33.5,5.5 61.5,5.5 89.5,5.5C 89.6666,24.8362 89.5,44.1695 89,63.5C 88.5001,44.5029 88.3334,25.5029 88.5,6.5C 67.1641,6.33337 45.8307,6.50004 24.5,7C 29.3514,7.1745 34.0181,7.6745 38.5,8.5 Z"/></g>
<g><path style="opacity:1" fill="#aea39f" d="M 77.5,63.5 C 80.5719,63.1826 83.5719,63.5159 86.5,64.5C 86.3764,65.1067 86.0431,65.44 85.5,65.5C 82.8333,64.8333 80.1667,64.1667 77.5,63.5 Z"/></g>
<g><path style="opacity:1" fill="#f7f6f4" d="M 55.5,30.5 C 62.8333,30.5 70.1667,30.5 77.5,30.5C 77.5,41.5 77.5,52.5 77.5,63.5C 80.1667,64.1667 82.8333,64.8333 85.5,65.5C 79.8543,71.8123 73.8543,77.8123 67.5,83.5C 60.3516,77.5194 53.3516,71.3527 46.5,65C 49.4816,64.502 52.4816,64.3354 55.5,64.5C 55.5,53.1667 55.5,41.8333 55.5,30.5 Z"/></g>
<g><path style="opacity:1" fill="#aeaaaa" d="M 35.5,15.5 C 35.281,16.675 35.6143,17.675 36.5,18.5C 45.6698,21.3327 51.3364,27.3327 53.5,36.5C 52.2346,56.9311 41.5679,65.0977 21.5,61C 7.63145,51.1007 5.29812,39.1007 14.5,25C 13.5,23.3333 12.5,21.6667 11.5,20C 11.6667,18.5 12.5,17.6667 14,17.5C 15.9638,18.464 17.6305,19.7974 19,21.5C 21.4763,19.5129 24.3097,18.5129 27.5,18.5C 28.4345,17.4324 28.7678,16.099 28.5,14.5C 27.5,14.5 26.5,14.5 25.5,14.5C 25.5,12.8333 25.5,11.1667 25.5,9.5C 29.8333,9.5 34.1667,9.5 38.5,9.5C 38.5,11.1667 38.5,12.8333 38.5,14.5C 37.209,14.2627 36.209,14.596 35.5,15.5 Z"/></g>
<g><path style="opacity:1" fill="#6b4e48" d="M 34.5,25.5 C 46.7176,29.7558 49.8843,37.7558 44,49.5C 38.6811,55.1673 32.1811,57.0007 24.5,55C 17.1939,50.0946 14.3606,43.2612 16,34.5C 18.0678,30.9295 20.9012,28.2629 24.5,26.5C 27.7644,25.6758 31.0977,25.3424 34.5,25.5 Z"/></g>
<g><path style="opacity:1" fill="#a59f9e" d="M 30.5,26.5 C 31.8654,29.5989 32.8654,32.9323 33.5,36.5C 35.5,35.1667 37.5,33.8333 39.5,32.5C 39.8333,32.8333 40.1667,33.1667 40.5,33.5C 38.9095,35.6326 36.9095,37.2993 34.5,38.5C 33.6143,39.325 33.281,40.325 33.5,41.5C 31.8333,41.5 30.1667,41.5 28.5,41.5C 29.0487,36.4473 29.7154,31.4473 30.5,26.5 Z"/></g>
<g><path style="opacity:1" fill="#8e7f7c" d="M 34.5,25.5 C 31.0977,25.3424 27.7644,25.6758 24.5,26.5C 24.6107,25.8826 24.944,25.3826 25.5,25C 28.6965,24.1955 31.6965,24.3622 34.5,25.5 Z"/></g>
<g><path style="opacity:1" fill="#8b7b78" d="M 38.5,8.5 C 39.4682,10.6074 39.8016,12.9407 39.5,15.5C 38.1667,15.5 36.8333,15.5 35.5,15.5C 36.209,14.596 37.209,14.2627 38.5,14.5C 38.5,12.8333 38.5,11.1667 38.5,9.5C 34.1667,9.5 29.8333,9.5 25.5,9.5C 25.5,11.1667 25.5,12.8333 25.5,14.5C 26.5,14.5 27.5,14.5 28.5,14.5C 28.7678,16.099 28.4345,17.4324 27.5,18.5C 27.5,17.5 27.5,16.5 27.5,15.5C 26.5,15.5 25.5,15.5 24.5,15.5C 24.5,13.1667 24.5,10.8333 24.5,8.5C 29.1667,8.5 33.8333,8.5 38.5,8.5 Z"/></g>
<g><path style="opacity:0.996" fill="#4e2921" d="M 90.5,4.5 C 61.8333,4.5 33.1667,4.5 4.5,4.5C 4.5,33.1667 4.5,61.8333 4.5,90.5C 33.1667,90.5 61.8333,90.5 90.5,90.5C 61.6715,91.498 32.6715,91.8314 3.5,91.5C 3.5,62.1667 3.5,32.8333 3.5,3.5C 32.6715,3.16863 61.6715,3.50197 90.5,4.5 Z"/></g>
</svg>
