<?xml version="1.0" encoding="UTF-8"?>
<!DOCTYPE svg PUBLIC "-//W3C//DTD SVG 1.1//EN" "http://www.w3.org/Graphics/SVG/1.1/DTD/svg11.dtd">
<svg xmlns="http://www.w3.org/2000/svg" version="1.1" width="96px" height="96px" style="shape-rendering:geometricPrecision; text-rendering:geometricPrecision; image-rendering:optimizeQuality; fill-rule:evenodd; clip-rule:evenodd" xmlns:xlink="http://www.w3.org/1999/xlink">
<g><path style="opacity:1" fill="#380501" d="M 2.5,2.5 C 32.5,2.5 62.5,2.5 92.5,2.5C 92.5,32.5 92.5,62.5 92.5,92.5C 62.5,92.5 32.5,92.5 2.5,92.5C 2.5,62.5 2.5,32.5 2.5,2.5 Z"/></g>
<g><path style="opacity:1" fill="#4f2b23" d="M 90.5,4.5 C 61.8333,4.5 33.1667,4.5 4.5,4.5C 4.5,33.1667 4.5,61.8333 4.5,90.5C 33.1667,90.5 61.8333,90.5 90.5,90.5C 61.6715,91.498 32.6715,91.8314 3.5,91.5C 3.5,62.1667 3.5,32.8333 3.5,3.5C 32.6715,3.16863 61.6715,3.50197 90.5,4.5 Z"/></g>
<g><path style="opacity:1" fill="#6a4c46" d="M 90.5,4.5 C 91.8333,33.1667 91.8333,61.8333 90.5,90.5C 61.8333,90.5 33.1667,90.5 4.5,90.5C 4.5,61.8333 4.5,33.1667 4.5,4.5C 33.1667,4.5 61.8333,4.5 90.5,4.5 Z"/></g>
<g><path style="opacity:1" fill="#ab9a97" d="M 27.5,26.5 C 26.8333,26.5 26.5,26.8333 26.5,27.5C 22.5185,24.5244 18.5185,21.5244 14.5,18.5C 15.0016,17.479 15.6683,17.3123 16.5,18C 20.2355,20.8533 23.9021,23.6867 27.5,26.5 Z"/></g>
<g><path style="opacity:1" fill="#b6a7a5" d="M 9.5,18.5 C 14.65,21.4778 18.4833,25.4778 21,30.5C 16.2674,27.2694 12.4341,23.2694 9.5,18.5 Z"/></g>
<g><path style="opacity:1" fill="#cdc3c1" d="M 26.5,27.5 C 26.5,26.8333 26.8333,26.5 27.5,26.5C 31.1916,28.3437 34.5249,30.6771 37.5,33.5C 36.9984,34.521 36.3317,34.6877 35.5,34C 32.6215,31.6148 29.6215,29.4482 26.5,27.5 Z"/></g>
<g><path style="opacity:1" fill="#e3dddc" d="M 39.5,35.5 C 46.6705,38.9936 53.3372,43.3269 59.5,48.5C 57.8125,49.568 56.1459,49.4014 54.5,48C 48.9734,44.2927 43.9734,40.126 39.5,35.5 Z"/></g>
<g><path style="opacity:1" fill="#e7e2e1" d="M 23.5,32.5 C 30.5131,36.6857 36.3465,42.019 41,48.5C 40.6667,48.8333 40.3333,49.1667 40,49.5C 34.2208,43.8907 28.7208,38.2241 23.5,32.5 Z"/></g>
<g><path style="opacity:1" fill="#f3f1f0" d="M 60.5,60.5 C 61.4345,61.5676 61.7678,62.901 61.5,64.5C 62.791,64.7373 63.791,64.404 64.5,63.5C 64.8333,63.5 65.1667,63.5 65.5,63.5C 65.5,63.8333 65.5,64.1667 65.5,64.5C 65.1667,65.1667 64.8333,65.8333 64.5,66.5C 63.9569,66.56 63.6236,66.8933 63.5,67.5C 65.2914,68.1698 66.9581,68.8365 68.5,69.5C 66.1556,69.5062 64.8223,70.6729 64.5,73C 65.125,74.8405 65.2917,76.6739 65,78.5C 63.955,77.6266 63.1217,76.6266 62.5,75.5C 61.791,74.596 60.791,74.2627 59.5,74.5C 59.8016,77.0593 59.4682,79.3926 58.5,81.5C 58.313,79.4357 57.813,77.4357 57,75.5C 56.1482,76.5707 55.3149,77.5707 54.5,78.5C 53.596,77.791 53.2627,76.791 53.5,75.5C 51.8212,75.7148 50.8212,75.0481 50.5,73.5C 51.0431,73.44 51.3764,73.1067 51.5,72.5C 50.2713,71.7189 48.938,71.2189 47.5,71C 48.056,70.6174 48.3893,70.1174 48.5,69.5C 50.4663,68.7455 50.7996,67.5788 49.5,66C 51.3632,64.5822 51.8632,62.7489 51,60.5C 47.8408,57.8595 45.3408,54.8595 43.5,51.5C 44.552,51.3505 45.552,51.5172 46.5,52C 49.062,55.0652 52.062,57.5652 55.5,59.5C 57.4862,57.2172 58.6529,57.8838 59,61.5C 59.3826,60.944 59.8826,60.6107 60.5,60.5 Z"/></g>
<g><path style="opacity:1" fill="#f2efee" d="M 75.5,49.5 C 76.4511,50.9187 76.7845,52.5853 76.5,54.5C 77.791,54.2627 78.791,54.596 79.5,55.5C 78.6236,55.3691 77.9569,55.7025 77.5,56.5C 78.376,57.2508 79.376,57.7508 80.5,58C 79.1772,58.8159 78.5106,59.9826 78.5,61.5C 77.7222,62.1556 77.0556,62.9889 76.5,64C 76.5699,64.7648 76.9033,65.2648 77.5,65.5C 77.631,66.2389 77.4643,66.9056 77,67.5C 75.5123,65.84 73.679,64.84 71.5,64.5C 69.4684,62.6468 67.1351,61.1468 64.5,60C 66.3588,59.3992 66.6921,58.5659 65.5,57.5C 63.3311,55.6597 61.9977,53.3263 61.5,50.5C 63.2915,50.366 64.9582,50.6993 66.5,51.5C 68.0445,53.805 70.0445,54.1383 72.5,52.5C 73.8333,51.8333 74.8333,50.8333 75.5,49.5 Z"/></g>
<g><path style="opacity:1" fill="#8f7874" d="M 66.5,51.5 C 68.5445,51.7996 70.5445,52.133 72.5,52.5C 70.0445,54.1383 68.0445,53.805 66.5,51.5 Z"/></g>
<g><path style="opacity:1" fill="#917b76" d="M 75.5,49.5 C 75.56,48.9569 75.8933,48.6236 76.5,48.5C 77.4519,50.0453 77.7852,51.712 77.5,53.5C 78.675,53.281 79.675,53.6143 80.5,54.5C 80.3764,55.1067 80.0431,55.44 79.5,55.5C 78.791,54.596 77.791,54.2627 76.5,54.5C 76.7845,52.5853 76.4511,50.9187 75.5,49.5 Z"/></g>
<g><path style="opacity:1" fill="#d3cac8" d="M 65.5,57.5 C 66.6921,58.5659 66.3588,59.3992 64.5,60C 67.1351,61.1468 69.4684,62.6468 71.5,64.5C 71.2503,66.674 70.2503,68.3406 68.5,69.5C 66.9581,68.8365 65.2914,68.1698 63.5,67.5C 63.6236,66.8933 63.9569,66.56 64.5,66.5C 65.5676,67.4345 66.901,67.7678 68.5,67.5C 68.5,66.5 68.5,65.5 68.5,64.5C 67.5,64.5 66.5,64.5 65.5,64.5C 65.5,64.1667 65.5,63.8333 65.5,63.5C 67.0544,62.1054 66.721,61.4387 64.5,61.5C 61.9172,62.2418 61.9172,62.9085 64.5,63.5C 63.791,64.404 62.791,64.7373 61.5,64.5C 61.7678,62.901 61.4345,61.5676 60.5,60.5C 61.8021,58.9724 63.4687,57.9724 65.5,57.5 Z"/></g>
<g><path style="opacity:1" fill="#795e59" d="M 65.5,63.5 C 65.1667,63.5 64.8333,63.5 64.5,63.5C 61.9172,62.9085 61.9172,62.2418 64.5,61.5C 66.721,61.4387 67.0544,62.1054 65.5,63.5 Z"/></g>
<g><path style="opacity:1" fill="#a18f8b" d="M 78.5,61.5 C 79.3764,61.3691 80.0431,61.7025 80.5,62.5C 79.0065,63.1411 78.0065,64.1411 77.5,65.5C 76.9033,65.2648 76.5699,64.7648 76.5,64C 77.0556,62.9889 77.7222,62.1556 78.5,61.5 Z"/></g>
<g><path style="opacity:1" fill="#806661" d="M 65.5,64.5 C 66.5,64.5 67.5,64.5 68.5,64.5C 68.5,65.5 68.5,66.5 68.5,67.5C 66.901,67.7678 65.5676,67.4345 64.5,66.5C 64.8333,65.8333 65.1667,65.1667 65.5,64.5 Z"/></g>
<g><path style="opacity:1" fill="#baaca9" d="M 48.5,69.5 C 48.3893,70.1174 48.056,70.6174 47.5,71C 48.938,71.2189 50.2713,71.7189 51.5,72.5C 51.3764,73.1067 51.0431,73.44 50.5,73.5C 48.6309,72.8354 46.6309,72.1687 44.5,71.5C 45.5769,70.2949 46.9102,69.6282 48.5,69.5 Z"/></g>
<g><path style="opacity:1" fill="#b3a4a1" d="M 62.5,75.5 C 60.8031,77.3052 59.9698,79.6385 60,82.5C 58.8932,83.7119 58.3932,83.3786 58.5,81.5C 59.4682,79.3926 59.8016,77.0593 59.5,74.5C 60.791,74.2627 61.791,74.596 62.5,75.5 Z"/></g>
<g><path style="opacity:1" fill="#aa9995" d="M 50.5,73.5 C 50.8212,75.0481 51.8212,75.7148 53.5,75.5C 53.2627,76.791 53.596,77.791 54.5,78.5C 54.5852,79.9953 53.9185,80.9953 52.5,81.5C 51.3554,80.2243 51.3554,78.891 52.5,77.5C 48.4521,77.1298 47.7854,75.7965 50.5,73.5 Z"/></g>
</svg>
