<?xml version="1.0" encoding="UTF-8"?>
<!DOCTYPE svg PUBLIC "-//W3C//DTD SVG 1.1//EN" "http://www.w3.org/Graphics/SVG/1.1/DTD/svg11.dtd">
<svg xmlns="http://www.w3.org/2000/svg" version="1.1" width="96px" height="96px" style="shape-rendering:geometricPrecision; text-rendering:geometricPrecision; image-rendering:optimizeQuality; fill-rule:evenodd; clip-rule:evenodd" xmlns:xlink="http://www.w3.org/1999/xlink">
<g><path style="opacity:1" fill="#525d3a" d="M 2.5,2.5 C 32.5,2.5 62.5,2.5 92.5,2.5C 92.5,32.5 92.5,62.5 92.5,92.5C 62.5,92.5 32.5,92.5 2.5,92.5C 2.5,62.5 2.5,32.5 2.5,2.5 Z"/></g>
<g><path style="opacity:1" fill="#748055" d="M 3.5,3.5 C 32.8333,3.5 62.1667,3.5 91.5,3.5C 91.5,32.8333 91.5,62.1667 91.5,91.5C 62.1667,91.5 32.8333,91.5 3.5,91.5C 3.5,62.1667 3.5,32.8333 3.5,3.5 Z"/></g>
<g><path style="opacity:1" fill="#7d8a5d" d="M 4.5,4.5 C 33.1667,4.5 61.8333,4.5 90.5,4.5C 90.5,33.1667 90.5,61.8333 90.5,90.5C 61.8333,90.5 33.1667,90.5 4.5,90.5C 4.5,61.8333 4.5,33.1667 4.5,4.5 Z"/></g>
<g><path style="opacity:1" fill="#abb298" d="M 31.5,17.5 C 32.3543,15.965 32.3543,14.6316 31.5,13.5C 32.2544,11.5541 33.5878,10.7207 35.5,11C 34.4316,13.4381 33.0983,15.6048 31.5,17.5 Z"/></g>
<g><path style="opacity:1" fill="#f4f5f2" d="M 49.5,16.5 C 47.9582,17.3007 46.2915,17.634 44.5,17.5C 44.6716,16.5084 44.3382,15.8417 43.5,15.5C 43.585,13.0712 44.585,11.0712 46.5,9.5C 49.0934,11.0708 50.0934,13.4041 49.5,16.5 Z"/></g>
<g><path style="opacity:1" fill="#f1f2ee" d="M 59.5,11.5 C 63.5013,14.6586 67.668,17.6586 72,20.5C 74.8806,18.4761 78.0473,17.1427 81.5,16.5C 83.0024,21.4883 84.1691,26.4883 85,31.5C 83.1135,28.3587 80.7802,25.692 78,23.5C 75.76,24.0362 73.9266,25.2029 72.5,27C 71.5,27.6667 70.5,27.6667 69.5,27C 66.0209,21.8617 62.6876,16.6951 59.5,11.5 Z"/></g>
<g><path style="opacity:1" fill="#f1f2ee" d="M 31.5,13.5 C 32.3543,14.6316 32.3543,15.965 31.5,17.5C 29.5955,20.9683 27.4288,24.3016 25,27.5C 22.341,26.783 19.841,25.783 17.5,24.5C 15.1017,25.389 13.1017,26.889 11.5,29C 10.6683,29.6877 10.0016,29.521 9.5,28.5C 11.375,25.2489 13.375,22.0823 15.5,19C 18.7935,19.5378 22.1268,19.8711 25.5,20C 27.7059,17.9633 29.7059,15.7966 31.5,13.5 Z"/></g>
<g><path style="opacity:1" fill="#96a07c" d="M 43.5,15.5 C 44.3382,15.8417 44.6716,16.5084 44.5,17.5C 44.5,21.5 44.5,25.5 44.5,29.5C 43.1667,29.5 41.8333,29.5 40.5,29.5C 40.5,28.5 40.5,27.5 40.5,26.5C 41.1515,27.0906 41.8182,27.7573 42.5,28.5C 43.4922,24.2172 43.8256,19.8839 43.5,15.5 Z"/></g>
<g><path style="opacity:1" fill="#b6bea0" d="M 49.5,16.5 C 49.5,20.8333 49.5,25.1667 49.5,29.5C 48.5655,30.5676 48.2322,31.901 48.5,33.5C 47.5,33.5 46.5,33.5 45.5,33.5C 45.7678,31.901 45.4345,30.5676 44.5,29.5C 44.5,25.5 44.5,21.5 44.5,17.5C 46.2915,17.634 47.9582,17.3007 49.5,16.5 Z"/></g>
<g><path style="opacity:1" fill="#f7f8f5" d="M 40.5,26.5 C 40.5,27.5 40.5,28.5 40.5,29.5C 41.209,30.404 42.209,30.7373 43.5,30.5C 43.7593,34.0681 45.7593,35.4015 49.5,34.5C 49.5,33.1667 49.5,31.8333 49.5,30.5C 51.1788,30.7148 52.1788,30.0481 52.5,28.5C 53.5578,26.1916 54.7245,23.8583 56,21.5C 56.6667,22.1667 57.3333,22.8333 58,23.5C 57.4549,27.2834 56.2883,30.95 54.5,34.5C 53.2921,35.2341 51.9587,35.5674 50.5,35.5C 50.7852,37.288 50.4519,38.9547 49.5,40.5C 47.6837,39.2651 46.017,39.2651 44.5,40.5C 43.8333,39.1667 43.1667,37.8333 42.5,36.5C 41.791,35.596 40.791,35.2627 39.5,35.5C 38.1736,31.8562 36.8403,28.1896 35.5,24.5C 35.7028,22.7923 36.5362,21.459 38,20.5C 38.8447,22.6115 39.678,24.6115 40.5,26.5 Z"/></g>
<g><path style="opacity:1" fill="#d7dccb" d="M 52.5,28.5 C 52.1788,30.0481 51.1788,30.7148 49.5,30.5C 49.5,31.8333 49.5,33.1667 49.5,34.5C 45.7593,35.4015 43.7593,34.0681 43.5,30.5C 42.209,30.7373 41.209,30.404 40.5,29.5C 41.8333,29.5 43.1667,29.5 44.5,29.5C 45.4345,30.5676 45.7678,31.901 45.5,33.5C 46.5,33.5 47.5,33.5 48.5,33.5C 48.2322,31.901 48.5655,30.5676 49.5,29.5C 50.609,29.4431 51.609,29.1098 52.5,28.5 Z"/></g>
<g><path style="opacity:1" fill="#a2aa8c" d="M 39.5,35.5 C 40.791,35.2627 41.791,35.596 42.5,36.5C 42.7678,38.099 42.4345,39.4324 41.5,40.5C 41.6347,38.4458 40.968,36.7791 39.5,35.5 Z"/></g>
<g><path style="opacity:1" fill="#bbc3a6" d="M 54.5,34.5 C 54.1788,36.0481 53.1788,36.7148 51.5,36.5C 51.6159,39.8599 51.9492,43.1933 52.5,46.5C 51.7784,46.0825 51.2784,45.4158 51,44.5C 50.502,47.4816 50.3354,50.4816 50.5,53.5C 47.9407,53.8016 45.6074,53.4682 43.5,52.5C 43.2367,48.3998 43.5701,44.3998 44.5,40.5C 46.017,39.2651 47.6837,39.2651 49.5,40.5C 50.4519,38.9547 50.7852,37.288 50.5,35.5C 51.9587,35.5674 53.2921,35.2341 54.5,34.5 Z"/></g>
<g><path style="opacity:1" fill="#d6daca" d="M 42.5,36.5 C 43.1667,37.8333 43.8333,39.1667 44.5,40.5C 43.5701,44.3998 43.2367,48.3998 43.5,52.5C 43.0276,50.4687 42.0276,48.8021 40.5,47.5C 41.3686,45.283 41.702,42.9496 41.5,40.5C 42.4345,39.4324 42.7678,38.099 42.5,36.5 Z"/></g>
<g><path style="opacity:1" fill="#fcfcfc" d="M 52.5,46.5 C 55.0513,47.4844 57.7179,48.4844 60.5,49.5C 61.4656,51.396 61.7989,53.396 61.5,55.5C 62.5,55.5 63.5,55.5 64.5,55.5C 64.0856,60.3645 64.0856,65.0312 64.5,69.5C 65.0347,71.4456 66.368,72.4456 68.5,72.5C 68.423,76.2148 68.7564,79.8815 69.5,83.5C 54.1667,83.5 38.8333,83.5 23.5,83.5C 23.335,80.1501 23.5017,76.8168 24,73.5C 25.2419,72.1279 26.7419,71.1279 28.5,70.5C 28.8333,69.6667 29.1667,68.8333 29.5,68C 28.6707,63.8737 28.3374,59.7071 28.5,55.5C 29.5,55.5 30.5,55.5 31.5,55.5C 31.2011,53.396 31.5344,51.396 32.5,49.5C 35.0956,48.5178 37.7623,47.8511 40.5,47.5C 42.0276,48.8021 43.0276,50.4687 43.5,52.5C 45.6074,53.4682 47.9407,53.8016 50.5,53.5C 50.3354,50.4816 50.502,47.4816 51,44.5C 51.2784,45.4158 51.7784,46.0825 52.5,46.5 Z"/></g>
<g><path style="opacity:1" fill="#d4d8cb" d="M 64.5,55.5 C 65.5974,60.0126 65.5974,64.6792 64.5,69.5C 64.0856,65.0312 64.0856,60.3645 64.5,55.5 Z"/></g>
<g><path style="opacity:1" fill="#c0c5b2" d="M 68.5,72.5 C 70.2697,76.0938 70.6031,79.7604 69.5,83.5C 68.7564,79.8815 68.423,76.2148 68.5,72.5 Z"/></g>
</svg>
