<?xml version="1.0" encoding="UTF-8"?>
<!DOCTYPE svg PUBLIC "-//W3C//DTD SVG 1.1//EN" "http://www.w3.org/Graphics/SVG/1.1/DTD/svg11.dtd">
<svg xmlns="http://www.w3.org/2000/svg" version="1.1" width="96px" height="96px" style="shape-rendering:geometricPrecision; text-rendering:geometricPrecision; image-rendering:optimizeQuality; fill-rule:evenodd; clip-rule:evenodd" xmlns:xlink="http://www.w3.org/1999/xlink">
<g><path style="opacity:1" fill="#515c39" d="M 2.5,2.5 C 32.5,2.5 62.5,2.5 92.5,2.5C 92.5,32.5 92.5,62.5 92.5,92.5C 62.5,92.5 32.5,92.5 2.5,92.5C 2.5,62.5 2.5,32.5 2.5,2.5 Z"/></g>
<g><path style="opacity:1" fill="#6f7a55" d="M 4.5,4.5 C 33.1667,4.5 61.8333,4.5 90.5,4.5C 90.5,33.1667 90.5,61.8333 90.5,90.5C 61.8333,90.5 33.1667,90.5 4.5,90.5C 4.5,61.8333 4.5,33.1667 4.5,4.5 Z"/></g>
<g><path style="opacity:1" fill="#7b8760" d="M 5.5,5.5 C 33.5,5.5 61.5,5.5 89.5,5.5C 89.5,33.5 89.5,61.5 89.5,89.5C 61.5,89.5 33.5,89.5 5.5,89.5C 5.5,61.5 5.5,33.5 5.5,5.5 Z"/></g>
<g><path style="opacity:1" fill="#b1be98" d="M 47.5,21.5 C 46.7321,20.7375 46.2321,19.7375 46,18.5C 45.7216,19.4158 45.2216,20.0825 44.5,20.5C 44.1774,16.774 44.5108,13.1073 45.5,9.5C 46.4938,13.4525 47.1604,17.4525 47.5,21.5 Z"/></g>
<g><path style="opacity:1" fill="#a8b38b" d="M 43.5,35.5 C 43.6664,43.1739 43.4997,50.8406 43,58.5C 39.5044,59.203 36.0044,59.8697 32.5,60.5C 31.391,60.5569 30.391,60.8902 29.5,61.5C 30.0065,60.1411 31.0065,59.1411 32.5,58.5C 35.7683,57.513 39.1016,57.1796 42.5,57.5C 42.175,49.9809 42.5084,42.6476 43.5,35.5 Z"/></g>
<g><path style="opacity:1" fill="#ebf1cf" d="M 47.5,21.5 C 47.5,25.1667 47.5,28.8333 47.5,32.5C 48.7492,46.3177 48.7492,59.9844 47.5,73.5C 47.5,67.8333 47.5,62.1667 47.5,56.5C 46.5,56.5 45.5,56.5 44.5,56.5C 44.5,58.5 44.5,60.5 44.5,62.5C 41.6391,62.6584 38.9724,61.9917 36.5,60.5C 35.1508,60.8457 33.8175,61.179 32.5,61.5C 32.5,61.1667 32.5,60.8333 32.5,60.5C 36.0044,59.8697 39.5044,59.203 43,58.5C 43.4997,50.8406 43.6664,43.1739 43.5,35.5C 43.3375,30.453 43.6708,25.453 44.5,20.5C 45.2216,20.0825 45.7216,19.4158 46,18.5C 46.2321,19.7375 46.7321,20.7375 47.5,21.5 Z"/></g>
<g><path style="opacity:1" fill="#b0b892" d="M 47.5,32.5 C 48.1667,33.8333 48.8333,35.1667 49.5,36.5C 49.3335,48.8378 49.5001,61.1712 50,73.5C 50.1829,70.6353 50.6829,67.9686 51.5,65.5C 51.6646,68.5184 51.498,71.5184 51,74.5C 49.7083,75.7911 48.5417,75.7911 47.5,74.5C 47.5,74.1667 47.5,73.8333 47.5,73.5C 48.7492,59.9844 48.7492,46.3177 47.5,32.5 Z"/></g>
<g><path style="opacity:1" fill="#abb48e" d="M 75.5,59.5 C 72.2118,59.0156 69.5452,60.0156 67.5,62.5C 69.051,57.4814 71.7177,56.4814 75.5,59.5 Z"/></g>
<g><path style="opacity:1" fill="#dee5c2" d="M 75.5,59.5 C 77.0269,59.427 78.0269,60.0937 78.5,61.5C 78.7947,63.7354 78.4614,65.7354 77.5,67.5C 77.996,60.9156 75.496,59.249 70,62.5C 69.5065,64.1341 69.3398,65.8008 69.5,67.5C 67.7868,66.3646 67.1201,64.698 67.5,62.5C 69.5452,60.0156 72.2118,59.0156 75.5,59.5 Z"/></g>
<g><path style="opacity:1" fill="#a7b28b" d="M 55.5,61.5 C 56.2739,60.8529 57.2739,60.5195 58.5,60.5C 60.3545,60.3402 61.6879,61.0069 62.5,62.5C 61.8333,62.5 61.1667,62.5 60.5,62.5C 59.0813,61.5489 57.4147,61.2155 55.5,61.5 Z"/></g>
<g><path style="opacity:1" fill="#f8fbdc" d="M 47.5,73.5 C 47.5,73.8333 47.5,74.1667 47.5,74.5C 46.2241,75.3864 46.2241,76.3864 47.5,77.5C 48.7946,76.9017 50.1279,76.4017 51.5,76C 52.2883,72.9243 52.7883,69.7577 53,66.5C 54.5771,63.4612 57.0771,62.1279 60.5,62.5C 61.1667,62.5 61.8333,62.5 62.5,62.5C 62.5,63.1667 62.5,63.8333 62.5,64.5C 62.1568,66.4832 62.8235,67.8166 64.5,68.5C 65.461,72.5081 66.7943,76.1748 68.5,79.5C 69.9187,80.4511 71.5853,80.7845 73.5,80.5C 73.5,81.5 73.5,82.5 73.5,83.5C 71.8967,83.3118 70.5634,83.8118 69.5,85C 52.8367,85.4999 36.17,85.6666 19.5,85.5C 18.8333,85.5 18.5,85.1667 18.5,84.5C 15.365,81.3635 14.6983,77.6969 16.5,73.5C 18.4352,72.8505 20.4352,72.5172 22.5,72.5C 22.0535,75.0101 22.7202,77.0101 24.5,78.5C 25.1667,78.5 25.5,78.8333 25.5,79.5C 26.287,81.1042 27.6203,81.7709 29.5,81.5C 29.5905,78.8478 28.9238,76.5145 27.5,74.5C 27.2633,70.7267 27.7633,67.0601 29,63.5C 30.1127,62.695 31.2794,62.0283 32.5,61.5C 33.8175,61.179 35.1508,60.8457 36.5,60.5C 38.9724,61.9917 41.6391,62.6584 44.5,62.5C 44.5,60.5 44.5,58.5 44.5,56.5C 45.5,56.5 46.5,56.5 47.5,56.5C 47.5,62.1667 47.5,67.8333 47.5,73.5 Z"/></g>
<g><path style="opacity:1" fill="#8b966f" d="M 49.5,36.5 C 50.3297,45.324 50.8297,54.324 51,63.5C 51.3826,62.944 51.8826,62.6107 52.5,62.5C 52.7373,63.791 52.404,64.791 51.5,65.5C 50.6829,67.9686 50.1829,70.6353 50,73.5C 49.5001,61.1712 49.3335,48.8378 49.5,36.5 Z"/></g>
<g><path style="opacity:1" fill="#f5fbda" d="M 77.5,67.5 C 76.8333,68.1667 76.1667,68.8333 75.5,69.5C 72.9899,69.9465 70.9899,69.2798 69.5,67.5C 69.3398,65.8008 69.5065,64.1341 70,62.5C 75.496,59.249 77.996,60.9156 77.5,67.5 Z"/></g>
<g><path style="opacity:1" fill="#e0e8c4" d="M 55.5,61.5 C 57.4147,61.2155 59.0813,61.5489 60.5,62.5C 57.0771,62.1279 54.5771,63.4612 53,66.5C 52.7883,69.7577 52.2883,72.9243 51.5,76C 50.1279,76.4017 48.7946,76.9017 47.5,77.5C 46.2241,76.3864 46.2241,75.3864 47.5,74.5C 48.5417,75.7911 49.7083,75.7911 51,74.5C 51.498,71.5184 51.6646,68.5184 51.5,65.5C 52.404,64.791 52.7373,63.791 52.5,62.5C 53.391,61.8902 54.391,61.5569 55.5,61.5 Z"/></g>
<g><path style="opacity:1" fill="#bec8a2" d="M 62.5,64.5 C 63.1667,65.5 63.8333,66.5 64.5,67.5C 64.5,67.8333 64.5,68.1667 64.5,68.5C 62.8235,67.8166 62.1568,66.4832 62.5,64.5 Z"/></g>
<g><path style="opacity:1" fill="#d2dbb8" d="M 32.5,60.5 C 32.5,60.8333 32.5,61.1667 32.5,61.5C 31.2794,62.0283 30.1127,62.695 29,63.5C 27.7633,67.0601 27.2633,70.7267 27.5,74.5C 26.5206,71.3752 26.1872,68.0419 26.5,64.5C 27.2719,63.3065 28.2719,62.3065 29.5,61.5C 30.391,60.8902 31.391,60.5569 32.5,60.5 Z"/></g>
<g><path style="opacity:1" fill="#939f77" d="M 67.5,62.5 C 67.1201,64.698 67.7868,66.3646 69.5,67.5C 70.9899,69.2798 72.9899,69.9465 75.5,69.5C 72.7892,70.2434 70.1225,70.5768 67.5,70.5C 66.5,69.8333 65.5,69.1667 64.5,68.5C 64.5,68.1667 64.5,67.8333 64.5,67.5C 66.0276,66.1979 67.0276,64.5313 67.5,62.5 Z"/></g>
<g><path style="opacity:1" fill="#a5b18a" d="M 78.5,61.5 C 79.6291,63.6282 79.7958,65.9615 79,68.5C 77.9887,69.3366 76.8221,69.67 75.5,69.5C 76.1667,68.8333 76.8333,68.1667 77.5,67.5C 78.4614,65.7354 78.7947,63.7354 78.5,61.5 Z"/></g>
<g><path style="opacity:1" fill="#9ba780" d="M 26.5,64.5 C 26.1872,68.0419 26.5206,71.3752 27.5,74.5C 27.9227,76.7812 27.256,78.4479 25.5,79.5C 25.5,78.8333 25.1667,78.5 24.5,78.5C 24.5,77.1667 24.5,75.8333 24.5,74.5C 25.1667,71.1667 25.8333,67.8333 26.5,64.5 Z"/></g>
<g><path style="opacity:1" fill="#bbc8a2" d="M 16.5,73.5 C 14.6983,77.6969 15.365,81.3635 18.5,84.5C 16.9826,84.4894 15.8159,83.8228 15,82.5C 14.3333,79.8333 14.3333,77.1667 15,74.5C 15.3826,73.944 15.8826,73.6107 16.5,73.5 Z"/></g>
<g><path style="opacity:1" fill="#d9e3bf" d="M 24.5,74.5 C 24.5,75.8333 24.5,77.1667 24.5,78.5C 22.7202,77.0101 22.0535,75.0101 22.5,72.5C 20.4352,72.5172 18.4352,72.8505 16.5,73.5C 16.6107,72.8826 16.944,72.3826 17.5,72C 19.4727,71.5045 21.4727,71.3379 23.5,71.5C 23.2627,72.791 23.596,73.791 24.5,74.5 Z"/></g>
<g><path style="opacity:1" fill="#c0caa4" d="M 64.5,68.5 C 65.5,69.1667 66.5,69.8333 67.5,70.5C 68.4025,73.3915 68.7359,76.3915 68.5,79.5C 66.7943,76.1748 65.461,72.5081 64.5,68.5 Z"/></g>
<g><path style="opacity:1" fill="#d0dab7" d="M 27.5,74.5 C 28.9238,76.5145 29.5905,78.8478 29.5,81.5C 27.6203,81.7709 26.287,81.1042 25.5,79.5C 27.256,78.4479 27.9227,76.7812 27.5,74.5 Z"/></g>
<g><path style="opacity:1" fill="#a8b48d" d="M 68.5,79.5 C 70.5,79.5 72.5,79.5 74.5,79.5C 74.5,81.1667 74.5,82.8333 74.5,84.5C 64.954,85.7542 55.2873,86.4209 45.5,86.5C 36.6601,86.4998 27.9934,86.1664 19.5,85.5C 36.17,85.6666 52.8367,85.4999 69.5,85C 70.5634,83.8118 71.8967,83.3118 73.5,83.5C 73.5,82.5 73.5,81.5 73.5,80.5C 71.5853,80.7845 69.9187,80.4511 68.5,79.5 Z"/></g>
</svg>
