<?xml version="1.0" encoding="UTF-8"?>
<!DOCTYPE svg PUBLIC "-//W3C//DTD SVG 1.1//EN" "http://www.w3.org/Graphics/SVG/1.1/DTD/svg11.dtd">
<svg xmlns="http://www.w3.org/2000/svg" version="1.1" width="96px" height="96px" style="shape-rendering:geometricPrecision; text-rendering:geometricPrecision; image-rendering:optimizeQuality; fill-rule:evenodd; clip-rule:evenodd" xmlns:xlink="http://www.w3.org/1999/xlink">
<g><path style="opacity:1" fill="#380501" d="M 2.5,2.5 C 32.5,2.5 62.5,2.5 92.5,2.5C 92.5,32.5 92.5,62.5 92.5,92.5C 62.5,92.5 32.5,92.5 2.5,92.5C 2.5,62.5 2.5,32.5 2.5,2.5 Z"/></g>
<g><path style="opacity:1" fill="#6a4c46" d="M 90.5,4.5 C 91.8333,33.1667 91.8333,61.8333 90.5,90.5C 61.8333,90.5 33.1667,90.5 4.5,90.5C 4.5,61.8333 4.5,33.1667 4.5,4.5C 33.1667,4.5 61.8333,4.5 90.5,4.5 Z"/></g>
<g><path style="opacity:1" fill="#4f2b23" d="M 90.5,4.5 C 61.8333,4.5 33.1667,4.5 4.5,4.5C 4.5,33.1667 4.5,61.8333 4.5,90.5C 33.1667,90.5 61.8333,90.5 90.5,90.5C 61.6715,91.498 32.6715,91.8314 3.5,91.5C 3.5,62.1667 3.5,32.8333 3.5,3.5C 32.6715,3.16863 61.6715,3.50197 90.5,4.5 Z"/></g>
<g><path style="opacity:1" fill="#f1efef" d="M 41.5,48.5 C 41.56,49.0431 41.8933,49.3764 42.5,49.5C 43.4948,44.2079 43.8282,38.8746 43.5,33.5C 44.4822,25.0005 45.3156,16.3339 46,7.5C 47.5195,21.1263 48.3529,34.793 48.5,48.5C 51.1149,47.357 53.7816,46.5237 56.5,46C 55.4527,48.9788 54.1194,51.8121 52.5,54.5C 53.7287,55.2811 55.062,55.7811 56.5,56C 54.2046,59.2974 51.538,62.2974 48.5,65C 46.5,65.6667 44.5,65.6667 42.5,65C 40.3555,62.0211 38.0222,59.1878 35.5,56.5C 36.325,55.6143 37.325,55.281 38.5,55.5C 38.2226,52.1102 37.2226,48.9435 35.5,46C 37.5198,46.4509 39.5198,47.2843 41.5,48.5 Z"/></g>
<g><path style="opacity:1" fill="#bfb5b3" d="M 22.5,31.5 C 21.5386,33.2646 21.2053,35.2646 21.5,37.5C 20.353,33.3537 20.1864,29.0204 21,24.5C 21.662,26.8127 22.162,29.146 22.5,31.5 Z"/></g>
<g><path style="opacity:1" fill="#f3f1f1" d="M 22.5,31.5 C 25.7479,44.0656 28.7479,56.7323 31.5,69.5C 32.1835,69.1373 32.8501,68.8039 33.5,68.5C 34.3764,68.3691 35.0431,68.7025 35.5,69.5C 34.8333,71.5 34.1667,73.5 33.5,75.5C 33.6236,76.1067 33.9569,76.44 34.5,76.5C 36.5273,76.3379 38.5273,76.5045 40.5,77C 38.1294,79.706 35.4628,82.0394 32.5,84C 26.8708,85.7545 22.5374,84.2545 19.5,79.5C 20.2778,78.8444 20.9444,78.0111 21.5,77C 21.4301,76.2352 21.0967,75.7352 20.5,75.5C 19.5592,73.9505 18.8925,72.2838 18.5,70.5C 19.9187,69.5489 21.5853,69.2155 23.5,69.5C 23.7845,67.5853 23.4511,65.9187 22.5,64.5C 21.5289,55.5839 21.1956,46.5839 21.5,37.5C 21.2053,35.2646 21.5386,33.2646 22.5,31.5 Z"/></g>
<g><path style="opacity:1" fill="#cdc3c2" d="M 70.5,51.5 C 70.1667,51.5 69.8333,51.5 69.5,51.5C 69.6657,47.1539 69.499,42.8206 69,38.5C 68.7206,41.4568 67.8873,44.1234 66.5,46.5C 66.8503,39.5163 68.3503,32.8497 71,26.5C 71.6217,34.8522 71.455,43.1856 70.5,51.5 Z"/></g>
<g><path style="opacity:1" fill="#f7f6f5" d="M 69.5,51.5 C 69.1707,57.5368 69.5041,63.5368 70.5,69.5C 71.1067,69.3764 71.44,69.0431 71.5,68.5C 72.8583,67.3744 74.1916,67.3744 75.5,68.5C 73.9019,70.6979 72.5686,73.0313 71.5,75.5C 70.9033,75.7352 70.5699,76.2352 70.5,77C 71.0556,78.0111 71.7222,78.8444 72.5,79.5C 65.856,86.3809 59.5227,86.0476 53.5,78.5C 54.8333,77.8333 56.1667,77.1667 57.5,76.5C 56.8379,73.8516 56.1712,71.1849 55.5,68.5C 55.8333,67.8333 56.1667,67.1667 56.5,66.5C 57.9684,68.3329 59.6351,68.6662 61.5,67.5C 63.0584,60.3525 64.7251,53.3525 66.5,46.5C 67.8873,44.1234 68.7206,41.4568 69,38.5C 69.499,42.8206 69.6657,47.1539 69.5,51.5 Z"/></g>
<g><path style="opacity:1" fill="#ac9c99" d="M 43.5,33.5 C 43.8282,38.8746 43.4948,44.2079 42.5,49.5C 41.8933,49.3764 41.56,49.0431 41.5,48.5C 42.1667,43.5 42.8333,38.5 43.5,33.5 Z"/></g>
<g><path style="opacity:1" fill="#a08e8a" d="M 69.5,51.5 C 69.8333,51.5 70.1667,51.5 70.5,51.5C 70.1778,57.358 70.5111,63.0247 71.5,68.5C 71.44,69.0431 71.1067,69.3764 70.5,69.5C 69.5041,63.5368 69.1707,57.5368 69.5,51.5 Z"/></g>
<g><path style="opacity:1" fill="#d5cdcc" d="M 22.5,64.5 C 23.4511,65.9187 23.7845,67.5853 23.5,69.5C 21.5853,69.2155 19.9187,69.5489 18.5,70.5C 16.2721,69.6782 15.6054,68.3448 16.5,66.5C 18.323,67.7472 20.323,68.4139 22.5,68.5C 22.5,67.1667 22.5,65.8333 22.5,64.5 Z"/></g>
<g><path style="opacity:1" fill="#ccc3c1" d="M 34.5,76.5 C 33.9569,76.44 33.6236,76.1067 33.5,75.5C 34.1667,73.5 34.8333,71.5 35.5,69.5C 35.0431,68.7025 34.3764,68.3691 33.5,68.5C 34.9671,65.7684 35.9671,65.9351 36.5,69C 36.0596,71.5974 35.3929,74.0974 34.5,76.5 Z"/></g>
<g><path style="opacity:1" fill="#c5bab8" d="M 57.5,76.5 C 56.1667,77.1667 54.8333,77.8333 53.5,78.5C 52.6236,78.6309 51.9569,78.2975 51.5,77.5C 53.396,76.5344 55.396,76.2011 57.5,76.5 Z"/></g>
<g><path style="opacity:1" fill="#c5bbb9" d="M 20.5,75.5 C 21.0967,75.7352 21.4301,76.2352 21.5,77C 20.9444,78.0111 20.2778,78.8444 19.5,79.5C 18.0047,79.5852 17.0047,78.9185 16.5,77.5C 17.9492,76.8281 19.2825,76.1614 20.5,75.5 Z"/></g>
<g><path style="opacity:1" fill="#c7bdbb" d="M 71.5,75.5 C 72.7175,76.1614 74.0508,76.8281 75.5,77.5C 74.9953,78.9185 73.9953,79.5852 72.5,79.5C 71.7222,78.8444 71.0556,78.0111 70.5,77C 70.5699,76.2352 70.9033,75.7352 71.5,75.5 Z"/></g>
</svg>
