<?xml version="1.0" encoding="UTF-8"?>
<!DOCTYPE svg PUBLIC "-//W3C//DTD SVG 1.1//EN" "http://www.w3.org/Graphics/SVG/1.1/DTD/svg11.dtd">
<svg xmlns="http://www.w3.org/2000/svg" version="1.1" width="96px" height="96px" style="shape-rendering:geometricPrecision; text-rendering:geometricPrecision; image-rendering:optimizeQuality; fill-rule:evenodd; clip-rule:evenodd" xmlns:xlink="http://www.w3.org/1999/xlink">
<g><path style="opacity:1" fill="#030201" d="M 2.5,2.5 C 32.5,2.5 62.5,2.5 92.5,2.5C 92.5,32.5 92.5,62.5 92.5,92.5C 62.5,92.5 32.5,92.5 2.5,92.5C 2.5,62.5 2.5,32.5 2.5,2.5 Z"/></g>
<g><path style="opacity:1" fill="#392924" d="M 3.5,3.5 C 32.8333,3.5 62.1667,3.5 91.5,3.5C 91.5,32.8333 91.5,62.1667 91.5,91.5C 62.1667,91.5 32.8333,91.5 3.5,91.5C 3.5,62.1667 3.5,32.8333 3.5,3.5 Z"/></g>
<g><path style="opacity:1" fill="#684b40" d="M 90.5,87.5 C 89.5,85.5 88.5,83.5 87.5,81.5C 88.5275,57.2341 88.6942,32.5674 88,7.5C 76.8045,6.00089 65.6378,6.33422 54.5,8.5C 51.1501,8.33499 47.8168,8.50166 44.5,9C 43.944,9.38258 43.6107,9.88258 43.5,10.5C 42.391,10.5569 41.391,10.8902 40.5,11.5C 38.9147,10.5263 37.9147,9.02626 37.5,7C 27.2562,6.18137 17.0895,6.34803 7,7.5C 6.30581,32.5674 6.47247,57.2341 7.5,81.5C 6.5,83.5 5.5,85.5 4.5,87.5C 4.5,59.8333 4.5,32.1667 4.5,4.5C 33.1667,4.5 61.8333,4.5 90.5,4.5C 90.5,32.1667 90.5,59.8333 90.5,87.5 Z"/></g>
<g><path style="opacity:1" fill="#6b4d48" d="M 40.5,11.5 C 32.7662,17.1701 30.2662,24.8368 33,34.5C 33.414,34.9574 33.914,35.2907 34.5,35.5C 35.6622,33.1756 36.8289,30.8422 38,28.5C 39.3297,27.4178 40.8297,26.7512 42.5,26.5C 44.4352,25.8505 46.4352,25.5172 48.5,25.5C 49.1909,27.0222 50.3576,28.0222 52,28.5C 54.4333,27.5212 56.9333,26.8545 59.5,26.5C 62.5,26.5 65.5,26.5 68.5,26.5C 68.7373,25.209 68.404,24.209 67.5,23.5C 67.2517,14.9852 62.9184,10.3185 54.5,9.5C 54.5,9.16667 54.5,8.83333 54.5,8.5C 65.6378,6.33422 76.8045,6.00089 88,7.5C 88.6942,32.5674 88.5275,57.2341 87.5,81.5C 84.3269,72.8229 80.6602,64.3229 76.5,56C 77.7375,55.7679 78.7375,55.2679 79.5,54.5C 82.9173,52.5188 83.2506,50.1854 80.5,47.5C 79.1502,48.9501 77.4835,49.6168 75.5,49.5C 73.1907,45.5277 71.3574,41.1944 70,36.5C 69.1072,35.2888 68.2739,35.2888 67.5,36.5C 69.0668,42.0417 71.0668,47.3751 73.5,52.5C 73.3284,53.4916 73.6618,54.1583 74.5,54.5C 77.1055,66.64 80.1055,78.64 83.5,90.5C 79.1667,90.5 74.8333,90.5 70.5,90.5C 69.8279,87.2904 68.8279,84.1237 67.5,81C 68.0556,79.9889 68.7222,79.1556 69.5,78.5C 70.8333,76.8333 70.8333,75.1667 69.5,73.5C 66.2663,72.9114 64.933,70.9114 65.5,67.5C 64.5942,61.3955 63.2609,55.3955 61.5,49.5C 61.1667,50.3333 60.8333,51.1667 60.5,52C 61.0337,57.7218 62.0337,63.2218 63.5,68.5C 63.9469,75.8631 64.6135,83.1965 65.5,90.5C 53.5,90.5 41.5,90.5 29.5,90.5C 30.6511,77.6082 32.3178,64.7748 34.5,52C 34.1667,50.8333 33.8333,49.6667 33.5,48.5C 30.8631,62.6688 27.8631,76.6688 24.5,90.5C 20.1667,90.5 15.8333,90.5 11.5,90.5C 11.6744,87.1262 12.1744,83.7928 13,80.5C 16.3994,71.6604 19.2327,62.6604 21.5,53.5C 23.258,53.8769 24.9246,54.5435 26.5,55.5C 28.543,54.4206 29.8763,52.754 30.5,50.5C 29.0569,47.9235 27.3902,45.5901 25.5,43.5C 25.4621,40.8187 26.1287,38.3187 27.5,36C 27.1667,35.5 26.8333,35 26.5,34.5C 25.5113,36.5862 24.178,38.2529 22.5,39.5C 20.3926,38.5318 18.0593,38.1984 15.5,38.5C 15.5,39.8333 15.5,41.1667 15.5,42.5C 14.7839,44.5563 14.1172,46.723 13.5,49C 15.0632,50.736 16.7299,52.236 18.5,53.5C 14.8308,62.8426 11.1641,72.1759 7.5,81.5C 6.47247,57.2341 6.30581,32.5674 7,7.5C 17.0895,6.34803 27.2562,6.18137 37.5,7C 37.9147,9.02626 38.9147,10.5263 40.5,11.5 Z"/></g>
<g><path style="opacity:1" fill="#b6a8a5" d="M 67.5,23.5 C 68.404,24.209 68.7373,25.209 68.5,26.5C 65.5,26.5 62.5,26.5 59.5,26.5C 62.4766,26.0984 65.1433,25.0984 67.5,23.5 Z"/></g>
<g><path style="opacity:1" fill="#f9f8f7" d="M 54.5,9.5 C 62.9184,10.3185 67.2517,14.9852 67.5,23.5C 65.1433,25.0984 62.4766,26.0984 59.5,26.5C 56.9333,26.8545 54.4333,27.5212 52,28.5C 50.3576,28.0222 49.1909,27.0222 48.5,25.5C 47.9032,24.8614 47.0698,24.528 46,24.5C 44.3009,24.3866 43.1342,25.0532 42.5,26.5C 40.8297,26.7512 39.3297,27.4178 38,28.5C 36.8289,30.8422 35.6622,33.1756 34.5,35.5C 33.914,35.2907 33.414,34.9574 33,34.5C 30.2662,24.8368 32.7662,17.1701 40.5,11.5C 41.391,10.8902 42.391,10.5569 43.5,10.5C 47.0991,9.65608 50.7657,9.32274 54.5,9.5 Z"/></g>
<g><path style="opacity:1" fill="#beb0ad" d="M 48.5,25.5 C 46.4352,25.5172 44.4352,25.8505 42.5,26.5C 43.1342,25.0532 44.3009,24.3866 46,24.5C 47.0698,24.528 47.9032,24.8614 48.5,25.5 Z"/></g>
<g><path style="opacity:1" fill="#a79491" d="M 54.5,8.5 C 54.5,8.83333 54.5,9.16667 54.5,9.5C 50.7657,9.32274 47.0991,9.65608 43.5,10.5C 43.6107,9.88258 43.944,9.38258 44.5,9C 47.8168,8.50166 51.1501,8.33499 54.5,8.5 Z"/></g>
<g><path style="opacity:1" fill="#88706a" d="M 41.5,34.5 C 44.6248,33.5206 47.9581,33.1872 51.5,33.5C 51.8174,36.5719 51.4841,39.5719 50.5,42.5C 49.7348,43.6119 48.7348,44.2786 47.5,44.5C 52.9966,36.6364 50.9966,33.3031 41.5,34.5 Z"/></g>
<g><path style="opacity:1" fill="#f5f2f2" d="M 41.5,34.5 C 50.9966,33.3031 52.9966,36.6364 47.5,44.5C 47.1667,44.5 46.8333,44.5 46.5,44.5C 46.0269,43.0937 45.0269,42.427 43.5,42.5C 42.8826,42.3893 42.3826,42.056 42,41.5C 41.5034,39.1902 41.3367,36.8568 41.5,34.5 Z"/></g>
<g><path style="opacity:1" fill="#a99592" d="M 22.5,39.5 C 20.5,39.5 18.5,39.5 16.5,39.5C 16.7373,40.791 16.404,41.791 15.5,42.5C 16.404,41.791 16.7373,40.791 16.5,39.5C 18.5,39.5 20.5,39.5 22.5,39.5 Z"/></g>
<g><path style="opacity:1" fill="#f6f4f3" d="M 22.5,39.5 C 22.7376,41.4044 23.7376,42.7377 25.5,43.5C 27.3902,45.5901 29.0569,47.9235 30.5,50.5C 29.8763,52.754 28.543,54.4206 26.5,55.5C 24.9246,54.5435 23.258,53.8769 21.5,53.5C 20.5,53.5 19.5,53.5 18.5,53.5C 16.7299,52.236 15.0632,50.736 13.5,49C 14.1172,46.723 14.7839,44.5563 15.5,42.5C 16.404,41.791 16.7373,40.791 16.5,39.5C 18.5,39.5 20.5,39.5 22.5,39.5 Z"/></g>
<g><path style="opacity:1" fill="#8f7c79" d="M 25.5,43.5 C 23.7376,42.7377 22.7376,41.4044 22.5,39.5C 24.178,38.2529 25.5113,36.5862 26.5,34.5C 26.8333,35 27.1667,35.5 27.5,36C 26.1287,38.3187 25.4621,40.8187 25.5,43.5 Z"/></g>
<g><path style="opacity:1" fill="#b0a09b" d="M 43.5,42.5 C 45.0269,42.427 46.0269,43.0937 46.5,44.5C 44.9731,44.573 43.9731,43.9063 43.5,42.5 Z"/></g>
<g><path style="opacity:1" fill="#8b7f7c" d="M 75.5,49.5 C 75.0679,50.7095 74.4013,51.7095 73.5,52.5C 71.0668,47.3751 69.0668,42.0417 67.5,36.5C 68.2739,35.2888 69.1072,35.2888 70,36.5C 71.3574,41.1944 73.1907,45.5277 75.5,49.5 Z"/></g>
<g><path style="opacity:1" fill="#efeaeb" d="M 79.5,54.5 C 77.8333,54.5 76.1667,54.5 74.5,54.5C 73.6618,54.1583 73.3284,53.4916 73.5,52.5C 74.4013,51.7095 75.0679,50.7095 75.5,49.5C 77.4835,49.6168 79.1502,48.9501 80.5,47.5C 83.2506,50.1854 82.9173,52.5188 79.5,54.5 Z"/></g>
<g><path style="opacity:1" fill="#f1edee" d="M 51.5,64.5 C 50.0413,64.5674 48.7079,64.2341 47.5,63.5C 46.2003,62.399 45.7003,61.0657 46,59.5C 48.2235,57.946 50.7235,56.946 53.5,56.5C 55.1683,59.8652 54.5017,62.5318 51.5,64.5 Z"/></g>
<g><path style="opacity:1" fill="#897a7a" d="M 65.5,67.5 C 64.0335,64.7417 63.3668,65.075 63.5,68.5C 62.0337,63.2218 61.0337,57.7218 60.5,52C 60.8333,51.1667 61.1667,50.3333 61.5,49.5C 63.2609,55.3955 64.5942,61.3955 65.5,67.5 Z"/></g>
<g><path style="opacity:1" fill="#968d8b" d="M 18.5,53.5 C 19.5,53.5 20.5,53.5 21.5,53.5C 19.2327,62.6604 16.3994,71.6604 13,80.5C 12.1744,83.7928 11.6744,87.1262 11.5,90.5C 9.16667,90.5 6.83333,90.5 4.5,90.5C 4.5,89.5 4.5,88.5 4.5,87.5C 5.5,85.5 6.5,83.5 7.5,81.5C 11.1641,72.1759 14.8308,62.8426 18.5,53.5 Z"/></g>
<g><path style="opacity:1" fill="#938988" d="M 29.5,90.5 C 27.8333,90.5 26.1667,90.5 24.5,90.5C 27.8631,76.6688 30.8631,62.6688 33.5,48.5C 33.8333,49.6667 34.1667,50.8333 34.5,52C 32.3178,64.7748 30.6511,77.6082 29.5,90.5 Z"/></g>
<g><path style="opacity:1" fill="#968d8b" d="M 74.5,54.5 C 76.1667,54.5 77.8333,54.5 79.5,54.5C 78.7375,55.2679 77.7375,55.7679 76.5,56C 80.6602,64.3229 84.3269,72.8229 87.5,81.5C 88.5,83.5 89.5,85.5 90.5,87.5C 90.5,88.5 90.5,89.5 90.5,90.5C 88.1667,90.5 85.8333,90.5 83.5,90.5C 80.1055,78.64 77.1055,66.64 74.5,54.5 Z"/></g>
<g><path style="opacity:1" fill="#ebe9e7" d="M 69.5,73.5 C 70.8333,75.1667 70.8333,76.8333 69.5,78.5C 66.9162,77.9517 65.9162,76.285 66.5,73.5C 67.5,73.5 68.5,73.5 69.5,73.5 Z"/></g>
<g><path style="opacity:1" fill="#948a86" d="M 47.5,63.5 C 48.7079,64.2341 50.0413,64.5674 51.5,64.5C 50.2872,66.8922 49.6205,69.5589 49.5,72.5C 50.0326,78.1582 50.366,83.8249 50.5,89.5C 49.1667,89.5 47.8333,89.5 46.5,89.5C 46.7384,80.8288 47.0718,72.1622 47.5,63.5 Z"/></g>
<g><path style="opacity:1" fill="#9c9492" d="M 65.5,67.5 C 64.933,70.9114 66.2663,72.9114 69.5,73.5C 68.5,73.5 67.5,73.5 66.5,73.5C 65.9162,76.285 66.9162,77.9517 69.5,78.5C 68.7222,79.1556 68.0556,79.9889 67.5,81C 68.8279,84.1237 69.8279,87.2904 70.5,90.5C 68.8333,90.5 67.1667,90.5 65.5,90.5C 64.6135,83.1965 63.9469,75.8631 63.5,68.5C 63.3668,65.075 64.0335,64.7417 65.5,67.5 Z"/></g>
</svg>
