<?xml version="1.0" encoding="UTF-8"?>
<!DOCTYPE svg PUBLIC "-//W3C//DTD SVG 1.1//EN" "http://www.w3.org/Graphics/SVG/1.1/DTD/svg11.dtd">
<svg xmlns="http://www.w3.org/2000/svg" version="1.1" width="96px" height="96px" style="shape-rendering:geometricPrecision; text-rendering:geometricPrecision; image-rendering:optimizeQuality; fill-rule:evenodd; clip-rule:evenodd" xmlns:xlink="http://www.w3.org/1999/xlink">
<g><path style="opacity:1" fill="#124047" d="M 2.5,2.5 C 32.5,2.5 62.5,2.5 92.5,2.5C 92.5,32.5 92.5,62.5 92.5,92.5C 62.5,92.5 32.5,92.5 2.5,92.5C 2.5,62.5 2.5,32.5 2.5,2.5 Z"/></g>
<g><path style="opacity:1" fill="#48686e" d="M 4.5,4.5 C 33.1667,4.5 61.8333,4.5 90.5,4.5C 90.5,33.1667 90.5,61.8333 90.5,90.5C 61.8333,90.5 33.1667,90.5 4.5,90.5C 4.5,61.8333 4.5,33.1667 4.5,4.5 Z"/></g>
<g><path style="opacity:1" fill="#91a3a7" d="M 68.5,9.5 C 65.1276,8.48088 61.7943,8.48088 58.5,9.5C 59.4919,7.9735 60.9919,7.30684 63,7.5C 65.2206,7.39317 67.0539,8.05984 68.5,9.5 Z"/></g>
<g><path style="opacity:1" fill="#fafbfb" d="M 68.5,9.5 C 69.4959,9.41423 70.3292,9.74756 71,10.5C 71.6667,13.8333 71.6667,17.1667 71,20.5C 68.8526,21.1125 66.686,21.7792 64.5,22.5C 64.6236,23.1067 64.9569,23.44 65.5,23.5C 64.1952,31.5325 63.1952,39.6992 62.5,48C 62.5699,48.7648 62.9033,49.2648 63.5,49.5C 64.8916,52.0067 65.8916,54.6733 66.5,57.5C 66.4431,58.609 66.1098,59.609 65.5,60.5C 63.5531,61.4734 61.5531,62.4734 59.5,63.5C 61.8474,67.6002 62.5141,71.9335 61.5,76.5C 66.1807,77.1783 68.1807,79.845 67.5,84.5C 59.7203,86.4836 52.387,85.4836 45.5,81.5C 45.5,80.5 45.5,79.5 45.5,78.5C 47.4147,78.7845 49.0813,78.4511 50.5,77.5C 47.7819,72.3244 46.1153,66.6577 45.5,60.5C 45.5022,56.7217 47.1689,55.7217 50.5,57.5C 50.8333,56.8333 51.1667,56.1667 51.5,55.5C 50.8131,53.8228 50.1465,52.1561 49.5,50.5C 50.6489,47.9592 50.6489,45.4592 49.5,43C 41.5767,41.7645 33.5767,41.0979 25.5,41C 23.0271,38.5631 20.0271,37.3964 16.5,37.5C 16.7678,35.901 16.4345,34.5676 15.5,33.5C 14.7375,32.7321 13.7375,32.2321 12.5,32C 13.4558,28.6064 13.7892,25.1064 13.5,21.5C 20.6652,21.9252 27.6652,21.2585 34.5,19.5C 34.4399,15.5149 36.4399,13.8482 40.5,14.5C 45.5,14.5 50.5,14.5 55.5,14.5C 55.5,13.1667 55.5,11.8333 55.5,10.5C 56.209,9.59603 57.209,9.26269 58.5,9.5C 61.7943,8.48088 65.1276,8.48088 68.5,9.5 Z"/></g>
<g><path style="opacity:1" fill="#91a2a6" d="M 55.5,10.5 C 55.5,11.8333 55.5,13.1667 55.5,14.5C 50.5,14.5 45.5,14.5 40.5,14.5C 44.97,13.5139 49.6367,13.1805 54.5,13.5C 54.2627,12.209 54.596,11.209 55.5,10.5 Z"/></g>
<g><path style="opacity:1" fill="#a1b5b8" d="M 65.5,23.5 C 69.0297,22.9889 72.1963,23.6556 75,25.5C 75.4997,33.1594 75.6664,40.8261 75.5,48.5C 71.2984,48.1832 67.2984,48.5166 63.5,49.5C 62.9033,49.2648 62.5699,48.7648 62.5,48C 63.1952,39.6992 64.1952,31.5325 65.5,23.5 Z"/></g>
<g><path style="opacity:1" fill="#cad3d4" d="M 13.5,21.5 C 13.7892,25.1064 13.4558,28.6064 12.5,32C 13.7375,32.2321 14.7375,32.7321 15.5,33.5C 14.1667,33.5 12.8333,33.5 11.5,33.5C 11.8509,29.3164 12.5176,25.3164 13.5,21.5 Z"/></g>
<g><path style="opacity:1" fill="#48686e" d="M 31.5,38.5 C 30.3263,37.4863 29.6596,36.153 29.5,34.5C 29.6596,36.153 30.3263,37.4863 31.5,38.5 Z"/></g>
<g><path style="opacity:1" fill="#92a4a8" d="M 31.5,38.5 C 33.256,37.4479 33.9227,35.7812 33.5,33.5C 31.901,33.2322 30.5676,33.5655 29.5,34.5C 27.3754,33.6324 27.2087,32.6324 29,31.5C 30.7659,32.2335 32.5992,32.5668 34.5,32.5C 34.5,34.8333 34.5,37.1667 34.5,39.5C 33.209,39.7373 32.209,39.404 31.5,38.5 Z"/></g>
<g><path style="opacity:1" fill="#a4b7ba" d="M 15.5,33.5 C 16.4345,34.5676 16.7678,35.901 16.5,37.5C 20.0271,37.3964 23.0271,38.5631 25.5,41C 33.5767,41.0979 41.5767,41.7645 49.5,43C 50.6489,45.4592 50.6489,47.9592 49.5,50.5C 47.1691,49.9565 44.8357,49.6231 42.5,49.5C 41.52,52.0865 41.1866,54.7531 41.5,57.5C 40.5269,55.0521 40.1936,52.3854 40.5,49.5C 35.5,49.5 30.5,49.5 25.5,49.5C 25.3713,51.2161 25.038,52.8828 24.5,54.5C 23.8333,54.5 23.5,54.1667 23.5,53.5C 18.3595,52.5119 13.0262,52.1786 7.5,52.5C 7.5,48.5 7.5,44.5 7.5,40.5C 9.54517,38.0156 12.2118,37.0156 15.5,37.5C 15.5,36.1667 15.5,34.8333 15.5,33.5 Z"/></g>
<g><path style="opacity:1" fill="#f8f9f9" d="M 41.5,57.5 C 41.6495,58.552 41.4828,59.552 41,60.5C 39.2865,61.9763 37.4532,63.3096 35.5,64.5C 36.304,65.9411 36.9706,67.4411 37.5,69C 37.5599,72.8125 37.2265,76.6459 36.5,80.5C 40.1311,80.933 41.4644,82.7663 40.5,86C 36.1503,86.3683 31.817,86.8683 27.5,87.5C 24.4341,86.5491 21.6007,85.2158 19,83.5C 18.3622,80.0699 19.8622,78.7366 23.5,79.5C 21.1489,73.3889 20.3156,67.0555 21,60.5C 22.3513,58.981 23.8513,57.6477 25.5,56.5C 25.1373,55.8165 24.8039,55.1499 24.5,54.5C 25.038,52.8828 25.3713,51.2161 25.5,49.5C 30.5,49.5 35.5,49.5 40.5,49.5C 40.1936,52.3854 40.5269,55.0521 41.5,57.5 Z"/></g>
<g><path style="opacity:1" fill="#708b90" d="M 7.5,40.5 C 7.5,44.5 7.5,48.5 7.5,52.5C 13.0262,52.1786 18.3595,52.5119 23.5,53.5C 17.8333,53.5 12.1667,53.5 6.5,53.5C 6.18178,48.9677 6.51511,44.6344 7.5,40.5 Z"/></g>
<g><path style="opacity:1" fill="#95a5a9" d="M 66.5,57.5 C 67.8852,58.9473 67.5518,59.9473 65.5,60.5C 66.1098,59.609 66.4431,58.609 66.5,57.5 Z"/></g>
<g><path style="opacity:1" fill="#a1b1b3" d="M 50.5,77.5 C 49.0813,78.4511 47.4147,78.7845 45.5,78.5C 45.5,79.5 45.5,80.5 45.5,81.5C 44.5655,80.4324 44.2322,79.099 44.5,77.5C 46.5,77.5 48.5,77.5 50.5,77.5 Z"/></g>
</svg>
